<svg width="127" height="151" viewBox="0 0 127 151" fill="none" xmlns="http://www.w3.org/2000/svg">
<g clip-path="url(#clip0)" filter="url(#filter0_dddddd)">
<path d="M40.5707 53.0887C40.83 52.3124 40.3151 51.6681 40.1791 50.9643C39.9003 49.5133 39.5132 48.0879 40.0358 46.6175C40.0751 46.5219 40.0798 46.4156 40.0492 46.3169C39.18 44.5741 39.702 42.7413 39.6958 40.9389C39.6915 38.2036 40.1978 35.5368 40.9309 32.9136C41.0489 32.5258 41.1934 32.1465 41.3632 31.7784C41.6353 31.1497 41.9488 30.5346 41.4298 29.8755C41.3917 29.8243 41.3643 29.7659 41.3491 29.7039C41.3338 29.6419 41.3311 29.5775 41.341 29.5144C41.5803 28.6015 40.9646 28.1718 40.3711 27.6892C39.6522 27.083 39.0367 26.3639 38.5486 25.5602C38.231 25.0612 38.1827 24.6138 38.4857 24.1456C38.7886 23.6773 39.2472 23.6115 39.766 23.7309C39.9653 23.7607 40.1669 23.7723 40.3684 23.7654C40.9737 23.935 41.5815 23.7541 42.1871 23.7759C45.9714 23.9091 49.7613 23.6874 53.5404 23.6799C55.2093 23.6762 56.8205 23.3747 58.4641 23.2971C58.9475 23.2742 59.4334 23.1389 59.8577 23.5064C59.9013 23.5534 59.9595 23.5842 60.0228 23.5939C60.0861 23.6037 60.1509 23.5918 60.2066 23.5602C60.7811 23.1067 61.3834 23.3447 61.9571 23.5085C63.7079 24.0096 65.4937 23.8031 67.2694 23.804C69.6086 23.8069 71.9362 24.0554 74.282 24.0114C76.9397 23.9682 79.5922 23.7203 82.2354 23.7878C84.1566 23.8341 86.0787 24.1328 88.0151 24.1421C88.6733 24.1469 89.0115 24.5592 88.9657 25.2513C88.9358 25.7551 88.7254 26.1827 88.5301 26.624C88.2018 27.3663 87.7627 28.0808 87.5722 28.8568C87.412 29.5077 87.1408 30.2279 87.5512 30.9241C87.6914 31.1405 87.7504 31.3997 87.7175 31.6556C87.4052 33.6189 87.6675 35.6128 87.3515 37.5792C87.2925 37.9401 87.3458 38.1967 87.7809 38.3206C88.2682 38.4603 88.4266 38.8913 88.3459 39.3573C88.252 40.0628 88.1122 40.7615 87.9273 41.4488C87.4237 43.1861 87.155 44.983 87.1284 46.7916C87.0927 48.2822 87.529 49.7542 87.5402 51.2513C87.551 53.4605 87.3518 55.7034 87.5431 57.8658C87.74 60.1065 87.1559 62.3046 87.5791 64.5234C87.8261 65.8242 87.6444 67.1579 87.4355 68.4676C87.3821 68.8049 87.347 69.0876 87.7411 69.2962C88.2806 69.5798 88.2526 70.1649 88.2302 70.6544C88.0345 74.8714 88.1123 79.1123 87.2374 83.2655C86.8773 84.9864 87.5229 86.6008 87.494 88.2658C87.4849 88.8535 87.5997 89.4178 87.1786 89.9285C87.0668 90.0636 87.0568 90.3136 87.0588 90.5097C87.1007 92.1885 86.9962 93.8677 86.7465 95.5283C86.5235 96.8992 87.0962 98.1299 87.2198 99.4341C87.2459 99.7095 87.495 99.9676 87.8028 100.093C89.1176 100.625 89.4761 101.527 88.8974 102.835C88.8799 102.882 88.8658 102.931 88.8554 102.981C88.3006 103.596 87.6463 103.384 87.1748 102.992C86.3134 102.275 85.4126 102.335 84.4442 102.572L84.4513 102.569C84.0792 102.599 83.7191 102.75 83.3374 102.68L83.2788 102.681L83.2246 102.702C82.9398 102.725 82.6539 102.731 82.3683 102.719C81.9294 102.832 81.4873 102.766 81.0466 102.738C80.7728 102.646 80.5708 102.942 80.3024 102.872L79.937 102.839C79.671 102.788 79.404 102.848 79.1377 102.83L78.7742 102.806C78.5063 102.746 78.2351 102.829 77.9701 102.789C77.6977 102.885 77.4006 102.884 77.1289 102.786C76.861 102.726 76.5875 102.812 76.3219 102.77L75.5097 102.766C75.0715 102.719 74.6346 102.824 74.2022 102.779L70.7765 102.801C70.5019 102.753 70.2221 102.84 69.9469 102.777L69.9555 102.774C69.5629 102.781 69.1732 102.758 68.7879 102.725L68.8008 102.72C68.5748 102.584 68.3135 102.518 68.0501 102.531C67.1286 102.694 66.1945 102.561 65.2667 102.623C65.0046 102.56 64.7365 102.639 64.4726 102.602C63.9134 102.887 63.3537 102.772 62.7945 102.594C62.1294 102.669 61.4793 102.855 60.8076 102.87C60.601 102.918 60.4093 103.075 60.1814 102.948C59.6082 103.039 59.0299 103.094 58.4499 103.113C57.6949 103.316 56.9297 103.208 56.167 103.175C55.6896 103.269 55.2009 103.292 54.7168 103.243C53.966 103.315 53.2114 103.337 52.4578 103.308L50.6117 103.201C49.948 103.284 49.3855 102.967 48.7941 102.744C48.5108 102.665 48.2957 102.983 48.0095 102.884L45.8834 102.902C45.4512 102.849 45.0189 102.949 44.5859 102.911C44.2239 103.004 43.8493 103.038 43.4764 103.012C42.9984 103.101 42.5104 103.124 42.0262 103.08C41.8623 103.119 41.7031 103.225 41.5285 103.109C41.1007 103.11 40.6829 103.218 40.2515 103.235C39.7681 103.258 39.2933 103.176 39.0587 102.743C38.8241 102.31 38.903 101.806 39.1693 101.361C39.2748 101.184 39.4313 101.05 39.5485 100.887C39.9374 100.339 40.2104 99.8102 39.9332 99.0724C39.6121 98.2121 40.0543 97.4209 40.9015 97.0572C41.2074 96.9274 41.5073 96.7737 41.3862 96.4054C40.9257 95.0067 41.2591 93.5307 40.9221 92.1203C40.635 90.855 40.681 89.5369 41.0558 88.2947C41.1687 87.895 40.9602 87.5425 40.787 87.2091C40.5757 86.7986 40.3363 86.417 40.1192 86.0169C39.709 85.2615 39.6283 84.497 40.0392 83.6883C40.4183 82.933 40.5048 82.1596 40.0386 81.3783C39.3193 80.1715 39.6626 78.4751 40.7912 77.1888C40.8695 77.1096 40.9242 77.0102 40.9492 76.9017C40.9742 76.7932 40.9685 76.6799 40.9327 76.5745C40.6866 75.59 40.5764 74.5793 40.4145 73.5836C40.3961 73.3535 40.3111 73.1338 40.17 72.9512C39.5705 72.3003 39.7103 71.6096 40.1584 71.0032C40.76 70.1913 40.8032 69.4034 40.3949 68.5129C40.129 67.9314 40.1027 67.282 40.0637 66.6506C40.0285 66.0588 40.3596 65.6633 40.8609 65.394C40.6683 62.5577 40.769 59.7163 40.6858 56.8787C40.6757 55.6389 40.5008 54.3676 40.5707 53.0887Z" fill="#8DAFB9"/>
<path d="M54.3057 82.3805C53.2836 80.9889 52.3467 79.7416 51.6465 78.3338C50.4567 75.9356 49.5219 73.4502 48.9892 70.8291C47.7674 64.8221 48.175 58.9085 50.324 53.1618C51.8628 49.0324 54.2513 45.4836 58.0257 42.9855C62.0271 40.3406 67.5059 40.4684 71.3578 43.2926C74.106 45.3081 76.0555 47.9097 77.4744 50.9725C80.7183 57.9829 81.0393 65.2161 79.1464 72.631C78.9672 73.3303 78.5137 74.016 78.53 74.6988C78.5699 76.4062 77.1735 77.3564 76.5814 78.7191C75.9659 80.1401 74.9256 81.3283 73.9088 82.5091C75.1896 82.936 76.4729 83.2716 77.3048 84.4218C77.5653 84.7568 77.7049 85.17 77.7008 85.5944C77.6884 86.8905 77.7197 88.1894 77.6747 89.4817C77.6271 90.7504 76.6089 91.2278 75.6675 91.7591C74.3098 92.5253 72.8306 92.4 71.3722 92.388C65.3599 92.3401 59.3466 92.3026 53.3357 92.2033C52.5824 92.2059 51.8383 92.0382 51.159 91.7127C50.4796 91.3873 49.8827 90.9124 49.4127 90.3238C49.2686 90.1551 49.1601 89.959 49.0935 89.7474C49.0269 89.5358 49.0036 89.3129 49.025 89.0921C49.1119 88.0017 49.127 86.9068 49.0702 85.8144C48.9656 84.3896 49.7226 83.5932 50.8819 83.0481C51.9048 82.5705 52.9849 82.2661 54.3057 82.3805Z" fill="#FEFEFE"/>
<path d="M58.4988 71.2737C58.5322 70.2058 58.2034 69.1647 58.4389 68.0678C58.8816 66.013 59.8757 64.4128 61.7873 63.4751C62.1874 63.2793 62.1931 63.1541 61.9485 62.827C61.5276 62.2645 61.2264 61.6639 61.6091 60.9351C61.7239 60.7184 61.5682 60.4685 61.4654 60.2917C61.0706 59.6059 61.0294 58.8375 60.9644 58.0964C60.854 56.8265 61.5353 55.8854 62.4495 55.1053C62.7098 54.8832 62.9126 54.7457 62.8581 54.3205C62.7699 53.6425 63.3044 53.3062 63.8498 53.1806C64.9406 52.9354 66.0772 52.9878 67.1408 53.3323C67.7618 53.5253 68.179 53.9465 68.2432 54.6387C68.2534 54.8927 68.3401 55.1377 68.492 55.3416C69.9954 57.2395 70.0702 59.0581 68.6595 61.0196C68.382 61.4295 68.1513 61.8693 67.9719 62.3307C67.7721 62.7984 67.3835 63.1341 66.918 63.424C66.9711 63.4871 67.0315 63.5436 67.0979 63.5924C68.9345 64.523 69.8987 66.4736 69.7082 68.5523C69.4168 71.7579 67.6318 74.1939 65.7304 76.5666C64.9901 77.4911 63.5085 77.47 62.4627 76.9294C60.8829 76.1111 60.0769 74.7524 59.4305 73.2122C59.3301 72.9738 59.3125 72.6524 58.9894 72.5509L58.4988 71.2737Z" fill="#FDC200"/>
<path d="M58.0606 52.0506C59.0938 51.994 59.5667 52.6529 59.9149 53.4896C60.0468 53.8669 60.2192 54.2288 60.4291 54.569C60.7402 55.0213 60.4765 55.4596 59.9228 55.5342C59.2524 55.6294 58.4495 55.1654 58.1569 54.4893C57.8361 53.7487 57.6076 52.9838 57.778 52.1599L58.0606 52.0506Z" fill="#FDC301"/>
<path d="M58.0973 59.7285C57.2962 60.0119 56.6259 59.7805 56.3818 59.1366C56.1577 58.557 56.4177 58.194 57.2434 57.919C57.8901 57.7034 58.6923 57.9872 58.8576 58.491C59.0506 59.0793 58.8062 59.474 58.0973 59.7285Z" fill="#FDC302"/>
<path d="M73.1941 54.1863C73.772 55.0441 73.6002 55.6947 72.6144 56.2727C72.1397 56.5515 71.5102 56.9688 71.1113 56.5143C70.7888 56.1468 71.369 55.6402 71.6433 55.2634C71.9168 54.8419 72.2735 54.4807 72.6915 54.2018C72.8518 54.0053 73.019 54.0177 73.1941 54.1863Z" fill="#FDC304"/>
<path d="M72.1007 58.5257C72.8232 58.2725 73.8077 58.6204 74.006 59.1885C74.1409 59.5712 73.9518 59.7526 73.6134 59.8704C72.7459 60.173 71.6751 59.9159 71.5262 59.3483C71.4047 58.8686 71.6892 58.6454 72.1007 58.5257Z" fill="#FDC303"/>
<path d="M73.1941 54.1863L72.6937 54.2075C72.8618 53.8783 72.5452 53.6496 72.5151 53.3594C72.4881 53.1073 72.4056 52.8471 72.6311 52.6582C72.8567 52.4692 73.0588 52.6355 73.2651 52.7149C73.5483 52.8236 73.5845 53.0656 73.6008 53.3284C73.623 53.6956 73.2903 53.8833 73.1941 54.1863Z" fill="#FDC408"/>
<path d="M49.3273 89.5643C49.6775 88.7725 49.432 87.9339 49.5187 87.1226C49.5699 86.6483 49.5292 86.1653 49.539 85.6856C49.5599 84.7045 50.1299 84.0526 51.037 83.6658C52.3051 83.1262 53.6032 83.0886 54.9441 83.1067C60.9279 83.1868 66.9129 83.219 72.8991 83.2884C74.1585 83.3035 75.3534 83.5929 76.3387 84.4524C76.566 84.6355 76.746 84.8705 76.8638 85.1375C76.9817 85.4045 77.0338 85.6959 77.0159 85.9872C76.9673 87.1458 76.951 88.3061 76.9672 89.4681C76.972 90.0323 76.7267 90.3569 76.2991 90.7109C74.801 91.9285 73.0424 91.8275 71.2919 91.807C66.8216 91.7569 62.3539 91.7036 57.8888 91.6471C56.1753 91.6288 54.4529 91.7319 52.7499 91.5881C51.6749 91.5101 50.6644 91.0459 49.9048 90.2812C49.7882 90.1622 49.7091 89.9745 49.4924 89.9911L49.3273 89.5643Z" fill="#ECC342"/>
<path d="M61.1251 41.5131C61.1431 41.5557 61.1688 41.5947 61.2008 41.6282C60.7893 42.1893 60.2513 42.4104 59.5663 42.2471C59.5518 42.2053 59.5504 42.1601 59.5621 42.1174L61.1251 41.5131Z" fill="#E6A032"/>
<path d="M59.5629 42.2468L61.1974 41.6279C64.8023 40.5162 68.0422 41.4014 70.996 43.5408C73.3894 45.2751 75.1228 47.5812 76.4169 50.2279C79.7071 56.9546 80.1956 63.9721 78.609 71.2029C78.4582 71.8864 78.2314 72.5516 77.9822 73.4307C77.4117 72.0104 76.7003 70.9302 76.8857 69.4491C77.1825 67.0766 76.2308 65.1671 74.2043 63.8259C72.9159 62.9721 72.1414 61.6225 71.1192 60.5148C71.0243 60.4137 70.9036 60.2077 71.0513 60.1145C71.2263 60.0025 71.4721 59.8024 71.6706 59.9423C72.5603 60.5713 73.3467 60.6446 74.1518 59.7606C74.3821 59.5075 74.806 59.8145 75.1296 59.947C75.4215 60.0655 75.8005 60.5408 76.0169 60.0649C76.1671 59.7361 75.6594 59.5222 75.3273 59.4357C74.7082 59.2731 74.1282 59.1183 73.6487 58.6081C73.4832 58.4477 73.2704 58.3449 73.0419 58.315C72.8134 58.2851 72.5814 58.3297 72.3802 58.4422C71.5718 58.8976 70.9584 58.7623 70.4499 57.999C70.3008 57.7745 69.8553 57.6875 69.9405 57.3986C70.0256 57.1097 70.4534 57.1806 70.7302 57.1113C71.1922 56.995 71.6727 56.9519 72.1362 56.8351C73.302 56.5402 73.9963 55.1576 73.5609 54.0527C73.4152 53.6759 73.5695 53.3832 73.8597 53.1282C74.5959 52.4859 74.6696 51.8831 74.1382 51.0647C74.0316 50.8992 73.9252 50.7812 73.7135 50.8532C73.5018 50.9252 73.4633 51.0549 73.5132 51.2687C73.5798 51.5128 73.6185 51.7637 73.6284 52.0166C73.6327 52.2397 73.6134 52.4359 73.2509 52.4235C72.6375 52.403 72.3922 52.872 72.4335 53.386C72.4622 53.7572 72.3219 53.946 72.0974 54.1591C71.873 54.3723 71.6492 54.5786 71.5723 54.8889C71.3303 55.8669 70.5438 56.0479 69.7152 56.1583C69.1889 56.2273 69.2899 55.6057 68.8455 55.4198C69.9674 55.0156 70.6559 54.4114 70.5228 53.2142C70.3781 51.9148 69.694 51.249 68.3874 51.0864C68.115 51.0523 67.6778 51.2755 67.5795 50.9066C67.4649 50.4701 68.0021 50.4889 68.2378 50.3091C68.6636 49.9804 69.0796 49.5668 69.7143 49.7103C69.7919 49.7233 69.8715 49.706 69.9366 49.6618C70.0018 49.6177 70.0474 49.5502 70.0641 49.4733C70.1267 49.2703 69.999 49.131 69.8257 49.0519C69.2418 48.7854 68.8074 49.1175 68.3916 49.4424C67.9307 49.8391 67.5195 50.2901 67.1668 50.7856C67.0439 50.943 66.9321 51.129 66.7016 50.8555C66.1666 50.2059 66.1568 50.2146 65.8363 51.049C65.8199 51.0915 65.7698 51.119 65.693 51.1963C65.445 50.9197 65.5399 50.4778 65.1962 50.2169C64.8361 51.0255 64.5445 50.7806 64.2416 50.1627C64.0111 49.6939 63.5888 49.3994 63.1473 49.1403C62.8563 48.9689 62.5269 48.8387 62.2223 49.0057C61.9821 49.1396 61.5929 49.2491 61.6674 49.637C61.747 50.0509 62.1136 49.8616 62.3624 49.8687C62.9534 49.8863 63.5347 49.8962 63.9459 50.4247C64.0654 50.577 64.3124 50.6981 64.1618 50.9237C64.0582 51.0802 63.8416 51.0081 63.6652 50.9762C62.9998 50.8594 62.3871 50.9043 61.8052 51.3427C60.745 52.1399 60.4878 52.9219 60.9452 54.1725C61.0158 54.3552 61.292 54.6028 61.0066 54.7558C60.7879 54.8732 60.584 54.6091 60.4624 54.4347C60.2064 54.0887 59.9964 53.7111 59.8376 53.3111C59.6349 52.7528 59.3056 52.2747 58.6749 52.1117C58.5513 52.0807 58.3713 52.0437 58.3975 51.9121C58.6026 50.8894 57.4012 50.184 57.779 49.1158C57.8002 49.0539 57.8068 48.9879 57.7981 48.923C57.7893 48.8582 57.7656 48.7963 57.7288 48.7422C57.6919 48.6881 57.643 48.6433 57.5858 48.6115C57.5287 48.5796 57.4649 48.5615 57.3995 48.5586C57.098 48.5259 57.1247 48.8454 57.0087 49.0248C56.3186 50.0874 56.9307 51.0042 57.3161 51.9414C57.458 52.2594 57.5405 52.6006 57.5594 52.9483C57.6048 54.3812 58.3471 55.2952 59.7314 55.7182C59.9935 55.8081 60.2609 55.8817 60.532 55.9386C60.9713 56.0181 60.9326 56.2235 60.7122 56.5023C60.3223 56.996 59.9081 57.4695 59.552 57.9912C59.2526 58.422 58.8676 58.1902 58.6039 58.0854C57.7312 57.7337 56.9244 57.5058 56.1964 58.36C56.01 58.5781 55.8183 58.3241 55.6617 58.2501C55.4284 58.1213 55.1609 58.0682 54.8962 58.0983C54.6314 58.1283 54.3826 58.24 54.1842 58.4177C54.0994 58.4732 54.0353 58.5552 54.002 58.6509C53.9686 58.7466 53.9679 58.8506 53.9999 58.9468C54.0833 59.205 54.2727 59.1941 54.4931 59.1318C55.2986 58.9024 56.0261 58.9591 56.6087 59.6724C56.785 59.8864 57.0743 59.9599 57.3624 59.9962C57.5366 60.0224 57.8367 59.8948 57.8601 60.1844C57.8752 60.3804 57.6334 60.4936 57.4575 60.5944C56.5695 61.0771 55.7421 61.6637 54.9926 62.3417C54.4007 62.8987 53.7925 63.4391 53.6425 64.3027C53.6214 64.4019 53.5732 64.4932 53.5033 64.5666C52.4955 65.6224 52.0287 66.8678 51.7371 68.3161C51.534 69.3184 50.6895 70.198 50.4524 71.2823C50.3657 71.6817 50.4175 72.1425 49.9861 72.5078C49.388 70.494 49.0225 68.4184 48.8968 66.3215C48.5285 60.6588 49.369 55.2112 51.9811 50.1107C53.5417 47.0559 55.6534 44.4886 58.621 42.6963C58.9268 42.5298 59.2412 42.3797 59.5629 42.2468V42.2468Z" fill="#E08900"/>
<path d="M70.2198 66.735C70.5421 67.5686 70.8379 68.4141 71.1868 69.2358C72.2449 71.6882 73.8679 73.7384 75.7791 75.5705C76.081 75.8591 76.7038 76.0186 76.7581 76.3159C76.8504 76.8135 76.3917 77.278 76.1499 77.7473C75.3976 79.1564 74.4999 80.4829 73.4716 81.7051C72.9893 82.2952 72.4747 82.5599 71.695 82.5463C67.0879 82.4622 62.4808 82.4289 57.8743 82.3674C57.5004 82.3421 57.1249 82.3494 56.7523 82.3895C55.6224 82.5819 54.9628 82.0346 54.2986 81.2249C52.8279 79.4243 51.8142 77.3714 50.8436 75.2855C50.6772 74.9315 50.7037 74.8474 51.1659 74.7441C52.4586 74.4592 53.3427 73.5037 54.1978 72.5709C55.5454 71.0978 56.7625 69.5105 57.8355 67.8269C57.9276 67.683 58.0108 67.4654 58.2202 67.5486C58.4295 67.6317 58.317 67.8541 58.3074 68.0202C58.1384 71.2622 58.8898 74.1941 61.2791 76.5289C62.7851 78.0008 64.9862 77.9603 66.3864 76.4131C68.4319 74.1454 69.8833 71.5808 70.0568 68.4438C70.0612 67.8978 70.038 67.3521 69.9873 66.8085L70.2198 66.735Z" fill="#E08900"/>
<path d="M69.8765 66.556C69.7408 66.2194 69.5859 65.8909 69.4124 65.5721C68.9161 64.7681 68.3307 64.0477 67.4045 63.7019C67.0524 63.5722 66.9874 63.3956 67.3156 63.1325C67.8095 62.738 68.3004 62.3399 68.3283 61.6186C68.3331 61.474 68.4986 61.3673 68.6591 61.3496C68.8196 61.3318 68.8547 61.4905 68.878 61.5931C69.2607 63.2237 69.6061 64.8639 70.1222 66.4659L69.8765 66.556Z" fill="#E08B02"/>
<path d="M60.7333 59.8282C60.9595 60.2478 61.2995 60.5839 61.0539 61.1285C60.8532 61.5769 61.1729 61.9455 61.4484 62.2804C61.639 62.5102 61.846 62.7272 62.1232 63.0367C61.2015 63.2821 60.3809 63.8125 59.7787 64.552C59.7431 64.5848 59.7005 64.6091 59.6541 64.623C59.6078 64.637 59.5589 64.6402 59.5111 64.6325C59.3995 64.6068 59.3913 64.4754 59.4222 64.3814C59.9269 62.89 60.2791 61.3526 60.7333 59.8282Z" fill="#E08A02"/>
<path d="M37.1741 104.773C37.5865 103.76 37.9464 102.866 38.3063 101.972C38.862 100.609 39.4518 99.2487 39.9679 97.8678C40.0882 97.5423 40.0248 97.1238 39.955 96.7734C39.2645 92.8236 39.2848 88.845 39.2085 84.8709C39.0772 79.0149 38.9316 73.1643 38.8343 67.3114C38.7321 61.1487 38.5277 54.9763 38.61 48.8243C38.6801 43.7436 39.1138 38.6699 39.4366 33.6063C39.5212 32.425 39.8246 31.2576 40.0267 29.998C39.1691 29.6897 38.7874 28.7872 38.4134 27.9474C37.8089 26.6387 37.1419 25.3379 37.1282 23.8173C37.1333 23.6184 36.8429 23.4189 36.6358 23.138C36.8927 23.0387 37.1221 22.868 37.355 22.8763C42.2728 22.7796 47.1971 22.6148 52.102 22.6544C56.2367 22.6964 60.3795 23.0142 64.5077 23.1244C67.3404 23.1941 70.1837 23.0791 73.0229 23.0806C75.4358 23.0829 77.8564 23.1478 80.2716 23.1984C83.1669 23.2603 86.0589 23.3562 88.963 23.3982C89.6563 23.4091 89.7648 23.8594 89.6975 24.2792C89.5857 25.1589 89.3814 26.0244 89.0879 26.8613C88.8353 27.566 88.3816 28.2173 87.9983 28.9234C89.0605 29.973 89.1728 31.3242 89.1423 32.7307C89.0333 37.4983 88.8902 42.2627 88.8152 47.0336C88.728 52.5367 88.673 58.0382 88.6503 63.5382C88.6417 65.5105 88.8408 67.4681 88.8322 69.4404C88.8267 71.8873 88.6476 74.3521 88.6564 76.7935C88.6648 81.4829 88.8039 86.171 88.7442 90.854C88.7152 93.1131 88.3512 95.3541 88.1772 97.62C88.1407 98.0772 88.146 98.6002 88.3346 99.0031C89.067 100.558 89.885 102.079 90.6887 103.606C90.9863 104.164 90.8255 104.554 90.1543 104.6C88.6097 104.722 87.0761 104.872 85.5301 104.862C76.9532 104.831 68.3608 104.675 59.7917 104.707C53.1553 104.73 46.505 104.972 39.8589 105.097C39.3251 105.128 38.7901 105.132 38.2558 105.109C37.9437 105.066 37.6017 104.903 37.1741 104.773ZM39.4052 103.287C41.7872 103.252 44.2516 103.218 46.7018 103.189C55.1291 103.13 63.563 103.074 72.0034 103.021C75.5534 102.994 79.097 103.034 82.6447 102.959C84.6487 102.922 86.6579 102.687 88.8793 102.533C87.7564 101.327 87.3887 99.697 85.6896 99.4187C85.827 98.8405 86.0007 98.3139 86.0382 97.7744C86.2569 95.3271 86.5525 92.8665 86.6008 90.403C86.7165 83.8279 86.707 77.2684 86.76 70.701C86.7815 66.1313 86.8096 61.5645 86.8443 57.0006C86.9023 51.9737 86.9889 46.9358 87.0469 41.909C87.0795 38.5984 87.0864 35.2922 87.0677 31.9905C87.0441 31.7172 86.9587 31.4529 86.818 31.2175C86.431 30.5138 86.0211 29.8356 85.6475 29.2088C86.1142 28.4213 87.1329 28.5524 87.3763 27.6543C87.575 26.9376 87.9661 26.2941 88.267 25.5871C87.4572 25.572 86.7892 25.5842 86.1387 25.5568C83.207 25.4434 80.2874 25.2761 77.358 25.211C70.5587 25.0672 63.7552 25.0398 56.9624 24.8278C52.4166 24.6986 47.8769 24.2881 43.3112 24.6588C41.9259 24.7679 40.5383 24.8286 38.8859 24.9261C39.9019 26.535 40.4905 28.2271 42.3429 28.7743C42.1149 29.0757 41.9044 29.3376 41.6939 29.5995C41.9204 29.676 42.1524 29.7668 42.4184 29.8608C41.5015 30.7568 41.4509 31.9414 41.3749 33.1029C41.0763 37.55 40.7722 41.9829 40.4934 46.4389C40.445 47.1472 40.4349 47.8577 40.4632 48.5672C40.5622 53.5333 40.6897 58.4885 40.7887 63.4546C40.9088 69.7909 40.9805 76.1294 41.1007 82.4657C41.1408 84.6488 41.3799 86.8371 41.2695 89.0128C41.1141 91.8056 41.4413 94.6042 42.2369 97.2858C42.3762 97.7734 42.2379 98.434 41.8005 98.4062C40.7753 98.3432 40.862 98.9495 40.7665 99.5936C40.6927 100.082 40.4342 100.559 40.2527 101.023C39.9651 101.807 39.6895 102.537 39.4052 103.287Z" fill="black"/>
<path d="M54.135 82.3973C53.6063 81.6665 52.962 80.8491 52.4265 79.9732C49.4381 75.1727 48.1805 69.8834 48.1627 64.2787C48.1378 58.3158 49.4276 52.6978 52.7258 47.6487C54.5688 44.8194 56.9171 42.5331 60.1034 41.2682C64.055 39.691 67.7917 40.2315 71.2833 42.5568C74.3348 44.5928 76.3935 47.4558 77.8674 50.7582C81.1614 58.1315 81.4123 65.697 79.2571 73.4053C79.005 74.3232 78.8605 75.2651 78.6479 76.2005C78.6207 76.3423 78.5497 76.583 78.4871 76.5908C77.7698 76.6877 77.7677 77.3612 77.4982 77.81C76.4387 79.4831 75.399 81.1649 74.3538 82.8325C75.4236 83.2229 76.7591 83.4941 77.5357 84.654C77.8136 85.0682 77.9767 85.5487 78.0085 86.0464C78.0734 87.3175 78.0559 88.5877 78.0241 89.8634C78.0003 90.693 77.519 91.2729 76.8573 91.7257C75.4997 92.628 74.0158 92.9064 72.4105 92.8708C66.9693 92.7597 61.5414 92.7255 56.1025 92.6627C55.1334 92.66 54.1666 92.7057 53.2127 92.6151C51.6259 92.4575 50.1537 91.9602 49.2436 90.5401C48.9561 90.0934 48.9066 89.4562 48.8902 88.9047C48.8643 87.9466 48.9692 86.9872 48.9576 86.0237C48.9467 84.2558 49.4022 83.9484 50.9765 83.2248C51.948 82.7671 53.0861 82.6552 54.135 82.3973ZM55.8687 65.1549L56.0703 64.1909C53.9012 64.7343 52.2238 66.7612 52.6661 68.3294C53.753 67.2364 54.7828 66.1655 55.8324 65.1033C55.1649 66.0505 54.4887 67.0175 53.807 67.9703L54.2923 67.7826C54.1431 67.9059 54.0105 68.0721 53.8479 68.1185C51.9942 68.6712 50.9705 70.6914 50.9648 72.4165C52.9304 71.7713 55.2963 68.2148 55.8655 66.4195C55.7218 66.5571 55.6011 66.6694 55.4717 66.8015C55.4814 66.6993 55.4516 66.5796 55.5064 66.5092C56.5358 65.2251 57.5652 63.941 58.654 62.6832C59.063 62.2133 59.593 61.8443 60.0725 61.4292C59.5227 61.5597 59.0041 61.7977 58.5467 62.1295C58.0892 62.4613 57.7019 62.8802 57.4071 63.3623C57.0072 64.0255 56.3929 64.5584 55.8687 65.1549ZM60.6176 70.0951C60.1684 69.6125 59.7137 69.1156 59.2646 68.6329C59.2273 68.6638 59.1987 68.6748 59.1614 68.7056C59.4591 69.2633 59.771 69.8154 60.0687 70.373C60.286 70.2561 60.4463 70.1614 60.6263 70.0753C60.6419 70.2006 60.7169 70.3521 60.6731 70.451C60.3667 71.1438 60.7337 71.1168 61.1379 71.0589C61.3495 71.4365 61.5404 71.8877 61.8769 72.0366C62.6042 72.3848 63.3775 72.6272 64.1735 72.7565C65.3824 72.9126 65.3888 72.8445 65.6834 71.6968C65.6867 71.6628 65.7636 71.6494 65.9809 71.5326C65.9564 71.9359 65.936 72.2227 65.9004 72.5974C66.7121 72.4476 66.0601 71.5676 66.7034 71.2368C66.7041 71.6631 66.7003 71.9928 66.691 72.3081C66.7871 72.2556 66.8718 72.1845 66.9401 72.0989C67.0084 72.0134 67.059 71.915 67.089 71.8097C67.1535 71.6371 67.1982 71.4557 67.2572 71.2688C67.311 71.2808 67.3704 71.3071 67.4243 71.3191C67.4389 71.5267 67.4679 71.7288 67.4793 71.9705C69.4679 70.0694 69.4679 70.0694 69.5142 69.5101C66.9021 71.7507 63.1378 72.3694 60.6176 70.0951ZM76.4682 69.5449C76.4198 69.7312 76.3946 69.9228 76.3934 70.1153C76.4168 70.3031 76.5457 70.4666 76.6317 70.6466C77.2422 67.9822 76.3443 65.9994 74.3362 64.4131C73.6012 63.8277 72.9648 63.0729 72.3307 62.3665C71.5787 61.5251 70.8783 60.6473 70.1637 59.7751C70.1351 59.7861 70.1264 59.8059 70.0978 59.817L70.5615 61.016C70.3411 60.6582 70.1262 60.3147 69.8782 59.8855C70.275 61.2088 70.6014 62.4772 71.0563 63.696C71.8832 65.9195 73.2139 67.8334 74.8168 69.5599C75.1537 69.9219 75.5564 70.242 75.9163 70.5787L76.1401 70.3937C74.8867 68.6797 73.6387 66.98 72.3853 65.266C72.4226 65.2351 72.4599 65.2043 72.5115 65.168C73.7723 66.7314 75.0475 68.2894 76.2973 69.8243C76.3454 69.726 76.4027 69.6325 76.4682 69.5449V69.5449ZM58.3838 60.2445C57.7945 60.0785 57.1353 60.0709 56.7952 59.743C56.1711 59.1475 55.5524 59.075 54.7748 59.228C54.5924 59.2657 54.3977 59.1441 54.1966 59.0906C54.2841 58.8926 54.3561 58.5695 54.4758 58.5396C55.1563 58.4339 55.8421 58.3659 56.5301 58.336C56.9368 57.8177 57.6784 57.8263 58.525 58.1061C58.8702 58.2351 59.4484 58.3725 59.6294 58.2041C60.2414 57.6228 60.7214 56.9122 61.2838 56.2025C60.7485 56.0485 60.3318 55.9471 59.9185 55.8116C58.5564 55.3866 57.9264 54.5637 57.7778 53.1608C57.703 52.5006 57.6093 51.7492 57.2458 51.2335C56.5529 50.2052 57.1779 49.4877 57.6225 48.6431C57.8255 48.8878 57.9525 49.1867 57.9877 49.5027C58.0377 49.8443 57.9395 50.2269 58.0554 50.5266C58.2509 51.0746 58.555 51.5641 58.8858 52.2073C59.4529 52.3162 59.7989 52.8715 60.1385 53.495C60.4678 54.055 60.8614 54.5746 61.3114 55.0433C61.4545 55.2012 61.7929 55.1852 61.9545 55.2212C61.6117 54.6318 61.1373 54.1261 61.0472 53.5538C60.8139 52.1017 62.195 50.8785 63.671 51.0462C63.9435 51.0721 64.2137 51.0496 64.5774 51.0567C64.0691 50.039 63.2888 49.9305 62.4417 49.9463C62.2587 49.914 62.0832 49.8484 61.9238 49.7528C62.0224 49.5834 62.0966 49.3086 62.2219 49.293C62.6063 49.2264 63.0994 49.1013 63.3986 49.281C63.8617 49.545 64.2229 50.0124 64.6049 50.4061C64.7919 50.6164 64.9614 50.8418 65.1115 51.0799C65.2571 50.7774 65.3534 50.5597 65.5077 50.2375L65.9493 51.3794C66.0534 51.2243 66.1082 51.1539 66.1575 51.0692L66.5311 50.4653C66.6456 50.6343 66.7141 50.854 66.8637 50.9438C66.9483 50.9795 67.0401 50.9946 67.1316 50.9878C67.2231 50.9809 67.3117 50.9523 67.39 50.9044C67.6368 50.6941 67.7912 50.3719 68.038 50.1616C68.4869 49.759 68.9768 49.4045 69.4996 49.1042C69.6742 49.0039 70.0074 49.1868 70.2537 49.272C70.3131 49.2983 70.341 49.5828 70.3125 49.5938C70.1119 49.6714 69.906 49.7345 69.6964 49.7828C68.8036 50.0624 68.0761 50.5571 67.2996 51.3495C69.0887 50.9695 70.3389 51.4869 70.6981 52.6279C71.1257 53.9885 70.6581 54.8584 69.2385 55.473C69.4863 56.4109 70.141 56.3218 70.8427 56.0997C71.282 55.9626 72.7531 54.0812 72.7358 53.612C72.7278 52.8275 73.0677 52.4336 73.9622 52.4979C73.9242 52.1024 73.8686 51.7465 73.8526 51.4081C73.8697 51.2511 73.9097 51.0974 73.9715 50.9519C74.1354 51.0363 74.3596 51.0644 74.4489 51.2104C74.9435 51.938 74.8447 52.6161 74.1613 53.2249C73.8311 53.5167 73.6745 53.7905 73.9105 54.2736C74.0549 54.5623 73.9986 55.0107 73.9036 55.3591C73.538 56.7475 72.3815 56.9814 71.1941 57.178C70.8382 57.2336 70.4988 57.332 70.1199 57.4129C70.2004 57.5786 70.2027 57.627 70.2335 57.6643C70.9644 58.3662 71.5119 59.1882 72.8523 58.5386C73.8897 58.039 74.6046 59.6331 75.7417 59.6036C75.9692 59.5977 76.1928 59.9214 76.4096 60.1001C76.3622 60.1854 76.3195 60.2732 76.2815 60.363C75.9602 60.2636 75.6455 60.1441 75.3392 60.0054C74.8927 59.7842 74.5442 59.6893 74.144 60.1394C73.6834 60.6456 73.0504 60.5786 72.4391 60.3556C72.0202 60.2058 71.5806 60.1297 71.1442 60.0195C71.1004 60.1184 71.0511 60.2031 70.9931 60.3076C72.1247 61.4944 73.1467 62.8221 74.4341 63.8174C76.5609 65.4563 77.5578 67.4828 77.1922 70.1017C77.0034 71.4382 77.9169 72.3155 78.2148 73.595C78.2905 73.4758 78.3575 73.3512 78.4152 73.2222C80.8114 64.5675 80.3141 56.1948 75.6414 48.3537C73.8737 45.3947 71.4194 43.0785 68.0968 41.8692C65.4394 40.895 62.7728 40.958 60.2104 42.0965C56.9025 43.556 54.5315 46.0808 52.7648 49.1923C49.7538 54.475 48.7158 60.1925 49.1155 66.191C49.2689 68.4124 49.7321 70.6288 50.0637 72.929C50.7728 71.3258 51.3888 69.9062 52.0192 68.4811C52.049 68.4103 52.0587 68.3328 52.0473 68.2569C52.0062 66.1561 53.6466 64.882 54.538 63.241C55.0144 62.3513 56.1462 61.7988 57.0064 61.138C57.4563 60.8164 57.9514 60.5265 58.3838 60.2445V60.2445ZM50.9486 75.048C50.9756 75.195 51.0099 75.3405 51.0516 75.484C51.9859 77.5183 52.986 79.5108 54.378 81.2861C55.0641 82.1693 55.7378 82.8933 56.9888 82.6065C57.3051 82.5334 57.6425 82.5998 57.9722 82.6036C62.6372 82.6594 67.2985 82.7056 71.9562 82.7423C72.3539 82.7526 72.8967 82.756 73.1468 82.5116C74.9061 80.7813 76.189 78.71 77.1608 76.513C72.1118 72.7061 70.2277 67.2816 69.0481 61.3879C68.476 62.1998 67.9674 62.9215 67.4732 63.6376C70.0935 65.3646 70.7921 67.129 70.0935 70.2869C69.554 72.7107 68.3336 74.7741 66.6503 76.5736C65.1972 78.1199 63.0173 78.126 61.4512 76.6642C59.7332 75.0642 58.9867 73.0064 58.6542 70.7887C58.4807 69.576 58.5916 68.3353 58.5823 67.42C57.3304 69.0198 55.9218 70.8935 54.4318 72.6839C53.5098 73.7788 52.4919 74.7958 50.9486 75.048V75.048ZM75.1313 91.8024C76.2111 91.0731 77.3171 90.7931 77.2587 89.4539C77.2116 88.3563 77.3184 87.2321 77.2571 86.14C77.231 85.6907 77.0411 85.1571 76.7318 84.8664C75.7677 83.943 74.5354 83.5991 73.2026 83.5894C67.789 83.5497 62.3818 83.4418 56.9848 83.4448C55.1147 83.446 53.2089 83.1 51.3832 83.9372C50.4346 84.3696 49.7065 85.1598 49.7421 86.0157C49.7869 87.0983 49.7734 88.1825 49.7017 89.2636C49.6568 89.9537 49.9444 90.4004 50.4571 90.7928C51.663 91.7048 53.0399 91.8287 54.4837 91.8283C60.1873 91.8544 65.8845 91.9486 71.5794 91.9944C72.8638 92.0064 74.1359 91.8591 75.1313 91.8024ZM69.3426 56.5485C69.095 56.3324 68.6449 55.9322 68.1663 55.543C67.9495 55.3643 67.6264 55.2924 67.481 55.0861C66.8598 54.2433 66.0872 54.1975 65.2023 54.5397C64.8882 54.6611 64.5327 54.9298 64.2777 54.8643C63.5554 54.6514 63.1101 55.0697 62.6174 55.4079C61.0558 56.5039 61.1365 58.6222 61.5716 59.8322C62.0563 61.1707 62.86 61.4671 64.2073 60.9625C64.4146 60.8782 64.6398 60.8475 64.862 60.8734C65.6 61.0023 66.3297 61.1749 67.0472 61.3903C67.7607 61.6231 68.3022 61.4958 68.7154 60.9094C69.6021 59.6805 69.8875 58.3395 69.3426 56.5485ZM62.9944 67.7978C62.8867 67.7738 62.7988 67.7586 62.6911 67.7346C62.8249 66.9773 62.9531 66.2058 63.0869 65.4485C63.0331 65.4365 62.9737 65.4103 62.9198 65.3983C62.6783 66.1316 62.4225 66.8704 62.1395 67.751C61.698 66.6091 62.3921 65.8156 62.5761 64.8913C61.674 65.4862 61.6782 66.6003 61.1402 67.4155C60.8625 66.3579 61.5676 65.593 62.0177 64.7626C61.9528 64.7221 61.8934 64.6958 61.8285 64.6553C61.2454 65.4386 60.6765 66.2165 60.0386 67.0702C60.1058 65.9285 60.7253 65.1967 61.3986 64.4769C60.5191 64.8334 59.7952 65.5071 59.689 66.3358C59.5698 67.3007 60.4038 67.9299 61.1651 68.4559C61.2306 68.2009 61.2785 67.9855 61.3735 67.637L61.8647 68.9074C61.9766 68.8149 61.9743 68.7665 61.972 68.7182C61.9431 68.5161 61.8999 68.3195 61.8853 68.1118C61.8797 68.0976 62.1192 68.0378 62.1302 68.0663C62.2107 68.2321 62.3308 68.4154 62.3146 68.5857C62.2924 69.0373 62.406 69.2888 62.917 69.3373C63.5642 69.3988 64.2096 69.625 64.8689 69.6327C65.6105 69.6412 66.4655 69.688 66.7273 68.6679C66.7218 68.6537 66.824 68.6634 66.8866 68.6556L66.8381 69.1666C68.9413 68.6651 69.8265 67.8141 69.4323 66.7524C69.3324 66.791 69.2237 66.8494 69.0667 66.9101L68.4541 65.3257L68.2685 65.3975C68.4617 65.8971 68.6834 66.3856 68.8282 66.8875C68.8802 67.0643 68.7664 67.3216 68.6733 67.5053C68.6471 67.5646 68.357 67.5783 68.346 67.5498C68.2633 67.3781 68.2088 67.1942 68.1846 67.0051C68.1557 66.803 68.2377 66.5908 68.1802 66.3997C68.0795 66.012 67.9503 65.6354 67.8211 65.2588C67.764 65.2808 67.6871 65.2941 67.63 65.3162C68.1168 67.2118 68.0512 67.9755 67.3891 68.2152C67.3917 67.2461 67.3746 66.2682 67.3717 65.2848L67.0223 65.2723C66.7844 66.1847 67.4543 67.2383 66.675 68.278C66.5985 67.2738 67.01 66.3436 66.247 65.4736C66.2116 66.5702 66.5726 67.5464 66.0249 68.4637C65.9164 68.0134 65.9727 67.565 65.9664 67.1244C65.9602 66.6839 65.889 66.2027 65.8431 65.7446C65.4459 66.6694 65.829 67.7026 65.0617 68.6885C65.1003 67.5578 65.125 66.6458 65.1641 65.7283C65.0619 65.7186 64.9652 65.7231 64.863 65.7134C64.7393 66.5817 64.6243 67.4301 64.5006 68.2983C64.4105 68.2829 64.3194 68.2742 64.2281 68.2724C64.2979 67.3922 64.3876 66.5208 64.4574 65.6405C64.3695 65.6253 64.2871 65.6244 64.2134 65.6036C64.0842 66.4576 63.9494 67.2973 63.8345 68.1457C63.7323 68.136 63.6246 68.112 63.5224 68.1023C63.5945 67.2704 63.6666 66.4385 63.73 65.6265C63.6619 65.62 63.6025 65.5937 63.5344 65.5873C63.3697 66.3072 63.1821 67.0525 62.9944 67.7978ZM59.7706 62.2186C58.3236 63.4837 56.9107 64.752 56.1789 66.5937C55.2361 68.9928 53.8257 71.0313 51.6406 72.4669L50.7528 73.0563C50.7694 73.0991 50.8002 73.1365 50.8168 73.1793C51.0364 73.1108 51.2758 73.051 51.4954 72.9825C51.4703 73.0453 51.4298 73.1008 51.3777 73.1439C51.3255 73.187 51.2634 73.2163 51.197 73.2291C50.516 73.3776 50.584 73.8928 50.7583 74.3012C50.9911 74.8183 51.4378 74.5307 51.7187 74.3237C52.4949 73.7522 53.2374 73.1364 53.9425 72.4793C54.1466 72.2855 54.1117 71.856 54.2339 71.3657C53.3406 71.9409 52.6821 72.3596 52.0236 72.7783C55.4112 69.8276 58.2884 66.5328 59.7706 62.2186ZM72.0623 67.1465C72.545 69.1585 73.2275 71.0933 74.5458 72.8479C75.3417 71.851 74.2946 71.2222 74.2207 70.4795C75.273 72.1401 76.3396 73.7951 77.459 75.5445C78.0012 74.6129 77.5818 72.2974 76.8546 71.7746C75.048 70.455 73.5234 68.8458 72.0623 67.1465ZM59.512 71.8189C59.6626 74.2875 62.2867 75.6848 63.9283 75.7719C66.1041 75.8823 67.7088 74.9829 68.0556 73.5033C64.034 76.4695 61.3916 74.6854 59.512 71.8189ZM54.1692 64.6635C56.2237 63.9511 59.3839 61.0063 59.8102 59.7749C58.8445 60.4601 57.7734 61.1696 56.7442 61.945C56.0736 62.4448 55.4326 62.983 54.8243 63.557C54.5281 63.852 54.3839 64.2851 54.1692 64.6635ZM60.9717 59.8509C60.7449 60.7918 60.5332 61.6448 60.3073 62.5033C60.0814 63.3619 59.8334 64.1633 59.626 64.8998C60.4402 64.2897 61.2972 63.663 62.2002 62.9856C60.8257 62.4013 61.579 60.9123 60.9717 59.8509ZM66.8326 62.9993C67.2088 62.6569 67.5105 62.3762 67.9844 61.9468C67.4319 62.0456 67.0033 61.998 66.7454 62.1798C65.6107 62.9795 64.4197 62.997 63.3436 62.1661C62.9718 61.8833 62.522 61.6962 62.1041 61.464C62.0548 61.5487 61.9912 61.6389 61.942 61.7236C62.2061 61.9824 62.456 62.2468 62.7455 62.5287L63.2451 62.3355L63.1836 62.9828C63.3756 62.8429 63.5161 62.7393 63.7367 62.5884C63.7646 62.8729 63.7825 63.0465 63.8082 63.2827C64.009 63.123 64.1352 63.025 64.2328 62.938C64.3409 63.1752 64.4269 63.3552 64.513 63.5352C64.6567 63.3976 64.7861 63.2656 64.9528 63.1026C65.0904 63.2463 65.228 63.39 65.4019 63.5853C65.5466 63.3653 65.6507 63.2102 65.7898 62.9759C66.2232 63.842 66.3275 63.1782 66.5159 62.8592C66.619 62.9113 66.7247 62.9581 66.8326 62.9993V62.9993ZM73.2806 71.9096C73.3531 71.8842 73.423 71.8517 73.4892 71.8125C73.4835 71.7396 73.472 71.6672 73.4547 71.5961C72.8375 69.9151 72.2576 68.2032 71.5833 66.5441C71.3703 66.0358 70.8949 65.6125 70.5392 65.1594C70.4475 65.2088 70.3595 65.2648 70.2758 65.3269C71.2851 67.5127 72.2856 69.7183 73.2806 71.9096V71.9096ZM59.9348 55.1325C60.0346 54.372 59.7835 53.4682 59.3279 53.0537C59.176 52.9155 58.8681 52.7556 58.7452 52.8196C58.6486 52.888 58.5679 52.9763 58.5083 53.0786C58.4488 53.1809 58.4119 53.2947 58.4001 53.4124C58.2971 54.207 58.9819 54.9595 59.9348 55.1325ZM69.7928 61.8711C69.7654 63.7522 70.6871 64.9053 71.6604 66.0221C71.7317 65.9945 71.7833 65.9582 71.8547 65.9306C71.2074 64.6385 70.5459 63.3519 69.7928 61.8711V61.8711ZM66.4592 61.8639C65.5502 61.0832 64.6763 61.4539 63.7802 61.7676C64.4189 62.5707 65.6573 62.6333 66.4592 61.8639V61.8639ZM68.2576 55.0154C68.0325 53.8391 66.4315 53.1783 64.8597 53.4415C63.8689 53.5949 63.5705 53.8416 63.632 54.4249C65.2792 53.2957 66.7836 53.4524 68.2576 55.0154ZM71.7762 56.4771C72.7265 56.3886 73.3633 56.1259 73.5464 55.284C73.5768 55.1081 73.4853 54.9138 73.4619 54.726C73.2851 54.7779 73.0181 54.7663 72.9172 54.8873C72.528 55.366 72.1894 55.8907 71.7762 56.4771ZM77.4244 75.8368C76.8055 75.0424 76.2119 74.2711 75.6183 73.4997C75.1999 74.2849 76.1548 75.5237 77.4244 75.8368ZM62.0535 63.8792C63.8136 65.0363 65.6577 65.3077 67.6096 64.3724C67.3712 64.3498 67.06 64.224 66.8998 64.3188C65.4663 65.152 64.146 64.7929 62.8361 64.036C62.6073 63.9111 62.3173 63.9248 62.0535 63.8792ZM55.4911 70.2889C55.5814 70.3525 55.6858 70.4105 55.7705 70.4598C56.5278 69.363 57.2851 68.2662 58.0281 67.1749C57.9632 67.1344 57.8928 67.0796 57.8279 67.039C57.0453 68.1128 56.2682 69.2008 55.4911 70.2889ZM56.9935 58.8131C57.1785 59.0369 57.27 59.2312 57.3777 59.2552C57.7221 59.3201 58.0728 59.3442 58.4228 59.3269C58.4854 59.3191 58.5453 59.0498 58.6011 58.897C58.2559 58.768 57.9226 58.5851 57.5852 58.5187C57.4379 58.4772 57.2481 58.6654 56.9935 58.8131V58.8131ZM72.3221 59.4164C72.7482 59.9243 73.2339 59.9498 73.7565 59.7313C73.8136 59.7092 73.8538 59.4312 73.8064 59.3511C73.4166 58.8947 72.9631 59.0372 72.5086 59.2622C72.4414 59.3072 72.379 59.3589 72.3221 59.4164V59.4164ZM65.3053 77.1264C65.315 77.0242 65.3104 76.9275 65.3201 76.8253C64.5246 76.8048 63.7346 76.7985 62.9248 76.7835L62.922 77.0307C63.723 77.0655 64.5185 77.0861 65.3053 77.1264V77.1264ZM60.5751 58.0189C60.5114 57.9818 60.451 57.9393 60.3947 57.8917C59.5201 58.5581 59.5201 58.5581 59.6916 59.2137C60.0095 58.7626 60.2923 58.3908 60.5751 58.0189ZM54.5514 71.9321C54.8582 71.4525 55.0839 71.1027 55.3239 70.7474L55.1094 70.617C54.6351 70.8332 54.24 71.0844 54.5514 71.9321Z" fill="black"/>
<path d="M81.9932 98.0914C78.8277 99.2826 75.5997 99.9729 72.2233 99.9823C65.5045 100.004 58.802 100.578 52.0617 100.247C49.7212 100.135 47.5544 99.4957 45.4006 98.7206C44.9421 98.5533 44.4891 98.4002 44.0394 98.2132C43.7948 98.0838 43.5582 97.9396 43.3311 97.7815C43.3606 97.6881 43.3956 97.6089 43.4251 97.5155C44.0659 97.6451 44.709 97.823 45.353 97.9186C46.9675 98.1475 48.5764 98.3622 50.1996 98.5713C54.9022 99.1485 59.6033 98.8731 64.3144 98.7087C69.9155 98.5119 75.5118 98.3169 81.1033 98.1238C81.3991 98.0961 81.6962 98.0853 81.9932 98.0914V98.0914Z" fill="black"/>
<path d="M81.4793 28.868C68.9787 28.7464 56.5058 28.1875 44.0401 29.2173L43.9836 28.9438C44.5426 28.7769 45.0684 28.5244 45.6264 28.4399C51.0497 27.7074 56.5146 27.3262 61.9869 27.2987C66.716 27.3078 71.3854 27.7994 76.0779 28.2656C77.5285 28.4103 78.9902 28.5835 80.4463 28.7424C80.7925 28.789 81.1387 28.8356 81.4793 28.868Z" fill="black"/>
<path d="M70.5274 61.0127C72.3562 63.1114 74.208 65.1847 75.9994 67.3142C76.518 67.934 76.7788 68.7356 76.4507 69.5845C76.5116 68.0022 75.4595 67.0635 74.505 66.0379C73.2137 64.6503 72.0058 63.1812 70.7835 61.7177C70.6437 61.5257 70.6157 61.2411 70.5274 61.0127Z" fill="black"/>
<path d="M58.4002 87.6343L58.4002 87.353L58.6267 87.3071L58.6267 85.8072L58.4002 85.7613L58.4002 85.4785L60.1458 85.4785L60.1458 86.0915L59.7831 86.0915L59.7698 85.8457L59.1035 85.8457L59.1035 86.3921L59.8468 86.3921L59.8468 86.7563L59.1035 86.7563L59.1035 87.3071L59.33 87.353L59.33 87.6343L58.4002 87.6343ZM60.3686 87.6343L60.3686 87.353L60.5951 87.3071L60.5951 85.8072L60.3686 85.7613L60.3686 85.4785L61.2969 85.4785L61.2969 85.7613L61.0704 85.8072L61.0704 87.3071L61.2969 87.353L61.2969 87.6343L60.3686 87.6343ZM61.5315 87.6343L61.5315 87.353L61.758 87.3071L61.758 85.8072L61.5315 85.7613L61.5315 85.4771L62.5724 85.4771C62.7402 85.4771 62.8853 85.5037 63.0077 85.557C63.1301 85.6103 63.2238 85.6858 63.289 85.7836C63.3551 85.8813 63.3882 85.9977 63.3882 86.133C63.3882 86.2593 63.3551 86.3748 63.289 86.4794C63.2229 86.5841 63.1321 86.667 63.0166 86.7282C62.9011 86.7894 62.7683 86.82 62.6183 86.82L62.2348 86.8185L62.2348 87.3071L62.4613 87.353L62.4613 87.6343L61.5315 87.6343ZM62.907 87.6343L62.5813 86.7489L63.0018 86.6231L63.2905 87.3071L63.4844 87.353L63.4844 87.6343L62.907 87.6343ZM62.2348 86.4513L62.5709 86.4513C62.6834 86.4513 62.7688 86.4266 62.827 86.3773C62.8853 86.3279 62.9144 86.2559 62.9144 86.1611C62.9144 86.0644 62.8853 85.9874 62.827 85.9301C62.7688 85.8719 62.6839 85.8428 62.5724 85.8428L62.2348 85.8428L62.2348 86.4513ZM64.6296 87.6654C64.4628 87.6654 64.3127 87.6481 64.1795 87.6136C64.0462 87.579 63.9145 87.5168 63.7842 87.427L63.7842 86.8851L64.1514 86.8851L64.1973 87.1827C64.2348 87.2192 64.293 87.2494 64.372 87.273C64.4509 87.2967 64.5368 87.3086 64.6296 87.3086C64.7026 87.3086 64.7633 87.2992 64.8117 87.2804C64.8611 87.2617 64.8981 87.2345 64.9228 87.199C64.9484 87.1625 64.9613 87.1196 64.9613 87.0702C64.9613 87.0228 64.9494 86.9809 64.9257 86.9443C64.903 86.9078 64.865 86.8738 64.8117 86.8422C64.7594 86.8106 64.6883 86.779 64.5985 86.7474C64.4208 86.6931 64.2742 86.6359 64.1588 86.5757C64.0433 86.5145 63.9569 86.4424 63.8997 86.3595C63.8434 86.2756 63.8153 86.1734 63.8153 86.053C63.8153 85.9346 63.8483 85.8309 63.9145 85.7421C63.9816 85.6523 64.0734 85.5817 64.1899 85.5304C64.3073 85.479 64.4416 85.4524 64.5926 85.4504C64.7643 85.4465 64.9158 85.4647 65.0471 85.5052C65.1784 85.5457 65.2934 85.6039 65.3921 85.6799L65.3921 86.1833L65.0368 86.1833L64.979 85.8902C64.9435 85.8704 64.8941 85.8526 64.831 85.8369C64.7678 85.8211 64.6987 85.8132 64.6237 85.8132C64.5585 85.8132 64.5008 85.8225 64.4504 85.8413C64.4011 85.8591 64.3621 85.8857 64.3335 85.9212C64.3048 85.9568 64.2905 86.0007 64.2905 86.053C64.2905 86.0955 64.3024 86.1335 64.3261 86.167C64.3507 86.2006 64.3932 86.2332 64.4534 86.2647C64.5136 86.2953 64.597 86.3294 64.7036 86.3669C64.9445 86.436 65.1276 86.5248 65.2529 86.6334C65.3783 86.742 65.441 86.8866 65.441 87.0672C65.441 87.1926 65.4069 87.3002 65.3388 87.39C65.2707 87.4788 65.1759 87.547 65.0545 87.5943C64.9331 87.6417 64.7915 87.6654 64.6296 87.6654ZM66.1612 87.6343L66.1612 87.353L66.3892 87.3071L66.3892 85.8457L66.0265 85.8457L66.0072 86.0915L65.6489 86.0915L65.6489 85.4785L67.6107 85.4785L67.6107 86.0915L67.2494 86.0915L67.2302 85.8457L66.866 85.8457L66.866 87.3071L67.094 87.353L67.094 87.6343L66.1612 87.6343ZM58.3592 90.6654C58.1924 90.6654 58.0423 90.6481 57.9091 90.6136C57.7758 90.579 57.644 90.5168 57.5137 90.427L57.5137 89.8851L57.8809 89.8851L57.9268 90.1827C57.9643 90.2192 58.0226 90.2494 58.1015 90.273C58.1805 90.2967 58.2664 90.3086 58.3592 90.3086C58.4322 90.3086 58.4929 90.2992 58.5413 90.2804C58.5906 90.2617 58.6277 90.2345 58.6523 90.199C58.678 90.1625 58.6908 90.1196 58.6908 90.0702C58.6908 90.0228 58.679 89.9809 58.6553 89.9443C58.6326 89.9078 58.5946 89.8738 58.5413 89.8422C58.489 89.8106 58.4179 89.779 58.3281 89.7474C58.1504 89.6931 58.0038 89.6359 57.8883 89.5757C57.7729 89.5145 57.6865 89.4424 57.6292 89.3595C57.573 89.2756 57.5448 89.1734 57.5448 89.053C57.5448 88.9346 57.5779 88.8309 57.644 88.7421C57.7112 88.6523 57.803 88.5817 57.9194 88.5304C58.0369 88.479 58.1711 88.4524 58.3222 88.4504C58.4939 88.4465 58.6454 88.4647 58.7767 88.5052C58.908 88.5457 59.023 88.6039 59.1217 88.6799L59.1217 89.1833L58.7663 89.1833L58.7086 88.8902C58.6731 88.8704 58.6237 88.8526 58.5605 88.8369C58.4974 88.8211 58.4283 88.8132 58.3533 88.8132C58.2881 88.8132 58.2304 88.8225 58.18 88.8413C58.1307 88.8591 58.0917 88.8857 58.0631 88.9212C58.0344 88.9568 58.0201 89.0007 58.0201 89.053C58.0201 89.0955 58.032 89.1335 58.0556 89.167C58.0803 89.2006 58.1228 89.2332 58.183 89.2647C58.2432 89.2953 58.3266 89.3294 58.4332 89.3669C58.674 89.436 58.8571 89.5248 58.9825 89.6334C59.1079 89.742 59.1705 89.8866 59.1705 90.0672C59.1705 90.1926 59.1365 90.3002 59.0684 90.39C59.0003 90.4788 58.9055 90.547 58.7841 90.5943C58.6627 90.6417 58.5211 90.6654 58.3592 90.6654ZM59.4051 90.6343L59.4051 90.353L59.6317 90.3071L59.6317 88.8072L59.4051 88.7613L59.4051 88.4785L61.1034 88.4785L61.1034 89.0812L60.7406 89.0812L60.7244 88.8443L60.1084 88.8443L60.1084 89.3373L60.8161 89.3373L60.8161 89.703L60.1084 89.703L60.1084 90.2686L60.7569 90.2686L60.7732 90.0228L61.13 90.0228L61.13 90.6343L59.4051 90.6343ZM61.4327 90.6343L61.4327 90.353L61.6593 90.3071L61.6593 88.8072L61.4327 88.7613L61.4327 88.4771L62.4736 88.4771C62.6414 88.4771 62.7865 88.5037 62.9089 88.557C63.0313 88.6103 63.1251 88.6858 63.1902 88.7836C63.2563 88.8813 63.2894 88.9977 63.2894 89.133C63.2894 89.2593 63.2563 89.3748 63.1902 89.4794C63.1241 89.5841 63.0333 89.667 62.9178 89.7282C62.8023 89.7894 62.6695 89.82 62.5195 89.82L62.136 89.8185L62.136 90.3071L62.3626 90.353L62.3626 90.6343L61.4327 90.6343ZM62.8082 90.6343L62.4825 89.7489L62.903 89.6231L63.1917 90.3071L63.3856 90.353L63.3856 90.6343L62.8082 90.6343ZM62.136 89.4513L62.4721 89.4513C62.5846 89.4513 62.67 89.4266 62.7283 89.3773C62.7865 89.3279 62.8156 89.2559 62.8156 89.1611C62.8156 89.0644 62.7865 88.9874 62.7283 88.9301C62.67 88.8719 62.5851 88.8428 62.4736 88.8428L62.136 88.8428L62.136 89.4513ZM63.6202 90.6343L63.6202 90.353L63.8468 90.3071L63.8468 88.8072L63.6202 88.7613L63.6202 88.4785L64.5486 88.4785L64.5486 88.7613L64.322 88.8072L64.322 90.3071L64.5486 90.353L64.5486 90.6343L63.6202 90.6343ZM64.7832 90.6343L64.7832 90.353L65.0097 90.3071L65.0097 88.8072L64.7832 88.7613L64.7832 88.4785L66.4814 88.4785L66.4814 89.0812L66.1187 89.0812L66.1024 88.8443L65.4865 88.8443L65.4865 89.3373L66.1942 89.3373L66.1942 89.703L65.4865 89.703L65.4865 90.2686L66.135 90.2686L66.1512 90.0228L66.5081 90.0228L66.5081 90.6343L64.7832 90.6343ZM67.7213 90.6654C67.5545 90.6654 67.4045 90.6481 67.2712 90.6136C67.138 90.579 67.0062 90.5168 66.8759 90.427L66.8759 89.8851L67.2431 89.8851L67.289 90.1827C67.3265 90.2192 67.3847 90.2494 67.4637 90.273C67.5427 90.2967 67.6286 90.3086 67.7213 90.3086C67.7944 90.3086 67.8551 90.2992 67.9035 90.2804C67.9528 90.2617 67.9898 90.2345 68.0145 90.199C68.0402 90.1625 68.053 90.1196 68.053 90.0702C68.053 90.0228 68.0411 89.9809 68.0175 89.9443C67.9948 89.9078 67.9568 89.8738 67.9035 89.8422C67.8511 89.8106 67.7801 89.779 67.6902 89.7474C67.5126 89.6931 67.366 89.6359 67.2505 89.5757C67.135 89.5145 67.0486 89.4424 66.9914 89.3595C66.9351 89.2756 66.907 89.1734 66.907 89.053C66.907 88.9346 66.9401 88.8309 67.0062 88.7421C67.0733 88.6523 67.1651 88.5817 67.2816 88.5304C67.3991 88.479 67.5333 88.4524 67.6843 88.4504C67.8561 88.4465 68.0076 88.4647 68.1389 88.5052C68.2701 88.5457 68.3851 88.6039 68.4838 88.6799L68.4838 89.1833L68.1285 89.1833L68.0708 88.8902C68.0352 88.8704 67.9859 88.8526 67.9227 88.8369C67.8595 88.8211 67.7904 88.8132 67.7154 88.8132C67.6503 88.8132 67.5925 88.8225 67.5422 88.8413C67.4928 88.8591 67.4538 88.8857 67.4252 88.9212C67.3966 88.9568 67.3823 89.0007 67.3823 89.053C67.3823 89.0955 67.3941 89.1335 67.4178 89.167C67.4425 89.2006 67.4849 89.2332 67.5451 89.2647C67.6054 89.2953 67.6888 89.3294 67.7954 89.3669C68.0362 89.436 68.2193 89.5248 68.3447 89.6334C68.47 89.742 68.5327 89.8866 68.5327 90.0672C68.5327 90.1926 68.4987 90.3002 68.4305 90.39C68.3624 90.4788 68.2677 90.547 68.1463 90.5943C68.0249 90.6417 67.8832 90.6654 67.7213 90.6654Z" fill="black"/>
</g>
<defs>
<filter id="filter0_dddddd" x="0.756995" y="0" width="125.338" height="155.486" filterUnits="userSpaceOnUse" color-interpolation-filters="sRGB">
<feFlood flood-opacity="0" result="BackgroundImageFix"/>
<feColorMatrix in="SourceAlpha" type="matrix" values="0 0 0 0 0 0 0 0 0 0 0 0 0 0 0 0 0 0 127 0"/>
<feOffset dy="0.423494"/>
<feGaussianBlur stdDeviation="0.169398"/>
<feColorMatrix type="matrix" values="0 0 0 0 0.113725 0 0 0 0 0.121569 0 0 0 0 0.12549 0 0 0 0.0196802 0"/>
<feBlend mode="normal" in2="BackgroundImageFix" result="effect1_dropShadow"/>
<feColorMatrix in="SourceAlpha" type="matrix" values="0 0 0 0 0 0 0 0 0 0 0 0 0 0 0 0 0 0 127 0"/>
<feOffset dy="1.01772"/>
<feGaussianBlur stdDeviation="0.407086"/>
<feColorMatrix type="matrix" values="0 0 0 0 0.113725 0 0 0 0 0.121569 0 0 0 0 0.12549 0 0 0 0.0282725 0"/>
<feBlend mode="normal" in2="effect1_dropShadow" result="effect2_dropShadow"/>
<feColorMatrix in="SourceAlpha" type="matrix" values="0 0 0 0 0 0 0 0 0 0 0 0 0 0 0 0 0 0 127 0"/>
<feOffset dy="1.91627"/>
<feGaussianBlur stdDeviation="0.766507"/>
<feColorMatrix type="matrix" values="0 0 0 0 0.113725 0 0 0 0 0.121569 0 0 0 0 0.12549 0 0 0 0.035 0"/>
<feBlend mode="normal" in2="effect2_dropShadow" result="effect3_dropShadow"/>
<feColorMatrix in="SourceAlpha" type="matrix" values="0 0 0 0 0 0 0 0 0 0 0 0 0 0 0 0 0 0 127 0"/>
<feOffset dy="3.41829"/>
<feGaussianBlur stdDeviation="1.36732"/>
<feColorMatrix type="matrix" values="0 0 0 0 0.113725 0 0 0 0 0.121569 0 0 0 0 0.12549 0 0 0 0.0417275 0"/>
<feBlend mode="normal" in2="effect3_dropShadow" result="effect4_dropShadow"/>
<feColorMatrix in="SourceAlpha" type="matrix" values="0 0 0 0 0 0 0 0 0 0 0 0 0 0 0 0 0 0 127 0"/>
<feOffset dy="6.39354"/>
<feGaussianBlur stdDeviation="2.55742"/>
<feColorMatrix type="matrix" values="0 0 0 0 0.113725 0 0 0 0 0.121569 0 0 0 0 0.12549 0 0 0 0.0503198 0"/>
<feBlend mode="normal" in2="effect4_dropShadow" result="effect5_dropShadow"/>
<feColorMatrix in="SourceAlpha" type="matrix" values="0 0 0 0 0 0 0 0 0 0 0 0 0 0 0 0 0 0 127 0"/>
<feOffset dy="15.3038"/>
<feGaussianBlur stdDeviation="6.1215"/>
<feColorMatrix type="matrix" values="0 0 0 0 0.113725 0 0 0 0 0.121569 0 0 0 0 0.12549 0 0 0 0.07 0"/>
<feBlend mode="normal" in2="effect5_dropShadow" result="effect6_dropShadow"/>
<feBlend mode="normal" in="SourceGraphic" in2="effect6_dropShadow" result="shape"/>
</filter>
<clipPath id="clip0">
<rect width="100.852" height="127.939" fill="white" transform="translate(13)"/>
</clipPath>
</defs>
</svg>
