<svg width="126" height="151" viewBox="0 0 126 151" fill="none" xmlns="http://www.w3.org/2000/svg">
<g clip-path="url(#clip0)" filter="url(#filter0_d)">
<path d="M40.4225 53.0887C40.6819 52.3124 40.167 51.6681 40.031 50.9643C39.7522 49.5133 39.3651 48.0879 39.8876 46.6175C39.927 46.5219 39.9317 46.4156 39.901 46.3169C39.0319 44.5741 39.5538 42.7413 39.5476 40.9389C39.5434 38.2036 40.0497 35.5368 40.7828 32.9136C40.9008 32.5258 41.0453 32.1465 41.2151 31.7784C41.4872 31.1497 41.8007 30.5346 41.2817 29.8755C41.2436 29.8243 41.2162 29.7659 41.2009 29.7039C41.1857 29.6419 41.183 29.5775 41.1929 29.5144C41.4322 28.6015 40.8165 28.1718 40.223 27.6892C39.5041 27.083 38.8886 26.3639 38.4005 25.5602C38.0828 25.0612 38.0346 24.6138 38.3375 24.1456C38.6405 23.6773 39.0991 23.6115 39.6178 23.7309C39.8172 23.7607 40.0188 23.7723 40.2202 23.7654C40.8256 23.935 41.4333 23.7541 42.039 23.7759C45.8233 23.9091 49.6132 23.6874 53.3923 23.6799C55.0612 23.6762 56.6724 23.3747 58.316 23.2971C58.7994 23.2742 59.2852 23.1389 59.7096 23.5064C59.7532 23.5534 59.8114 23.5842 59.8747 23.5939C59.938 23.6037 60.0028 23.5918 60.0585 23.5602C60.633 23.1067 61.2353 23.3447 61.8089 23.5085C63.5598 24.0096 65.3456 23.8031 67.1212 23.804C69.4605 23.8069 71.7881 24.0554 74.1338 24.0114C76.7916 23.9682 79.4441 23.7203 82.0873 23.7878C84.0085 23.8341 85.9305 24.1328 87.867 24.1421C88.5251 24.1469 88.8634 24.5592 88.8176 25.2513C88.7876 25.7551 88.5772 26.1827 88.382 26.624C88.0537 27.3663 87.6146 28.0808 87.424 28.8568C87.2639 29.5077 86.9927 30.2279 87.403 30.9241C87.5433 31.1405 87.6022 31.3997 87.5694 31.6556C87.2571 33.6189 87.5194 35.6128 87.2034 37.5792C87.1444 37.9401 87.1977 38.1967 87.6328 38.3206C88.12 38.4603 88.2785 38.8913 88.1978 39.3573C88.1039 40.0628 87.9641 40.7615 87.7792 41.4488C87.2756 43.1861 87.0069 44.983 86.9803 46.7916C86.9446 48.2822 87.3809 49.7542 87.392 51.2513C87.4029 53.4605 87.2036 55.7034 87.395 57.8658C87.5919 60.1065 87.0078 62.3046 87.4309 64.5234C87.6779 65.8242 87.4963 67.1579 87.2873 68.4676C87.234 68.8049 87.1989 69.0876 87.593 69.2962C88.1325 69.5798 88.1044 70.1649 88.082 70.6544C87.8864 74.8714 87.9642 79.1123 87.0892 83.2655C86.7292 84.9864 87.3747 86.6008 87.3458 88.2658C87.3368 88.8535 87.4516 89.4178 87.0305 89.9285C86.9187 90.0636 86.9087 90.3136 86.9107 90.5097C86.9525 92.1885 86.8481 93.8677 86.5984 95.5283C86.3754 96.8992 86.948 98.1299 87.0717 99.4341C87.0978 99.7095 87.3469 99.9676 87.6546 100.093C88.9695 100.625 89.328 101.527 88.7493 102.835C88.7318 102.882 88.7177 102.931 88.7072 102.981C88.1525 103.596 87.4981 103.384 87.0266 102.992C86.1652 102.275 85.2645 102.335 84.296 102.572L84.3032 102.569C83.9311 102.599 83.571 102.75 83.1892 102.68L83.1307 102.681L83.0764 102.702C82.7916 102.725 82.5057 102.731 82.2202 102.719C81.7812 102.832 81.3392 102.766 80.8985 102.738C80.6247 102.646 80.4226 102.942 80.1543 102.872L79.7889 102.839C79.5229 102.788 79.2559 102.848 78.9895 102.83L78.626 102.806C78.3582 102.746 78.0869 102.829 77.8219 102.789C77.5495 102.885 77.2525 102.884 76.9807 102.786C76.7129 102.726 76.4393 102.812 76.1738 102.77L75.3616 102.766C74.9233 102.719 74.4864 102.824 74.0541 102.779L70.6284 102.801C70.3538 102.753 70.074 102.84 69.7988 102.777L69.8073 102.774C69.4147 102.781 69.0251 102.758 68.6398 102.725L68.6527 102.72C68.4267 102.584 68.1654 102.518 67.902 102.531C66.9804 102.694 66.0464 102.561 65.1186 102.623C64.8564 102.56 64.5884 102.639 64.3245 102.602C63.7653 102.887 63.2056 102.772 62.6464 102.594C61.9813 102.669 61.3312 102.855 60.6594 102.87C60.4528 102.918 60.2612 103.075 60.0333 102.948C59.46 103.039 58.8817 103.094 58.3017 103.113C57.5468 103.316 56.7816 103.208 56.0189 103.175C55.5415 103.269 55.0528 103.292 54.5686 103.243C53.8179 103.315 53.0632 103.337 52.3096 103.308L50.4635 103.201C49.7998 103.284 49.2374 102.967 48.6459 102.744C48.3627 102.665 48.1475 102.983 47.8614 102.884L45.7353 102.902C45.3031 102.849 44.8708 102.949 44.4378 102.911C44.0758 103.004 43.7011 103.038 43.3283 103.012C42.8503 103.101 42.3623 103.124 41.878 103.08C41.7142 103.119 41.5549 103.225 41.3804 103.109C40.9526 103.11 40.5347 103.218 40.1034 103.235C39.62 103.258 39.1452 103.176 38.9106 102.743C38.676 102.31 38.7549 101.806 39.0212 101.361C39.1267 101.184 39.2831 101.05 39.4004 100.887C39.7892 100.339 40.0622 99.8102 39.7851 99.0724C39.4639 98.2121 39.9062 97.4209 40.7534 97.0572C41.0592 96.9274 41.3591 96.7737 41.2381 96.4054C40.7776 95.0067 41.1109 93.5307 40.774 92.1203C40.4868 90.855 40.5329 89.5369 40.9077 88.2947C41.0206 87.895 40.812 87.5425 40.6388 87.2091C40.4276 86.7986 40.1881 86.417 39.9711 86.0169C39.5609 85.2615 39.4802 84.497 39.8911 83.6883C40.2701 82.933 40.3566 82.1596 39.8905 81.3783C39.1712 80.1715 39.5145 78.4751 40.6431 77.1888C40.7214 77.1096 40.776 77.0102 40.801 76.9017C40.826 76.7932 40.8203 76.6799 40.7846 76.5745C40.5385 75.59 40.4282 74.5793 40.2664 73.5836C40.248 73.3535 40.163 73.1338 40.0219 72.9512C39.4223 72.3003 39.5622 71.6096 40.0103 71.0032C40.6119 70.1913 40.6551 69.4034 40.2468 68.5129C39.9809 67.9314 39.9546 67.282 39.9156 66.6506C39.8803 66.0588 40.2114 65.6633 40.7128 65.394C40.5201 62.5577 40.6209 59.7163 40.5377 56.8787C40.5275 55.6389 40.3526 54.3676 40.4225 53.0887Z" fill="#8DAFB9"/>
<path d="M54.1575 82.3805C53.1354 80.9889 52.1985 79.7416 51.4983 78.3338C50.3085 75.9356 49.3737 73.4502 48.841 70.8291C47.6192 64.8221 48.0268 58.9085 50.1758 53.1618C51.7146 49.0324 54.1031 45.4836 57.8775 42.9855C61.8789 40.3406 67.3577 40.4684 71.2096 43.2926C73.9578 45.3081 75.9073 47.9097 77.3262 50.9725C80.5701 57.9829 80.8911 65.2161 78.9982 72.631C78.8191 73.3303 78.3655 74.016 78.3818 74.6988C78.4218 76.4062 77.0253 77.3564 76.4332 78.7191C75.8177 80.1401 74.7774 81.3283 73.7606 82.5091C75.0414 82.936 76.3247 83.2716 77.1566 84.4218C77.4171 84.7568 77.5567 85.17 77.5526 85.5944C77.5402 86.8905 77.5715 88.1894 77.5265 89.4817C77.4789 90.7504 76.4607 91.2278 75.5193 91.7591C74.1616 92.5253 72.6824 92.4 71.224 92.388C65.2117 92.3401 59.1984 92.3026 53.1875 92.2033C52.4342 92.2059 51.6901 92.0382 51.0108 91.7127C50.3315 91.3873 49.7345 90.9124 49.2645 90.3238C49.1204 90.1551 49.0119 89.959 48.9453 89.7474C48.8787 89.5358 48.8554 89.3129 48.8768 89.0921C48.9637 88.0017 48.9788 86.9068 48.9221 85.8144C48.8174 84.3896 49.5744 83.5932 50.7337 83.0481C51.7566 82.5705 52.8367 82.2661 54.1575 82.3805Z" fill="#FEFEFE"/>
<path d="M58.3507 71.2737C58.384 70.2058 58.0553 69.1647 58.2908 68.0678C58.7334 66.013 59.7276 64.4128 61.6391 63.4751C62.0393 63.2793 62.045 63.1541 61.8004 62.827C61.3794 62.2645 61.0783 61.6639 61.461 60.9351C61.5757 60.7184 61.4201 60.4685 61.3172 60.2917C60.9224 59.6059 60.8813 58.8375 60.8162 58.0964C60.7058 56.8265 61.3871 55.8854 62.3013 55.1053C62.5617 54.8832 62.7645 54.7457 62.71 54.3205C62.6217 53.6425 63.1562 53.3062 63.7016 53.1806C64.7924 52.9354 65.9291 52.9878 66.9927 53.3323C67.6137 53.5253 68.0309 53.9465 68.0951 54.6387C68.1053 54.8927 68.192 55.1377 68.3439 55.3416C69.8473 57.2395 69.9221 59.0581 68.5114 61.0196C68.2338 61.4295 68.0032 61.8693 67.8238 62.3307C67.624 62.7984 67.2353 63.1341 66.7699 63.424C66.8229 63.4871 66.8833 63.5436 66.9498 63.5924C68.7864 64.523 69.7506 66.4736 69.5601 68.5523C69.2687 71.7579 67.4836 74.1939 65.5822 76.5666C64.842 77.4911 63.3604 77.47 62.3145 76.9294C60.7347 76.1111 59.9288 74.7524 59.2824 73.2122C59.182 72.9738 59.1644 72.6524 58.8413 72.5509L58.3507 71.2737Z" fill="#FDC200"/>
<path d="M57.9123 52.0506C58.9455 51.994 59.4185 52.6529 59.7666 53.4896C59.8985 53.8669 60.0709 54.2288 60.2808 54.569C60.5919 55.0213 60.3282 55.4596 59.7746 55.5342C59.1042 55.6294 58.3013 55.1654 58.0087 54.4893C57.6878 53.7487 57.4594 52.9838 57.6297 52.1599L57.9123 52.0506Z" fill="#FDC301"/>
<path d="M57.9491 59.7285C57.1481 60.0119 56.4778 59.7805 56.2337 59.1366C56.0096 58.557 56.2696 58.194 57.0952 57.919C57.742 57.7034 58.5442 57.9872 58.7094 58.491C58.9024 59.0793 58.658 59.474 57.9491 59.7285Z" fill="#FDC302"/>
<path d="M73.0459 54.1863C73.6238 55.0441 73.452 55.6947 72.4662 56.2727C71.9915 56.5515 71.362 56.9688 70.9631 56.5143C70.6406 56.1468 71.2208 55.6402 71.4951 55.2634C71.7687 54.8419 72.1253 54.4807 72.5433 54.2018C72.7036 54.0053 72.8708 54.0177 73.0459 54.1863Z" fill="#FDC304"/>
<path d="M71.9526 58.5257C72.6751 58.2725 73.6595 58.6204 73.8579 59.1885C73.9927 59.5712 73.8036 59.7526 73.4652 59.8704C72.5978 60.173 71.527 59.9159 71.3781 59.3483C71.2566 58.8686 71.5411 58.6454 71.9526 58.5257Z" fill="#FDC303"/>
<path d="M73.046 54.1863L72.5456 54.2075C72.7136 53.8783 72.3971 53.6496 72.3669 53.3594C72.34 53.1073 72.2574 52.8471 72.483 52.6582C72.7086 52.4692 72.9107 52.6355 73.117 52.7149C73.4002 52.8236 73.4364 53.0656 73.4526 53.3284C73.4748 53.6956 73.1421 53.8833 73.046 54.1863Z" fill="#FDC408"/>
<path d="M49.1792 89.5643C49.5294 88.7725 49.2839 87.9339 49.3705 87.1226C49.4218 86.6483 49.381 86.1653 49.3908 85.6856C49.4118 84.7045 49.9818 84.0526 50.8889 83.6658C52.157 83.1262 53.4551 83.0886 54.796 83.1067C60.7798 83.1868 66.7647 83.219 72.751 83.2884C74.0104 83.3035 75.2052 83.5929 76.1906 84.4524C76.4178 84.6355 76.5979 84.8705 76.7157 85.1375C76.8335 85.4045 76.8857 85.6959 76.8677 85.9872C76.8191 87.1458 76.8029 88.3061 76.819 89.4681C76.8239 90.0323 76.5786 90.3569 76.151 90.7109C74.6529 91.9285 72.8942 91.8275 71.1438 91.807C66.6735 91.7569 62.2058 91.7036 57.7406 91.6471C56.0271 91.6288 54.3048 91.7319 52.6018 91.5881C51.5268 91.5101 50.5163 91.0459 49.7567 90.2812C49.6401 90.1622 49.561 89.9745 49.3442 89.9911L49.1792 89.5643Z" fill="#ECC342"/>
<path d="M60.977 41.5131C60.995 41.5557 61.0206 41.5947 61.0527 41.6282C60.6412 42.1893 60.1032 42.4104 59.4182 42.2471C59.4037 42.2053 59.4023 42.1601 59.414 42.1174L60.977 41.5131Z" fill="#E6A032"/>
<path d="M59.4147 42.2468L61.0492 41.6279C64.6541 40.5162 67.894 41.4014 70.8478 43.5408C73.2412 45.2751 74.9746 47.5812 76.2687 50.2279C79.5589 56.9546 80.0474 63.9721 78.4608 71.2029C78.31 71.8864 78.0832 72.5516 77.834 73.4307C77.2635 72.0104 76.5521 70.9302 76.7375 69.4491C77.0343 67.0766 76.0826 65.1671 74.0561 63.8259C72.7678 62.9721 71.9932 61.6225 70.971 60.5148C70.8761 60.4137 70.7554 60.2077 70.9031 60.1145C71.0781 60.0025 71.3239 59.8024 71.5224 59.9423C72.4121 60.5713 73.1985 60.6446 74.0036 59.7606C74.2339 59.5075 74.6578 59.8145 74.9814 59.947C75.2733 60.0655 75.6523 60.5408 75.8687 60.0649C76.0189 59.7361 75.5112 59.5222 75.1791 59.4357C74.56 59.2731 73.98 59.1183 73.5005 58.6081C73.335 58.4477 73.1223 58.3449 72.8937 58.315C72.6652 58.2851 72.4332 58.3297 72.232 58.4422C71.4236 58.8976 70.8102 58.7623 70.3017 57.999C70.1526 57.7745 69.7071 57.6875 69.7923 57.3986C69.8775 57.1097 70.3052 57.1806 70.582 57.1113C71.044 56.995 71.5245 56.9519 71.988 56.8351C73.1538 56.5402 73.8481 55.1576 73.4127 54.0527C73.267 53.6759 73.4213 53.3832 73.7115 53.1282C74.4477 52.4859 74.5214 51.8831 73.99 51.0647C73.8834 50.8992 73.777 50.7812 73.5653 50.8532C73.3536 50.9252 73.3151 51.0549 73.365 51.2687C73.4317 51.5128 73.4703 51.7637 73.4803 52.0166C73.4845 52.2397 73.4652 52.4359 73.1027 52.4235C72.4893 52.403 72.244 52.872 72.2853 53.386C72.314 53.7572 72.1737 53.946 71.9492 54.1591C71.7248 54.3723 71.501 54.5786 71.4241 54.8889C71.1821 55.8669 70.3956 56.0479 69.567 56.1583C69.0407 56.2273 69.1417 55.6057 68.6973 55.4198C69.8192 55.0156 70.5077 54.4114 70.3746 53.2142C70.2299 51.9148 69.5458 51.249 68.2392 51.0864C67.9668 51.0523 67.5296 51.2755 67.4313 50.9066C67.3167 50.4701 67.8539 50.4889 68.0896 50.3091C68.5154 49.9804 68.9314 49.5668 69.5661 49.7103C69.6437 49.7233 69.7233 49.706 69.7884 49.6618C69.8536 49.6177 69.8992 49.5502 69.9159 49.4733C69.9785 49.2703 69.8508 49.131 69.6775 49.0519C69.0937 48.7854 68.6593 49.1175 68.2434 49.4424C67.7825 49.8391 67.3713 50.2901 67.0186 50.7856C66.8957 50.943 66.7839 51.129 66.5534 50.8555C66.0184 50.2059 66.0086 50.2146 65.6881 51.049C65.6717 51.0915 65.6216 51.119 65.5448 51.1963C65.2968 50.9197 65.3917 50.4778 65.048 50.2169C64.6879 51.0255 64.3963 50.7806 64.0934 50.1627C63.8629 49.6939 63.4406 49.3994 62.9991 49.1403C62.7081 48.9689 62.3788 48.8387 62.0742 49.0057C61.8339 49.1396 61.4447 49.2491 61.5192 49.637C61.5988 50.0509 61.9654 49.8616 62.2142 49.8687C62.8052 49.8863 63.3866 49.8962 63.7977 50.4247C63.9173 50.577 64.1642 50.6981 64.0136 50.9237C63.91 51.0802 63.6934 51.0081 63.517 50.9762C62.8516 50.8594 62.239 50.9043 61.657 51.3427C60.5968 52.1399 60.3396 52.9219 60.797 54.1725C60.8676 54.3552 61.1439 54.6028 60.8585 54.7558C60.6397 54.8732 60.4358 54.6091 60.3142 54.4347C60.0582 54.0887 59.8482 53.7111 59.6894 53.3111C59.4867 52.7528 59.1574 52.2747 58.5267 52.1117C58.4031 52.0807 58.2231 52.0437 58.2493 51.9121C58.4544 50.8894 57.253 50.184 57.6308 49.1158C57.6521 49.0539 57.6586 48.9879 57.6499 48.923C57.6412 48.8582 57.6174 48.7963 57.5806 48.7422C57.5437 48.6881 57.4948 48.6433 57.4376 48.6115C57.3805 48.5796 57.3167 48.5615 57.2513 48.5586C56.9498 48.5259 56.9766 48.8454 56.8605 49.0248C56.1704 50.0874 56.7825 51.0042 57.1679 51.9414C57.3098 52.2594 57.3923 52.6006 57.4112 52.9483C57.4566 54.3812 58.1989 55.2952 59.5832 55.7182C59.8453 55.8081 60.1127 55.8817 60.3838 55.9386C60.8231 56.0181 60.7844 56.2235 60.564 56.5023C60.1741 56.996 59.7599 57.4695 59.4038 57.9912C59.1044 58.422 58.7194 58.1902 58.4557 58.0854C57.583 57.7337 56.7763 57.5058 56.0482 58.36C55.8618 58.5781 55.6701 58.3241 55.5135 58.2501C55.2802 58.1213 55.0127 58.0682 54.748 58.0983C54.4832 58.1283 54.2344 58.24 54.036 58.4177C53.9512 58.4732 53.8871 58.5552 53.8538 58.6509C53.8204 58.7466 53.8197 58.8506 53.8517 58.9468C53.9351 59.205 54.1245 59.1941 54.3449 59.1318C55.1504 58.9024 55.8779 58.9591 56.4605 59.6724C56.6368 59.8864 56.9261 59.9599 57.2142 59.9962C57.3884 60.0224 57.6885 59.8948 57.7119 60.1844C57.727 60.3804 57.4852 60.4936 57.3093 60.5944C56.4213 61.0771 55.5939 61.6637 54.8444 62.3417C54.2525 62.8987 53.6443 63.4391 53.4943 64.3027C53.4732 64.4019 53.425 64.4932 53.3551 64.5666C52.3473 65.6224 51.8805 66.8678 51.589 68.3161C51.3858 69.3184 50.5413 70.198 50.3042 71.2823C50.2175 71.6817 50.2693 72.1425 49.8379 72.5078C49.2398 70.494 48.8743 68.4184 48.7486 66.3215C48.3803 60.6588 49.2208 55.2112 51.8329 50.1107C53.3935 47.0559 55.5052 44.4886 58.4728 42.6963C58.7786 42.5298 59.093 42.3797 59.4147 42.2468V42.2468Z" fill="#E08900"/>
<path d="M70.0716 66.735C70.3939 67.5686 70.6897 68.4141 71.0386 69.2358C72.0968 71.6882 73.7198 73.7384 75.6309 75.5705C75.9328 75.8591 76.5556 76.0186 76.6099 76.3159C76.7022 76.8135 76.2435 77.278 76.0017 77.7473C75.2494 79.1564 74.3518 80.4829 73.3234 81.7051C72.8411 82.2952 72.3265 82.5599 71.5468 82.5463C66.9397 82.4622 62.3326 82.4289 57.7261 82.3674C57.3522 82.3421 56.9768 82.3494 56.6041 82.3895C55.4742 82.5819 54.8146 82.0346 54.1504 81.2249C52.6797 79.4243 51.666 77.3714 50.6954 75.2855C50.529 74.9315 50.5555 74.8474 51.0177 74.7441C52.3104 74.4592 53.1945 73.5037 54.0496 72.5709C55.3972 71.0978 56.6143 69.5105 57.6874 67.8269C57.7794 67.683 57.8626 67.4654 58.072 67.5486C58.2813 67.6317 58.1688 67.8541 58.1592 68.0202C57.9902 71.2622 58.7416 74.1941 61.1309 76.5289C62.637 78.0008 64.838 77.9603 66.2382 76.4131C68.2837 74.1454 69.7351 71.5808 69.9086 68.4438C69.913 67.8978 69.8898 67.3521 69.8391 66.8085L70.0716 66.735Z" fill="#E08900"/>
<path d="M69.7284 66.556C69.5927 66.2194 69.4378 65.8909 69.2642 65.5721C68.7679 64.7681 68.1825 64.0477 67.2563 63.7019C66.9043 63.5722 66.8393 63.3956 67.1674 63.1325C67.6614 62.738 68.1522 62.3399 68.1802 61.6186C68.185 61.474 68.3505 61.3673 68.511 61.3496C68.6715 61.3318 68.7066 61.4905 68.7298 61.5931C69.1126 63.2237 69.458 64.8639 69.9741 66.4659L69.7284 66.556Z" fill="#E08B02"/>
<path d="M60.585 59.8282C60.8112 60.2478 61.1512 60.5839 60.9056 61.1285C60.7049 61.5769 61.0247 61.9455 61.3002 62.2804C61.4908 62.5102 61.6977 62.7272 61.9749 63.0367C61.0533 63.2821 60.2327 63.8125 59.6304 64.552C59.5948 64.5848 59.5522 64.6091 59.5059 64.623C59.4596 64.637 59.4107 64.6402 59.3629 64.6325C59.2512 64.6068 59.2431 64.4754 59.274 64.3814C59.7786 62.89 60.1309 61.3526 60.585 59.8282Z" fill="#E08A02"/>
<path d="M37.0259 104.773C37.4383 103.76 37.7982 102.866 38.1581 101.972C38.7138 100.609 39.3036 99.2487 39.8197 97.8678C39.94 97.5423 39.8766 97.1238 39.8068 96.7734C39.1163 92.8236 39.1367 88.845 39.0603 84.8709C38.929 79.0149 38.7834 73.1643 38.6861 67.3114C38.5839 61.1487 38.3795 54.9763 38.4619 48.8243C38.5319 43.7436 38.9656 38.6699 39.2884 33.6063C39.373 32.425 39.6764 31.2576 39.8785 29.998C39.021 29.6897 38.6392 28.7872 38.2652 27.9474C37.6607 26.6387 36.9937 25.3379 36.98 23.8173C36.9851 23.6184 36.6947 23.4189 36.4876 23.138C36.7445 23.0387 36.9739 22.868 37.2068 22.8763C42.1246 22.7796 47.0489 22.6148 51.9538 22.6544C56.0885 22.6964 60.2313 23.0142 64.3595 23.1244C67.1922 23.1941 70.0356 23.0791 72.8747 23.0806C75.2876 23.0829 77.7082 23.1478 80.1234 23.1984C83.0187 23.2603 85.9107 23.3562 88.8148 23.3982C89.5081 23.4091 89.6166 23.8594 89.5493 24.2792C89.4375 25.1589 89.2332 26.0244 88.9397 26.8613C88.6871 27.566 88.2334 28.2173 87.8501 28.9234C88.9123 29.973 89.0246 31.3242 88.9941 32.7307C88.8851 37.4983 88.742 42.2627 88.667 47.0336C88.5798 52.5367 88.5248 58.0382 88.5021 63.5382C88.4935 65.5105 88.6926 67.4681 88.684 69.4404C88.6785 71.8873 88.4994 74.3521 88.5082 76.7935C88.5166 81.4829 88.6557 86.171 88.596 90.854C88.567 93.1131 88.203 95.3541 88.029 97.62C87.9925 98.0772 87.9978 98.6002 88.1864 99.0031C88.9188 100.558 89.7368 102.079 90.5405 103.606C90.8381 104.164 90.6773 104.554 90.0061 104.6C88.4615 104.722 86.9279 104.872 85.3819 104.862C76.805 104.831 68.2126 104.675 59.6435 104.707C53.0071 104.73 46.3568 104.972 39.7107 105.097C39.1769 105.128 38.6419 105.132 38.1077 105.109C37.7955 105.066 37.4535 104.903 37.0259 104.773ZM39.257 103.287C41.639 103.252 44.1034 103.218 46.5536 103.189C54.9809 103.13 63.4148 103.074 71.8552 103.021C75.4052 102.994 78.9488 103.034 82.4965 102.959C84.5006 102.922 86.5097 102.687 88.7311 102.533C87.6082 101.327 87.2405 99.697 85.5414 99.4187C85.6788 98.8405 85.8526 98.3139 85.89 97.7744C86.1087 95.3271 86.4043 92.8665 86.4526 90.403C86.5683 83.8279 86.5588 77.2684 86.6118 70.701C86.6333 66.1313 86.6614 61.5645 86.6961 57.0006C86.7541 51.9737 86.8407 46.9358 86.8987 41.909C86.9313 38.5984 86.9382 35.2922 86.9195 31.9905C86.8959 31.7172 86.8105 31.4529 86.6698 31.2175C86.2828 30.5138 85.8729 29.8356 85.4993 29.2088C85.966 28.4213 86.9847 28.5524 87.2282 27.6543C87.4268 26.9376 87.8179 26.2941 88.1188 25.5871C87.309 25.572 86.641 25.5842 85.9905 25.5568C83.0588 25.4434 80.1392 25.2761 77.2098 25.211C70.4105 25.0672 63.607 25.0398 56.8142 24.8278C52.2684 24.6986 47.7287 24.2881 43.163 24.6588C41.7777 24.7679 40.3901 24.8286 38.7377 24.9261C39.7537 26.535 40.3423 28.2271 42.1947 28.7743C41.9667 29.0757 41.7562 29.3376 41.5457 29.5995C41.7722 29.676 42.0042 29.7668 42.2703 29.8608C41.3533 30.7568 41.3027 31.9414 41.2267 33.1029C40.9282 37.55 40.624 41.9829 40.3452 46.4389C40.2968 47.1472 40.2867 47.8577 40.315 48.5672C40.414 53.5333 40.5415 58.4885 40.6405 63.4546C40.7606 69.7909 40.8324 76.1294 40.9525 82.4657C40.9926 84.6488 41.2317 86.8371 41.1213 89.0128C40.9659 91.8056 41.2931 94.6042 42.0887 97.2858C42.228 97.7734 42.0897 98.434 41.6523 98.4062C40.6271 98.3432 40.7139 98.9495 40.6183 99.5936C40.5445 100.082 40.286 100.559 40.1045 101.023C39.8169 101.807 39.5413 102.537 39.257 103.287Z" fill="black"/>
<path d="M53.9867 82.3973C53.458 81.6665 52.8138 80.8491 52.2782 79.9732C49.2898 75.1727 48.0322 69.8834 48.0145 64.2787C47.9895 58.3158 49.2793 52.6978 52.5775 47.6487C54.4205 44.8194 56.7689 42.5331 59.9552 41.2682C63.9067 39.691 67.6434 40.2315 71.135 42.5568C74.1866 44.5928 76.2453 47.4558 77.7191 50.7582C81.0132 58.1315 81.264 65.697 79.1089 73.4053C78.8567 74.3232 78.7123 75.2651 78.4997 76.2005C78.4725 76.3423 78.4015 76.583 78.3389 76.5908C77.6216 76.6877 77.6195 77.3612 77.35 77.81C76.2905 79.4831 75.2508 81.1649 74.2056 82.8325C75.2753 83.2229 76.6108 83.4941 77.3875 84.654C77.6653 85.0682 77.8285 85.5487 77.8602 86.0464C77.9251 87.3175 77.9076 88.5877 77.8759 89.8634C77.8521 90.693 77.3708 91.2729 76.709 91.7257C75.3515 92.628 73.8676 92.9064 72.2622 92.8708C66.821 92.7597 61.3932 92.7255 55.9543 92.6627C54.9852 92.66 54.0183 92.7057 53.0645 92.6151C51.4776 92.4575 50.0055 91.9602 49.0954 90.5401C48.8078 90.0934 48.7583 89.4562 48.742 88.9047C48.7161 87.9466 48.8209 86.9872 48.8093 86.0237C48.7985 84.2558 49.2539 83.9484 50.8282 83.2248C51.7998 82.7671 52.9379 82.6552 53.9867 82.3973ZM55.7205 65.1549L55.922 64.1909C53.753 64.7343 52.0755 66.7612 52.5178 68.3294C53.6047 67.2364 54.6345 66.1655 55.6841 65.1033C55.0167 66.0505 54.3405 67.0175 53.6588 67.9703L54.1441 67.7826C53.9949 67.9059 53.8622 68.0721 53.6997 68.1185C51.846 68.6712 50.8223 70.6914 50.8166 72.4165C52.7822 71.7713 55.148 68.2148 55.7172 66.4195C55.5735 66.5571 55.4529 66.6694 55.3235 66.8015C55.3332 66.6993 55.3033 66.5796 55.3581 66.5092C56.3875 65.2251 57.417 63.941 58.5058 62.6832C58.9148 62.2133 59.4448 61.8443 59.9242 61.4292C59.3744 61.5597 58.8559 61.7977 58.3984 62.1295C57.941 62.4613 57.5537 62.8802 57.2588 63.3623C56.8589 64.0255 56.2446 64.5584 55.7205 65.1549ZM60.4693 70.0951C60.0202 69.6125 59.5655 69.1156 59.1163 68.6329C59.079 68.6638 59.0505 68.6748 59.0132 68.7056C59.3108 69.2633 59.6228 69.8154 59.9204 70.373C60.1378 70.2561 60.298 70.1614 60.4781 70.0753C60.4937 70.2006 60.5686 70.3521 60.5249 70.451C60.2185 71.1438 60.5854 71.1168 60.9896 71.0589C61.2013 71.4365 61.3922 71.8877 61.7286 72.0366C62.4559 72.3848 63.2293 72.6272 64.0252 72.7565C65.2341 72.9126 65.2406 72.8445 65.5352 71.6968C65.5384 71.6628 65.6153 71.6494 65.8327 71.5326C65.8081 71.9359 65.7877 72.2227 65.7522 72.5974C66.5639 72.4476 65.9118 71.5676 66.5551 71.2368C66.5559 71.6631 66.5521 71.9928 66.5427 72.3081C66.6388 72.2556 66.7235 72.1845 66.7918 72.0989C66.8602 72.0134 66.9108 71.915 66.9407 71.8097C67.0052 71.6371 67.0499 71.4557 67.1089 71.2688C67.1628 71.2808 67.2222 71.3071 67.276 71.3191C67.2907 71.5267 67.3196 71.7288 67.331 71.9705C69.3197 70.0694 69.3197 70.0694 69.3659 69.5101C66.7538 71.7507 62.9895 72.3694 60.4693 70.0951ZM76.3199 69.5449C76.2715 69.7312 76.2464 69.9228 76.2452 70.1153C76.2686 70.3031 76.3974 70.4666 76.4834 70.6466C77.094 67.9822 76.196 65.9994 74.188 64.4131C73.453 63.8277 72.8165 63.0729 72.1824 62.3665C71.4305 61.5251 70.7301 60.6473 70.0154 59.7751C69.9869 59.7861 69.9781 59.8059 69.9496 59.817L70.4132 61.016C70.1928 60.6582 69.9779 60.3147 69.73 59.8855C70.1268 61.2088 70.4532 62.4772 70.908 63.696C71.735 65.9195 73.0657 67.8334 74.6686 69.5599C75.0054 69.9219 75.4081 70.242 75.768 70.5787L75.9918 70.3937C74.7384 68.6797 73.4905 66.98 72.237 65.266C72.2743 65.2351 72.3116 65.2043 72.3632 65.168C73.6241 66.7314 74.8992 68.2894 76.149 69.8243C76.1972 69.726 76.2544 69.6325 76.3199 69.5449V69.5449ZM58.2355 60.2445C57.6463 60.0785 56.987 60.0709 56.6469 59.743C56.0229 59.1475 55.4041 59.075 54.6265 59.228C54.4442 59.2657 54.2495 59.1441 54.0483 59.0906C54.1359 58.8926 54.2078 58.5695 54.3275 58.5396C55.008 58.4339 55.6938 58.3659 56.3818 58.336C56.7885 57.8177 57.5302 57.8263 58.3767 58.1061C58.722 58.2351 59.3001 58.3725 59.4811 58.2041C60.0932 57.6228 60.5732 56.9122 61.1356 56.2025C60.6002 56.0485 60.1836 55.9471 59.7702 55.8116C58.4081 55.3866 57.7782 54.5637 57.6295 53.1608C57.5547 52.5006 57.4611 51.7492 57.0976 51.2335C56.4046 50.2052 57.0296 49.4877 57.4742 48.6431C57.6773 48.8878 57.8042 49.1867 57.8394 49.5027C57.8895 49.8443 57.7913 50.2269 57.9072 50.5266C58.1026 51.0746 58.4068 51.5641 58.7375 52.2073C59.3047 52.3162 59.6507 52.8715 59.9902 53.495C60.3195 54.055 60.7132 54.5746 61.1632 55.0433C61.3063 55.2012 61.6447 55.1852 61.8062 55.2212C61.4635 54.6318 60.989 54.1261 60.899 53.5538C60.6657 52.1017 62.0468 50.8785 63.5227 51.0462C63.7952 51.0721 64.0655 51.0496 64.4292 51.0567C63.9208 50.039 63.1405 49.9305 62.2934 49.9463C62.1104 49.914 61.9349 49.8484 61.7756 49.7528C61.8742 49.5834 61.9484 49.3086 62.0736 49.293C62.4581 49.2264 62.9512 49.1013 63.2504 49.281C63.7134 49.545 64.0746 50.0124 64.4566 50.4061C64.6437 50.6164 64.8131 50.8418 64.9632 51.0799C65.1088 50.7774 65.2051 50.5597 65.3595 50.2375L65.801 51.3794C65.9051 51.2243 65.9599 51.1539 66.0092 51.0692L66.3828 50.4653C66.4974 50.6343 66.5659 50.854 66.7155 50.9438C66.8 50.9795 66.8918 50.9946 66.9834 50.9878C67.0749 50.9809 67.1635 50.9523 67.2417 50.9044C67.4886 50.6941 67.6429 50.3719 67.8897 50.1616C68.3386 49.759 68.8285 49.4045 69.3514 49.1042C69.5259 49.0039 69.8592 49.1868 70.1054 49.272C70.1648 49.2983 70.1928 49.5828 70.1642 49.5938C69.9636 49.6714 69.7577 49.7345 69.5482 49.7828C68.6554 50.0624 67.9278 50.5571 67.1513 51.3495C68.9405 50.9695 70.1907 51.4869 70.5498 52.6279C70.9775 53.9885 70.5099 54.8584 69.0903 55.473C69.3381 56.4109 69.9928 56.3218 70.6945 56.0997C71.1337 55.9626 72.6049 54.0812 72.5876 53.612C72.5796 52.8275 72.9195 52.4336 73.814 52.4979C73.7759 52.1024 73.7203 51.7465 73.7043 51.4081C73.7214 51.2511 73.7615 51.0974 73.8233 50.9519C73.9872 51.0363 74.2114 51.0644 74.3006 51.2104C74.7953 51.938 74.6965 52.6161 74.0131 53.2249C73.6829 53.5167 73.5262 53.7905 73.7622 54.2736C73.9067 54.5623 73.8503 55.0107 73.7554 55.3591C73.3898 56.7475 72.2332 56.9814 71.0458 57.178C70.6899 57.2336 70.3506 57.332 69.9717 57.4129C70.0522 57.5786 70.0544 57.627 70.0853 57.6643C70.8161 58.3662 71.3636 59.1882 72.7041 58.5386C73.7415 58.039 74.4563 59.6331 75.5935 59.6036C75.8209 59.5977 76.0445 59.9214 76.2613 60.1001C76.214 60.1854 76.1712 60.2732 76.1332 60.363C75.812 60.2636 75.4973 60.1441 75.1909 60.0054C74.7445 59.7842 74.396 59.6893 73.9958 60.1394C73.5352 60.6456 72.9022 60.5786 72.2909 60.3556C71.872 60.2058 71.4324 60.1297 70.996 60.0195C70.9522 60.1184 70.9029 60.2031 70.8448 60.3076C71.9765 61.4944 72.9985 62.8221 74.2858 63.8174C76.4126 65.4563 77.4095 67.4828 77.0439 70.1017C76.8551 71.4382 77.7687 72.3155 78.0665 73.595C78.1422 73.4758 78.2092 73.3512 78.2669 73.2222C80.6632 64.5675 80.1659 56.1948 75.4931 48.3537C73.7255 45.3947 71.2711 43.0785 67.9485 41.8692C65.2911 40.895 62.6246 40.958 60.0621 42.0965C56.7542 43.556 54.3832 46.0808 52.6165 49.1923C49.6055 54.475 48.5675 60.1925 48.9672 66.191C49.1206 68.4124 49.5839 70.6288 49.9154 72.929C50.6245 71.3258 51.2406 69.9062 51.8709 68.4811C51.9007 68.4103 51.9105 68.3328 51.8991 68.2569C51.858 66.1561 53.4983 64.882 54.3898 63.241C54.8661 62.3513 55.9979 61.7988 56.8582 61.138C57.3081 60.8164 57.8031 60.5265 58.2355 60.2445V60.2445ZM50.8004 75.048C50.8273 75.195 50.8617 75.3405 50.9034 75.484C51.8376 77.5183 52.8378 79.5108 54.2298 81.2861C54.9159 82.1693 55.5896 82.8933 56.8405 82.6065C57.1569 82.5334 57.4943 82.5998 57.8239 82.6036C62.4889 82.6594 67.1503 82.7056 71.8079 82.7423C72.2057 82.7526 72.7485 82.756 72.9986 82.5116C74.7578 80.7813 76.0408 78.71 77.0125 76.513C71.9636 72.7061 70.0794 67.2816 68.8998 61.3879C68.3277 62.1998 67.8192 62.9215 67.3249 63.6376C69.9452 65.3646 70.6439 67.129 69.9452 70.2869C69.4057 72.7107 68.1854 74.7741 66.502 76.5736C65.049 78.1199 62.869 78.126 61.3029 76.6642C59.5849 75.0642 58.8385 73.0064 58.506 70.7887C58.3324 69.576 58.4434 68.3353 58.434 67.42C57.1821 69.0198 55.7736 70.8935 54.2836 72.6839C53.3615 73.7788 52.3437 74.7958 50.8004 75.048V75.048ZM74.983 91.8024C76.0629 91.0731 77.1688 90.7931 77.1104 89.4539C77.0634 88.3563 77.1702 87.2321 77.1089 86.14C77.0828 85.6907 76.8929 85.1571 76.5836 84.8664C75.6194 83.943 74.3871 83.5991 73.0543 83.5894C67.6407 83.5497 62.2336 83.4418 56.8365 83.4448C54.9665 83.446 53.0606 83.1 51.2349 83.9372C50.2864 84.3696 49.5582 85.1598 49.5938 86.0157C49.6386 87.0983 49.6252 88.1825 49.5535 89.2636C49.5086 89.9537 49.7961 90.4004 50.3089 90.7928C51.5147 91.7048 52.8917 91.8287 54.3354 91.8283C60.0391 91.8544 65.7362 91.9486 71.4311 91.9944C72.7156 92.0064 73.9877 91.8591 74.983 91.8024ZM69.1944 56.5485C68.9468 56.3324 68.4967 55.9322 68.018 55.543C67.8013 55.3643 67.4781 55.2924 67.3327 55.0861C66.7115 54.2433 65.939 54.1975 65.054 54.5397C64.74 54.6611 64.3845 54.9298 64.1295 54.8643C63.4072 54.6514 62.9619 55.0697 62.4691 55.4079C60.9076 56.5039 60.9883 58.6222 61.4233 59.8322C61.9081 61.1707 62.7118 61.4671 64.0591 60.9625C64.2663 60.8782 64.4915 60.8475 64.7137 60.8734C65.4518 61.0023 66.1815 61.1749 66.899 61.3903C67.6125 61.6231 68.1539 61.4958 68.5671 60.9094C69.4538 59.6805 69.7393 58.3395 69.1944 56.5485ZM62.8462 67.7978C62.7385 67.7738 62.6505 67.7586 62.5428 67.7346C62.6766 66.9773 62.8049 66.2058 62.9387 65.4485C62.8848 65.4365 62.8254 65.4103 62.7716 65.3983C62.5301 66.1316 62.2743 66.8704 61.9913 67.751C61.5497 66.6091 62.2438 65.8156 62.4278 64.8913C61.5257 65.4862 61.5299 66.6003 60.9919 67.4155C60.7142 66.3579 61.4194 65.593 61.8695 64.7626C61.8046 64.7221 61.7452 64.6958 61.6803 64.6553C61.0971 65.4386 60.5283 66.2165 59.8903 67.0702C59.9575 65.9285 60.577 65.1967 61.2503 64.4769C60.3709 64.8334 59.6469 65.5071 59.5407 66.3358C59.4216 67.3007 60.2556 67.9299 61.0168 68.4559C61.0823 68.2009 61.1303 67.9855 61.2252 67.637L61.7165 68.9074C61.8284 68.8149 61.8261 68.7665 61.8238 68.7182C61.7949 68.5161 61.7517 68.3195 61.737 68.1118C61.7315 68.0976 61.9709 68.0378 61.9819 68.0663C62.0624 68.2321 62.1825 68.4154 62.1664 68.5857C62.1441 69.0373 62.2577 69.2888 62.7687 69.3373C63.416 69.3988 64.0614 69.625 64.7206 69.6327C65.4623 69.6412 66.3172 69.688 66.5791 68.6679C66.5736 68.6537 66.6758 68.6634 66.7384 68.6556L66.6898 69.1666C68.7931 68.6651 69.6782 67.8141 69.2841 66.7524C69.1841 66.791 69.0755 66.8494 68.9185 66.9101L68.3058 65.3257L68.1203 65.3975C68.3134 65.8971 68.5352 66.3856 68.68 66.8875C68.732 67.0643 68.6181 67.3216 68.5251 67.5053C68.4988 67.5646 68.2088 67.5783 68.1977 67.5498C68.115 67.3781 68.0606 67.1942 68.0363 67.0051C68.0074 66.803 68.0894 66.5908 68.032 66.3997C67.9313 66.012 67.8021 65.6354 67.6728 65.2588C67.6157 65.2808 67.5388 65.2941 67.4817 65.3162C67.9686 67.2118 67.9029 67.9755 67.2408 68.2152C67.2435 67.2461 67.2263 66.2682 67.2235 65.2848L66.8741 65.2723C66.6362 66.1847 67.3061 67.2383 66.5267 68.278C66.4502 67.2738 66.8617 66.3436 66.0987 65.4736C66.0633 66.5702 66.4243 67.5464 65.8766 68.4637C65.7681 68.0134 65.8245 67.565 65.8182 67.1244C65.8119 66.6839 65.7407 66.2027 65.6949 65.7446C65.2977 66.6694 65.6808 67.7026 64.9134 68.6885C64.952 67.5578 64.9768 66.6458 65.0158 65.7283C64.9136 65.7186 64.8169 65.7231 64.7147 65.7134C64.591 66.5817 64.4761 67.4301 64.3524 68.2983C64.2623 68.2829 64.1712 68.2742 64.0798 68.2724C64.1497 67.3922 64.2393 66.5208 64.3091 65.6405C64.2212 65.6253 64.1388 65.6244 64.0652 65.6036C63.9359 66.4576 63.8012 67.2973 63.6862 68.1457C63.584 68.136 63.4763 68.112 63.3741 68.1023C63.4463 67.2704 63.5184 66.4385 63.5817 65.6265C63.5136 65.62 63.4542 65.5937 63.3861 65.5873C63.2215 66.3072 63.0338 67.0525 62.8462 67.7978ZM59.6224 62.2186C58.1754 63.4837 56.7625 64.752 56.0307 66.5937C55.0879 68.9928 53.6774 71.0313 51.4924 72.4669L50.6045 73.0563C50.6211 73.0991 50.6519 73.1365 50.6685 73.1793C50.8881 73.1108 51.1275 73.051 51.3472 72.9825C51.3221 73.0453 51.2816 73.1008 51.2294 73.1439C51.1773 73.187 51.1152 73.2163 51.0488 73.2291C50.3678 73.3776 50.4357 73.8928 50.6101 74.3012C50.8428 74.8183 51.2895 74.5307 51.5704 74.3237C52.3466 73.7522 53.0891 73.1364 53.7943 72.4793C53.9983 72.2855 53.9635 71.856 54.0857 71.3657C53.1923 71.9409 52.5338 72.3596 51.8753 72.7783C55.263 69.8276 58.1402 66.5328 59.6224 62.2186ZM71.9141 67.1465C72.3967 69.1585 73.0792 71.0933 74.3976 72.8479C75.1935 71.851 74.1463 71.2222 74.0725 70.4795C75.1248 72.1401 76.1913 73.7951 77.3108 75.5445C77.853 74.6129 77.4335 72.2974 76.7063 71.7746C74.8998 70.455 73.3752 68.8458 71.9141 67.1465ZM59.3637 71.8189C59.5143 74.2875 62.1384 75.6848 63.7801 75.7719C65.9558 75.8823 67.5606 74.9829 67.9073 73.5033C63.8857 76.4695 61.2433 74.6854 59.3637 71.8189ZM54.0209 64.6635C56.0754 63.9511 59.2356 61.0063 59.6619 59.7749C58.6963 60.4601 57.6252 61.1696 56.5959 61.945C55.9254 62.4448 55.2843 62.983 54.676 63.557C54.3799 63.852 54.2356 64.2851 54.0209 64.6635ZM60.8235 59.8509C60.5966 60.7918 60.385 61.6448 60.1591 62.5033C59.9332 63.3619 59.6852 64.1633 59.4777 64.8998C60.2919 64.2897 61.1489 63.663 62.052 62.9856C60.6775 62.4013 61.4308 60.9123 60.8235 59.8509ZM66.6843 62.9993C67.0606 62.6569 67.3622 62.3762 67.8361 61.9468C67.2836 62.0456 66.855 61.998 66.5971 62.1798C65.4625 62.9795 64.2715 62.997 63.1954 62.1661C62.8235 61.8833 62.3738 61.6962 61.9559 61.464C61.9066 61.5487 61.843 61.6389 61.7937 61.7236C62.0579 61.9824 62.3078 62.2468 62.5972 62.5287L63.0968 62.3355L63.0353 62.9828C63.2274 62.8429 63.3678 62.7393 63.5884 62.5884C63.6164 62.8729 63.6343 63.0465 63.66 63.2827C63.8607 63.123 63.9869 63.025 64.0846 62.938C64.1927 63.1752 64.2787 63.3552 64.3647 63.5352C64.5084 63.3976 64.6378 63.2656 64.8045 63.1026C64.9421 63.2463 65.0797 63.39 65.2537 63.5853C65.3983 63.3653 65.5024 63.2102 65.6416 62.9759C66.0749 63.842 66.1792 63.1782 66.3676 62.8592C66.4707 62.9113 66.5764 62.9581 66.6843 62.9993V62.9993ZM73.1323 71.9096C73.2049 71.8842 73.2748 71.8517 73.3409 71.8125C73.3353 71.7396 73.3237 71.6672 73.3065 71.5961C72.6892 69.9151 72.1093 68.2032 71.435 66.5441C71.2221 66.0358 70.7467 65.6125 70.391 65.1594C70.2992 65.2088 70.2112 65.2648 70.1276 65.3269C71.1368 67.5127 72.1373 69.7183 73.1323 71.9096V71.9096ZM59.7866 55.1325C59.8863 54.372 59.6353 53.4682 59.1797 53.0537C59.0278 52.9155 58.7198 52.7556 58.5969 52.8196C58.5004 52.888 58.4196 52.9763 58.3601 53.0786C58.3006 53.1809 58.2637 53.2947 58.2519 53.4124C58.1489 54.207 58.8337 54.9595 59.7866 55.1325ZM69.6445 61.8711C69.6171 63.7522 70.5388 64.9053 71.5121 66.0221C71.5835 65.9945 71.6351 65.9582 71.7064 65.9306C71.0592 64.6385 70.3976 63.3519 69.6445 61.8711V61.8711ZM66.3109 61.8639C65.4019 61.0832 64.528 61.4539 63.632 61.7676C64.2707 62.5707 65.5091 62.6333 66.3109 61.8639V61.8639ZM68.1094 55.0154C67.8842 53.8391 66.2833 53.1783 64.7114 53.4415C63.7206 53.5949 63.4222 53.8416 63.4837 54.4249C65.1309 53.2957 66.6354 53.4524 68.1094 55.0154ZM71.628 56.4771C72.5782 56.3886 73.2151 56.1259 73.3981 55.284C73.4286 55.1081 73.337 54.9138 73.3136 54.726C73.1368 54.7779 72.8698 54.7663 72.7689 54.8873C72.3797 55.366 72.0412 55.8907 71.628 56.4771ZM77.2761 75.8368C76.6572 75.0424 76.0636 74.2711 75.47 73.4997C75.0517 74.2849 76.0065 75.5237 77.2761 75.8368ZM61.9052 63.8792C63.6653 65.0363 65.5095 65.3077 67.4614 64.3724C67.2229 64.3498 66.9117 64.224 66.7515 64.3188C65.318 65.152 63.9978 64.7929 62.6878 64.036C62.4591 63.9111 62.169 63.9248 61.9052 63.8792ZM55.3429 70.2889C55.4331 70.3525 55.5376 70.4105 55.6223 70.4598C56.3796 69.363 57.1368 68.2662 57.8798 67.1749C57.8149 67.1344 57.7445 67.0796 57.6796 67.039C56.897 68.1128 56.12 69.2008 55.3429 70.2889ZM56.8452 58.8131C57.0302 59.0369 57.1218 59.2312 57.2295 59.2552C57.5738 59.3201 57.9246 59.3442 58.2745 59.3269C58.3371 59.3191 58.3971 59.0498 58.4528 58.897C58.1076 58.768 57.7744 58.5851 57.4369 58.5187C57.2896 58.4772 57.0999 58.6654 56.8452 58.8131V58.8131ZM72.1738 59.4164C72.6 59.9243 73.0856 59.9498 73.6083 59.7313C73.6654 59.7092 73.7055 59.4312 73.6581 59.3511C73.2684 58.8947 72.8148 59.0372 72.3603 59.2622C72.2932 59.3072 72.2307 59.3589 72.1738 59.4164V59.4164ZM65.157 77.1264C65.1668 77.0242 65.1622 76.9275 65.1719 76.8253C64.3764 76.8048 63.5864 76.7985 62.7766 76.7835L62.7737 77.0307C63.5747 77.0655 64.3703 77.0861 65.157 77.1264V77.1264ZM60.4268 58.0189C60.3631 57.9818 60.3028 57.9393 60.2464 57.8917C59.3719 58.5581 59.3719 58.5581 59.5434 59.2137C59.8612 58.7626 60.144 58.3908 60.4268 58.0189ZM54.4031 71.9321C54.7099 71.4525 54.9356 71.1027 55.1756 70.7474L54.9611 70.617C54.4868 70.8332 54.0917 71.0844 54.4031 71.9321Z" fill="black"/>
<path d="M81.845 98.0914C78.6795 99.2826 75.4515 99.9729 72.0751 99.9823C65.3563 100.004 58.6538 100.578 51.9135 100.247C49.573 100.135 47.4062 99.4957 45.2524 98.7206C44.7939 98.5533 44.3409 98.4002 43.8912 98.2132C43.6466 98.0838 43.41 97.9396 43.1829 97.7815C43.2124 97.6881 43.2474 97.6089 43.2769 97.5155C43.9177 97.6451 44.5608 97.823 45.2048 97.9186C46.8193 98.1475 48.4282 98.3622 50.0514 98.5713C54.754 99.1485 59.4551 98.8731 64.1662 98.7087C69.7673 98.5119 75.3636 98.3169 80.9551 98.1238C81.2509 98.0961 81.548 98.0853 81.845 98.0914V98.0914Z" fill="black"/>
<path d="M81.3311 28.868C68.8305 28.7464 56.3576 28.1875 43.8919 29.2173L43.8354 28.9438C44.3944 28.7769 44.9202 28.5244 45.4782 28.4399C50.9015 27.7074 56.3664 27.3262 61.8388 27.2987C66.5678 27.3078 71.2372 27.7994 75.9297 28.2656C77.3803 28.4103 78.842 28.5835 80.2981 28.7424C80.6443 28.789 80.9905 28.8356 81.3311 28.868Z" fill="black"/>
<path d="M70.3792 61.0127C72.208 63.1114 74.0598 65.1847 75.8512 67.3142C76.3699 67.934 76.6306 68.7356 76.3025 69.5845C76.3634 68.0022 75.3113 67.0635 74.3569 66.0379C73.0655 64.6503 71.8576 63.1812 70.6354 61.7177C70.4955 61.5257 70.4675 61.2411 70.3792 61.0127Z" fill="black"/>
<path d="M58.252 87.6343L58.252 87.353L58.4785 87.3071L58.4785 85.8072L58.252 85.7613L58.252 85.4785L59.9976 85.4785L59.9976 86.0915L59.6348 86.0915L59.6215 85.8457L58.9552 85.8457L58.9552 86.3921L59.6985 86.3921L59.6985 86.7563L58.9552 86.7563L58.9552 87.3071L59.1818 87.353L59.1818 87.6343L58.252 87.6343ZM60.2203 87.6343L60.2203 87.353L60.4469 87.3071L60.4469 85.8072L60.2203 85.7613L60.2203 85.4785L61.1487 85.4785L61.1487 85.7613L60.9221 85.8072L60.9221 87.3071L61.1487 87.353L61.1487 87.6343L60.2203 87.6343ZM61.3833 87.6343L61.3833 87.353L61.6098 87.3071L61.6098 85.8072L61.3833 85.7613L61.3833 85.4771L62.4241 85.4771C62.5919 85.4771 62.737 85.5037 62.8594 85.557C62.9818 85.6103 63.0756 85.6858 63.1407 85.7836C63.2069 85.8813 63.2399 85.9977 63.2399 86.133C63.2399 86.2593 63.2069 86.3748 63.1407 86.4794C63.0746 86.5841 62.9838 86.667 62.8683 86.7282C62.7528 86.7894 62.6201 86.82 62.47 86.82L62.0866 86.8185L62.0866 87.3071L62.3131 87.353L62.3131 87.6343L61.3833 87.6343ZM62.7587 87.6343L62.433 86.7489L62.8535 86.6231L63.1422 87.3071L63.3362 87.353L63.3362 87.6343L62.7587 87.6343ZM62.0866 86.4513L62.4226 86.4513C62.5352 86.4513 62.6206 86.4266 62.6788 86.3773C62.737 86.3279 62.7661 86.2559 62.7661 86.1611C62.7661 86.0644 62.737 85.9874 62.6788 85.9301C62.6206 85.8719 62.5357 85.8428 62.4241 85.8428L62.0866 85.8428L62.0866 86.4513ZM64.4813 87.6654C64.3145 87.6654 64.1645 87.6481 64.0312 87.6136C63.898 87.579 63.7662 87.5168 63.6359 87.427L63.6359 86.8851L64.0031 86.8851L64.049 87.1827C64.0865 87.2192 64.1447 87.2494 64.2237 87.273C64.3027 87.2967 64.3886 87.3086 64.4813 87.3086C64.5544 87.3086 64.6151 87.2992 64.6635 87.2804C64.7128 87.2617 64.7498 87.2345 64.7745 87.199C64.8002 87.1625 64.813 87.1196 64.813 87.0702C64.813 87.0228 64.8012 86.9809 64.7775 86.9443C64.7548 86.9078 64.7168 86.8738 64.6635 86.8422C64.6111 86.8106 64.5401 86.779 64.4502 86.7474C64.2726 86.6931 64.126 86.6359 64.0105 86.5757C63.895 86.5145 63.8087 86.4424 63.7514 86.3595C63.6951 86.2756 63.667 86.1734 63.667 86.053C63.667 85.9346 63.7001 85.8309 63.7662 85.7421C63.8333 85.6523 63.9251 85.5817 64.0416 85.5304C64.1591 85.479 64.2933 85.4524 64.4443 85.4504C64.6161 85.4465 64.7676 85.4647 64.8989 85.5052C65.0302 85.5457 65.1451 85.6039 65.2439 85.6799L65.2439 86.1833L64.8885 86.1833L64.8308 85.8902C64.7952 85.8704 64.7459 85.8526 64.6827 85.8369C64.6195 85.8211 64.5504 85.8132 64.4754 85.8132C64.4103 85.8132 64.3525 85.8225 64.3022 85.8413C64.2528 85.8591 64.2138 85.8857 64.1852 85.9212C64.1566 85.9568 64.1423 86.0007 64.1423 86.053C64.1423 86.0955 64.1541 86.1335 64.1778 86.167C64.2025 86.2006 64.2449 86.2332 64.3051 86.2647C64.3654 86.2953 64.4488 86.3294 64.5554 86.3669C64.7962 86.436 64.9793 86.5248 65.1047 86.6334C65.23 86.742 65.2927 86.8866 65.2927 87.0672C65.2927 87.1926 65.2587 87.3002 65.1906 87.39C65.1224 87.4788 65.0277 87.547 64.9063 87.5943C64.7849 87.6417 64.6432 87.6654 64.4813 87.6654ZM66.0129 87.6343L66.0129 87.353L66.241 87.3071L66.241 85.8457L65.8782 85.8457L65.859 86.0915L65.5006 86.0915L65.5006 85.4785L67.4625 85.4785L67.4625 86.0915L67.1012 86.0915L67.0819 85.8457L66.7177 85.8457L66.7177 87.3071L66.9457 87.353L66.9457 87.6343L66.0129 87.6343ZM58.2109 90.6654C58.0441 90.6654 57.8941 90.6481 57.7608 90.6136C57.6276 90.579 57.4958 90.5168 57.3655 90.427L57.3655 89.8851L57.7327 89.8851L57.7786 90.1827C57.8161 90.2192 57.8743 90.2494 57.9533 90.273C58.0323 90.2967 58.1181 90.3086 58.2109 90.3086C58.284 90.3086 58.3447 90.2992 58.393 90.2804C58.4424 90.2617 58.4794 90.2345 58.5041 90.199C58.5297 90.1625 58.5426 90.1196 58.5426 90.0702C58.5426 90.0228 58.5307 89.9809 58.507 89.9443C58.4843 89.9078 58.4463 89.8738 58.393 89.8422C58.3407 89.8106 58.2696 89.779 58.1798 89.7474C58.0022 89.6931 57.8556 89.6359 57.7401 89.5757C57.6246 89.5145 57.5382 89.4424 57.481 89.3595C57.4247 89.2756 57.3966 89.1734 57.3966 89.053C57.3966 88.9346 57.4297 88.8309 57.4958 88.7421C57.5629 88.6523 57.6547 88.5817 57.7712 88.5304C57.8886 88.479 58.0229 88.4524 58.1739 88.4504C58.3457 88.4465 58.4972 88.4647 58.6284 88.5052C58.7597 88.5457 58.8747 88.6039 58.9734 88.6799L58.9734 89.1833L58.6181 89.1833L58.5603 88.8902C58.5248 88.8704 58.4755 88.8526 58.4123 88.8369C58.3491 88.8211 58.28 88.8132 58.205 88.8132C58.1398 88.8132 58.0821 88.8225 58.0318 88.8413C57.9824 88.8591 57.9434 88.8857 57.9148 88.9212C57.8862 88.9568 57.8719 89.0007 57.8719 89.053C57.8719 89.0955 57.8837 89.1335 57.9074 89.167C57.9321 89.2006 57.9745 89.2332 58.0347 89.2647C58.0949 89.2953 58.1783 89.3294 58.2849 89.3669C58.5258 89.436 58.7089 89.5248 58.8343 89.6334C58.9596 89.742 59.0223 89.8866 59.0223 90.0672C59.0223 90.1926 58.9882 90.3002 58.9201 90.39C58.852 90.4788 58.7573 90.547 58.6359 90.5943C58.5144 90.6417 58.3728 90.6654 58.2109 90.6654ZM59.2569 90.6343L59.2569 90.353L59.4834 90.3071L59.4834 88.8072L59.2569 88.7613L59.2569 88.4785L60.9551 88.4785L60.9551 89.0812L60.5924 89.0812L60.5761 88.8443L59.9602 88.8443L59.9602 89.3373L60.6679 89.3373L60.6679 89.703L59.9602 89.703L59.9602 90.2686L60.6087 90.2686L60.625 90.0228L60.9818 90.0228L60.9818 90.6343L59.2569 90.6343ZM61.2845 90.6343L61.2845 90.353L61.511 90.3071L61.511 88.8072L61.2845 88.7613L61.2845 88.4771L62.3253 88.4771C62.4931 88.4771 62.6382 88.5037 62.7606 88.557C62.883 88.6103 62.9768 88.6858 63.042 88.7836C63.1081 88.8813 63.1412 88.9977 63.1412 89.133C63.1412 89.2593 63.1081 89.3748 63.042 89.4794C62.9758 89.5841 62.885 89.667 62.7695 89.7282C62.654 89.7894 62.5213 89.82 62.3712 89.82L61.9878 89.8185L61.9878 90.3071L62.2143 90.353L62.2143 90.6343L61.2845 90.6343ZM62.66 90.6343L62.3342 89.7489L62.7547 89.6231L63.0434 90.3071L63.2374 90.353L63.2374 90.6343L62.66 90.6343ZM61.9878 89.4513L62.3239 89.4513C62.4364 89.4513 62.5218 89.4266 62.58 89.3773C62.6382 89.3279 62.6674 89.2559 62.6674 89.1611C62.6674 89.0644 62.6382 88.9874 62.58 88.9301C62.5218 88.8719 62.4369 88.8428 62.3253 88.8428L61.9878 88.8428L61.9878 89.4513ZM63.472 90.6343L63.472 90.353L63.6985 90.3071L63.6985 88.8072L63.472 88.7613L63.472 88.4785L64.4003 88.4785L64.4003 88.7613L64.1738 88.8072L64.1738 90.3071L64.4003 90.353L64.4003 90.6343L63.472 90.6343ZM64.6349 90.6343L64.6349 90.353L64.8614 90.3071L64.8614 88.8072L64.6349 88.7613L64.6349 88.4785L66.3332 88.4785L66.3332 89.0812L65.9704 89.0812L65.9541 88.8443L65.3382 88.8443L65.3382 89.3373L66.0459 89.3373L66.0459 89.703L65.3382 89.703L65.3382 90.2686L65.9867 90.2686L66.003 90.0228L66.3598 90.0228L66.3598 90.6343L64.6349 90.6343ZM67.5731 90.6654C67.4063 90.6654 67.2562 90.6481 67.123 90.6136C66.9897 90.579 66.8579 90.5168 66.7277 90.427L66.7277 89.8851L67.0948 89.8851L67.1407 90.1827C67.1783 90.2192 67.2365 90.2494 67.3155 90.273C67.3944 90.2967 67.4803 90.3086 67.5731 90.3086C67.6461 90.3086 67.7068 90.2992 67.7552 90.2804C67.8045 90.2617 67.8416 90.2345 67.8662 90.199C67.8919 90.1625 67.9047 90.1196 67.9047 90.0702C67.9047 90.0228 67.8929 89.9809 67.8692 89.9443C67.8465 89.9078 67.8085 89.8738 67.7552 89.8422C67.7029 89.8106 67.6318 89.779 67.542 89.7474C67.3643 89.6931 67.2177 89.6359 67.1022 89.5757C66.9868 89.5145 66.9004 89.4424 66.8431 89.3595C66.7869 89.2756 66.7587 89.1734 66.7587 89.053C66.7587 88.9346 66.7918 88.8309 66.8579 88.7421C66.9251 88.6523 67.0169 88.5817 67.1333 88.5304C67.2508 88.479 67.385 88.4524 67.5361 88.4504C67.7078 88.4465 67.8593 88.4647 67.9906 88.5052C68.1219 88.5457 68.2369 88.6039 68.3356 88.6799L68.3356 89.1833L67.9802 89.1833L67.9225 88.8902C67.887 88.8704 67.8376 88.8526 67.7744 88.8369C67.7113 88.8211 67.6422 88.8132 67.5672 88.8132C67.502 88.8132 67.4443 88.8225 67.3939 88.8413C67.3446 88.8591 67.3056 88.8857 67.277 88.9212C67.2483 88.9568 67.234 89.0007 67.234 89.053C67.234 89.0955 67.2459 89.1335 67.2696 89.167C67.2942 89.2006 67.3367 89.2332 67.3969 89.2647C67.4571 89.2953 67.5405 89.3294 67.6471 89.3669C67.888 89.436 68.0711 89.5248 68.1964 89.6334C68.3218 89.742 68.3845 89.8866 68.3845 90.0672C68.3845 90.1926 68.3504 90.3002 68.2823 90.39C68.2142 90.4788 68.1194 90.547 67.998 90.5943C67.8766 90.6417 67.735 90.6654 67.5731 90.6654Z" fill="black"/>
</g>
<defs>
<filter id="filter0_d" x="0.608803" y="0" width="125.338" height="155.486" filterUnits="userSpaceOnUse" color-interpolation-filters="sRGB">
<feFlood flood-opacity="0" result="BackgroundImageFix"/>
<feColorMatrix in="SourceAlpha" type="matrix" values="0 0 0 0 0 0 0 0 0 0 0 0 0 0 0 0 0 0 127 0"/>
<feOffset dy="15.3038"/>
<feGaussianBlur stdDeviation="6.1215"/>
<feColorMatrix type="matrix" values="0 0 0 0 0.113725 0 0 0 0 0.121569 0 0 0 0 0.12549 0 0 0 0.07 0"/>
<feBlend mode="normal" in2="BackgroundImageFix" result="effect1_dropShadow"/>
<feBlend mode="normal" in="SourceGraphic" in2="effect1_dropShadow" result="shape"/>
</filter>
<clipPath id="clip0">
<rect width="100.852" height="127.939" fill="white" transform="translate(12.8518)"/>
</clipPath>
</defs>
</svg>
