<svg width="71" height="56" viewBox="0 0 71 56" fill="none" xmlns="http://www.w3.org/2000/svg">
<path d="M48.0467 40.1502C48.0359 40.4218 48.0033 40.6933 48.0033 40.9649C48.0033 41.0953 48.0576 41.2473 48.1336 41.3451C49.057 42.6487 49.5132 44.126 49.6218 45.7011C49.6544 46.2443 49.4698 46.7874 49.3829 47.3849C49.6436 47.6347 50.3823 47.3632 50.3388 48.0041C50.3279 48.2213 49.8608 48.406 49.5458 48.645C50.1107 49.4163 50.0129 50.3396 49.7088 51.2738C49.6436 51.4802 49.5024 51.7518 49.3286 51.8278C49.1656 51.893 48.8289 51.8061 48.6985 51.6757C48.5464 51.5128 48.5356 51.263 48.8832 51.1435C49.0353 51.0891 49.2199 50.7958 49.1982 50.6438C49.0787 49.5249 48.8832 48.4603 48.1445 47.5044C47.4601 46.6136 46.993 45.5491 46.5259 44.5171C46.2435 43.887 46.1131 43.1809 45.9393 42.4966C45.885 42.2793 45.9285 42.0512 45.8416 41.8665C45.7003 41.5406 45.5808 41.2039 45.3962 40.8997C45.2115 40.5956 45.0051 40.2914 44.7444 40.0524C44.3316 39.6722 44.0057 39.2703 43.9623 38.6837C43.8428 36.9782 43.4083 35.9028 42.3437 34.6536C42.3437 35.1315 42.3002 35.6095 42.3546 36.0657C42.5284 37.6734 42.3002 39.2486 41.9418 40.7911C41.4421 42.8768 40.7143 44.8973 39.628 46.7766C38.7046 48.3734 37.7161 49.8725 36.1301 50.9153C34.9786 51.6757 33.8272 51.6214 32.8278 50.6764C30.9159 48.8514 29.4494 46.7114 28.5152 44.2564C28.059 43.0506 27.7874 41.7579 27.6136 40.4761C27.3963 38.9118 27.3637 37.315 27.266 35.729C27.2551 35.4683 27.3094 35.1967 27.3312 34.936C27.2768 34.9143 27.2334 34.8925 27.1791 34.8708C27.0161 35.2619 26.8423 35.6529 26.6902 36.044C26.5164 36.4894 26.5056 37 26.0167 37.2932C25.919 37.3476 25.919 37.63 25.9298 37.8038C26.0493 39.2051 25.441 40.1611 24.1918 40.7585C24.0614 40.8237 23.9202 40.9975 23.8985 41.1496C23.7029 42.1598 23.6269 43.2027 23.3445 44.1912C23.0946 45.0276 22.6601 45.8206 22.2364 46.5919C21.7476 47.4935 21.1502 48.33 20.6722 49.2316C20.531 49.4923 20.5961 49.8616 20.5744 50.1875C20.5201 50.7741 20.5201 50.7741 19.8683 51.0566C19.3361 49.916 19.5099 48.8405 20.129 47.7434C19.9661 47.6456 19.7923 47.5696 19.6511 47.4392C19.5316 47.3306 19.4664 47.1568 19.3686 47.0156C19.5207 46.9395 19.6511 46.8309 19.814 46.7983C20.0639 46.744 20.3246 46.7223 20.6613 46.6788C20.4006 46.3421 20.1725 46.1139 20.0204 45.8424C19.7597 45.3535 19.7923 44.843 19.9335 44.3216C20.2268 43.257 20.4875 42.1816 21.3783 41.4103C21.4543 41.3451 21.5304 41.2365 21.5304 41.1496C21.5086 40.6282 21.5955 40.1502 21.7802 39.6396C21.9649 39.1399 21.8454 38.5425 21.9106 37.9885C22.0192 36.9674 22.3885 36.0983 23.3879 35.6312C23.464 35.5986 23.5943 35.5552 23.616 35.49C23.8659 34.5123 24.811 34.3385 25.4953 33.8932C26.4404 33.2848 27.1465 32.5136 27.6896 31.5468C27.9069 31.1557 28.2219 30.8189 28.4826 30.4605C28.5587 30.3518 28.613 30.2324 28.6782 30.1237C28.6456 30.0694 28.613 30.0151 28.5913 29.9608C28.1676 30.0911 27.657 30.1346 27.3203 30.3844C26.5056 30.9928 25.5931 31.3404 24.6806 31.7314C24.257 31.9161 23.8767 32.2203 23.5183 32.5244C23.0294 32.9372 22.4863 33.0784 21.9106 32.8938C21.6607 32.8177 21.4978 32.5027 21.2479 32.242C21.1719 32.318 21.0633 32.4158 20.9546 32.5136C20.3789 33.035 19.814 33.5673 19.2274 34.067C19.0753 34.1865 18.8255 34.219 18.6191 34.2516C18.1194 34.3277 17.6197 34.3603 17.1309 34.4472C16.9679 34.4798 16.7833 34.5884 16.6855 34.7079C16.4357 35.012 16.1967 35.1315 15.7947 34.7731C15.1321 35.5878 14.4803 36.3916 13.8394 37.1846C13.7851 37.1629 13.7416 37.152 13.6873 37.1303C13.7091 36.8587 13.6873 36.5763 13.7634 36.3264C13.9698 35.6964 14.2196 35.0772 14.4586 34.458C14.4912 34.3711 14.589 34.2625 14.6867 34.2299C16.088 33.8606 17.0983 32.7525 18.4018 32.1985C18.9015 31.9921 19.4121 31.8183 19.9118 31.6011C20.0421 31.5468 20.1399 31.3838 20.2703 31.3186C20.4875 31.21 20.7374 31.0688 20.9655 31.0797C21.8888 31.134 22.6275 30.6886 23.3988 30.2975C24.3982 29.7978 25.3758 29.2547 26.4187 28.8528C26.7771 28.7115 27.2877 28.8854 27.7005 29.0157C28.6999 29.3416 28.7107 29.3633 29.3842 28.5377C29.4929 28.3965 29.6232 28.2662 29.7536 28.1141C29.3408 27.5275 28.9389 26.9626 28.4935 26.3434C27.4181 27.1799 26.1362 27.484 24.8653 27.7991C24.1157 27.9837 23.3336 28.0924 22.5623 28.1032C21.2045 28.1141 19.8357 28.0815 18.4779 27.9729C17.6197 27.8968 16.7615 27.7122 15.9468 27.4406C14.6541 26.9952 13.3289 26.5607 12.1665 25.8763C11.1128 25.2571 10.1786 24.3664 9.33131 23.4648C8.16898 22.2155 7.75618 20.6947 8.1907 18.9566C7.82136 18.8046 7.44116 18.6525 7.07182 18.4787C6.21365 18.0768 5.5836 17.4141 5.22513 16.5668C4.443 14.7418 3.71518 12.8951 2.99823 11.0484C2.87874 10.7551 2.86787 10.4075 2.87874 10.0816C2.8896 9.56023 3.29153 9.28866 4.01934 9.12571C5.95294 8.69119 7.77791 9.1583 9.59202 9.71231C11.9167 10.4293 14.1001 11.4504 16.1749 12.7213C18.3475 14.0575 20.5092 15.3936 22.6492 16.7623C23.7573 17.4684 24.811 18.2723 25.9081 18.9892C26.5708 19.4238 27.266 19.7931 27.82 20.119C28.2654 19.3369 28.6999 18.6525 29.0584 17.9138C29.1453 17.74 29.0258 17.3815 28.8846 17.2077C28.6238 16.8927 28.2436 16.6754 27.9721 16.3604C27.5158 15.839 27.0922 15.2633 26.6577 14.7201C26.549 14.5789 26.4621 14.3942 26.3209 14.3073C25.9407 14.0792 25.7126 13.8185 25.8321 13.3405C25.8647 13.2102 25.6909 13.0255 25.5822 12.8843C25.202 12.352 25.2129 12.037 25.5931 11.5156C25.8973 11.1136 26.1905 10.7008 26.473 10.2772C26.7228 9.90784 26.6902 9.59282 26.2883 9.29952C25.919 9.01708 25.5822 8.68033 25.2672 8.33272C25.1477 8.1915 25.126 7.96338 25.0499 7.7244C25.7778 7.69181 26.0493 8.15891 26.4295 8.4848C26.6359 8.65861 26.9618 8.71292 27.1139 8.91932C27.342 9.22348 27.5375 9.60368 27.581 9.97302C27.6245 10.3098 27.4506 10.6682 27.3637 11.0159C27.2225 11.559 27.0053 12.0261 27.5267 12.591C27.9612 13.0581 28.1241 13.775 28.45 14.3508C28.9063 15.1438 29.3951 15.915 29.8948 16.7189C30.2859 16.5342 30.59 16.4039 30.8942 16.2626C32.4259 15.5131 34.0336 15.6326 35.6413 15.839C36.9774 16.0019 38.3244 16.1975 39.5085 16.9361C39.8561 17.1534 40.2689 16.9036 40.6056 16.4365C41.2357 15.5783 41.8766 14.731 42.5501 13.9054C42.7674 13.6338 43.0715 13.4166 43.3105 13.2102C42.8977 11.9609 42.8543 10.7117 43.0389 9.46246C43.115 8.96277 44.223 8.26754 44.7335 8.35444C44.8856 8.37617 45.016 8.50653 45.2767 8.64774C44.8748 8.82155 44.614 8.99536 44.3316 9.04967C43.9949 9.12571 43.8428 9.28866 43.908 9.60368C44.0057 10.1142 44.1469 10.6139 44.2664 11.1245C44.3968 11.6676 44.5271 12.2216 44.6358 12.7648C44.6575 12.8517 44.6032 13.0038 44.5271 13.0581C44.2121 13.3188 44.06 13.5469 44.4837 13.8511C44.5271 13.8837 44.4402 14.1878 44.3425 14.3182C43.8319 15.0025 43.3214 15.676 42.7782 16.3278C42.5827 16.5559 42.3546 16.8384 42.0939 16.9253C41.4529 17.1317 41.1596 17.6748 40.7469 18.0985C40.6817 18.1637 40.6382 18.3375 40.6708 18.4135C40.8881 18.9132 41.1271 19.3912 41.3878 19.9452C41.9635 19.7171 42.561 19.5107 43.1258 19.2717C44.0492 18.8806 45.0051 18.5221 45.885 18.0333C47.4927 17.1534 49.057 16.1757 50.6538 15.2633C52.5766 14.1552 54.4667 12.9712 56.4655 12.0152C58.4643 11.0484 60.5825 10.4184 62.8637 10.3532C64.0478 10.3206 65.1993 10.3532 66.3399 10.6357C66.568 10.69 66.7853 10.7769 66.9917 10.8855C67.6 11.2114 67.7846 11.483 67.5239 12.1021C67.1763 12.9386 66.644 13.7099 66.2312 14.5246C66.014 14.9591 65.8728 15.4371 65.6881 15.8933C64.9494 17.6748 63.8414 19.1522 62.2011 20.2059C62.0816 20.2819 61.9947 20.4449 61.9513 20.5861C61.2995 23.0954 60.0394 25.2137 57.9972 26.8323C56.9435 27.6687 55.7703 28.2879 54.4015 28.4943C53.2175 28.6681 52.0443 29.0483 50.8602 29.1678C49.8717 29.2656 48.8397 29.2221 47.8403 29.0809C46.6889 28.9179 45.5483 28.6246 44.4185 28.3205C43.3214 28.0272 42.2351 27.6796 41.3986 26.8323C41.366 26.7997 41.3009 26.7888 41.214 26.7562C40.7469 27.3537 40.2689 27.962 39.7366 28.6464C39.8995 28.7333 40.0951 28.8854 40.3123 28.9397C40.6817 29.0266 41.0619 29.0592 41.4421 29.07C42.6913 29.1026 43.908 29.2981 45.092 29.7109C45.7872 29.9499 46.5368 30.0042 47.2537 30.1889C47.6991 30.3084 48.1662 30.4605 48.5464 30.6995C48.7963 30.8624 48.9158 31.2317 49.1004 31.5033C50.1324 30.971 50.3823 31.0579 51.3816 31.8835C52.0769 32.4484 52.8699 32.8938 53.6194 33.3826C53.7389 33.4586 53.891 33.513 54.0322 33.5021C54.5102 33.4804 54.6948 33.665 54.6188 34.1539C54.5971 34.2842 54.7709 34.5232 54.9121 34.5667C55.4661 34.7513 55.8137 35.0989 55.8572 35.6855C55.9006 36.207 55.9332 36.7284 55.9332 37.2498C55.9332 37.3801 55.7594 37.5214 55.6616 37.6517C55.553 37.5322 55.4009 37.4345 55.3357 37.2932C55.1511 36.8696 54.999 36.4242 54.8252 35.9897C54.4667 35.1098 53.8584 34.5992 52.8481 34.6427C52.6526 34.6536 52.4245 34.5341 52.2724 34.4037C51.4034 33.6433 50.3823 33.1653 49.3068 32.7851C49.1222 32.72 48.9483 32.6331 48.7637 32.5679C48.5573 32.481 48.34 32.2963 48.1554 32.3289C46.6889 32.5462 45.57 31.7206 44.3533 31.1231C43.7667 30.8407 43.1258 30.6126 42.4849 30.5257C42.1482 30.4713 41.768 30.7538 41.2465 30.9493C42.159 31.5033 42.9846 31.9487 43.745 32.4701C44.3208 32.8612 44.8313 33.35 45.3636 33.8171C45.8524 34.2516 46.3521 34.6861 46.8084 35.1533C47.8295 36.1852 48.6442 37.3258 48.4052 38.8792C48.34 39.3137 48.1336 39.7157 47.9816 40.1393C48.0033 40.1502 48.025 40.1502 48.0467 40.1502ZM58.9748 21.8136L58.964 21.8027C58.801 21.8788 58.6489 21.9874 58.4751 22.0417C57.6713 22.2698 56.8348 22.4436 56.0418 22.7152C55.1076 23.0411 54.206 23.4648 53.2827 23.8015C52.7069 24.0079 52.0986 24.1274 51.4794 24.3012C52.7721 25.2246 54.1843 25.7677 55.7268 25.9524C56.2048 26.0067 56.6936 25.985 57.1824 25.9958C58.0515 26.0175 58.6815 25.583 59.2029 24.9204C59.9742 23.921 60.5391 22.8021 61.104 21.6289C60.8976 21.6072 60.7889 21.5963 60.5173 21.5746C61.1583 21.4334 61.4407 21.0206 61.3864 20.5318C61.3321 19.9886 60.9084 20.2493 60.6368 20.1842C59.7787 19.9778 58.9205 19.7931 58.0732 19.5758C57.5083 19.4238 56.9435 19.0327 56.4003 19.0653C55.2271 19.1305 54.0431 19.3586 52.8916 19.6084C51.5229 19.9017 50.165 20.2928 48.8071 20.6513C47.4275 21.0206 46.048 21.3791 44.6901 21.781C43.8319 22.0309 43.0063 22.3567 42.159 22.65C42.1373 22.5849 42.1156 22.5305 42.0939 22.4654C44.4511 21.5529 46.7866 20.5861 49.2091 19.88C51.6532 19.163 54.1191 18.533 56.7371 18.3483C56.5741 18.0333 56.3677 17.5771 56.1505 17.5771C55.3792 17.5662 54.5971 17.6096 53.8475 17.7943C51.8488 18.2831 49.8717 18.8372 47.8946 19.402C46.1023 19.9234 44.4077 20.6947 42.8434 21.7267C42.4523 21.9874 42.0504 22.2047 41.6485 22.4328C41.5942 22.3893 41.529 22.3459 41.4747 22.3024C41.5507 22.1395 41.5942 21.9331 41.7136 21.8353C41.9418 21.6615 42.2242 21.5637 42.4849 21.4334C44.0492 20.6404 45.6026 19.8365 47.1668 19.0436C47.6774 18.7828 48.2423 18.6199 48.7311 18.3157C49.2851 17.979 49.7957 17.5662 50.2736 17.1208C50.8928 16.5451 51.4468 15.9042 52.0334 15.2958C51.9791 15.2415 51.9248 15.1764 51.8705 15.122C51.2513 15.5348 50.6321 15.9476 50.0129 16.3713C47.7317 17.9029 45.1898 18.9023 42.7239 20.0647C42.1373 20.3362 41.366 20.4449 41.3443 21.3791C41.2683 21.227 41.2465 21.0966 41.2248 20.9663C41.0619 19.804 40.6165 18.7503 39.7149 17.9898C38.7263 17.1534 37.4663 16.871 36.2496 16.5777C34.555 16.154 32.8387 16.2192 31.1875 16.8275C30.7421 16.9905 30.2967 17.262 29.9817 17.5988C29.6775 17.9138 29.5255 18.3701 29.3408 18.7828C29.1453 19.2065 28.9063 19.641 28.8411 20.0864C28.5804 21.8896 28.3197 23.7146 29.1996 25.4527C29.1344 26.376 29.8188 26.854 30.3293 27.4514C30.6009 27.7773 30.6443 28.1032 30.2967 28.4508C29.9708 28.7767 29.6884 29.1569 29.4386 29.548C29.2104 29.9065 29.2865 30.2324 29.7536 30.3301C30.4162 30.4605 31.0897 30.6126 31.7632 30.6669C32.654 30.7429 33.5665 30.8081 34.4572 30.7646C36.0867 30.6886 37.7161 30.5257 39.3455 30.3844C39.5737 30.3627 39.7909 30.2106 40.1277 30.0694C39.7149 29.6132 39.389 29.2656 39.074 28.9071C38.6069 28.3965 38.672 28.2553 39.226 27.8642C40.3666 27.0712 41.1271 26.0175 41.29 24.5836C41.3335 24.236 41.4204 23.8884 41.4638 23.6494C41.9744 23.8558 42.3437 24.0622 42.7348 24.1491C43.2562 24.2577 43.8102 24.3121 44.3425 24.3121C45.7438 24.3338 47.1451 24.399 48.5356 24.3012C49.4915 24.2252 50.4366 23.9319 51.3816 23.682C52.859 23.291 54.3689 22.9651 55.792 22.4111C56.824 22.0309 57.8559 21.7701 58.9748 21.8136ZM29.3299 32.481C28.5804 32.7851 28.374 33.4369 28.1567 34.067C28.1133 34.1973 28.1785 34.4146 28.2545 34.5341C29.2648 36.0983 30.9159 36.4242 32.5562 36.6849C33.9358 36.9022 35.3263 36.8261 36.7058 36.598C38.3027 36.3373 39.7909 35.8593 41.0727 34.8491C41.2791 34.6861 41.5507 34.3711 41.5181 34.1865C41.4312 33.7193 41.2791 33.035 40.9641 32.9046C40.421 32.6765 40.4536 32.3615 40.4753 31.8944C38.7589 33.0133 36.8579 33.35 34.9352 33.4261C33.0125 33.5021 31.0463 33.5999 29.3299 32.481ZM61.017 19.8583C62.0708 19.8148 62.0925 19.8474 62.8746 19.1848C64.2107 18.0442 65.1558 16.6537 65.4274 14.8722C65.4491 14.7527 65.2644 14.5029 65.1558 14.4811C64.6996 14.3942 64.2216 14.3073 63.7654 14.3399C61.8969 14.5029 60.0611 14.807 58.2796 15.4479C57.3997 15.763 57.1173 16.5885 56.585 17.1969C56.5415 17.2512 56.5633 17.425 56.6067 17.501C56.8565 17.8921 57.0412 18.3809 57.3997 18.6416C58.5512 19.5107 59.909 19.7388 61.017 19.8583ZM8.56004 20.9228C9.66806 20.9228 10.6566 20.9011 11.6451 20.9228C13.2854 20.9663 14.9148 21.0423 16.5117 20.4992C16.8159 20.3906 17.1961 20.4014 17.5111 20.4883C18.6843 20.7925 19.814 21.227 20.9981 21.4551C22.747 21.7919 24.5068 21.9983 26.2666 22.2698C26.4513 22.3024 26.6794 22.3676 26.7989 22.498C27.1899 22.9216 27.5375 23.3887 27.9721 23.9101C28.0372 23.6603 28.0807 23.4973 28.135 23.3344C28.3414 22.6826 28.3088 22.5414 27.7005 22.3024C26.3752 21.7701 25.0608 21.2487 23.7138 20.7708C22.4103 20.3145 21.085 19.88 19.7597 19.5324C18.5648 19.2065 17.3373 18.9892 16.1098 18.7503C14.9474 18.533 13.7851 18.2614 12.5902 18.5004C12.3403 18.5547 12.1231 18.7394 11.895 18.8589C11.9167 18.9132 11.9384 18.9675 11.9601 19.0218C11.1889 18.9566 10.4176 18.8589 9.64633 18.848C9.20095 18.8372 8.69039 18.9675 8.58177 19.4781C8.484 19.9234 8.56004 20.3797 8.56004 20.9228ZM65.9271 14.177C66.2856 13.5361 66.6332 12.9169 66.9591 12.2977C67.1872 11.874 67.0786 11.5156 66.6332 11.32C66.3942 11.2114 66.1335 11.1136 65.8728 11.0702C65.3296 10.9724 64.7756 10.8855 64.2216 10.8312C63.874 10.7986 63.4938 10.7769 63.157 10.8746C62.9941 10.9181 62.9181 11.244 62.7768 11.4178C62.6139 11.6133 62.4401 11.8089 62.2337 11.9501C61.6362 12.352 61.017 12.7322 60.4087 13.1233C60.0937 13.3297 59.7895 13.6012 59.4419 13.7207C58.7141 13.9597 57.9646 14.1335 57.215 14.3073C56.976 14.3616 56.7153 14.3508 56.4655 14.3182C56.1396 14.2747 55.8246 14.1335 55.5096 14.1444C54.923 14.1552 54.3255 14.2639 53.7389 14.2965C52.9676 14.329 52.6417 14.8613 52.2941 15.4045C52.6309 15.4045 52.9459 15.3502 53.2283 15.4153C54.2603 15.6435 55.2271 15.676 56.3134 15.4045C57.378 15.1438 58.3339 14.8939 59.0943 14.0792C59.1052 14.0683 59.1595 14.0901 59.3333 14.1118C58.8879 14.492 58.5186 14.807 58.1492 15.1329C58.3122 15.2198 58.4208 15.2307 58.5077 15.1981C59.1812 15.0134 59.8547 14.7962 60.5282 14.6223C61.2778 14.4268 62.0273 14.1987 62.7877 14.0901C63.8088 13.9271 64.8299 13.7099 65.9271 14.177ZM53.1197 28.3096C51.8162 27.6253 50.5669 26.9626 49.3068 26.3108C48.6876 25.9958 48.0685 25.5722 47.395 25.4635C45.7003 25.192 43.9731 25.0616 42.2568 24.8987C42.1373 24.8878 41.9309 24.9856 41.8983 25.0725C41.4421 26.1696 41.5073 26.3217 42.5501 26.9518C42.7348 27.0604 42.9194 27.1907 43.1258 27.2451C44.4511 27.6361 45.7655 28.1249 47.1234 28.3531C48.4595 28.5812 49.8391 28.5921 51.197 28.6029C51.8379 28.6246 52.4788 28.4182 53.1197 28.3096ZM16.9788 26.9192C16.9897 26.9843 17.0005 27.0604 17.0114 27.1256C17.2395 27.1907 17.4568 27.2994 17.6849 27.3102C19.0319 27.408 20.368 27.5275 21.715 27.5492C23.4748 27.5818 25.1803 27.2016 26.8423 26.6367C27.3094 26.4738 27.7983 26.2131 28.1024 25.8437C28.2545 25.6591 28.0264 25.1485 27.9721 24.7792C27.9612 24.6923 27.9286 24.6162 27.8852 24.4316C24.0506 24.4533 20.4441 25.3875 16.9788 26.9192ZM41.5942 39.1617C37.086 40.7042 32.6323 40.7368 28.135 39.4876C27.9069 40.1176 28.2545 40.6716 28.7325 40.8454C29.7427 41.2039 30.7638 41.6275 31.8175 41.7688C33.1211 41.9426 34.4681 41.8991 35.7934 41.8991C37.5966 41.8883 39.3347 41.5189 40.9858 40.7911C41.1053 40.7368 41.2791 40.639 41.3117 40.5413C41.4312 40.085 41.5073 39.6288 41.5942 39.1617ZM9.22268 22.6826C9.57029 22.6066 9.78755 22.5305 10.0157 22.498C11.2649 22.3459 12.5141 22.1612 13.7742 22.0634C14.5564 21.9983 15.3494 22.0309 16.1315 22.096C16.4357 22.1178 16.7072 22.4111 17.0114 22.5088C17.4785 22.6392 17.9673 22.6718 18.4344 22.813C20.4984 23.443 22.6058 23.5625 24.7458 23.3779C25.3758 23.3235 26.0059 23.3018 26.6359 23.2692C26.6468 23.2258 26.6577 23.1715 26.6685 23.128C26.5056 23.052 26.3535 22.9325 26.1905 22.8999C25.2781 22.7152 24.3547 22.574 23.4422 22.3785C21.3348 21.9222 19.2274 21.4334 17.1092 20.9663C16.9897 20.9446 16.8267 20.8577 16.7615 20.9011C16.0229 21.466 15.1212 21.2704 14.3065 21.3465C13.2311 21.4443 12.1448 21.3248 11.0585 21.3139C10.2981 21.303 9.52684 21.3139 8.65781 21.3139C8.88593 21.8353 9.04887 22.259 9.22268 22.6826ZM13.3289 18.0442C18.5322 18.3592 23.2902 20.1516 28.0807 21.9548C28.0264 21.6398 27.896 21.3791 27.8091 21.1075C27.7114 20.8033 27.657 20.7816 27.4615 20.9663C26.2775 20.4449 25.126 19.8909 23.9311 19.4346C22.0626 18.7285 20.1725 18.0768 18.2932 17.4141C16.9462 16.9361 15.5775 16.5451 14.1327 16.5234C13.4375 16.5125 13.3071 16.632 13.3397 17.3055C13.3397 17.5445 13.3289 17.7726 13.3289 18.0442ZM5.54015 15.8281C5.72482 16.6211 6.50695 17.6422 7.15872 17.9681C8.45141 18.6199 9.87445 18.5764 11.2649 18.6959C11.3953 18.7068 11.5473 18.5004 11.6886 18.3918C11.8406 18.2831 12.0144 18.0659 12.1557 18.0985C12.6988 18.1854 12.764 17.8486 12.8183 17.4684C12.9052 16.8275 12.5902 16.3278 11.9167 16.1214C10.624 15.7195 9.32044 15.3502 7.94085 15.5131C7.12614 15.6109 6.33314 15.7195 5.54015 15.8281ZM13.4375 25.8872C13.4592 25.9415 13.4701 25.9958 13.4918 26.0393C13.9698 26.2239 14.4695 26.376 14.9366 26.5824C15.6752 26.9083 16.2618 26.7236 16.9679 26.3543C17.913 25.8546 18.9667 25.5722 19.9987 25.268C22.193 24.5945 24.4633 24.3121 26.7554 24.1817C26.9944 24.1708 27.2225 24.1817 27.5484 24.1817C26.8206 23.5082 26.8097 23.4865 26.0276 23.5625C25.0065 23.6494 23.9854 23.7798 22.9643 23.8558C22.3016 23.8993 21.639 23.8884 20.9655 23.8775C20.053 23.8667 19.1079 23.6712 18.2389 23.845C17.12 24.0622 16.0446 24.5402 14.9909 24.9747C14.4369 25.2028 13.948 25.583 13.4375 25.8872ZM40.5296 43.4851C40.4861 43.4525 40.4427 43.4199 40.3992 43.3873C36.6624 45.0928 32.8821 45.397 28.9715 43.735C29.2213 44.2021 29.4603 44.6474 29.8188 44.9516C31.1658 46.0596 32.7409 46.4941 34.4681 46.5376C36.0649 46.581 37.4988 46.1574 38.7589 45.2232C39.4216 44.7343 39.943 44.0717 40.5296 43.4851ZM19.26 17.0882C18.3258 16.3821 17.4785 15.7086 16.5877 15.1003C16.1206 14.7744 15.6101 14.4485 15.0778 14.3182C14.2196 14.1118 13.4049 13.8728 12.7423 13.2645C12.6879 13.2102 12.5793 13.1559 12.5141 13.1667C11.8081 13.2753 11.1128 13.3948 10.3741 13.5143C10.4176 13.8837 10.5045 14.1661 10.4828 14.4485C10.4393 15.0243 10.7652 15.2741 11.2432 15.4588C11.6777 15.6217 12.0905 15.8499 12.525 16.0128C12.7205 16.0888 12.9704 16.154 13.1551 16.1106C14.0567 15.8933 14.9474 15.915 15.8273 16.1214C16.9571 16.393 18.0434 16.7406 19.26 17.0882ZM9.59202 23.0194C9.66806 23.1823 9.67892 23.2692 9.73323 23.3018C10.6783 24.0514 11.6342 24.8009 12.601 25.5178C12.6988 25.5939 12.9704 25.5178 13.1116 25.4309C14.2631 24.7792 15.4037 24.1274 16.7072 23.8341C17.1852 23.7255 17.6523 23.5517 18.1303 23.4104C17.9565 23.2475 17.7827 23.2149 17.598 23.1715C17.1417 23.0737 16.5551 23.1171 16.251 22.8456C15.7187 22.3676 15.1647 22.4762 14.6107 22.4871C13.8068 22.5088 12.9921 22.5957 12.1883 22.6826C11.3409 22.7804 10.5045 22.9107 9.59202 23.0194ZM12.8183 11.6133C12.5685 12.1891 12.7749 12.8408 13.3397 13.1559C13.9698 13.4926 14.6324 13.8076 15.3168 13.9814C16.1098 14.177 16.8376 14.3942 17.3699 15.0677C17.5111 15.2524 17.7175 15.3827 17.8913 15.5348C18.9993 16.4582 20.0747 17.4033 21.4326 17.979C22.9208 18.6199 24.3873 19.326 25.8647 19.9995C26.0602 20.0864 26.2557 20.195 26.4513 20.2819C26.6468 20.3688 26.8423 20.4449 27.027 20.5209C22.3994 17.3598 17.8261 14.177 12.8183 11.6133ZM57.5083 26.5281C56.7045 26.4086 56.0092 26.3108 55.3357 26.1913C53.8258 25.9306 52.3267 25.583 51.0449 24.6705C50.7407 24.4533 50.4909 24.3881 50.1107 24.4967C49.3503 24.7031 48.5681 24.8226 47.7969 24.9747C47.6665 24.9964 47.5362 25.0073 47.4167 25.029C47.7969 25.1702 48.2205 25.1594 48.5356 25.344C50.0672 26.2674 51.6532 27.0278 53.3804 27.5492C54.9664 28.0163 56.2048 27.4406 57.5083 26.5281ZM8.09294 12.3411C7.58238 11.4395 7.12614 10.6248 6.65903 9.82094C6.60472 9.72317 6.47436 9.61454 6.38746 9.61454C5.56188 9.63627 4.73629 9.64713 3.92158 9.7449C3.72604 9.76662 3.37843 10.1686 3.42188 10.3098C3.70432 11.3635 4.07366 12.3846 4.41041 13.4274C5.72482 13.0364 6.89801 12.6887 8.09294 12.3411ZM12.1557 11.3309C10.6023 10.6465 8.90765 9.97302 7.01751 9.72317C8.29933 12.9712 9.72237 13.699 12.3729 12.7974C12.3077 12.3411 12.2426 11.9066 12.1557 11.3309ZM62.7008 10.9181C59.6049 11.0376 56.9869 12.2434 54.4667 13.7424C54.9121 13.7533 55.3357 13.7099 55.7485 13.6012C56.1939 13.4926 56.5958 13.384 56.7262 13.9814C59.7026 13.5578 60.941 12.3954 62.7008 10.9181ZM10.1134 15.0243C9.98308 14.6006 9.99394 13.9706 9.67892 13.7207C9.04887 13.221 8.33192 12.6236 7.38685 13.1124C7.24563 13.1884 7.07182 13.1993 6.91974 13.2428C6.19193 13.4492 5.45325 13.6555 4.67112 13.8728C4.89924 14.4485 5.09477 14.9156 5.24685 15.285C6.86543 15.2089 8.41882 15.122 10.1134 15.0243ZM47.4058 39.0313C47.3624 38.9987 47.3298 38.9553 47.2863 38.9227C47.1994 38.9879 47.1234 39.0965 47.0365 39.0965C46.8844 39.1074 46.7215 39.053 46.5694 39.0313C46.602 38.8901 46.5802 38.6728 46.6671 38.6185C47.1125 38.3361 47.1234 37.9776 46.9496 37.5431C46.8953 37.4019 46.9604 37.2281 46.9496 37.0651C46.9387 36.837 46.9061 36.6089 46.8627 36.3916C46.8518 36.3047 46.754 36.2395 46.7215 36.1635C46.3847 35.1315 45.092 35.0555 44.701 34.0561C44.6466 34.1865 44.6575 34.2734 44.6901 34.3494C44.9291 35.1098 45.1898 35.8593 45.3853 36.6197C45.4396 36.8153 45.3636 37.1412 45.2224 37.2607C44.3207 38.0102 44.4077 39.1508 45.4396 39.6831C45.6026 39.77 45.7329 39.9003 45.885 39.9764C46.0154 40.0416 46.1674 40.0742 46.3087 40.0742C47.0799 40.1067 47.0908 39.4224 47.4058 39.0313ZM21.4869 46.505C22.3559 45.5816 23.2141 43.0832 22.986 42.3228C22.5732 42.1598 22.2256 42.0186 21.8454 41.8665C21.8019 41.8991 21.7259 41.9643 21.6607 42.0078C20.9003 42.5726 20.7591 43.4417 20.4984 44.2672C20.2703 44.9842 20.4441 45.6251 21.0307 46.0922C21.1719 46.2117 21.3131 46.3529 21.4869 46.505ZM57.3997 15.6435C56.8457 15.7738 56.3569 15.763 56.031 15.9911C55.6399 16.2735 55.2814 16.2844 54.8686 16.2301C54.4558 16.1757 54.0539 16.078 53.6411 16.0454C53.1957 16.0128 52.7395 15.9802 52.3159 16.0671C51.2513 16.3061 50.8711 17.3598 50.1215 17.9898C50.7407 17.8921 51.3273 17.7074 51.9248 17.5988C53.0545 17.4033 54.1951 17.262 55.3249 17.0882C55.7051 17.0339 56.1505 17.0339 56.4438 16.8275C56.7914 16.5777 57.0195 16.1323 57.3997 15.6435ZM23.3227 36.761C23.0946 37.0977 22.8013 37.4888 22.5406 37.8907C22.2256 38.3687 22.3451 38.6294 22.8991 38.7706C23.0294 38.8032 23.1163 38.9553 23.225 39.053C23.1272 39.1617 23.0403 39.3463 22.9099 39.3681C22.747 39.4007 22.5515 39.3246 22.3559 39.292C22.2039 40.0524 23.0512 40.0742 23.2358 40.5847C23.616 40.324 24.0071 40.1611 24.2352 39.8678C24.6915 39.2812 24.7566 38.5533 24.5828 37.8581C24.5177 37.5757 24.1483 37.3476 23.8985 37.1303C23.7464 37 23.54 36.9022 23.3227 36.761ZM37.7487 48.5798C37.6944 48.5146 37.6509 48.4386 37.5966 48.3734C35.7716 49.5575 33.9032 49.6227 31.9153 48.7536C32.5345 49.3945 33.1971 49.9377 33.8598 50.4808C34.4355 50.9479 35.0873 50.9153 35.6087 50.5134C36.38 49.9268 37.0426 49.2316 37.7487 48.5798ZM48.6442 46.9178C48.6985 46.8961 48.742 46.8852 48.7963 46.8635C48.9266 45.1797 48.8397 43.5286 47.8295 42.0621C46.917 42.3336 46.8953 42.3336 47.1342 43.2027C47.3189 43.8762 47.5579 44.5388 47.8186 45.1906C48.0685 45.7772 48.3726 46.3421 48.6442 46.9178ZM43.1258 29.8087C43.115 29.863 43.1041 29.9173 43.0824 29.9825C43.1476 30.026 43.2127 30.0694 43.2888 30.1129C43.7667 30.341 44.2664 30.5257 44.7227 30.7864C45.6895 31.3404 46.6671 31.8183 47.8077 31.7749C47.9816 31.764 48.1445 31.5902 48.3183 31.4816C48.1879 31.3404 48.0793 31.1122 47.9272 31.0579C47.4058 30.8733 46.8627 30.7538 46.3195 30.6017C45.57 30.3953 44.8313 30.178 44.0818 29.9825C43.7776 29.9065 43.4409 29.863 43.1258 29.8087ZM49.3611 32.2637C49.7413 32.4918 50.1324 32.7308 50.5343 32.9481C50.9906 33.1979 51.4903 33.3826 51.8922 33.6976C52.4679 34.1539 53.1523 34.1865 53.8041 34.3603C53.8584 34.3711 53.9453 34.2516 54.0105 34.1865C53.5542 33.9692 53.1088 33.8171 52.7286 33.5673C51.9356 33.035 51.1644 32.4593 50.3931 31.9052C49.9803 31.6011 49.6544 31.6988 49.3611 32.2637ZM16.2618 34.2408C16.7507 34.1321 17.1309 34.0778 17.5002 33.9692C18.1085 33.7954 18.7169 33.6216 19.2926 33.3609C19.8249 33.1219 20.2703 32.7308 20.3572 32.0682C18.7495 32.3398 17.5871 33.3609 16.2618 34.2408ZM25.9407 30.3736C25.9081 30.3084 25.8755 30.2432 25.8429 30.1672C24.3547 30.1889 23.1381 30.971 21.8997 31.6771C21.8345 31.7097 21.7911 31.9052 21.8237 31.9487C21.9214 32.0573 22.0952 32.1985 22.2039 32.1768C22.4754 32.1225 22.747 32.003 23.0077 31.8727C23.8333 31.4816 24.648 31.0797 25.4627 30.6669C25.6148 30.5908 25.7778 30.4713 25.9407 30.3736ZM41.2357 16.5559C41.2791 16.5994 41.3226 16.6537 41.366 16.6972C41.7245 16.4147 42.1156 16.1649 42.4306 15.839C42.8217 15.4153 43.1584 14.9374 43.4843 14.4703C43.5821 14.329 43.5929 14.1227 43.6472 13.9488C43.4409 13.9706 43.1801 13.9054 43.0498 14.014C42.1916 14.6767 41.605 15.5457 41.2357 16.5559ZM26.4078 13.5795C27.1682 14.5029 27.8852 15.3719 28.6021 16.2518C28.6782 16.1975 28.7433 16.154 28.8194 16.0997C28.2219 15.1003 27.6353 14.1009 27.0161 13.0689C26.7554 13.2753 26.5816 13.4274 26.4078 13.5795ZM27.1899 10.0273C27.1465 10.0165 27.103 10.0056 27.0596 9.99474C26.7228 10.6031 26.3752 11.2114 26.0493 11.8306C25.9733 11.9827 25.8755 12.1999 25.919 12.3303C25.995 12.5149 26.2014 12.6562 26.3426 12.8191C26.4295 12.667 26.5599 12.5149 26.6033 12.352C26.712 12.0152 26.7663 11.6568 26.8532 11.32C26.9727 10.8855 27.0813 10.4618 27.1899 10.0273ZM15.4906 34.6536C14.7845 34.5558 14.2522 35.1533 14.2739 35.9462C14.6759 35.5226 15.0669 35.1098 15.4906 34.6536ZM22.1713 40.4435C22.1278 40.4869 22.0844 40.5304 22.0518 40.5738C22.2039 41.2039 22.6818 41.5841 23.2576 41.4755C22.8774 41.117 22.5297 40.7802 22.1713 40.4435ZM37.6835 37.8038C37.4228 38.2383 37.1947 38.6185 36.9014 39.0856C37.6075 38.8575 37.879 38.3578 37.6835 37.8038ZM35.0873 37.9667C35.0112 37.9559 34.9243 37.9342 34.8483 37.9233C34.7614 38.3904 34.6745 38.8466 34.5984 39.3137C34.6853 39.3246 34.7722 39.3463 34.8592 39.3572C34.9243 38.8901 35.0004 38.423 35.0873 37.9667ZM35.6521 37.8473C35.5761 37.8473 35.4892 37.8364 35.4132 37.8364C35.4566 38.3144 35.109 38.7706 35.3588 39.2486C35.424 39.2486 35.4892 39.2594 35.5544 39.2594C35.587 38.7815 35.6196 38.3144 35.6521 37.8473ZM36.0975 39.1943C36.5864 39.0205 36.771 38.5859 36.9557 38.1623C36.9991 38.0754 36.9014 37.9233 36.8579 37.7929C36.5755 38.3144 36.3365 38.7489 36.0975 39.1943ZM34.5007 48.406C35.1525 48.1562 35.5218 47.4827 35.2394 47.2111C35.0112 47.5804 34.7831 47.9498 34.5007 48.406ZM34.0879 37.8581C34.0336 38.3144 33.9793 38.7706 33.9141 39.292C34.2834 39.0205 34.3812 38.3252 34.0879 37.8581ZM33.762 48.569C34.316 48.2322 34.5115 47.6565 34.2834 47.2437C34.1205 47.6673 33.9575 48.0584 33.762 48.569ZM33.045 39.1617C33.132 39.1617 33.2189 39.1617 33.3058 39.1508C33.3058 38.7489 33.3058 38.3578 33.3058 37.9559C33.2514 37.9559 33.1863 37.9559 33.132 37.9559C33.0994 38.3578 33.0668 38.7597 33.045 39.1617ZM36.6624 46.9286C36.5212 47.1459 36.4451 47.2763 36.3474 47.3958C36.2496 47.5153 36.1084 47.613 36.0106 47.7325C35.9672 47.7868 35.9672 47.8955 35.9889 47.9606C35.9998 47.9932 36.1084 48.0258 36.1627 48.0149C36.4234 47.9606 36.7384 47.3632 36.6624 46.9286ZM34.1748 32.6656C34.2508 32.6656 34.3377 32.6765 34.4138 32.6765C34.4138 32.2963 34.4138 31.9052 34.4138 31.525C34.3703 31.525 34.3269 31.5142 34.2834 31.5142C34.2508 31.8944 34.2074 32.2854 34.1748 32.6656ZM35.1199 31.3838C35.0547 31.8401 35.0112 32.2094 34.9569 32.6113C35.4023 32.318 35.4566 31.927 35.1199 31.3838ZM33.1537 48.2539C33.2189 48.2539 33.2732 48.2648 33.3383 48.2648C33.3709 47.9389 33.3927 47.6239 33.4252 47.298C33.3601 47.298 33.2949 47.2871 33.2297 47.2871C33.1537 47.6022 32.8387 47.9063 33.1537 48.2539ZM54.8578 35.1098C55.0968 35.5769 55.2814 35.9354 55.477 36.2939C55.4552 35.8376 55.5204 35.3271 54.8578 35.1098ZM34.794 42.7682C34.7397 42.7464 34.6745 42.7247 34.6202 42.703C34.3812 42.9854 34.2074 43.2896 34.2617 43.6589C34.3269 43.6806 34.3812 43.7024 34.4464 43.7241C34.555 43.4091 34.6745 43.0832 34.794 42.7682ZM38.9219 37.7929C38.8676 37.7495 38.8133 37.7169 38.7698 37.6735C38.5308 37.9559 38.2918 38.2492 38.0637 38.5316C38.118 38.5751 38.1832 38.6185 38.2375 38.662C38.4548 38.3687 38.6938 38.0754 38.9219 37.7929Z" fill="#193648"/>
<path d="M32.2303 9.03875C31.7306 8.74545 31.3395 8.38698 30.8942 8.28921C29.873 8.07195 29.1344 7.42018 28.3197 6.86617C27.8308 6.52942 27.342 6.13835 26.7988 5.95368C26.3969 5.81247 25.8755 5.89937 25.441 5.99714C25.1151 6.07318 24.9521 5.98627 24.9521 5.72556C24.9521 5.55176 25.1585 5.23673 25.278 5.23673C26.1471 5.23673 27.027 5.18242 27.7982 5.75815C28.5586 6.33389 29.3516 6.86617 30.1446 7.39845C30.2858 7.49622 30.4705 7.53967 30.6443 7.59398C31.5894 7.90901 32.5345 8.25662 33.4904 8.52819C33.838 8.62596 34.2291 8.52819 34.6093 8.54992C35.185 8.58251 35.7499 8.65855 36.3256 8.68028C36.6081 8.69114 36.9014 8.68028 37.1729 8.62596C38.1723 8.38698 39.1608 8.13713 40.1494 7.86556C40.4101 7.78952 40.6599 7.6483 40.8989 7.49622C41.2031 7.30069 41.4855 7.07256 41.7679 6.85531C42.1916 6.52942 42.637 6.29043 42.8325 5.69297C43.0172 5.09551 44.4402 4.55237 45.2115 4.70445C45.5591 4.76963 45.8958 4.92171 46.2 5.09551C46.3412 5.17155 46.3955 5.41054 46.4824 5.57348C46.3304 5.64952 46.1783 5.77988 46.0153 5.8016C45.4613 5.89937 44.9073 5.95368 44.3533 6.02972C43.8428 6.10576 43.4408 6.31216 43.0715 6.72495C42.4632 7.40931 41.7353 7.99591 41.051 8.60423C40.9532 8.69114 40.7468 8.79977 40.6599 8.74545C39.943 8.35439 39.4107 9.03875 38.7698 9.07134C38.4982 9.0822 38.2266 9.22342 37.9551 9.31032C37.9333 9.36464 37.9116 9.41895 37.8899 9.48413C38.3787 9.72311 38.8567 10.0381 39.3781 10.1794C39.8995 10.3206 40.3449 10.5378 40.5622 11.0267C41.1705 12.3845 41.2791 13.775 40.6708 15.1763C40.6273 15.2741 40.573 15.3718 40.5187 15.4696C39.943 16.4255 39.6605 16.5342 38.6177 16.1865C38.3244 16.0888 38.042 15.9693 37.7487 15.8824C37.0317 15.676 36.847 15.2958 37.0969 14.568C37.1838 14.2964 37.2055 14.0031 37.249 13.7098C37.1729 13.6881 37.0969 13.6664 37.0208 13.6555C36.9231 13.8402 36.8145 14.014 36.7384 14.1986C36.6515 14.3833 36.5972 14.5897 36.4125 14.7635C36.4125 14.5462 36.4342 14.3181 36.4017 14.1117C36.3799 13.9597 36.2822 13.8184 36.217 13.6772C36.1518 13.8184 36.0432 13.9705 36.0215 14.1117C35.9889 14.3942 36.0106 14.6766 36.0106 15.1003C35.6521 14.5462 35.8477 13.8836 35.1633 13.6229C35.2285 13.9705 35.3045 14.3181 35.3371 14.6766C35.348 14.8504 35.2502 15.0351 35.1959 15.2089C35.0981 15.0351 34.9678 14.8721 34.9243 14.6875C34.87 14.3942 34.9026 14.0791 34.8483 13.775C34.8157 13.612 34.6745 13.4708 34.5876 13.3079C34.5224 13.3187 34.4463 13.3405 34.3812 13.3513C34.3812 13.6446 34.3703 13.9488 34.3812 14.2421C34.3812 14.329 34.4681 14.405 34.4681 14.4919C34.4789 14.7092 34.4681 14.9373 34.4463 15.1546C34.4463 15.1872 34.2943 15.198 34.2182 15.2197C34.1748 15.0134 34.1204 14.8178 34.0879 14.6114C34.0553 14.3833 34.077 14.1335 34.0118 13.9162C33.9792 13.7967 33.8054 13.7098 33.6968 13.612C33.6316 13.7315 33.523 13.8402 33.523 13.9597C33.5121 14.2855 33.5556 14.6006 33.5773 14.9265C33.2297 14.9373 33.2406 14.9373 33.208 14.3724C33.1971 14.1009 33.1319 13.8293 33.0885 13.5034C32.5345 13.9922 32.5019 14.4702 32.9147 15.1328C32.0456 15.4696 31.1766 15.8172 30.2967 16.1105C30.1881 16.1431 29.9491 15.9693 29.8622 15.8281C29.2213 14.8939 29.0366 13.8402 29.1344 12.7321C29.1887 12.189 29.2973 11.635 29.4711 11.1136C29.6884 10.4727 30.0469 10.0164 30.8616 9.98383C31.383 9.97296 31.8175 9.51672 32.2303 9.03875ZM35.5326 9.7557C35.7064 9.98382 35.8694 10.125 35.9237 10.288C36.0323 10.5921 36.217 10.766 36.456 10.5161C36.7819 10.1794 36.9014 10.4835 37.0534 10.5596C37.0534 10.7877 37.0534 10.9615 37.0534 11.1244C37.2381 11.1027 37.4662 11.1353 37.5966 11.0375C37.8356 10.8529 38.0202 10.5921 38.2918 10.2988C37.9659 10.125 37.7161 10.0056 37.4662 9.85347C36.9014 9.51672 36.0649 9.91865 35.6521 9.17997C35.6413 9.15824 35.5435 9.17997 35.5 9.16911C34.2073 8.93012 33.0667 9.34291 31.9913 10.0707C32.0999 10.2988 32.1543 10.6356 32.3498 10.7985C32.5779 10.9941 32.9255 11.0267 33.2297 11.1353C33.2406 10.9398 33.2623 10.7442 33.284 10.4618C33.36 10.4183 33.523 10.3097 33.599 10.2554C33.8054 10.3966 33.9575 10.5052 34.1096 10.6139C34.1748 10.4183 34.2508 10.2228 34.3377 9.97296C34.5441 9.85347 34.7396 9.85347 34.8591 10.2011C34.9026 10.3097 35.0438 10.3858 35.1416 10.4727C35.2285 10.3532 35.3262 10.2445 35.4023 10.125C35.4566 10.0816 35.4566 10.0056 35.5326 9.7557ZM31.4916 11.1353C31.3178 10.9832 31.1657 10.7334 30.9811 10.7225C30.7529 10.7116 30.4379 10.8311 30.275 10.9941C29.8079 11.4938 29.6884 12.1347 29.7101 12.8082C29.721 13.058 29.7861 13.3079 29.8296 13.5577C29.8948 13.5469 29.9708 13.536 30.036 13.5143C30.0143 13.3405 29.9817 13.1775 29.9925 13.0037C30.0143 12.6344 30.0034 12.2433 30.1229 11.8848C30.4053 11.0267 30.6117 10.9289 31.4916 11.1353ZM40.4209 13.3731C40.6273 12.7973 40.4427 12.189 40.2363 11.6133C40.1059 11.2548 39.8235 10.9398 39.541 10.6791C39.4541 10.5921 39.1608 10.6682 38.987 10.7334C38.911 10.766 38.911 10.9723 38.8784 11.1027C39.3021 10.7225 39.5845 10.8963 39.7148 11.2439C39.9864 11.9283 40.1928 12.6561 40.4209 13.3731ZM44.7552 5.43226C44.7444 5.38881 44.7444 5.3345 44.7335 5.29105C44.3207 5.26932 43.8753 5.09551 43.4843 5.66039C43.9731 5.57348 44.3642 5.49744 44.7552 5.43226Z" fill="#193648"/>
<path d="M61.3863 20.5425C61.332 19.9994 60.9083 20.2601 60.6367 20.1949C59.7786 19.9885 58.9204 19.8039 58.0731 19.5866C57.5082 19.4345 56.9433 19.0435 56.4002 19.0761C55.227 19.1412 54.0429 19.3693 52.8915 19.6192C51.5228 19.9125 50.1649 20.3036 48.807 20.662C47.4274 21.0314 46.0478 21.3899 44.69 21.7918C43.8318 22.0416 43.0062 22.3675 42.1589 22.6608C42.1372 22.5956 42.1155 22.5413 42.0937 22.4761C44.451 21.5637 46.7865 20.5969 49.209 19.8908C51.6531 19.1738 54.119 18.5438 56.7369 18.3591C56.574 18.0441 56.3676 17.5878 56.1504 17.5878C55.3791 17.577 54.597 17.6204 53.8474 17.8051C51.8486 18.2939 49.8716 18.8479 47.8945 19.4128C46.1022 19.9342 44.4075 20.7055 42.8433 21.7375C42.4522 21.9982 42.0503 22.2154 41.6484 22.4436L41.4746 22.3132C41.5506 22.1503 41.5941 21.9439 41.7135 21.8461C41.9417 21.6723 42.2241 21.5745 42.4848 21.4442C44.0491 20.6512 45.6025 19.8473 47.1667 19.0543C47.6773 18.7936 48.2422 18.6307 48.731 18.3265C49.285 17.9898 49.7955 17.577 50.2735 17.1316C50.8927 16.5559 51.4467 15.9149 52.0333 15.3066C51.979 15.2523 51.9247 15.1871 51.8704 15.1328C51.2512 15.5456 50.632 15.9584 50.0128 16.382C47.7316 17.9137 45.1897 18.9131 42.7238 20.0754C42.1698 20.3361 41.4311 20.4448 41.3551 21.2704C41.3985 21.3681 41.4202 21.4876 41.3877 21.618C41.2464 22.2915 41.442 23.0084 41.442 23.6928C41.442 23.6819 41.442 23.6711 41.4528 23.6602C41.9634 23.8666 42.3327 24.073 42.7238 24.1599C43.2452 24.2685 43.7992 24.3228 44.3315 24.3228C45.7328 24.3446 47.1341 24.4097 48.5246 24.312C49.4805 24.2359 50.4256 23.9426 51.3707 23.6928C52.848 23.3017 54.358 22.9758 55.781 22.4218C56.8239 22.0199 57.845 21.7483 58.953 21.8026C58.8009 21.8787 58.6488 21.9873 58.4859 22.0308C57.682 22.2589 56.8456 22.4327 56.0526 22.7043C55.1184 23.0302 54.2168 23.4538 53.2934 23.7906C52.7177 23.997 52.1094 24.1164 51.4902 24.2902C52.7829 25.2136 54.195 25.7567 55.7376 25.9414C56.2155 25.9957 56.7044 25.974 57.1932 25.9849C58.0622 26.0066 58.6923 25.5721 59.2137 24.9094C59.985 23.91 60.5498 22.7912 61.1147 21.618C60.9083 21.5962 60.7997 21.5854 60.5281 21.5637C61.1473 21.4442 61.4297 21.0314 61.3863 20.5425ZM58.9638 21.8135C58.953 21.8135 58.953 21.8135 58.9638 21.8135C57.9645 21.5962 57.0628 21.1835 56.2264 20.6186C55.6832 20.2492 55.151 20.5317 54.7056 20.7815C52.8698 21.8244 50.8927 22.5413 48.8505 22.965C47.221 23.3017 45.5264 23.3669 43.8535 23.4973C43.2452 23.5516 42.6369 23.4647 42.0177 23.4321C41.833 23.4212 41.6592 23.356 41.4854 23.3126C41.4963 23.2691 41.5071 23.2148 41.5071 23.1714C41.7244 23.1931 41.9417 23.2365 42.1481 23.2474C43.7123 23.28 45.2983 23.3234 46.8191 22.9215C48.9917 22.3458 51.1534 21.694 53.3043 21.0422C53.9017 20.8576 54.4557 20.5317 55.0315 20.2818C55.7702 19.9668 56.4002 20.0754 57.0954 20.5534C58.0731 21.2269 59.192 21.6397 60.4521 21.5637C60.0936 22.0199 59.6699 22.0851 58.9638 21.8135Z" fill="white"/>
<path d="M61.017 19.8582C59.909 19.7388 58.5403 19.5106 57.3996 18.6525C57.052 18.3918 56.8565 17.9029 56.6067 17.5119C56.5523 17.4358 56.5306 17.262 56.5849 17.2077C57.1172 16.5994 57.4105 15.7738 58.2795 15.4588C60.0611 14.8179 61.8969 14.5137 63.7653 14.3508C64.2216 14.3073 64.6995 14.4051 65.1558 14.492C65.2753 14.5137 65.4491 14.7635 65.4273 14.883C65.1558 16.6537 64.2107 18.055 62.8746 19.1956C62.1033 19.8474 62.0707 19.8148 61.017 19.8582Z" fill="white"/>
<path d="M8.56003 20.9227C8.56003 20.3796 8.48399 19.9233 8.58176 19.4888C8.69039 18.9783 9.20095 18.8479 9.64633 18.8588C10.4176 18.8696 11.1889 18.9674 11.9601 19.0326C11.9384 18.9783 11.9167 18.924 11.8949 18.8696C12.1231 18.7501 12.3403 18.5546 12.5902 18.5112C13.7851 18.2722 14.9474 18.5329 16.1098 18.761C17.3264 18.9891 18.5539 19.2173 19.7597 19.5431C21.0958 19.9016 22.4102 20.3253 23.7138 20.7815C25.0608 21.2486 26.3752 21.7809 27.7005 22.3132C28.3088 22.5522 28.3305 22.6934 28.135 23.3452C28.0807 23.5081 28.0372 23.671 27.9721 23.9209C27.5484 23.3995 27.1899 22.9324 26.7989 22.5087C26.6794 22.3784 26.4513 22.3132 26.2666 22.2806C24.5068 22.009 22.7361 21.8026 20.9981 21.4659C19.814 21.2378 18.6843 20.8032 17.5111 20.4991C17.1961 20.423 16.8158 20.4122 16.5117 20.5099C14.9257 21.0639 13.2854 20.977 11.6451 20.9336C10.6457 20.901 9.65719 20.9227 8.56003 20.9227Z" fill="white"/>
<path d="M65.927 14.177C64.8299 13.7099 63.7979 13.9271 62.7985 14.0683C62.0381 14.177 61.2886 14.4051 60.539 14.6006C59.8655 14.7744 59.192 14.9808 58.5185 15.1764C58.4208 15.1981 58.323 15.1981 58.16 15.1112C58.5294 14.7853 58.9096 14.4703 59.3441 14.0901C59.1703 14.0683 59.116 14.0466 59.1051 14.0575C58.3447 14.8722 57.3888 15.1112 56.3242 15.3828C55.2379 15.6543 54.2711 15.6217 53.2391 15.3936C52.9567 15.3284 52.6417 15.3828 52.3049 15.3828C52.6525 14.8396 52.9784 14.3073 53.7497 14.2747C54.3472 14.253 54.9338 14.1335 55.5204 14.1227C55.8354 14.1118 56.1613 14.2639 56.4763 14.2965C56.7261 14.329 56.9868 14.3399 57.2258 14.2856C57.9754 14.1118 58.7249 13.938 59.4527 13.699C59.8003 13.5795 60.0936 13.3079 60.4195 13.1015C61.0279 12.7105 61.647 12.3411 62.2445 11.9283C62.4509 11.7871 62.6247 11.5916 62.7876 11.3961C62.9289 11.2223 63.0049 10.8964 63.1678 10.8529C63.5046 10.766 63.8739 10.7769 64.2324 10.8095C64.7864 10.8638 65.3404 10.9507 65.8836 11.0484C66.1443 11.0919 66.405 11.1897 66.644 11.2983C67.0894 11.5047 67.198 11.8523 66.9699 12.276C66.6331 12.9277 66.2855 13.5361 65.927 14.177Z" fill="white"/>
<path d="M53.1196 28.3095C52.4787 28.4182 51.8378 28.6137 51.186 28.6137C49.8282 28.6028 48.4486 28.592 47.1125 28.3638C45.7546 28.1357 44.4402 27.6469 43.1149 27.2558C42.9085 27.2015 42.7238 27.0712 42.5392 26.9625C41.4963 26.3325 41.442 26.1804 41.8874 25.0832C41.9308 24.9855 42.1372 24.8877 42.2459 24.9094C43.9622 25.0832 45.6786 25.2027 47.384 25.4743C48.0467 25.5829 48.6659 26.0066 49.2959 26.3216C50.5669 26.9625 51.8161 27.6252 53.1196 28.3095Z" fill="white"/>
<path d="M16.9788 26.9191C20.444 25.3875 24.0505 24.4532 27.8851 24.4424C27.9286 24.6271 27.9503 24.7031 27.972 24.79C28.0263 25.1485 28.2545 25.6699 28.1024 25.8546C27.7982 26.213 27.2985 26.4846 26.8423 26.6476C25.1803 27.2124 23.4748 27.5926 21.715 27.56C20.368 27.5383 19.0319 27.4188 17.6848 27.3211C17.4567 27.3102 17.2395 27.2016 17.0113 27.1364C17.0005 27.0603 16.9896 26.9843 16.9788 26.9191Z" fill="white"/>
<path d="M9.22259 22.6826C9.05965 22.2589 8.88584 21.8352 8.67944 21.303C9.54848 21.303 10.3197 21.2921 11.0801 21.303C12.1664 21.3138 13.2527 21.4333 14.3282 21.3356C15.1429 21.2595 16.0336 21.4659 16.7832 20.8902C16.8484 20.8467 17.0113 20.9336 17.1308 20.9554C19.2382 21.4333 21.3456 21.9113 23.4639 22.3675C24.3764 22.5631 25.2997 22.7043 26.2122 22.8889C26.386 22.9215 26.5381 23.041 26.6902 23.1171C26.6793 23.1605 26.6684 23.2148 26.6576 23.2583C26.0275 23.2909 25.3975 23.3126 24.7674 23.3669C22.6274 23.5516 20.52 23.4321 18.4561 22.802C17.9998 22.6608 17.5001 22.6391 17.033 22.4979C16.7289 22.411 16.4573 22.1177 16.1531 22.0851C15.371 22.0199 14.578 21.9873 13.7959 22.0525C12.5358 22.1503 11.2865 22.3241 10.0373 22.487C9.78746 22.5305 9.55934 22.6065 9.22259 22.6826Z" fill="white"/>
<path d="M13.3288 18.0441C13.3288 17.7726 13.3396 17.5444 13.3288 17.3054C13.2962 16.6319 13.4265 16.5016 14.1218 16.5233C15.5665 16.5559 16.9353 16.947 18.2823 17.4141C20.1724 18.0767 22.0625 18.7176 23.9201 19.4346C25.115 19.8908 26.2665 20.4448 27.4506 20.9663C27.6461 20.7816 27.7004 20.8033 27.7982 21.1075C27.8851 21.379 28.0154 21.6398 28.0697 21.9548C23.2792 20.1515 18.5321 18.3592 13.3288 18.0441Z" fill="white"/>
<path d="M5.54004 15.8281C6.34389 15.7195 7.12602 15.6 7.92988 15.5131C9.30947 15.3501 10.613 15.7195 11.9057 16.1214C12.5792 16.3278 12.8942 16.8275 12.8073 17.4684C12.753 17.8486 12.6878 18.1853 12.1447 18.0984C12.0143 18.0767 11.8297 18.2831 11.6776 18.3917C11.5364 18.4895 11.3843 18.7068 11.2539 18.6959C9.86348 18.5764 8.44044 18.6199 7.14775 17.9681C6.50684 17.6422 5.71385 16.6211 5.54004 15.8281Z" fill="white"/>
<path d="M13.4375 25.8871C13.9481 25.5721 14.4369 25.1919 14.98 24.9746C16.0446 24.5401 17.12 24.073 18.228 23.8449C19.0971 23.6711 20.0422 23.8666 20.9546 23.8775C21.6173 23.8884 22.2908 23.8992 22.9534 23.8558C23.9745 23.7797 24.9956 23.6494 26.0168 23.5625C26.7989 23.4973 26.8097 23.519 27.5376 24.1816C27.2225 24.1816 26.9836 24.1708 26.7446 24.1816C24.4525 24.312 22.193 24.5944 19.9878 25.2679C18.9559 25.583 17.8913 25.8654 16.9571 26.3542C16.251 26.7236 15.6644 26.9191 14.9257 26.5824C14.4586 26.376 13.9589 26.213 13.481 26.0392C13.4701 25.9958 13.4592 25.9414 13.4375 25.8871Z" fill="white"/>
<path d="M19.26 17.0882C18.0542 16.7406 16.9571 16.4038 15.8491 16.1323C14.9692 15.915 14.0675 15.9041 13.1768 16.1214C12.9812 16.1648 12.7423 16.0997 12.5467 16.0236C12.1122 15.8607 11.6994 15.6326 11.2649 15.4696C10.7869 15.2958 10.4611 15.0351 10.5045 14.4594C10.5262 14.1769 10.4393 13.8945 10.3959 13.5252C11.1237 13.4057 11.8298 13.2862 12.5359 13.1775C12.6119 13.1667 12.7097 13.221 12.764 13.2753C13.4266 13.8836 14.2413 14.1118 15.0995 14.329C15.6318 14.4594 16.1532 14.7853 16.6095 15.1111C17.4676 15.7086 18.3149 16.3821 19.26 17.0882Z" fill="white"/>
<path d="M9.59192 23.0193C10.5044 22.8998 11.3408 22.7803 12.199 22.6826C13.0029 22.5957 13.8176 22.5088 14.6214 22.487C15.1863 22.4653 15.7403 22.3676 16.2617 22.8455C16.5659 23.1171 17.1416 23.0736 17.6087 23.1714C17.7826 23.204 17.9672 23.2366 18.141 23.4104C17.6631 23.5516 17.196 23.7254 16.718 23.834C15.4144 24.1273 14.263 24.7791 13.1224 25.4309C12.9811 25.5178 12.7096 25.583 12.6118 25.5178C11.645 24.8008 10.6891 24.0513 9.744 23.3018C9.67882 23.2692 9.66796 23.1931 9.59192 23.0193Z" fill="white"/>
<path d="M12.8182 11.6133C17.826 14.1769 22.3993 17.3706 27.0378 20.51C26.8422 20.434 26.6467 20.3579 26.462 20.271C26.2665 20.1841 26.071 20.0864 25.8754 19.9886C24.3981 19.3151 22.9425 18.609 21.4434 17.9681C20.0855 17.3924 18.9992 16.4473 17.9021 15.5239C17.7174 15.3718 17.5219 15.2415 17.3806 15.0568C16.8592 14.3833 16.1205 14.1769 15.3276 13.9705C14.6432 13.7967 13.9697 13.4817 13.3505 13.145C12.7748 12.8408 12.5684 12.189 12.8182 11.6133Z" fill="white"/>
<path d="M57.5083 26.528C56.2047 27.4405 54.9663 28.0163 53.3695 27.5383C51.6423 27.0277 50.0563 26.2565 48.5246 25.3331C48.2205 25.1484 47.786 25.1593 47.4058 25.0181C47.5361 24.9964 47.6665 24.9964 47.786 24.9638C48.5572 24.8117 49.3394 24.6922 50.0998 24.4858C50.48 24.3772 50.7298 24.4532 51.034 24.6596C52.3158 25.5721 53.804 25.9088 55.3248 26.1804C56.0201 26.3108 56.7044 26.4085 57.5083 26.528Z" fill="white"/>
<path d="M8.09293 12.3411C6.89801 12.6887 5.72482 13.0363 4.38868 13.4274C4.05193 12.3845 3.68259 11.3526 3.40015 10.3097C3.36756 10.1685 3.70431 9.77745 3.89985 9.74486C4.71456 9.64709 5.54015 9.63623 6.36573 9.6145C6.45263 9.6145 6.58299 9.72313 6.6373 9.8209C7.12613 10.6248 7.58237 11.4395 8.09293 12.3411Z" fill="white"/>
<path d="M12.1556 11.3309C12.2425 11.9066 12.3077 12.3411 12.3729 12.7973C9.72232 13.699 8.29928 12.9712 7.01746 9.72314C8.9076 9.97299 10.6022 10.6465 12.1556 11.3309Z" fill="white"/>
<path d="M62.7008 10.9181C60.941 12.3954 59.7026 13.5578 56.7262 13.9814C56.5958 13.384 56.1939 13.4926 55.7485 13.6012C55.3357 13.7099 54.9121 13.7533 54.4667 13.7424C56.9869 12.2434 59.6048 11.0376 62.7008 10.9181Z" fill="white"/>
<path d="M10.1133 15.0242C8.41873 15.122 6.86533 15.2089 5.24675 15.2958C5.09467 14.9156 4.91 14.4594 4.67102 13.8836C5.45315 13.6664 6.19183 13.46 6.91964 13.2536C7.07172 13.2101 7.24553 13.1993 7.38675 13.1232C8.33182 12.6235 9.04877 13.2319 9.67882 13.7316C9.98299 13.9705 9.98299 14.6006 10.1133 15.0242Z" fill="white"/>
<path d="M57.3996 15.6434C57.0194 16.1323 56.7913 16.5776 56.4328 16.8384C56.1504 17.0447 55.6941 17.0447 55.3139 17.0991C54.1842 17.2729 53.0436 17.4141 51.9138 17.6096C51.3164 17.7182 50.7406 17.9029 50.1106 18.0007C50.8601 17.3706 51.2403 16.3169 52.3049 16.0779C52.7286 15.9802 53.1957 16.0236 53.6302 16.0562C54.043 16.0779 54.4449 16.1866 54.8577 16.2409C55.2705 16.2952 55.629 16.2843 56.02 16.0019C56.3568 15.7629 56.8456 15.7738 57.3996 15.6434Z" fill="white"/>
<path d="M31.4916 11.1353C30.6225 10.9289 30.4053 11.0158 30.1229 11.8957C30.0142 12.2433 30.0251 12.6344 29.9925 13.0146C29.9816 13.1775 30.0251 13.3513 30.0359 13.5252C29.9708 13.536 29.8947 13.5469 29.8296 13.5686C29.7861 13.3188 29.7209 13.0689 29.7101 12.8191C29.6883 12.1564 29.8078 11.5155 30.2749 11.005C30.4379 10.8311 30.742 10.7117 30.981 10.7334C31.1548 10.7334 31.3178 10.9941 31.4916 11.1353Z" fill="white"/>
<path d="M40.421 13.373C40.1928 12.6561 39.9864 11.9391 39.7149 11.2439C39.5845 10.8963 39.3021 10.7225 38.8784 11.1027C38.911 10.9723 38.911 10.7659 38.987 10.7333C39.1609 10.6573 39.4542 10.5921 39.5411 10.679C39.8126 10.9506 40.1059 11.2656 40.2363 11.6132C40.4427 12.1781 40.6273 12.7973 40.421 13.373Z" fill="white"/>
<path d="M58.9748 21.8135C57.9754 21.5963 57.0629 21.1835 56.2156 20.6077C55.6724 20.2384 55.1402 20.5208 54.6948 20.7707C52.8589 21.8135 50.8819 22.5305 48.8397 22.9541C47.2102 23.2909 45.5156 23.3561 43.8427 23.4864C43.2344 23.5407 42.6261 23.4538 42.0069 23.4212C41.8222 23.4104 41.6484 23.3452 41.4746 23.3017C41.4855 23.2583 41.4963 23.204 41.4963 23.1605C41.7136 23.1823 41.9309 23.2257 42.1372 23.2366C43.7015 23.2692 45.2875 23.3126 46.8083 22.9107C48.9809 22.3349 51.1426 21.6832 53.2935 21.0314C53.8909 20.8467 54.4449 20.5208 55.0207 20.271C55.7593 19.956 56.3894 20.0646 57.0846 20.5426C58.0623 21.2161 59.1812 21.6289 60.4413 21.5528C60.0719 22.0199 59.6483 22.0851 58.9422 21.8135C58.9639 21.8135 58.9748 21.8135 58.9748 21.8135Z" fill="#193648"/>
<path d="M33.045 17.9246C33.6642 17.8486 34.2942 17.7399 34.9134 17.7073C36.2278 17.653 37.6291 17.5878 38.7806 18.2179C40.0407 18.9131 40.8337 20.0646 40.8228 21.6614C40.812 23.1822 40.4861 24.5944 39.6496 25.8654C39.2043 26.5389 38.8675 27.3319 38.2809 27.8642C37.2272 28.8092 35.9563 29.4393 34.5006 29.5371C34.2073 29.5588 33.8814 29.5696 33.7511 29.1568C33.7185 29.0591 33.5447 28.9613 33.4252 28.9287C31.9478 28.5703 30.9919 27.5383 30.1772 26.3759C29.0909 24.8225 28.6564 23.041 28.9388 21.1835C29.1343 19.9234 29.5471 18.6198 30.9593 18.1419C31.6111 17.9246 32.3389 17.9029 33.0233 17.7942C33.0341 17.8377 33.045 17.8811 33.045 17.9246ZM29.7318 21.618C29.7318 23.3017 30.8181 25.5286 32.0782 26.6475C33.0124 27.4731 33.9901 27.5709 35.0872 27.1038C35.6195 26.8756 36.1844 26.7127 36.6732 26.4194C37.3358 26.0283 38.0311 25.6264 38.5525 25.0833C39.8995 23.6711 39.5736 21.1183 37.9116 20.3144C36.4668 19.6192 34.8917 19.3694 33.2731 19.5758C32.4475 19.6844 31.6328 19.8365 30.8181 19.9994C30.6334 20.032 30.4488 20.1406 30.2967 20.2601C29.8513 20.6186 29.6775 21.1183 29.7318 21.618Z" fill="#193648"/>
</svg>
