<svg width="129" height="39" viewBox="0 0 129 39" fill="none" xmlns="http://www.w3.org/2000/svg">
<path d="M13.856 32.474H18.098V34H12.246V24.2H17.944V25.712H13.856V28.26H17.58V29.744H13.856V32.474ZM25.9372 34.182C24.4532 34.182 23.2212 33.7013 22.2412 32.74C21.2612 31.7693 20.7712 30.556 20.7712 29.1C20.7712 27.644 21.2612 26.4353 22.2412 25.474C23.2212 24.5033 24.4532 24.018 25.9372 24.018C27.4212 24.018 28.6532 24.5033 29.6332 25.474C30.6132 26.4353 31.1032 27.644 31.1032 29.1C31.1032 30.052 30.8792 30.92 30.4312 31.704C29.9926 32.4787 29.3766 33.0853 28.5832 33.524C27.7992 33.9627 26.9172 34.182 25.9372 34.182ZM23.4172 31.634C24.0892 32.306 24.9292 32.642 25.9372 32.642C26.9546 32.642 27.7946 32.306 28.4572 31.634C29.1292 30.9527 29.4652 30.108 29.4652 29.1C29.4652 28.092 29.1292 27.252 28.4572 26.58C27.7946 25.8987 26.9546 25.558 25.9372 25.558C24.9292 25.558 24.0892 25.8987 23.4172 26.58C22.7452 27.252 22.4092 28.092 22.4092 29.1C22.4092 30.108 22.7452 30.9527 23.4172 31.634ZM37.5736 34.154C36.8363 34.154 36.1876 34.0233 35.6276 33.762C35.077 33.5007 34.6476 33.1273 34.3396 32.642C34.0316 32.1473 33.8776 31.5733 33.8776 30.92H35.5016C35.5016 31.4427 35.693 31.858 36.0756 32.166C36.4676 32.4647 36.9623 32.614 37.5596 32.614C38.101 32.614 38.5583 32.4833 38.9316 32.222C39.305 31.9513 39.4916 31.6013 39.4916 31.172C39.4916 31.0133 39.4636 30.8687 39.4076 30.738C39.361 30.6073 39.277 30.4953 39.1556 30.402C39.0436 30.3087 38.9316 30.2293 38.8196 30.164C38.717 30.0893 38.5583 30.0193 38.3436 29.954C38.1383 29.8887 37.9703 29.842 37.8396 29.814C37.709 29.7767 37.513 29.7253 37.2516 29.66C36.9623 29.5947 36.743 29.5433 36.5936 29.506C36.4443 29.4593 36.2343 29.394 35.9636 29.31C35.7023 29.2167 35.497 29.128 35.3476 29.044C35.2076 28.96 35.0396 28.848 34.8436 28.708C34.6476 28.5587 34.4983 28.4047 34.3956 28.246C34.3023 28.078 34.2183 27.8773 34.1436 27.644C34.069 27.4107 34.0316 27.1493 34.0316 26.86C34.0316 25.9827 34.3396 25.2967 34.9556 24.802C35.581 24.3073 36.4163 24.06 37.4616 24.06C38.5256 24.06 39.3563 24.3307 39.9536 24.872C40.551 25.404 40.8496 26.132 40.8496 27.056H39.2536C39.2536 26.5893 39.081 26.2253 38.7356 25.964C38.3996 25.6933 37.9656 25.558 37.4336 25.558C36.9203 25.558 36.491 25.67 36.1456 25.894C35.8096 26.1087 35.6416 26.412 35.6416 26.804C35.6416 26.972 35.6836 27.126 35.7676 27.266C35.8516 27.406 35.9496 27.5227 36.0616 27.616C36.1736 27.7 36.3416 27.784 36.5656 27.868C36.7896 27.952 36.9763 28.0173 37.1256 28.064C37.2843 28.1013 37.513 28.1573 37.8116 28.232C38.045 28.288 38.2176 28.33 38.3296 28.358C38.451 28.386 38.6236 28.4373 38.8476 28.512C39.0716 28.5773 39.2443 28.638 39.3656 28.694C39.487 28.7407 39.641 28.8107 39.8276 28.904C40.0143 28.9973 40.159 29.0907 40.2616 29.184C40.3643 29.2773 40.4763 29.394 40.5976 29.534C40.7283 29.674 40.8263 29.8233 40.8916 29.982C40.957 30.1313 41.013 30.3087 41.0596 30.514C41.1063 30.71 41.1296 30.92 41.1296 31.144C41.1296 32.096 40.7936 32.838 40.1216 33.37C39.4496 33.8927 38.6003 34.154 37.5736 34.154ZM53.0632 24.2C54.5006 24.2 55.6859 24.662 56.6192 25.586C57.5619 26.51 58.0332 27.6813 58.0332 29.1C58.0332 30.5187 57.5619 31.69 56.6192 32.614C55.6859 33.538 54.5006 34 53.0632 34H49.6052V24.2H53.0632ZM53.0212 32.502C54.0012 32.502 54.8039 32.1847 55.4292 31.55C56.0639 30.906 56.3812 30.0893 56.3812 29.1C56.3812 28.6053 56.2972 28.148 56.1292 27.728C55.9706 27.308 55.7419 26.9487 55.4432 26.65C55.1539 26.3513 54.7992 26.118 54.3792 25.95C53.9592 25.782 53.5066 25.698 53.0212 25.698H51.2152V32.502H53.0212ZM63.0638 32.474H67.3058V34H61.4538V24.2H67.1518V25.712H63.0638V28.26H66.7878V29.744H63.0638V32.474ZM77.1851 24.2V25.698H74.3011V34H72.7051V25.698H69.8211V24.2H77.1851ZM85.8421 34L83.7421 30.374H81.8801V34H80.2701V24.2H84.0921C84.7081 24.2 85.2681 24.3307 85.7721 24.592C86.2761 24.8533 86.6681 25.222 86.9481 25.698C87.2375 26.174 87.3821 26.706 87.3821 27.294C87.3821 27.9567 87.2001 28.5447 86.8361 29.058C86.4721 29.562 85.9868 29.926 85.3801 30.15L87.6481 34H85.8421ZM81.8801 25.712V28.862H83.9941C84.2555 28.862 84.4935 28.8247 84.7081 28.75C84.9321 28.6753 85.1188 28.568 85.2681 28.428C85.4175 28.288 85.5341 28.12 85.6181 27.924C85.7021 27.728 85.7441 27.5133 85.7441 27.28C85.7441 26.8227 85.5808 26.4493 85.2541 26.16C84.9368 25.8613 84.5168 25.712 83.9941 25.712H81.8801ZM95.4379 34.182C93.9539 34.182 92.7219 33.7013 91.7419 32.74C90.7619 31.7693 90.2719 30.556 90.2719 29.1C90.2719 27.644 90.7619 26.4353 91.7419 25.474C92.7219 24.5033 93.9539 24.018 95.4379 24.018C96.9219 24.018 98.1539 24.5033 99.1339 25.474C100.114 26.4353 100.604 27.644 100.604 29.1C100.604 30.052 100.38 30.92 99.9319 31.704C99.4933 32.4787 98.8773 33.0853 98.0839 33.524C97.2999 33.9627 96.4179 34.182 95.4379 34.182ZM92.9179 31.634C93.5899 32.306 94.4299 32.642 95.4379 32.642C96.4553 32.642 97.2953 32.306 97.9579 31.634C98.6299 30.9527 98.9659 30.108 98.9659 29.1C98.9659 28.092 98.6299 27.252 97.9579 26.58C97.2953 25.8987 96.4553 25.558 95.4379 25.558C94.4299 25.558 93.5899 25.8987 92.9179 26.58C92.2459 27.252 91.9099 28.092 91.9099 29.1C91.9099 30.108 92.2459 30.9527 92.9179 31.634ZM104.008 34V24.2H105.618V34H104.008ZM116.062 24.2V25.698H113.178V34H111.582V25.698H108.698V24.2H116.062Z" fill="#1E1F22"/>
<path d="M10.25 6.3C11.37 6.3 12.2893 6.67333 13.008 7.42C13.736 8.15733 14.1 9.09067 14.1 10.22C14.1 11.34 13.736 12.2733 13.008 13.02C12.2893 13.7667 11.37 14.14 10.25 14.14C9.494 14.14 8.81267 13.9533 8.206 13.58C7.59933 13.2067 7.13733 12.698 6.82 12.054L6.75 14H6.372V3.766H6.82V8.372C7.13733 7.728 7.59933 7.224 8.206 6.86C8.81267 6.48667 9.494 6.3 10.25 6.3ZM10.236 13.706C11.216 13.706 12.028 13.3793 12.672 12.726C13.316 12.0633 13.638 11.228 13.638 10.22C13.638 9.212 13.316 8.38133 12.672 7.728C12.028 7.06533 11.216 6.734 10.236 6.734C9.256 6.734 8.43933 7.06533 7.786 7.728C7.13267 8.39067 6.806 9.22133 6.806 10.22C6.806 11.2093 7.13267 12.04 7.786 12.712C8.43933 13.3747 9.256 13.706 10.236 13.706ZM21.5504 13.244C20.9811 13.8413 20.2064 14.14 19.2264 14.14C18.2557 14.14 17.4811 13.8413 16.9024 13.244C16.3331 12.6467 16.0484 11.844 16.0484 10.836V6.44H16.4964V10.78C16.4964 11.6853 16.7391 12.3993 17.2244 12.922C17.7191 13.4447 18.3864 13.706 19.2264 13.706C20.0757 13.706 20.7431 13.4447 21.2284 12.922C21.7231 12.3993 21.9704 11.6853 21.9704 10.78V6.44H22.4184V10.836C22.4184 11.844 22.1291 12.6467 21.5504 13.244ZM24.9224 4.76V3.976H25.5804V4.76H24.9224ZM25.0204 14V6.44H25.4684V14H25.0204ZM28.2197 14V3.766H28.6677V14H28.2197ZM34.2469 13.58H35.1989V14H34.2049C33.5049 14 32.9542 13.7993 32.5529 13.398C32.1515 12.9873 31.9509 12.4227 31.9509 11.704V6.846H30.2009V6.454H31.9509V4.214H32.3989V6.454H35.1429V6.846H32.3989V11.69C32.3989 12.2873 32.5575 12.754 32.8749 13.09C33.2015 13.4167 33.6589 13.58 34.2469 13.58ZM50.13 6.44H50.592L47.918 14H47.568L44.992 7.56L42.43 14H42.08L39.49 6.44H39.952L42.276 13.216L44.894 6.692H45.09L47.722 13.23L50.13 6.44ZM52.2252 4.76V3.976H52.8832V4.76H52.2252ZM52.3232 14V6.44H52.7712V14H52.3232ZM58.3504 13.58H59.3024V14H58.3084C57.6084 14 57.0577 13.7993 56.6564 13.398C56.2551 12.9873 56.0544 12.4227 56.0544 11.704V6.846H54.3044V6.454H56.0544V4.214H56.5024V6.454H59.2464V6.846H56.5024V11.69C56.5024 12.2873 56.6611 12.754 56.9784 13.09C57.3051 13.4167 57.7624 13.58 58.3504 13.58ZM64.2838 6.3C65.1891 6.3 65.9078 6.58933 66.4398 7.168C66.9718 7.74667 67.2378 8.53067 67.2378 9.52V14H66.7898V9.604C66.7898 8.69867 66.5611 7.994 66.1038 7.49C65.6464 6.97667 65.0118 6.72 64.1998 6.72C63.4251 6.72 62.7531 7.00467 62.1838 7.574C61.6144 8.14333 61.3298 8.82 61.3298 9.604V14H60.8818V3.766H61.3298V8.148C61.6004 7.59733 62.0018 7.154 62.5338 6.818C63.0658 6.47267 63.6491 6.3 64.2838 6.3Z" fill="#1E1F22"/>
<path d="M96.4742 4.55846L92.1812 11.1259L91.0292 1.05115" stroke="#1E1F22" stroke-width="0.379268" stroke-linejoin="round"/>
<path d="M96.4742 9.96802L92.1812 11.1258L91.6436 15.4345" stroke="#1E1F22" stroke-width="0.379268" stroke-miterlimit="10"/>
<path d="M92.1812 11.1259L86.7313 19.0401L92.1812 11.1259Z" stroke="#1E1F22" stroke-width="0.379268" stroke-miterlimit="10"/>
<path d="M81.3516 11.0865L86.7306 19.0401L81.3516 11.0865Z" stroke="#1E1F22" stroke-width="0.379268" stroke-miterlimit="10"/>
<path d="M92.1812 11.0865H81.3522L86.7313 5.69983" stroke="#1E1F22" stroke-width="0.379268" stroke-linejoin="round"/>
<path d="M92.1812 11.0865L86.7313 5.69983" stroke="#1E1F22" stroke-width="0.379268" stroke-miterlimit="10"/>
<path d="M77 10.0114L81.3522 11.0866L81.8129 15.4216L81.3522 11.0866L77 4.45605" stroke="#1E1F22" stroke-width="0.379268" stroke-miterlimit="10"/>
<path d="M81.3522 11.0865L82.3762 1" stroke="#1E1F22" stroke-width="0.379268" stroke-miterlimit="10"/>
<path d="M86.7313 19.0401L81.8129 15.4216L77 10.0114V4.45604L82.3762 1L86.7313 5.69989L91.0291 1.05113L96.4742 4.55844V9.96801L91.6435 15.4345L86.7313 19.0401Z" stroke="#1E1F22" stroke-width="0.379268" stroke-linejoin="round"/>
<path d="M109.724 6.3C110.844 6.3 111.763 6.67333 112.482 7.42C113.21 8.15733 113.574 9.09067 113.574 10.22C113.574 11.34 113.21 12.2733 112.482 13.02C111.763 13.7667 110.844 14.14 109.724 14.14C108.968 14.14 108.287 13.9533 107.68 13.58C107.073 13.2067 106.611 12.698 106.294 12.054L106.224 14H105.846V3.766H106.294V8.372C106.611 7.728 107.073 7.224 107.68 6.86C108.287 6.48667 108.968 6.3 109.724 6.3ZM109.71 13.706C110.69 13.706 111.502 13.3793 112.146 12.726C112.79 12.0633 113.112 11.228 113.112 10.22C113.112 9.212 112.79 8.38133 112.146 7.728C111.502 7.06533 110.69 6.734 109.71 6.734C108.73 6.734 107.913 7.06533 107.26 7.728C106.607 8.39067 106.28 9.22133 106.28 10.22C106.28 11.2093 106.607 12.04 107.26 12.712C107.913 13.3747 108.73 13.706 109.71 13.706ZM121.309 6.44H121.785L117.935 14.672C117.58 15.4373 117.211 15.96 116.829 16.24C116.455 16.5293 115.961 16.674 115.345 16.674H114.757V16.254H115.317C115.849 16.254 116.269 16.1373 116.577 15.904C116.894 15.68 117.211 15.2273 117.529 14.546L117.991 13.58L114.449 6.44H114.953L118.229 13.076L121.309 6.44Z" fill="#1E1F22"/>
</svg>
