<svg width="810" height="544" viewBox="0 0 810 544" fill="none" xmlns="http://www.w3.org/2000/svg">
<path d="M213.45 306.046C217.475 311.741 223.016 315.638 228.966 319.012C244.39 327.749 260.936 333.653 278.127 337.76C297.412 342.369 316.462 347.684 334.826 355.232C345.923 359.79 356.533 365.403 367.405 370.462C372.085 372.638 375.312 376.284 377.514 380.888C379.654 385.369 378.358 388.923 373.734 390.787C369.289 392.579 364.517 393.112 359.857 394.044C357.906 394.433 355.76 394.274 354.224 396.01C353.558 396.763 352.436 396.466 351.52 396.41C347.106 396.143 342.891 396.676 338.876 398.735C336.607 399.95 334.081 400.608 331.507 400.655C327.441 400.655 323.539 401.244 319.842 402.949C318.976 403.348 318.249 403.384 317.553 402.606C314.142 398.776 309.211 397.429 304.889 395.17C292.256 388.57 278.419 385.548 264.69 382.23C257.008 380.376 249.245 378.579 241.82 375.916C235.705 373.729 229.483 371.819 223.42 369.51C219.032 367.83 218.601 366.949 219.738 362.31C220.737 358.213 221.986 354.234 222.473 350.019C223.133 344.284 222.12 339.194 218.094 334.897C215.822 332.452 213.324 330.226 210.633 328.25C209.701 327.569 209.42 327.032 209.696 325.751C211.094 319.263 211.555 312.642 211.914 306.026L213.45 306.046Z" fill="#FE8517"/>
<path d="M617.93 440.629C617.679 439.861 616.957 439.722 616.342 439.512C609.793 437.269 604.564 432.599 598.337 429.752C597.564 429.399 597.508 428.538 597.513 427.744C597.549 414.584 595.705 401.572 594.41 388.518C593.734 381.754 592.812 375.02 591.89 368.286C591.701 366.898 589.965 364.993 591.578 364.235C592.745 363.692 593.022 366.196 593.749 367.307C598.537 374.477 605.107 379.598 612.435 383.925C620.695 388.815 629.754 392.195 637.692 397.721C644.548 402.488 647.77 408.987 648.205 417.098C648.553 417.876 648.317 418.701 648.384 419.5C647.933 426.91 643.903 431.954 637.394 434.827C631.495 437.428 625.371 439.574 618.959 440.654L617.93 440.629Z" fill="#FE8517"/>
<path d="M427.412 385.287C427.924 381.958 430.254 378.768 433.045 375.849C434.327 374.473 435.853 373.347 437.546 372.526C452.678 365.423 467.498 357.675 483.332 352.078C499.919 346.22 517.033 342.348 533.968 337.739C549.807 333.448 565.205 327.81 579.303 319.161C583.984 316.288 588.275 312.975 591.762 308.688C592.162 308.176 592.5 307.378 593.35 307.772C594 308.074 593.77 308.796 593.862 309.385C594.548 315.53 594.615 321.752 596.161 327.774C596.484 329.034 595.726 329.203 595.106 329.71C591.655 332.496 588.229 335.302 585.668 338.994C584.281 341.001 583.763 343.193 583.553 345.651C583.041 351.796 584.065 357.721 585.919 363.533C586.303 364.757 586.16 366.012 586.626 367.251C587.138 368.639 585.699 369.049 584.757 369.53C577.326 373.335 569.394 375.829 561.446 378.2C545.7 382.88 529.43 385.702 513.924 391.14C506.719 393.665 499.478 396.435 492.862 400.45C491.991 400.962 490.921 401.418 490.373 402.196C488.212 405.269 485.729 404.537 482.922 403.292C479.719 401.931 476.283 401.199 472.803 401.136C469.731 401.019 466.658 399.892 463.657 398.955C456.232 396.63 448.453 396.169 440.9 394.551C437.746 393.875 434.545 393.378 431.59 391.99C429.091 390.838 427.376 389.097 427.412 385.287Z" fill="#FE8517"/>
<path d="M157.576 418.133V415.531C157.985 406.498 162.123 399.841 169.799 394.976C177.23 390.265 185.397 387.023 192.956 382.578C201.661 377.457 209.24 371.22 214.648 362.571C214.863 362.228 215.109 361.833 215.713 361.925C216.548 362.903 215.739 363.851 215.416 364.67C213.322 370.016 212.615 375.649 211.96 381.272C210.838 390.956 209.886 400.66 208.887 410.354C208.339 415.654 207.776 420.949 207.325 426.229C207.319 426.65 207.222 427.064 207.041 427.444C206.86 427.824 206.599 428.161 206.275 428.431C200.642 432.999 194.19 436.02 187.553 438.754C186.918 439.016 186.396 438.754 185.833 438.591C180.159 436.808 174.423 435.17 168.97 432.799C162.522 430.033 158.881 424.954 157.576 418.133Z" fill="#FE8517"/>
<path d="M250.305 492.939C246.72 493.072 243.407 494.393 239.935 495.023C233.222 496.237 226.513 497.379 219.713 498.034C215.104 498.48 210.521 499.099 205.943 499.837C195.573 501.511 185.628 500.113 176.277 495.028C172.692 493.082 169.036 491.362 166.67 487.859C166.343 487.347 165.692 486.999 165.861 486.353C167.177 481.304 165.656 476.352 165.216 471.405C164.535 463.673 164.284 455.91 163.393 448.187C162.973 444.541 162.271 440.931 161.933 437.269C161.754 435.334 162.184 435.313 163.603 436.045C170.403 439.543 177.778 441.479 184.983 443.865C190.766 445.742 196.796 446.748 202.875 446.851C208.221 446.989 213.593 447.183 218.914 447.183C228.115 447.172 237.267 445.84 246.09 443.23C259.943 439.169 272.519 432.44 285.224 425.962C291.836 422.588 298.078 418.476 304.802 415.28C316.703 409.611 328.901 404.721 341.954 402.442C349.087 401.198 356.328 400.645 363.462 399.282C366.237 398.77 369.069 398.438 371.655 397.234H374.216C373.407 400.015 371.86 402.463 370.564 405.013C365.822 414.364 362.688 424.36 358.817 434.059C355.919 441.33 353.065 448.622 350.255 455.935C349.973 456.662 349.743 457.072 348.908 457.087C341.683 457.256 335.005 459.725 328.46 462.372C320.958 465.414 313.236 467.846 305.754 470.924C299.21 473.612 292.706 476.414 286.187 479.164C285.824 479.517 285.552 479.973 285.025 480.126C280.928 482.436 276.048 482.687 272.033 485.191C271.145 485.857 270.156 486.375 269.104 486.727C262.959 488.376 257.208 491.305 251.053 492.985C250.932 493.033 250.803 493.053 250.674 493.045C250.544 493.037 250.419 493.001 250.305 492.939Z" fill="#8DAFB9"/>
<path d="M523.214 482.185C515.681 478.995 508.215 475.625 500.595 472.655C490.143 468.589 479.568 464.856 469.06 460.933C465.798 459.799 462.417 459.043 458.982 458.68C456.519 458.362 455.449 456.883 454.655 454.957C447.132 436.814 441.366 417.943 432.205 400.455C431.98 400.025 431.257 399.431 431.949 398.919C432.41 398.718 432.929 398.7 433.403 398.868C443.036 401.428 452.97 402.217 462.761 403.861C471.497 405.303 480.025 407.803 488.156 411.306C493.968 413.821 499.934 416.023 505.5 419.054C515.317 424.38 524.96 430.039 535.058 434.817C544.834 439.425 554.564 444.172 565.21 446.518C569.911 447.542 574.669 448.377 579.503 448.3C582.314 448.254 585.049 449.181 587.87 448.843C594.056 448.095 600.294 448.699 606.469 448.249C615.964 447.552 624.859 444.234 633.779 441.166C636.749 440.214 639.622 438.979 642.357 437.479C643.11 437.049 643.893 436.312 643.801 438.406C643.611 442.349 642.485 446.134 642.367 450.072C642.285 452.924 641.635 455.766 641.543 458.619C641.281 466.904 640.196 475.108 639.494 483.353C639.387 483.942 639.387 484.545 639.494 485.135C640.728 489.144 638.117 491.28 635.397 493.062C628.325 497.671 620.854 501.332 612.154 501.568C611.872 501.568 611.606 501.875 611.329 502.039H604.16C600.97 501.527 597.789 500.933 594.584 500.502C586.088 499.417 577.526 498.884 569.123 497.092C567.325 496.708 565.466 496.58 563.715 495.965C562.293 496.469 560.778 496.66 559.275 496.527C557.772 496.393 556.316 495.938 555.004 495.192C547.123 490.583 538.31 488.432 529.861 485.345C527.525 484.494 525.257 483.609 523.214 482.185Z" fill="#8DAFB9"/>
<path d="M768.987 424.314C767.107 430.044 765.402 435.83 763.307 441.489C760.03 450.43 756.65 459.351 752.707 468.015C750.106 473.689 745.727 477.745 739.905 479.558C736.32 480.659 732.265 481.002 728.583 479.046C728.296 478.897 728.07 478.595 727.722 478.687C723.318 479.87 719.729 477.822 716.456 475.456C711.48 471.989 707.869 466.895 706.245 461.051C705.841 459.612 706.025 458.67 707.566 458.05C712.646 456.002 716.077 452.069 719.14 447.747C719.805 446.805 719.851 445.698 719.898 444.592C720.102 439.215 719.508 433.838 720.773 428.467C721.285 426.357 720.773 423.889 720.261 421.697C719.857 419.981 720.01 418.322 719.918 416.637C719.887 416.094 719.713 415.372 720.538 415.173C720.869 415.095 721.215 415.115 721.535 415.228C721.856 415.341 722.137 415.544 722.345 415.813C728.173 421.84 734.733 426.961 743.157 428.374C750.408 429.593 757.869 430.228 764.091 424.564C765.402 423.376 767.02 422.199 769.053 422.26L768.987 424.314Z" fill="#8DAFB9"/>
<path d="M36.7989 420.734C39.0828 420.795 40.7266 422.27 42.3397 423.54C45.6683 426.142 49.2939 427.125 53.5238 427.488C65.5733 428.441 74.6578 422.798 83.0305 415.198C83.348 414.912 83.6296 414.589 83.9369 414.297C84.367 413.882 84.8023 413.396 85.4731 413.688C86.144 413.98 85.9545 414.712 85.9238 415.26C85.8009 417.364 85.5397 419.464 85.4424 421.569C85.1096 428.994 86.5485 436.419 85.7241 443.84C85.6472 444.505 86.0979 445.34 86.5332 445.929C89.6057 450.097 92.5656 454.394 97.7275 456.258C99.7758 457.005 100.042 458.147 99.3354 460.155C95.3309 471.513 86.4256 478.319 74.1815 478.621C68.3181 478.764 63.1204 477.868 58.6549 473.884C55.4236 470.996 53.3445 467.416 51.7212 463.453C47.7986 453.861 43.9067 444.259 40.5781 434.438C39.262 430.566 38.627 426.469 36.7886 422.767L36.7989 420.734Z" fill="#8DAFB9"/>
<path d="M509.408 281.916H308.156V86.8097H509.408V281.916Z" fill="white"/>
<path d="M405.97 368.414H404.946C403.051 367.687 401.7 366.329 400.43 364.783C397.117 360.754 393.24 357.225 388.918 354.306C380.873 348.862 372.9 343.209 364.153 338.943C351.428 332.726 338.502 326.934 324.553 323.852C320.881 323.037 317.42 321.506 313.953 320.088C306.271 316.949 298.313 314.639 290.857 311.024C278.055 304.822 266.518 298.677 255.646 289.516C250.013 284.753 246.111 277.103 243.1 270.471C241.953 267.993 240.966 265.445 240.145 262.841C239.541 260.88 238.957 258.908 239.234 256.814C239.152 255.62 238.332 254.852 237.631 254.018C235.879 251.944 235.27 249.609 236.038 246.961C236.369 246.492 236.741 246.053 237.149 245.65C238.686 242.823 237.492 239.935 237.185 237.134C236.758 233.422 236.758 229.673 237.185 225.96C237.595 222.596 237.073 219.144 237.805 215.785C238.593 212.175 238.235 208.59 237.846 204.959C237.293 199.762 238.752 194.646 238.87 189.458C238.879 189.154 238.912 188.851 238.967 188.552C239.479 186.949 239.141 185.382 238.967 183.764C238.455 179.129 238.153 174.49 237.472 169.855C236.848 165.541 237.03 161.148 238.01 156.9C238.245 155.818 238.357 154.714 238.342 153.607C238.368 152.706 238.286 151.779 238.783 150.954C240.391 146.673 240.36 142.182 240.396 137.706C240.391 137.276 240.422 136.846 240.488 136.421C241.205 134.24 240.785 131.986 240.903 129.764C240.903 129.252 240.903 128.74 240.903 128.228C240.903 126.691 241.267 125.068 239.469 124.192C239.289 124.011 239.141 123.8 239.034 123.568C238.911 123.198 238.849 122.81 238.849 122.42C238.814 120.731 238.849 119.036 238.849 117.341C237.907 114.504 238.337 111.764 239.443 109.075C239.89 108.133 240.276 107.163 240.601 106.172C241.076 105.211 241.428 104.194 241.651 103.145C242.475 100.667 241.487 98.2396 241.379 95.7918C241.118 89.8157 242.03 83.8856 241.948 77.9198C241.881 72.845 241.22 67.8162 242.296 62.6851C243.125 58.7266 241.666 54.5787 241.902 50.4717C242.101 46.9588 244.416 44.5878 247.862 44.7619C248.554 44.7977 249.296 44.9462 249.859 44.5519C252.041 43.0157 254.632 42.3602 256.993 41.2131C257.426 40.8457 257.963 40.6235 258.529 40.5781C262.139 40.276 265.55 38.9548 269.129 38.4888C269.346 38.3234 269.588 38.1937 269.846 38.1047C271.562 37.7104 273.293 37.4031 275.003 36.9781C280.232 35.2188 285.669 34.1498 291.175 33.798C293.351 33.2859 295.272 32.2105 297.32 31.299C298.049 30.8914 298.884 30.713 299.717 30.7869C301.693 30.6896 303.701 31.0327 305.641 30.3926C307.91 30.4285 310.122 29.7986 312.386 29.7576C313.316 29.8285 314.252 29.7029 315.131 29.3889C315.383 29.3216 315.643 29.2821 315.904 29.2711C316.815 29.2687 317.722 29.15 318.603 28.9178C321.296 29.2199 323.749 27.9448 326.361 27.7195C327.62 27.7195 328.88 27.7195 330.135 27.7195C331.558 27.7195 332.982 27.7861 334.349 27.2842C339.327 26.26 344.417 26.1167 349.425 25.2973C349.726 25.2274 350.033 25.188 350.342 25.1795C353.496 25.1386 356.646 25.1795 359.8 25.1795C366.601 25.1539 373.407 25.3332 380.197 24.6674C382.146 24.4677 384.115 24.6116 386.014 25.0925C388.851 25.835 391.565 24.6521 394.346 24.437C401.04 23.9019 407.767 23.9019 414.461 24.437C414.969 24.5176 415.482 24.5671 415.997 24.5855C422.296 24.3551 428.559 25.4509 434.857 25.0976C435.784 25.0976 436.711 25.0669 437.633 25.1693C443.455 26.301 449.252 26.4342 455.075 25.0054C457.523 24.4063 459.95 25.3178 462.336 25.7992C465.987 26.5315 469.506 27.5147 473.372 26.7516C476.48 26.1423 479.773 27.1511 482.989 26.7107C485.175 27.6478 487.598 28.0524 489.646 29.3223C490.828 29.9988 492.184 30.3122 493.543 30.2236C497.348 30.2236 501.153 30.2236 504.958 30.2236C505.229 30.2236 505.505 30.2544 505.777 30.2902C506.801 30.8023 507.825 30.4592 508.885 30.2492C511.41 30.3465 513.904 30.9815 516.449 30.7255C518.924 30.499 521.419 30.8496 523.736 31.7497C524.481 31.8085 525.229 31.8085 525.974 31.7497C527.122 31.5589 528.3 31.6331 529.415 31.9669C530.531 32.3006 531.556 32.8849 532.411 33.6751C532.651 33.7468 532.892 33.8236 533.133 33.8902C534.157 34.3511 535.304 34.4535 536.277 35.0526C536.663 35.5473 537.176 35.9283 537.761 36.1555C538.346 36.3826 538.982 36.4475 539.601 36.3431C542.647 36.1332 545.536 37.3161 548.557 37.3673C549.102 37.3544 549.646 37.4007 550.18 37.5056C550.434 37.5807 550.67 37.7041 550.877 37.8691C552.797 39.0572 554.687 40.1019 556.141 42.0888C557.437 43.8555 560.11 43.6711 562.286 44.0296C563.469 43.9169 564.288 44.6339 565.133 45.2842C566.425 46.2266 567.625 47.2879 568.718 48.4541C570.807 50.4563 571.084 53.0117 570.121 55.7104C570.052 55.9457 569.965 56.1752 569.86 56.3966C569.679 56.6821 569.559 57.0017 569.507 57.3356C569.455 57.6695 569.472 58.0105 569.558 58.3374C569.962 60.1861 570.101 61.963 568.959 63.6427C568.641 64.1087 569.005 64.6054 569.281 65.0407C570.531 67.0378 570.111 69.0094 569.194 70.9758C568.892 72.3585 569.937 73.439 570.044 74.7346C571.509 80.4854 570.111 86.313 570.48 92.0996C570.531 92.9241 570.48 93.7792 570.567 94.6191C571.693 97.1232 570.331 99.2842 569.624 101.537C569.507 102.347 569.84 103.074 570.019 103.842C570.577 106.08 570.249 108.328 570.27 110.576C570.3 113.976 569.65 117.658 571.852 120.772C572.589 121.821 572.067 122.892 572.021 123.962C571.181 125.416 570.756 126.912 571.616 128.525C572.641 129.749 572.641 131.085 572.067 132.498C571.656 133.499 571.397 134.555 571.299 135.632C570.853 137.199 571.232 138.705 571.591 140.241C571.693 140.569 571.453 140.216 571.637 140.487C573.527 143.211 573.025 145.787 571.207 148.296C570.951 149.29 571.683 150.017 571.878 150.857C572.267 152.567 572.451 154.324 571.268 155.87C571.111 156.09 571.047 156.363 571.09 156.63C571.134 156.896 571.28 157.135 571.499 157.294C573.501 159.496 573.711 160.996 572.246 163.408C571.816 164.115 571.488 164.699 572.026 165.487C573.747 168.048 573.235 171.161 574.141 173.932C574.889 176.211 573.117 177.66 572.093 179.339C572.554 180.953 572.896 182.597 573.117 184.261C573.117 187.215 572.968 190.155 574.003 193.038C574.251 193.723 574.295 194.466 574.132 195.176C573.968 195.886 573.604 196.534 573.081 197.042C572.666 197.626 572.441 198.215 573.045 198.83C574.745 200.535 574.541 202.819 573.89 204.586C573.24 206.352 573.424 207.837 573.542 209.481C573.282 210.297 573.11 211.138 573.03 211.99C572.595 212.876 571.847 213.711 572.574 214.791C572.733 216.205 574.315 217.075 574.059 218.648C573.967 219.827 573.617 220.972 573.035 222.002C572.876 222.386 572.523 222.908 572.799 223.174C575.176 225.504 573.824 227.957 573.122 230.395C573.032 231.036 572.987 231.683 572.989 232.331C572.344 238.174 572.338 244.068 571.406 249.875C571.227 251.124 570.536 252.266 570.705 253.577C569.875 261.745 567.161 269.298 563.566 276.621C561.917 279.991 559.982 283.186 558.297 286.51C556.305 289.69 553.33 291.789 550.257 293.776C546.985 295.891 543.882 298.283 540.241 299.778C539.856 300.065 539.45 300.324 539.027 300.551C537.306 301.985 535.186 302.753 533.394 304.034C531.289 306.082 528.135 306.138 525.974 308.054C525.073 308.873 524.525 310.056 523.383 310.614C519.286 311.751 515.64 313.953 511.748 315.571C507.651 316.426 503.754 317.732 500.405 320.349C500.229 320.508 500.031 320.641 499.816 320.743C498.72 321.004 497.568 321.117 496.698 321.967C496.006 322.607 495.443 323.401 494.562 323.826C492.119 324.533 489.672 325.162 487.106 324.548C486.422 324.405 485.712 324.461 485.058 324.707C471.124 330.171 456.621 334.139 443.43 341.053C431.042 347.561 418.773 354.613 409.632 365.756C408.619 366.897 407.369 367.804 405.97 368.414Z" fill="#193648"/>
<path d="M408.782 285.511C466.559 285.511 513.397 239.877 513.397 183.585C513.397 127.292 466.559 81.658 408.782 81.658C351.005 81.658 304.167 127.292 304.167 183.585C304.167 239.877 351.005 285.511 408.782 285.511Z" fill="#8EB0BA"/>
<path d="M735.235 419.915C735.486 414.317 733.698 409.504 730.677 405.166C726.857 399.641 721.864 395.257 716.441 391.34C698.124 378.067 677.522 371.368 655.087 369.832C647.099 369.279 639.264 370.457 631.613 372.777C626.927 374.19 622.534 376.187 618.739 379.398C618.358 379.649 617.924 379.806 617.471 379.856C617.018 379.907 616.559 379.85 616.133 379.69C604.897 373.581 596.299 364.716 590.062 353.65C587.169 348.529 588.121 343.92 592.254 339.619C596.87 334.804 602.38 330.936 608.477 328.23C628.789 319.048 651.136 315.293 673.333 317.333C693.499 319.115 712.616 324.563 729.735 335.455C746.598 346.179 759.395 360.783 767.184 379.347C772.177 391.248 771.194 403.072 765.883 414.799C762.842 421.523 757.408 423.684 750.797 424.211C745.154 424.621 740.023 422.941 735.235 419.915Z" fill="#3B5C66"/>
<path d="M70.5098 418.409C62.6236 423.31 54.4199 424.206 45.9294 420.201C44.6318 419.61 43.5096 418.693 42.6725 417.539C35.8464 407.281 33.839 396.108 36.5838 384.068C39.1442 372.93 45.4634 363.882 52.4074 355.156C66.1724 337.857 84.0802 327.267 105.153 320.974C124.1 315.341 143.088 314.163 162.553 316.523C175.355 318.06 187.226 322.372 198.912 327.416C204.708 329.915 209.553 333.837 213.88 338.395C217.68 342.399 218.253 347.003 215.846 351.842C212.216 359.135 206.757 365.049 200.683 370.329C197.36 373.212 193.555 375.557 189.868 378.01C189.238 378.425 187.758 378.435 187.231 378.01C180.574 372.321 172.482 370.329 164.187 368.987C151.743 367.005 139.535 368.67 127.547 372.126C118.887 374.625 110.074 376.735 102.295 381.631C93.7792 386.972 85.0225 391.924 78.227 399.61C74.5303 403.66 71.9503 408.601 70.7403 413.949C70.4637 415.306 70.5918 416.755 70.5098 418.409Z" fill="#3B5C66"/>
<path d="M319.488 338.139C317.281 342.236 314.368 341.898 310.599 340.771C297.796 336.961 284.789 333.786 271.977 330.017C257.003 325.582 242.327 320.354 228.905 312.125C223.826 309.124 219.415 305.116 215.944 300.347C214.571 298.509 213.569 296.422 212.994 294.201C211.873 289.127 214.121 285.45 219.308 284.472C223.661 283.666 228.097 283.398 232.515 283.673C236.509 283.919 240.442 285.178 244.39 286.075C245.169 286.249 246.131 286.587 246.556 287.211C250.571 292.844 256.148 296.634 261.817 300.28C272.141 306.937 282.449 313.594 293.945 318.131C294.471 318.412 295.024 318.64 295.594 318.813C304.023 320.282 309.421 326.038 314.516 332.188L319.488 338.139Z" fill="#3B5C66"/>
<path d="M485.974 339.67C490.481 334.749 494.68 329.797 499.314 325.296C500.979 323.682 503.662 323.058 505.972 322.167C524.919 314.844 542.166 304.663 558.164 292.25C559.234 291.416 560.038 290.202 561.18 289.506C563.531 288.082 565.932 286.069 568.472 285.793C573.86 285.204 579.431 284.948 584.772 285.69C592.761 286.807 595.413 291.964 591.609 299.112C588.733 304.611 584.325 309.159 578.919 312.207C571.038 316.585 563.044 320.825 554.738 324.333C541.68 329.863 527.925 333.305 514.165 336.654C507.877 338.19 501.696 340.156 495.52 342.092C490.261 343.736 490.297 343.843 485.974 339.67Z" fill="#3B5C66"/>
<path d="M529.098 158.687H529.61C530.839 159.235 532.129 158.82 533.389 158.948H542.463C543.277 158.948 544.097 158.948 544.911 158.948C545.894 160.484 544.809 161.626 543.887 162.384C537.527 167.561 532.319 173.968 525.759 178.919C522.794 181.152 521.15 180.968 518.108 178.684C515.476 176.702 513.387 174.126 510.662 172.262C509.495 171.469 509.264 170.158 508.778 168.985V168.473C511.052 164.243 514.027 160.725 518.697 158.933H525.81C526.901 158.815 528.038 159.26 529.098 158.687Z" fill="#F78D1E"/>
<path d="M202.737 323.488C203.449 319.698 204.273 316.319 204.678 312.918C205.63 305.063 206.342 297.182 207.238 289.326C207.776 284.625 213.619 279.638 219.487 278.803C226.979 277.738 234.425 278.142 242.096 279.694C240.673 275.981 239.182 272.432 237.953 268.797C236.632 264.894 235.393 260.946 234.415 256.942C231.931 246.664 233.601 236.253 233.729 225.904C233.981 205.605 234.335 185.307 234.789 165.011C235.205 145.234 235.692 125.459 236.248 105.685C236.709 88.2076 237.247 70.7351 237.743 53.2574C237.869 51.2114 237.885 49.16 237.79 47.1123C237.615 44.9564 238.64 43.9527 240.427 43.0156C249.619 38.3556 259.425 35.493 269.36 33.0401C288.604 28.2981 308.207 25.7581 327.887 23.7456C365.479 19.8947 403.164 19.5618 440.89 20.8216C465.373 21.6358 489.784 23.6022 513.93 27.7553C527.756 30.1365 541.439 33.3473 555.035 36.7886C560.668 38.2122 565.871 41.2438 571.284 43.5072C572.677 44.091 573.04 45.0947 573.071 46.5234C573.375 59.6535 573.716 72.7835 574.095 85.9135C574.392 95.889 574.863 105.885 575.119 115.84C575.493 131.018 575.729 146.202 576.041 161.38C576.374 177.767 577.065 194.154 576.968 210.541C576.901 225.801 576.261 241.067 575.432 256.307C575.053 263.522 572.236 270.236 569.189 276.76C568.677 277.825 568.232 278.9 567.591 280.344C570.813 280.16 573.665 279.863 576.517 279.878C579.756 279.849 582.993 280.02 586.211 280.39C593.38 281.322 597.907 286.469 598.732 293.618C599.853 303.311 601.292 312.97 602.613 322.638C602.753 323.303 602.943 323.957 603.182 324.594C609.255 322.31 615.155 319.908 621.172 317.86C634.215 313.425 647.693 312.227 661.427 311.776C681.004 311.126 699.286 316.124 717.132 323.083C735.598 330.253 749.717 343.116 761.423 358.93C768.347 368.286 773.232 378.389 775.383 389.829C776.535 395.974 776.95 402.119 775.797 408.326C774.143 417.262 773.421 426.449 770.917 435.129C767.814 445.883 763.292 456.217 759.39 466.735C758.74 468.492 758.064 470.238 757.47 472.015C755.053 479.245 749.891 483.573 742.506 484.131C735.762 484.643 728.798 484.592 722.161 483.465C713.527 481.995 707.613 476.204 703.726 468.42C702.819 466.592 701.923 464.743 701.201 462.838C700.029 459.735 700.366 457.466 703.106 455.756C708.089 452.637 710.818 447.731 714.003 443.164C716.564 439.512 716.052 435.247 715.581 431.288C714.557 422.199 713.02 413.17 711.663 404.147C711.433 402.611 710.997 401.075 710.593 399.288C718.069 401.899 721.803 408.203 726.688 413.196C722.561 405.515 717.342 398.857 710.245 393.737C697.048 384.242 682.259 379.101 666.148 377.739C659.199 377.15 652.153 376.336 645.26 376.914C639.576 377.396 633.994 379.664 628.484 381.411C627.189 381.82 626.236 383.321 625.248 384.201C630.584 387.361 635.715 390.218 640.667 393.358C648.563 398.366 652.225 405.796 653.546 414.978C654.504 421.635 652.097 427.488 651.078 433.705C649.608 442.651 648.072 451.628 647.242 460.631C646.433 469.434 646.474 478.314 646.157 487.162C646.049 490.051 644.697 491.991 642.72 494.25C637.9 499.8 631.561 503.82 624.485 505.813C621.264 506.755 617.792 507.472 614.473 507.349C603.592 506.893 592.643 506.622 581.879 505.137C563.244 502.576 545.413 497.046 528.048 489.626C508.634 481.335 488.837 473.94 469.106 466.413C465.265 464.948 461.01 464.441 456.893 463.908C453.078 463.396 452.417 463.202 451.091 459.668C446.118 446.359 441.423 433.004 436.056 419.915C432.384 410.948 428.006 402.247 423.53 393.644C421.144 389.036 421.026 384.877 423.264 380.33C426.111 374.559 430.105 369.894 435.974 367.128C452.002 359.57 467.647 351.12 484.622 345.692C484.944 345.561 485.255 345.407 485.555 345.231C481.97 342.748 481.458 341.688 483.429 337.903C485.222 334.482 487.71 331.425 489.851 328.276C485.683 329.377 481.145 330.232 476.818 331.799C462.638 336.956 448.653 342.599 435.733 350.521C426.27 356.328 417.477 363.083 410.554 371.911C408.69 374.292 407.338 377.073 405.494 380.105C404.547 378.645 403.61 377.544 403.046 376.295C400.558 370.744 396.205 366.749 391.724 362.98C377.98 351.402 362.407 342.824 345.743 336.326C335.932 332.501 325.797 329.51 315.807 326.141L315.397 326.729C316.564 328.071 317.829 329.341 318.874 330.775C320.229 332.51 321.409 334.374 322.397 336.341C324.215 340.31 323.836 341.268 320.487 343.511C328.46 346.809 336.638 349.999 344.642 353.573C352.892 357.26 360.968 361.331 369.125 365.213C375.322 368.163 379.736 372.833 382.609 379.014C384.616 383.326 384.616 387.719 382.271 391.775C370.805 411.624 364.348 433.567 355.878 454.65C355.707 455.041 355.567 455.445 355.458 455.858C354.434 460.129 352.385 462.679 347.341 462.459C344.294 462.326 341.027 463.176 338.124 464.282C323.642 469.849 309.124 475.328 294.852 481.366C279.545 487.864 264.285 494.542 248.134 498.567C233.703 502.151 219.119 505.342 204.12 505.736C193.842 506.013 183.784 504.952 174.147 501.127C168.314 498.802 164.192 494.439 160.71 489.446C159.952 488.356 159.742 486.732 159.685 485.35C159.102 473.787 159.102 462.172 157.934 450.676C157.069 442.124 154.641 433.741 153.064 425.251C150.893 413.565 152.173 400.158 164.975 391.883C169.902 388.692 175.053 385.855 180.338 382.732C179.196 380.458 176.902 379.147 174.367 378.241C163.342 374.282 152.05 374.62 140.61 375.916C130.368 377.078 120.444 379.157 111.026 383.331C100.375 388.057 90.7374 394.182 83.9266 403.999C82.2214 406.452 80.342 408.792 78.565 411.168L79.3025 411.757C81.7861 409.022 84.2236 406.237 86.7739 403.564C88.5918 401.653 90.5224 399.846 92.4939 398.1C92.9599 397.69 94.1889 397.367 94.3989 397.587C94.911 398.161 95.4231 399.165 95.2694 399.861C94.2453 405.008 92.6578 410.072 91.9613 415.255C91.014 422.316 90.0973 429.475 90.2919 436.568C90.4558 442.713 95.1056 447.05 99.0845 451.342C100.447 452.811 102.71 453.523 103.842 455.095C104.774 456.396 105.347 458.68 104.866 460.145C101.584 470.386 95.1363 479.604 82.9844 482.077C75.7793 483.532 68.4154 483.777 61.1488 482.19C55.5363 480.997 51.2091 477.812 49.1608 472.435C44.0757 459.177 38.8319 445.96 34.515 432.445C31.9869 424.407 30.3318 416.12 29.5784 407.727C28.0421 391.34 31.6268 375.921 41.0595 362.151C51.0709 347.561 63.0436 335.046 78.6419 326.238C88.2589 320.805 98.7978 317.993 109.178 314.67C120.695 310.988 132.575 310.424 144.548 310.291C164.765 310.081 183.928 314.496 202.737 323.488ZM405.643 368.885C408.475 365.812 411.076 362.371 414.282 359.631C426.782 348.944 440.547 340.274 456.084 334.6C474.99 327.697 494.055 321.163 512.726 313.666C527.654 307.675 541.173 298.933 553.949 289.132C555.48 288.044 556.787 286.672 557.8 285.091C560.263 280.8 562.547 276.386 564.683 271.931C570.577 259.594 571.294 246.193 571.729 232.945C572.185 218.888 571.453 204.78 571.135 190.718C570.654 169.364 570.019 148.015 569.563 126.666C569.051 102.352 568.667 78.017 568.201 53.7183C568.098 48.3158 567.038 46.9024 561.948 45.2535C546.749 40.4065 531.22 36.6636 515.481 34.054C480.644 28.0933 445.458 26.1166 410.185 26.1166C388.191 26.1166 366.186 27.3405 344.207 28.3954C323.837 29.3685 303.582 32.032 283.652 36.3584C271.618 38.9803 259.774 42.5547 247.98 46.1496C246.065 46.7283 243.008 47.6859 243.085 51.3371C243.202 56.8574 242.793 62.388 242.659 67.9135C241.656 110.222 240.673 152.535 239.71 194.851C239.638 198.02 240.222 201.206 240.473 204.386C240.474 204.795 240.407 205.202 240.273 205.589C240.002 206.613 239.485 207.607 239.444 208.631C239.121 216.645 238.931 224.659 238.619 232.674C238.271 241.692 237.994 250.812 240.273 259.543C243.889 273.41 250.628 285.23 262.918 293.853C281.322 306.748 301.688 315.172 322.699 322.392C330.586 325.101 338.692 327.206 346.476 330.171C363.495 336.6 379.388 345.686 393.562 357.091C397.844 360.512 401.479 364.773 405.643 368.885ZM735.235 419.915C740.023 422.951 745.154 424.631 750.797 424.18C757.408 423.668 762.842 421.492 765.883 414.768C771.194 403.041 772.177 391.212 767.184 379.316C759.395 360.753 746.598 346.148 729.735 335.425C712.616 324.533 693.499 319.084 673.333 317.302C651.136 315.263 628.789 319.017 608.477 328.199C602.38 330.905 596.87 334.773 592.254 339.588C588.121 343.884 587.169 348.488 590.062 353.619C596.299 364.686 604.913 373.55 616.133 379.659C616.559 379.819 617.018 379.876 617.471 379.826C617.924 379.775 618.358 379.618 618.739 379.367C622.534 376.156 626.933 374.159 631.613 372.746C639.264 370.426 647.099 369.248 655.087 369.801C677.496 371.368 698.103 378.051 716.441 391.309C721.864 395.242 726.857 399.626 730.677 405.136C733.678 409.494 735.486 414.307 735.235 419.915ZM70.5099 418.409C70.5918 416.755 70.4638 415.285 70.7659 413.913C71.976 408.565 74.556 403.624 78.2527 399.574C85.0481 391.893 93.8049 386.936 102.321 381.595C110.1 376.72 118.913 374.589 127.572 372.09C139.56 368.634 151.768 366.97 164.212 368.951C172.498 370.278 180.599 372.285 187.256 377.974C187.768 378.425 189.264 378.415 189.894 377.974C193.581 375.542 197.386 373.197 200.709 370.293C206.782 365.013 212.241 359.099 215.872 351.807C218.279 346.967 217.705 342.364 213.906 338.359C209.578 333.801 204.734 329.879 198.937 327.38C187.251 322.336 175.381 318.034 162.579 316.488C143.119 314.127 124.126 315.284 105.178 320.938C84.0905 327.231 66.1827 337.837 52.433 355.12C45.4891 363.825 39.1443 372.894 36.6094 384.032C33.839 396.108 35.8464 407.281 42.6572 417.539C43.4943 418.693 44.6165 419.61 45.9141 420.201C54.42 424.206 62.6237 423.31 70.5099 418.409ZM643.698 436.89C634.155 441.923 623.86 445.382 613.214 447.132C603.197 448.771 592.822 448.525 582.606 448.484C576.722 448.424 570.862 447.737 565.123 446.436C548.009 442.641 532.821 434.146 517.688 425.763C503.478 417.902 489.139 410.359 473.367 406.303C464.072 403.917 454.419 402.944 444.935 401.259C440.521 400.476 436.143 399.523 431.662 398.627C431.67 398.91 431.717 399.191 431.8 399.462C441.315 417.636 447.368 437.234 455.182 456.104C455.504 456.703 455.941 457.233 456.469 457.663C456.996 458.093 457.603 458.414 458.255 458.608C463.156 459.991 468.338 460.57 473.065 462.372C491.925 469.572 510.642 477.166 529.446 484.535C543.093 489.882 556.669 495.55 571.304 497.696C581.51 499.191 591.757 500.364 601.999 501.614C613.736 503.047 624.531 500.262 634.343 493.84C637.502 491.792 640.867 489.559 639.545 484.771C639.441 484.182 639.441 483.578 639.545 482.989C640.931 467.626 642.316 452.26 643.698 436.89ZM374.241 396.947C373.437 397.111 372.884 397.234 372.331 397.337C366.304 398.484 360.323 400.046 354.244 400.68C337.423 402.402 321.059 407.185 305.959 414.794C292.563 421.543 279.33 428.62 266.016 435.498C252.702 442.375 238.593 447.055 223.43 446.989C212.794 446.948 201.999 447.137 191.568 445.453C181.29 443.773 171.269 440.173 161.642 435.18C162.358 440.337 163.219 445.304 163.69 450.302C164.484 458.531 165.052 466.781 165.672 475.021C165.918 478.288 166.332 481.586 166.097 484.832C165.984 486.369 166.194 487.393 167.177 488.417C173.973 495.53 182.637 499.084 192.106 499.898C198.819 500.472 205.692 499.555 212.461 498.951C225.714 497.763 239.013 496.436 251.662 492.068C263.486 487.972 275.111 483.312 286.776 478.785C301.867 472.926 316.861 466.812 332.014 461.128C336.833 459.32 342 458.352 347.08 457.395C349.128 457.01 349.999 456.242 350.767 454.363C358.397 435.6 364.435 416.181 373.811 398.141C373.984 397.751 374.133 397.351 374.257 396.942L374.241 396.947ZM212.323 305.319C211.325 312.452 210.316 319.437 209.425 326.438C209.353 326.98 209.973 327.754 210.449 328.209C212.881 330.468 215.498 332.542 217.838 334.892C221.935 338.989 223.159 344.11 222.237 349.743C221.566 353.84 220.645 357.865 219.723 361.9C218.566 366.99 219.093 368.045 224.009 369.94C224.086 369.97 224.178 369.97 224.26 369.996C233.79 373.069 243.289 376.218 252.865 379.121C270.44 384.457 288.906 386.926 305.457 395.508C309.333 397.417 313.064 399.606 316.621 402.058C318.157 403.164 319.079 403.359 320.789 402.806C326.54 400.952 332.362 399.323 338.17 397.685C339.757 397.229 341.406 396.973 343.541 396.517L339.921 394.203C342.563 391.033 342.763 387.407 343.48 383.961L342.876 383.674L336.905 392.733L336.039 392.538L334.027 381.175L333.269 380.996L331.794 388.989L328.122 386.429C328.85 385.646 329.607 385.19 329.802 384.56C330.76 381.405 331.579 378.21 332.429 375.025C332.593 374.42 332.68 373.791 332.803 373.176C333.887 373.512 334.945 373.928 335.968 374.42C336.331 374.625 336.48 375.409 336.531 375.957C336.741 380.146 336.894 384.335 337.043 388.518L338.021 388.616C340.116 385.646 342.215 382.67 344.392 379.577L348.263 381.113C347.106 385.067 346.066 388.754 344.939 392.415C344.141 395.017 345.185 396.333 347.935 395.959C351.228 395.508 354.536 395.109 357.798 394.489C362.729 393.542 367.712 392.712 372.521 391.309C378.666 389.517 380.084 385.466 377.099 379.869C374.944 375.654 371.47 372.26 367.205 370.206C362.059 367.727 356.856 365.372 351.75 362.816C332.834 353.353 312.995 346.43 292.532 341.242C279.392 337.929 266.175 334.933 253.495 330.048C238.414 324.236 223.43 318.27 212.6 305.38C212.584 305.329 212.467 305.344 212.323 305.319ZM593.621 306.077C584.813 317.461 572.989 323.027 560.95 328.163C548.077 333.637 534.715 337.88 521.042 340.838C491.915 347.198 464.671 358.5 438.207 371.921C433.429 374.327 429.707 378.412 427.755 383.392C426.285 386.936 427.401 390.014 430.827 391.816C432.254 392.582 433.781 393.144 435.364 393.486C440.788 394.602 446.211 395.77 451.685 396.558C462.582 398.094 473.464 399.713 483.762 403.835C486.149 404.787 487.92 405.218 489.907 402.898C491.428 401.266 493.303 400.005 495.387 399.211C504.522 395.498 513.525 391.217 522.978 388.575C541.383 383.423 560.12 379.454 578.074 372.741C580.685 371.732 583.224 370.546 585.673 369.192C586.004 368.93 586.266 368.591 586.435 368.204C586.605 367.818 586.677 367.396 586.646 366.975C585.566 362.202 584.27 357.486 583.118 352.728C582.767 351.512 582.629 350.244 582.708 348.98C583.461 342.568 585.919 336.915 591.363 333.172C595.326 330.442 596.883 327.59 595.547 322.54C594.21 317.491 594.261 312.13 593.621 306.077ZM196.751 441.018C196.699 441.259 196.643 441.499 196.592 441.74C200.407 441.74 204.222 441.607 208.027 441.74C222.795 442.354 237.498 441.935 251.283 435.974C262.769 431.012 273.948 425.327 285.184 419.792C293.669 415.618 302.026 411.178 310.435 406.851C310.778 406.672 311.08 406.426 311.531 406.124C307.04 402.027 302.164 398.955 296.531 397.26C277.85 391.75 259.118 386.316 240.396 380.801C236.397 379.618 232.423 378.338 228.516 376.899C224.962 375.593 221.515 374.006 217.992 372.526C217.833 372.799 217.709 373.092 217.623 373.396C215.703 392.431 213.813 411.465 211.832 430.494C211.729 431.519 211.084 432.83 210.295 433.321C205.861 436.005 201.283 438.473 196.771 441.018H196.751ZM609.066 443.281C609.096 443.015 609.122 442.769 609.148 442.472C605.471 440.537 601.83 438.514 598.097 436.68C594.364 434.847 592.238 432.42 592.761 427.934C593.053 425.44 592.561 422.844 592.372 420.299C591.516 408.92 590.712 397.531 589.729 386.163C589.386 382.138 588.592 378.154 587.973 373.929C587.112 374.282 586.59 374.513 586.063 374.717C579.866 377.088 573.772 379.756 567.448 381.748C557.293 384.954 546.964 387.658 536.769 390.669C526.803 393.603 516.843 396.563 506.939 399.702C502.1 401.239 498.085 404.265 494.137 407.711C494.649 408.039 494.936 408.224 495.223 408.377C501.491 411.45 507.79 414.497 514.017 417.672C524.653 423.084 535.181 428.697 545.853 434.028C562.179 442.18 579.621 444.346 597.631 443.317C601.441 443.097 605.292 443.281 609.086 443.281H609.066ZM591.921 363.866L591.178 363.933C591.132 364.514 591.132 365.098 591.178 365.679C591.88 370.001 592.879 374.287 593.283 378.635C594.819 394.966 596.1 411.317 597.528 427.657C597.595 428.41 597.882 429.47 598.43 429.803C602.67 432.44 606.9 435.119 611.334 437.392C613.982 438.744 617.269 440.644 619.784 440.096C626.009 438.652 632.073 436.581 637.881 433.915C644.17 431.124 647.954 425.722 648.266 418.896C648.661 410.354 645.706 402.872 638.183 398.023C633.754 395.17 629.145 392.564 624.459 390.152C611.816 383.628 598.993 377.355 591.941 363.866H591.921ZM216.702 360.512L216.072 360.292C214.699 362.381 213.511 364.624 211.934 366.529C204.821 375.055 195.962 381.272 186.053 386.199C179.811 389.322 173.722 392.774 167.741 396.358C162.251 399.656 159.245 404.828 157.975 411.055C155.927 421.103 160.274 429.537 169.794 433.28C174.941 435.329 180.261 436.901 185.52 438.637C186.221 438.91 186.992 438.949 187.717 438.749C194.246 436.102 200.658 433.198 206.091 428.6C206.747 428.047 207.079 426.884 207.192 425.957C207.51 423.346 207.566 420.698 207.853 418.076C209 407.527 210.176 396.98 211.381 386.434C212.328 378.174 212.974 369.847 216.42 362.1C216.578 361.584 216.672 361.051 216.702 360.512ZM319.489 338.123L314.516 332.168C309.395 326.023 304.023 320.262 295.594 318.792C295.024 318.619 294.471 318.391 293.945 318.111C282.449 313.574 272.141 306.891 261.817 300.259C256.148 296.613 250.551 292.819 246.557 287.191C246.131 286.592 245.169 286.228 244.39 286.054C240.442 285.158 236.509 283.898 232.515 283.652C228.097 283.377 223.661 283.646 219.308 284.451C214.121 285.414 211.873 289.091 212.994 294.181C213.569 296.401 214.571 298.489 215.944 300.326C219.415 305.095 223.826 309.104 228.905 312.104C242.327 320.333 257.003 325.562 271.977 329.997C284.779 333.786 297.786 336.961 310.599 340.75C314.388 341.898 317.281 342.225 319.489 338.139V338.123ZM485.995 339.66C490.296 343.833 490.261 343.726 495.525 342.082C501.701 340.146 507.882 338.17 514.17 336.644C527.93 333.294 541.685 329.853 554.743 324.323C563.034 320.815 571.043 316.575 578.924 312.196C584.33 309.149 588.738 304.601 591.614 299.102C595.419 291.933 592.766 286.812 584.777 285.68C579.436 284.938 573.865 285.194 568.477 285.783C565.917 286.059 563.536 288.072 561.185 289.495C560.043 290.187 559.239 291.405 558.169 292.24C542.171 304.653 524.883 314.834 505.977 322.156C503.683 323.047 500.999 323.693 499.32 325.285C494.68 329.787 490.501 334.749 485.974 339.67L485.995 339.66ZM36.7989 420.058C36.7509 420.54 36.7509 421.025 36.7989 421.507C41.0405 437.01 46.6016 452.12 53.4214 466.674C57.006 474.319 63.2945 479.235 72.5633 478.482C74.6834 478.308 76.8239 478.247 78.9286 477.929C89.2165 476.393 95.2899 469.895 98.9616 460.662C99.7861 458.613 99.5505 457.031 97.113 456.053C92.2481 454.076 89.2063 450.02 86.3181 445.883C85.8266 445.196 85.5391 444.385 85.4885 443.543C85.4015 435.999 85.3554 428.451 85.4066 420.908C85.4066 418.179 85.7548 415.449 85.9494 412.679C85.5756 412.72 85.4732 412.679 85.4373 412.74C84.8945 413.252 84.3773 413.846 83.8293 414.374C76.8547 421.108 69.245 426.869 59.167 427.565C53.8054 427.934 48.2236 428.272 43.4714 424.631C41.4794 423.069 39.2774 421.738 36.7989 420.053V420.058ZM719.831 414.604C719.831 414.794 719.862 415.29 719.898 415.782C720.215 420.447 720.743 425.107 720.799 429.772C720.855 434.745 720.497 439.722 720.246 444.695C720.24 445.616 719.989 446.519 719.519 447.311C716.6 451.531 713.502 455.648 708.529 457.646C706.179 458.593 706.035 460.16 706.788 462.111C709.021 467.892 712.278 472.978 717.731 476.168C719.877 477.422 722.458 477.935 724.86 478.728C725.854 479.123 726.902 479.368 727.968 479.455C732.111 479.517 736.525 480.357 740.325 479.205C746.086 477.458 750.526 473.208 752.805 467.457C757.475 455.679 761.925 443.804 766.339 431.918C767.522 428.728 768.239 425.368 769.212 421.932C768.989 421.941 768.768 421.974 768.551 422.03C767.973 422.383 767.379 422.726 766.821 423.11C762.109 426.336 757.526 429.352 751.268 429.255C745.011 429.158 738.978 428.323 733.719 424.815C728.951 421.656 724.471 418.046 719.831 414.599V414.604Z" fill="black"/>
<path d="M510.125 212.308C509.459 214.172 508.967 215.688 508.378 217.173C493.712 254.192 466.5 276.841 427.98 285.199C393.588 292.655 362.053 285.296 334.544 262.877C321.532 252.276 312.084 238.916 305.805 223.333C305.426 222.396 305.032 221.459 304.822 220.947C303.286 221.285 301.97 221.771 300.654 221.822C294.688 222.058 288.712 222.068 282.731 222.375C279.986 222.514 278.572 222.002 277.4 219.006C274.127 210.623 270.174 202.501 266.497 194.272C261.926 184.03 257.358 173.78 252.794 163.521C252.43 162.696 252.154 161.831 251.544 160.197C255.769 160.197 259.471 160.223 263.169 160.197C267.506 160.156 271.874 160.126 276.181 159.957C277.937 159.885 278.649 160.587 279.305 162.184C283.401 172.237 287.693 182.228 291.912 192.239L292.803 192.387C295.318 184.798 298.554 177.368 300.224 169.599C308.478 131.193 330.811 104.159 367.067 90.128C408.336 74.1917 447.127 80.2088 481.263 109.121C497.65 122.989 507.61 141.107 512.449 162.507C513.75 161.283 515.046 160.351 515.957 159.132C517.135 157.55 518.584 157.294 520.387 157.33C528.749 157.509 537.112 157.565 545.479 157.739C546.58 157.765 547.666 158.251 548.762 158.507C548.209 159.839 547.994 161.508 547.046 162.435C543.508 165.887 539.708 169.092 536.057 172.411C531.909 176.2 527.863 180.092 523.634 183.795C523.152 184.22 521.554 183.953 520.878 183.462C518.764 181.925 516.843 180.128 514.621 178.233C514.057 182.228 514.308 185.111 517.791 187.773C529.983 197.094 541.859 206.813 553.816 216.451C555.501 217.813 556.838 219.605 558.712 221.597C557.902 221.726 557.084 221.803 556.264 221.828C545.966 221.208 535.678 220.291 525.375 220.051C520.93 219.943 517.616 218.571 514.657 215.442C513.479 214.249 511.809 213.465 510.125 212.308ZM382.158 159.342L359.549 213.388C360.241 213.184 360.84 212.746 361.244 212.149C368.004 204.13 374.733 196.08 381.538 188.081C389.391 178.863 397.29 169.685 405.238 160.546C405.75 159.926 406.687 159.276 407.445 159.255C414.594 159.04 421.75 158.921 428.912 158.897C429.936 158.897 431.314 159.281 431.985 159.998C439.313 168.089 446.523 176.287 453.789 184.44C458.608 189.847 463.458 195.224 468.415 200.75L481.417 189.274L421.963 141.644C423.627 141.271 424.354 140.984 425.092 140.968C434.729 140.774 444.362 140.651 453.999 140.456C457.072 140.39 459.484 140.845 462.193 143.094C475.476 154.185 489.149 164.816 502.689 175.601C504.712 177.214 506.786 178.797 509.059 180.589C509.131 180.111 509.167 179.628 509.167 179.145C508.808 176.19 509.991 172.61 505.879 171.136C505.669 171.059 505.69 169.128 506.028 168.975C508.588 167.766 507.733 165.774 507.329 163.936C502.581 142.208 491.623 124.172 474.253 110.366C447.982 89.4879 417.994 82.9587 385.605 90.4301C350.035 98.6236 324.666 119.829 310.716 153.929C309.984 155.711 309.426 157.565 308.668 159.726C309.861 159.726 310.609 159.726 311.356 159.726C316.877 159.66 322.402 159.516 327.928 159.583C328.89 159.583 330.396 160.243 330.724 161.001C332.808 165.825 334.585 170.777 336.562 175.652C338.845 181.285 341.232 186.918 343.813 193.094C346.808 185.07 349.64 177.655 352.329 170.193C353.435 167.121 354.172 163.931 355.227 160.848C355.442 160.223 356.339 159.404 356.927 159.399C365.162 159.311 373.417 159.342 382.158 159.342ZM498.961 203.628C494.793 207.981 490.768 212.282 486.604 216.43C485.656 217.353 484.419 217.921 483.102 218.038C473.638 218.335 464.154 218.463 454.696 218.576C454.341 218.578 453.99 218.508 453.663 218.372C453.336 218.236 453.039 218.035 452.791 217.782C450.451 214.771 448.264 211.637 445.913 208.631C445.645 208.346 445.322 208.118 444.962 207.962C444.603 207.806 444.216 207.726 443.824 207.725C430.115 208.38 416.412 209.123 402.703 209.773C401.828 209.819 400.926 209.373 399.82 209.102C400.031 208.634 400.276 208.183 400.552 207.75C404.869 202.593 409.171 197.426 413.56 192.321C413.974 191.839 414.886 191.635 415.608 191.568C420.14 191.138 424.677 190.785 429.619 190.37L418.568 177.9C417.815 178.694 417.267 179.222 416.775 179.795C408.084 189.894 399.4 199.989 390.725 210.08C383.464 218.576 376.131 227.01 369.146 235.721C367.374 237.938 365.653 238.419 363.144 238.409C356.743 238.409 350.342 238.563 343.951 238.675C343.36 238.702 342.772 238.767 342.189 238.87C341.38 238.993 340.571 239.141 339.767 239.285C340.074 238.302 340.131 237.124 340.73 236.376C343.29 233.191 346.02 230.134 348.673 227.02C350.301 225.11 351.899 223.179 353.758 220.962C351.484 220.962 349.712 220.931 347.945 220.962C342.486 221.07 337.028 221.162 331.558 221.367C330.125 221.423 329.367 220.947 328.88 219.636C327.32 215.42 325.715 211.217 324.067 207.028C321.885 201.477 319.652 195.946 317.251 189.929C314.296 196.925 311.479 203.377 308.888 209.927C308.34 211.389 308.265 212.987 308.673 214.494C313.461 230.169 321.793 243.76 333.888 254.791C359.718 278.347 390.285 287.053 424.36 280.462C461.814 273.201 488.596 251.652 503.032 215.938C506.637 207.059 507.083 210.198 498.961 203.628ZM509.07 169.733L522.333 181.111L544.865 160.837L544.578 160.172C536.339 160.172 528.099 160.172 519.859 160.197C519.293 160.218 518.75 160.433 518.323 160.807C515.189 163.731 512.168 166.716 509.07 169.733Z" fill="black" stroke="black" stroke-width="0.512091" stroke-miterlimit="10"/>
<path d="M503.007 445.058C499.637 448.131 502.336 451.516 502.32 454.849C501.757 454.849 501.26 454.983 501.148 454.849C499.304 452.289 496.728 452.755 494.081 452.852C486.399 453.134 482.666 448.535 480.398 442.718C479.23 439.727 481.586 434.012 484.71 431.616C487.47 429.501 489.953 429.67 493.85 431.939C494.941 432.568 496.38 432.568 497.599 433.019C498.29 433.275 499.355 433.818 499.401 434.31C499.601 436.445 499.489 438.611 499.489 440.767L498.654 440.946C498.281 440.17 497.835 439.431 497.322 438.739C495.72 436.921 494.188 434.97 492.304 433.475C490.604 432.123 488.284 432.963 487.075 434.955C484.172 439.692 486.01 447.614 490.875 450.277C491.833 450.789 493.861 450.507 494.67 449.764C495.233 449.252 494.747 447.317 494.378 446.118C494.04 445.012 493.236 444.07 492.637 443.046C493.978 443.046 495.371 442.79 496.652 443.046C498.69 443.471 500.646 444.285 503.007 445.058Z" fill="black"/>
<path d="M531.55 447.486C537.957 447.65 545.72 454.901 545.413 462.336C545.254 466.182 543.508 469.25 540.087 470.709C536.328 472.317 532.564 471.068 529.645 468.446C524.796 464.093 522.62 458.716 524.709 452.135C525.8 448.756 527.966 447.189 531.55 447.486ZM527.966 456.847C528.765 459.668 529.415 462.546 530.409 465.301C531.228 467.575 533.578 467.805 535.529 467.923C537.311 468.036 538.448 466.812 539.201 464.989C540.855 460.949 540.189 457.39 537.752 453.953C536.246 451.838 534.408 449.211 531.842 449.918C529.103 450.686 528.345 453.769 527.997 456.847H527.966Z" fill="black"/>
<path d="M561.134 468.302C562.604 470.161 564.089 471.697 565.159 473.484C567.044 476.624 565.302 480.029 561.743 479.563C557.206 478.974 552.787 477.443 548.767 476.429C549.228 474.754 549.72 473.725 549.755 472.68C549.894 469.193 549.889 465.701 549.889 462.213C549.889 459.745 550.703 456.995 547.251 455.664C547.902 455.249 548.137 454.983 548.275 455.029C552.746 456.529 557.345 457.748 561.631 459.638C565.917 461.527 565.973 464.661 562.276 467.59C561.915 467.858 561.534 468.097 561.134 468.302ZM553.407 467.939C553.407 470.304 553.089 472.701 553.494 474.97C553.919 477.33 556.356 477.376 558.2 477.53C559.833 477.673 560.683 476.537 560.847 474.795C561.18 471.185 558.384 468.451 553.407 467.939ZM554.164 457.804C553.908 460.216 553.683 462.06 553.529 463.913C553.488 464.39 553.596 465.291 553.739 465.312C555.639 465.583 557.708 466.259 559.434 465.767C561.16 465.276 561.18 462.126 559.5 460.774C558 459.566 556.1 458.834 554.164 457.809V457.804Z" fill="black"/>
<path d="M589.98 487.393L579.226 485.155L579.129 484.433L581.52 483.332C580.276 479.502 576.912 476.977 572.948 477.187C572.339 477.223 571.56 478.068 571.273 478.723C570.992 479.459 570.992 480.272 571.273 481.007C571.488 481.519 572.298 481.826 572.846 482.231C571.611 483.132 567.213 482.323 565.256 480.905C571.371 477.612 571.914 470.591 575.421 465.578C575.99 464.769 576.707 464.067 577.357 463.314C578.141 464.093 579.247 464.733 579.651 465.675C581.817 470.755 583.702 475.958 585.935 481.038C586.549 482.431 588.034 483.434 589.069 484.658C589.647 485.339 590.093 486.113 590.605 486.845L589.98 487.393ZM578.351 476.296C577.726 474.877 577.357 474.038 576.983 473.198C576.609 472.358 576.195 471.482 575.544 470.069L573.327 474.678L578.351 476.296Z" fill="black"/>
<path d="M591.061 487.864C591.429 486.886 591.511 486.328 591.66 486.328C594.835 485.939 594.323 483.552 594.179 481.524C593.918 477.714 593.636 473.899 593.058 470.13C592.853 468.819 591.747 467.642 590.764 465.885L598.691 466.5C599.116 472.834 599.525 478.872 599.94 484.935C600.027 486.266 600.719 487.101 602.081 486.753C603.69 486.333 605.26 485.773 606.772 485.078C607.796 484.607 608.738 483.829 610.034 482.974C610.172 484.756 610.279 486.205 610.407 487.874L591.061 487.864Z" fill="black"/>
<path d="M506.028 457.425C506.028 452.816 506.028 448.443 506.028 444.065C505.992 443.476 506.021 442.885 506.115 442.303C506.704 439.809 506.627 437.566 504.067 436.097C503.821 435.876 503.643 435.59 503.554 435.272C503.503 435.154 503.626 434.96 503.775 434.432L512.311 437.792C511.799 440.091 511.082 442.196 510.985 444.326C510.785 448.807 510.923 453.308 510.923 457.686C512.905 458.46 514.472 459.095 516.044 459.684C518.661 460.651 519.199 460.365 520.09 457.635C520.153 457.377 520.272 457.135 520.438 456.927C520.604 456.719 520.814 456.55 521.053 456.432C521.35 458.665 521.652 460.897 522.036 463.765L506.028 457.425Z" fill="black"/>
<path d="M212.851 477.945C210.869 480.265 210.505 482.318 212.753 484.827L203.438 486.021L212.323 476.491C209.276 473.136 208.913 467.672 203.725 464.876V469.485C200.023 465.44 195.081 467.073 190.349 465.803C190.523 468.512 190.682 470.97 190.861 473.889C192.208 473.52 193.299 473.229 194.385 472.921C195.69 472.553 197.001 472.168 198.307 471.79C198.702 473.269 199.096 474.749 199.598 476.644L191.404 475.973C191.558 477.402 191.64 478.498 191.804 479.584C192.265 482.656 194.216 483.516 196.976 481.755C198.118 481.028 199.024 479.973 200.192 479.235C200.797 478.841 201.533 478.701 202.24 478.846C202.645 478.974 203.013 479.962 202.977 480.536C202.706 484.822 203.659 485.35 198.927 485.391C194.415 485.396 189.908 485.07 185.444 484.418C188.152 483.737 187.389 481.97 187.231 480.464C186.76 475.994 186.207 471.533 185.848 467.058C185.746 465.685 185.305 465.056 184.025 464.794C183.093 464.618 182.249 464.128 181.634 463.407C182.535 463.314 183.487 462.987 184.322 463.176C191.557 464.816 199.014 465.239 206.388 464.426C207.397 464.261 208.433 464.437 209.331 464.926C210.229 465.414 210.94 466.188 211.35 467.124C212.251 468.749 213.233 470.327 214.295 471.851H215.176C215.483 469.716 215.785 467.58 216.138 465.127L222.591 464.374C222.155 464.887 221.904 465.24 221.612 465.542C220.368 466.812 218.965 467.959 217.89 469.362C215.304 472.732 215.329 473.689 217.644 477.289C217.997 477.969 218.423 478.607 218.914 479.194C220.066 480.331 221.326 481.35 222.949 482.779C222.719 482.979 222.048 484.049 221.3 484.11C219.708 484.238 217.833 485.78 216.461 483.516C215.411 481.683 214.187 479.962 212.851 477.945Z" fill="black"/>
<path d="M316.421 428.933L324.456 425.507C323.565 428.579 322.576 431.068 322.162 433.659C321.778 436.515 321.627 439.397 321.711 442.278C321.767 442.694 321.924 443.091 322.168 443.433C322.411 443.776 322.734 444.054 323.109 444.244C323.744 444.454 324.906 444.029 325.398 443.486C326.203 442.621 326.771 441.563 327.047 440.414C327.836 436.588 328.46 432.732 329.039 428.861C329.136 428.221 328.921 427.186 328.476 426.874C326.939 425.819 327.523 425 328.665 424.406C330.498 423.458 332.439 422.716 334.329 421.886L334.728 422.47C334.559 422.875 334.503 423.423 334.216 423.668C331.287 426.075 330.591 429.465 329.956 432.927C329.372 436.092 328.849 439.287 327.958 442.37C326.934 445.995 323.723 448.423 320.636 448.382C320.014 448.374 319.402 448.237 318.837 447.978C318.273 447.719 317.769 447.345 317.358 446.879C316.946 446.414 316.637 445.867 316.451 445.275C316.264 444.682 316.203 444.057 316.273 443.44C316.621 439.625 317.005 435.815 317.245 431.995C317.286 431.181 316.8 430.295 316.421 428.933Z" fill="black"/>
<path d="M336.91 441.489C335.758 442.867 334.964 443.804 334.175 444.741L333.335 444.229C333.817 441.31 334.296 438.387 334.774 435.462L335.368 435.539C335.995 436.867 336.701 438.156 337.483 439.4C338.666 441.064 341.467 441.576 342.645 440.368C344.182 438.795 343.434 437.244 342.271 435.83C341.509 434.8 340.651 433.844 339.711 432.973C335.891 429.788 336.567 426.034 338.4 423.212C340.233 420.391 344.366 419.792 347.766 421.471C348.242 420.959 348.719 420.401 349.2 419.869L349.978 420.104C349.562 422.449 349.149 424.797 348.739 427.145L348.079 427.376C347.648 426.603 347.167 425.84 346.803 425.061C345.446 422.065 343.608 421.369 341.601 423.049C339.88 424.482 339.952 425.865 341.462 427.345C343.219 429.071 345.047 430.715 346.711 432.533C348.662 434.678 348.688 437.218 347.397 439.651C345.907 442.467 343.244 443.583 340.187 443.722C339.675 443.722 339.102 443.082 338.574 442.698C337.944 442.278 337.32 441.796 336.91 441.489Z" fill="black"/>
<path d="M283.253 456.191C282.772 458.439 284.451 460.877 282.275 462.987C279.397 465.772 274.67 466.966 271.859 465.593C268.699 464.057 266.487 459.684 267.46 455.505C268.129 452.366 269.372 449.379 271.127 446.692C273.79 442.831 277.164 442.303 281.655 444.203C281.993 443.66 282.357 443.087 282.715 442.518L283.478 442.626C283.352 445.016 283.222 447.405 283.089 449.795L282.49 449.939C282.149 449.55 281.85 449.126 281.599 448.674C280.754 446.717 279.325 445.75 277.18 445.924C274.911 446.108 273.487 447.23 272.74 449.473C271.454 453.308 271.168 457.113 272.74 460.887C273.861 463.606 275.541 464.18 277.861 462.393C279.105 461.43 279.812 459.745 280.713 458.357C281.261 457.518 281.737 456.621 282.213 455.751L283.253 456.191Z" fill="black"/>
<path d="M223.405 463.442C227.056 462.828 230.257 462.039 233.493 461.824C234.864 461.766 236.212 462.197 237.294 463.042C238.375 463.886 239.121 465.089 239.398 466.433C239.879 468.645 238.189 471.677 235.746 472.911C234.912 473.331 234.036 473.664 233.186 474.032C231.65 474.693 230.313 475.333 230.856 477.556C231.05 478.349 230.185 479.394 229.709 480.556H233.293L233.442 481.34L226.196 483.194C226.196 479.517 226.57 476.188 226.088 472.983C225.627 469.905 226.488 466.377 223.405 463.442ZM230.441 472.921C233.831 470.98 235.869 467.754 234.896 465.962C233.534 463.442 231.45 464.236 229.207 464.938C229.611 467.58 230.011 470.125 230.441 472.921Z" fill="black"/>
<path d="M300.27 436.814L295.989 442.872C295.989 440.757 295.891 439.379 296.03 438.022C296.061 437.694 296.162 437.377 296.327 437.092C296.491 436.807 296.714 436.56 296.982 436.368C301.714 434.217 306.492 432.174 312.007 429.778C311.828 431.887 311.71 433.188 311.607 434.386C310.993 434.504 310.814 434.596 310.67 434.555C309.38 434.197 308.11 433.818 306.819 433.444C306.43 434.837 305.795 436.204 305.688 437.618C305.375 441.407 305.211 445.212 305.124 449.017C305.073 451.311 305.309 451.49 307.961 452.345L298.846 456.155C301.76 453.805 300.894 450.707 300.859 447.829C300.859 444.275 300.859 440.721 300.859 437.167L300.27 436.814Z" fill="black"/>
<path d="M245.804 475.733L254.115 467.846C254.228 469.741 254.34 471.661 254.443 473.479L247.232 475.881L239.904 478.293C242.311 475.4 243.013 462.843 241.133 459.858L248.451 456.683C244.938 460.78 246.403 465.813 245.635 470.391C245.368 471.979 245.271 473.592 245.097 475.195L245.804 475.733Z" fill="black"/>
<path d="M255.866 471.969C260.101 469.92 258.801 465.916 258.765 462.613C258.734 459.54 260.49 455.689 256.148 453.298C258.171 452.274 260.035 451.393 261.822 450.379C263.609 449.365 265.432 448.156 267.455 447.199C267.194 447.62 266.89 448.013 266.548 448.372C261.694 452.535 261.991 458.019 262.6 463.591C262.79 465.317 261.981 467.508 264.736 468.061C264.933 468.523 264.984 469.034 264.884 469.526C262.129 470.688 259.328 471.754 256.527 472.798C256.476 472.824 256.24 472.435 255.866 471.969Z" fill="black"/>
<path d="M290.463 456.99C291.846 456.77 292.588 456.637 293.336 456.55C293.443 456.55 293.582 456.744 294.13 457.21L285.772 460.933C286.162 457.466 286.602 453.948 286.945 450.415C287.273 447.02 288.333 443.568 286.515 439.814L294.068 436.522L294.539 437.034C290.98 439.359 291.697 443.097 291.252 446.379C290.786 449.79 290.719 453.252 290.463 456.99Z" fill="black"/>
<path d="M304.305 369.115C303.757 371.64 303.23 374.047 302.851 375.803C301.053 375.46 299.425 375.035 297.766 374.861C293.766 374.431 291.139 372.229 289.854 368.578C288.722 365.336 290.059 362.555 292.307 360.225C294.437 358.018 297.054 357.834 299.722 359.411C300.746 360.031 301.955 360.399 303.609 361.111C303.489 362.33 303.329 363.994 303.127 366.104C301.873 364.271 301.125 362.719 299.973 361.582C297.474 359.119 295.456 359.616 293.874 362.842C292.005 366.657 292.563 369.73 295.886 372.29C296.639 372.869 297.97 372.71 299.036 372.889C299.162 371.797 299.206 370.696 299.169 369.597C299.118 368.997 298.6 368.444 298.288 367.855C300.28 367.026 301.555 367.338 304.305 369.115Z" fill="black"/>
<path d="M318.08 365.771L323.124 367.753C320.185 372.398 319.714 376.971 321.076 381.718C321.265 382.373 322.162 383.223 322.756 383.254C323.35 383.285 324.205 382.404 324.415 381.754C325.644 377.979 327.528 374.298 326.269 369.719L330.918 371.307C330.068 373.355 329.29 375.107 328.634 376.889C328.076 378.399 327.789 380.018 327.154 381.498C326.079 383.986 323.452 385.471 321.26 385.026C319.166 384.606 316.769 381.718 316.928 379.321C317.097 376.797 317.783 374.313 318.044 371.788C318.229 369.96 318.08 368.117 318.08 365.771Z" fill="black"/>
<path d="M253.843 346.076C253.106 347.433 252.451 348.637 251.867 349.712L245.768 344.079C245.256 346.302 244.672 347.664 244.657 349.036C244.657 350.67 245.814 351.033 247.284 350.603C247.769 350.493 248.262 350.416 248.758 350.373C248.861 350.878 248.909 351.393 248.902 351.909C248.743 353.128 248.482 354.331 248.21 355.821L244.267 351.294C243.643 353.732 243.177 355.545 242.731 357.404C245.292 358.817 247.806 360.005 250.489 357.332L250.971 357.747C250.838 359.037 250.699 360.307 250.535 361.879L238.317 357.045C241.436 354.603 243.259 345.61 241.845 341.411C243.684 342.205 245.496 343.055 247.36 343.782C249.388 344.545 251.437 345.226 253.843 346.076Z" fill="black"/>
<path d="M232.679 353.855C229.202 353.624 228.92 353.225 228.695 349.973C228.428 345.994 228.06 342.01 227.507 338.062C227.312 336.679 226.442 335.394 226.324 333.679C228.039 334.677 229.78 335.625 231.445 336.715C231.778 336.941 231.906 337.739 231.875 338.221C231.66 341.908 231.363 345.585 231.516 349.308C235.485 346.542 236.028 342.563 235.767 337.837L241.548 341.017C236.586 344.299 234.538 349.036 232.679 353.855Z" fill="black"/>
<path d="M280.078 354.07C279.894 355.314 279.694 356.707 279.479 358.203C277.646 356.774 276.155 355.606 274.261 354.106C273.651 358.244 273.078 361.787 272.653 365.372C272.591 365.884 273.113 366.58 273.528 367.041C274.112 367.602 274.738 368.116 275.403 368.578L275.1 369.136L266.231 366.893C269.257 365.203 269.36 365.218 269.959 361.654C270.405 359.001 270.527 356.293 270.845 353.097L265.954 353.742C265.76 352.718 265.524 351.469 265.181 349.692L280.078 354.07Z" fill="black"/>
<path d="M263.87 349.154C263.645 350.378 263.358 351.899 263.071 353.425L262.375 353.594C261.955 352.718 261.689 351.709 261.074 351.003C260.521 350.373 259.569 349.722 258.831 349.763C258.319 349.794 257.433 351.146 257.571 351.704C257.96 353.201 258.582 354.626 259.415 355.929C260.25 357.276 261.725 358.315 262.262 359.734C262.636 360.722 262.262 362.412 261.561 363.288C260.234 364.983 257.382 364.43 254.514 363.011C251.954 361.746 252.466 359.723 252.538 357.747C252.538 357.327 253.408 356.938 253.777 356.625C254.617 358.397 255.236 360.036 256.168 361.47C256.496 361.982 257.638 362.269 258.304 362.135C258.683 362.059 259.226 360.799 259.051 360.297C258.414 358.592 257.655 356.935 256.778 355.34C256.517 354.828 255.907 354.536 255.528 354.085C253.505 351.679 253.295 350.055 254.77 348.452C256.342 346.773 258.744 346.65 261.018 348.038C261.678 348.468 262.482 348.637 263.87 349.154Z" fill="black"/>
<path d="M311.438 380.432L306.143 378.307C307.598 372.915 310.588 368.065 307.992 361.972L315.202 364.563C311.249 369.253 310.424 374.421 311.438 380.432Z" fill="black"/>
<path d="M286.028 372.29L278.347 370.395C282.393 367.681 284.011 359.334 281.384 354.096L288.702 355.857L288.763 356.687C286.418 357.127 285.352 358.351 285.429 360.737C285.48 362.274 284.748 363.856 284.61 365.438C284.4 367.722 283.545 370.232 286.474 371.809L286.028 372.29Z" fill="black"/>
<path d="M500.963 382.092C503.175 383.797 504.983 383.397 506.412 380.77C507.528 382.307 507.339 383.561 505.9 384.022C504.082 384.619 502.179 384.913 500.267 384.893C497.957 384.847 495.76 384.539 494.47 387.33C494.588 386.168 494.711 385.005 494.823 383.889C488.115 380.566 485.355 374.851 488.023 369.899C490.138 365.976 496.175 364.071 499.949 366.135C504.343 368.537 504.804 375.578 500.963 382.092ZM496.073 379.664C499.504 379.741 501.552 378.072 501.649 375.117C501.757 371.691 498.51 368.076 495.238 367.978C492.724 367.902 489.989 370.918 489.892 373.878C489.789 376.996 492.56 379.593 496.073 379.664Z" fill="black"/>
<path d="M532.18 356.569C535.693 355.207 539.273 352.559 543.897 353.548C544.72 353.701 545.5 354.032 546.182 354.518C546.864 355.004 547.432 355.633 547.846 356.361C548.26 357.089 548.51 357.898 548.579 358.733C548.648 359.568 548.534 360.407 548.245 361.193C547.43 363.477 545.971 365.981 544.051 367.313C541.362 369.187 537.977 370.063 534.772 371.409C535.294 366.104 534.3 361.598 532.18 356.569ZM538.141 368.542C541.675 368.091 543.446 365.828 544.44 363.61C545.213 361.89 544.803 359.334 544.179 357.388C543.595 355.56 541.531 354.884 539.693 355.55C538.474 355.99 536.226 355.765 536.518 358.069C536.953 361.536 537.578 364.988 538.141 368.542Z" fill="black"/>
<path d="M510.268 362.084C508.793 367.036 510.642 370.841 512.828 374.374C513.392 375.306 515.691 376.156 516.505 375.731C517.529 375.219 518.267 373.33 518.349 371.993C518.436 369.869 518.196 367.745 517.637 365.694C517.238 364.158 516.218 362.755 515.169 360.686L519.593 359.913C519.593 362.432 519.593 364.399 519.593 366.36C519.593 368.803 519.844 371.266 519.629 373.688C519.393 376.341 517.422 377.59 515.02 378.041C512.618 378.492 510.831 377.329 509.7 375.358C508.829 373.821 508.322 372.085 507.651 370.436C506.816 368.357 505.992 366.278 504.999 363.779L510.268 362.084Z" fill="black"/>
<path d="M471.18 395.565C468.845 390.372 467.596 385.031 463.617 380.576L468.927 377.862C469.634 380.422 470.161 382.931 471.016 385.297C471.871 387.663 473.065 389.932 474.15 392.349C477.894 391.12 476.265 386.89 478.626 385.098C481.606 388.042 481.32 390.055 477.75 391.883C475.343 393.117 473.024 394.525 471.18 395.565Z" fill="black"/>
<path d="M560.074 349.313L563.474 347.152C563.474 350.793 563.474 354.193 563.474 357.593C563.474 360.466 562.522 362.95 560.243 364.762C557.104 367.282 553.151 365.899 552.295 361.982C551.881 360.082 551.712 358.126 551.194 356.257C550.887 355.135 550.124 354.131 549.361 352.672L554.758 350.04C552.864 354.684 554.246 358.638 555.824 362.484C556.633 364.46 558.845 364.67 560.1 362.847C561.021 361.506 561.815 359.775 561.815 358.182C561.815 355.319 561.19 352.457 560.827 349.594L560.074 349.313Z" fill="black"/>
<path d="M574.74 343.239V347.392C574.254 347.254 573.778 347.264 573.527 347.029C572.236 345.815 570.843 345.62 569.829 347.106C568.718 348.734 569.087 350.398 570.756 351.556C571.531 352.088 572.38 352.504 573.276 352.79C575.606 353.532 576.958 354.879 576.502 357.491C576.123 359.693 573.475 362.023 571.284 362.1C570.306 362.125 569.322 362.1 568.037 362.1L567.069 357.798L567.581 357.516C568.298 358.151 568.928 359.012 569.768 359.37C570.69 359.764 571.919 360.02 572.805 359.718C573.47 359.493 574.295 358.182 574.151 357.552C573.972 356.764 572.917 356.129 572.154 355.545C571.677 355.179 571.118 354.934 570.526 354.833C567.771 354.418 566.542 352.851 566.716 350.096C566.816 348.735 567.335 347.438 568.203 346.384C569.071 345.331 570.244 344.572 571.56 344.212C572.554 343.956 573.542 343.613 574.74 343.239Z" fill="black"/>
<path d="M489.518 385L483.373 388.687C483.158 382.89 480.3 378.65 476.941 374.067L481.734 371.665C483.05 376.822 483.962 382.02 489.518 385Z" fill="black"/>
<path d="M530.982 373.033L525.067 374.164C526.557 370.58 524.478 361.178 521.667 358.802C523.818 358.034 525.83 357.265 527.874 356.62C528.124 356.538 528.729 356.912 528.836 357.199C528.866 357.393 528.848 357.591 528.783 357.776C528.717 357.961 528.607 358.127 528.462 358.259C526.542 359.519 526.926 361.162 527.438 362.985C527.95 364.942 528.063 367.026 528.683 368.946C529.108 370.308 530.101 371.517 530.982 373.033Z" fill="black"/>
<path d="M551.911 218.936C547.758 218.726 543.605 218.536 539.452 218.301C533.819 217.988 528.186 217.696 522.604 217.277C521.432 217.209 520.303 216.812 519.347 216.129C513.202 211.244 507.132 206.285 501.137 201.253C499.601 199.968 498.792 201.069 497.932 201.909C493.733 206.036 489.636 210.271 485.37 214.327C484.407 215.189 483.183 215.703 481.893 215.786C473.966 216.078 466.018 216.145 458.096 216.391C457.391 216.466 456.679 216.338 456.044 216.022C455.409 215.707 454.877 215.216 454.511 214.609C452.898 212.309 450.988 210.215 449.355 207.951C447.962 205.995 446.134 205.391 443.85 205.493C431.928 206.07 420.003 206.623 408.075 207.152C407.266 207.188 406.452 207.152 405.038 207.152C408.905 202.682 412.32 198.59 415.941 194.683C416.55 194.022 417.989 194.028 419.09 193.956C423.187 193.684 427.284 193.567 431.344 193.254C432.369 193.178 433.306 192.589 434.289 192.23C433.861 191.404 433.367 190.613 432.814 189.864C429.081 185.537 425.302 181.246 421.548 176.954C419.5 174.64 418.476 174.696 416.463 177.057C400.076 196.26 383.677 215.453 367.267 234.636C366.852 235.118 366.242 235.773 365.73 235.778C358.95 235.855 352.165 235.83 345.195 235.83C348.309 232.112 351.453 228.343 354.613 224.594C371.648 204.367 388.675 184.134 405.694 163.896C406.187 163.224 406.84 162.685 407.594 162.327C408.347 161.97 409.178 161.805 410.011 161.848C415.895 161.848 421.789 161.592 427.668 161.622C428.878 161.683 430.022 162.194 430.873 163.056C442.43 175.722 453.938 188.434 465.399 201.192C465.685 201.509 466.003 201.801 466.264 202.134C468.486 204.971 468.471 204.966 471.318 202.441C475.338 198.857 479.384 195.339 483.404 191.769C485.785 189.649 485.749 189.024 483.276 187.048L431.693 145.814C431.109 145.343 430.541 144.846 429.537 144.007C430.72 143.879 431.411 143.75 432.097 143.735C440.199 143.561 448.305 143.377 456.411 143.279C457.309 143.294 458.179 143.593 458.895 144.135C484.459 164.471 509.995 184.83 535.504 205.212C541.024 209.616 546.556 214.006 552.101 218.383L551.911 218.936Z" fill="white"/>
<path d="M331.89 218.424C327.317 207.716 322.636 196.696 317.884 185.711C317.603 185.051 316.778 184.62 316.205 184.083C315.631 184.759 314.832 185.348 314.525 186.131C310.49 196.409 306.465 206.686 302.588 217.026C301.861 218.972 300.883 219.535 298.886 219.489C292.741 219.356 286.626 219.443 280.363 219.443L255.337 162.452H275.642C280.107 172.868 284.573 183.304 289.038 193.761C289.55 194.924 289.642 196.281 290.277 197.346C290.667 198.012 291.706 198.293 292.449 198.749C292.773 198.134 293.05 197.496 293.278 196.839C293.529 195.963 293.498 194.995 293.831 194.161C297.687 184.539 301.656 174.952 305.43 165.299C306.378 162.877 307.658 161.884 310.331 161.991C315.18 162.186 320.061 162.073 324.905 161.914C326.636 161.858 327.465 162.426 328.126 164.004C332.504 174.696 336.97 185.358 341.415 196.025C341.676 196.649 341.835 197.592 342.296 197.791C342.895 198.047 344.298 197.919 344.421 197.597C348.292 187.386 352.041 177.113 355.83 166.871C357.781 161.597 357.802 161.597 363.337 161.581C367.946 161.581 372.555 161.581 377.527 161.581C377.174 162.606 376.933 163.451 376.595 164.255C369.344 181.666 362.073 199.077 354.78 216.488C354.458 217.261 353.546 218.316 352.891 218.331C345.906 218.475 338.916 218.424 331.89 218.424Z" fill="white"/>
</svg>
