<svg width="92" height="67" viewBox="0 0 92 67" fill="none" xmlns="http://www.w3.org/2000/svg">
<rect y="7.00037" width="87" height="12" rx="6" fill="#E18A00"/>
<rect y="28.0004" width="87" height="12" rx="6" fill="#E4A71B"/>
<rect y="49.0004" width="87" height="12" rx="6" fill="#EDC542"/>
<path d="M23.1183 59.622C23.0567 59.671 22.9909 59.7153 22.9314 59.7667C22.9028 59.7914 22.8797 59.8321 22.8727 59.8673C22.7617 60.3166 22.5241 60.6964 22.1992 61.0184C22.0863 61.1284 21.9322 61.1907 21.7847 61.2848C21.7793 61.3893 21.9787 61.4999 21.83 61.6117C21.7803 61.6504 21.6513 61.583 21.5393 61.5591C21.4771 61.829 21.2561 61.9824 20.9936 62.0926C20.936 62.1174 20.8497 62.1378 20.8001 62.1141C20.755 62.0907 20.7103 62.0004 20.7142 61.9472C20.7211 61.883 20.7739 61.8333 20.8659 61.8869C20.9066 61.9099 21.0059 61.8949 21.0351 61.8613C21.2579 61.6233 21.4543 61.3789 21.5241 61.0359C21.5898 60.7171 21.7348 60.4131 21.8727 60.1153C21.9574 59.9341 22.0876 59.7718 22.2047 59.6041C22.2421 59.5511 22.3003 59.5174 22.3244 59.4634C22.3691 59.3707 22.4203 59.2807 22.4521 59.1827C22.4838 59.0846 22.5114 58.9817 22.5145 58.8793C22.5197 58.7168 22.5461 58.5692 22.6665 58.4486C23.0179 58.0995 23.1715 57.8006 23.2439 57.3306C23.139 57.4211 23.026 57.5021 22.9362 57.6004C22.6166 57.9429 22.228 58.1911 21.8218 58.4046C21.2698 58.6899 20.689 58.9128 20.0712 59.0304C19.5462 59.1303 19.0302 59.1974 18.5013 59.047C18.1165 58.9385 17.9104 58.6757 17.9284 58.2776C17.9666 57.5128 18.1583 56.786 18.5197 56.1163C18.6978 55.7879 18.9298 55.4836 19.178 55.2028C19.4799 54.859 19.8239 54.5495 20.1532 54.2278C20.2083 54.176 20.2782 54.1365 20.3395 54.0919C20.3339 54.0759 20.3305 54.0623 20.325 54.0462C20.2084 54.0846 20.0897 54.1205 19.9751 54.1612C19.8446 54.2074 19.7305 54.3017 19.5737 54.25C19.5432 54.2389 19.4813 54.2923 19.4452 54.3276C19.1606 54.6191 18.8358 54.6667 18.4682 54.5059C18.4292 54.4897 18.3644 54.4916 18.3269 54.5156C18.0684 54.664 17.8253 54.8448 17.555 54.97C17.3243 55.0736 17.0681 55.1285 16.8188 55.1816C16.5285 55.2451 16.2319 55.2725 15.9437 55.3384C15.8598 55.3568 15.7912 55.441 15.7156 55.4979C15.5767 55.5971 15.5767 55.5971 15.3913 55.5076C15.5407 55.1749 15.8094 55.0094 16.1672 54.9375C16.1578 54.8832 16.1416 54.8307 16.1434 54.7751C16.1446 54.7283 16.1704 54.6811 16.1829 54.6329C16.2283 54.6519 16.2768 54.6599 16.3148 54.6895C16.3741 54.734 16.4282 54.787 16.5015 54.8526C16.526 54.7317 16.5328 54.6385 16.5635 54.5537C16.6214 54.404 16.7395 54.3145 16.8806 54.2467C17.1696 54.1095 17.4548 53.963 17.7926 54.0123C17.8213 54.0167 17.8595 54.0128 17.8785 53.9963C17.9888 53.8928 18.11 53.8214 18.257 53.7652C18.4015 53.7111 18.5099 53.5718 18.6437 53.4812C18.8882 53.3117 19.1487 53.2281 19.4404 53.3588C19.4619 53.3693 19.4961 53.3897 19.5146 53.3821C19.7763 53.2518 19.9933 53.4261 20.2206 53.4919C20.5329 53.584 20.8357 53.5928 21.1506 53.5288C21.2775 53.5024 21.411 53.5078 21.5389 53.4971C21.5772 53.4932 21.6136 53.4824 21.6498 53.4762C21.6555 53.4587 21.6613 53.4413 21.6691 53.4263C21.5603 53.358 21.4541 53.2543 21.3355 53.2278C21.0479 53.1643 20.7989 53.03 20.5404 52.9039C20.4196 52.846 20.281 52.8202 20.1464 52.7992C19.9633 52.7701 19.8295 52.6778 19.761 52.5166C19.7304 52.4474 19.7686 52.352 19.7784 52.2478C19.7474 52.2456 19.7054 52.2402 19.6634 52.2349C19.44 52.2074 19.2163 52.1843 18.9957 52.1503C18.9407 52.1396 18.8862 52.0909 18.84 52.0519C18.7287 51.9567 18.627 51.8533 18.5154 51.7625C18.4774 51.733 18.4186 51.713 18.3739 51.7142C18.2598 51.717 18.1884 51.6872 18.1909 51.5312C17.8868 51.5402 17.5871 51.5494 17.2918 51.559C17.2863 51.543 17.2805 51.5314 17.275 51.5154C17.3386 51.4687 17.3964 51.4105 17.4656 51.3799C17.6429 51.3058 17.826 51.2434 18.007 51.1786C18.0322 51.1692 18.0746 51.1701 18.1002 51.1854C18.4465 51.4228 18.8808 51.4345 19.2491 51.6155C19.389 51.686 19.5238 51.765 19.666 51.8335C19.7026 51.8518 19.7569 51.8424 19.7958 51.8586C19.8608 51.8857 19.9391 51.9137 19.9799 51.9658C20.1428 52.1786 20.3803 52.2563 20.6121 52.3513C20.9109 52.4759 21.2151 52.5874 21.5007 52.74C21.5996 52.7919 21.6581 52.9368 21.7077 53.052C21.8254 53.3328 21.8227 53.3393 22.1313 53.3307C22.1828 53.3278 22.2361 53.3317 22.2941 53.3315C22.3446 53.1299 22.3924 52.9348 22.4438 52.7199C22.0568 52.6425 21.7474 52.4189 21.4377 52.1999C21.2553 52.0705 21.0833 51.9195 20.9349 51.7524C20.6754 51.4567 20.4234 51.1504 20.1902 50.8321C20.0444 50.6295 19.9224 50.4063 19.8277 50.1762C19.6806 49.8084 19.5249 49.4355 19.4549 49.0511C19.3912 48.7028 19.4097 48.3292 19.447 47.9727C19.5008 47.4813 19.7562 47.1028 20.2196 46.869C20.183 46.7592 20.1444 46.6471 20.1126 46.5332C20.0382 46.2689 20.0643 46.0052 20.1822 45.7662C20.4343 45.2491 20.7015 44.7399 20.9707 44.233C21.0124 44.1513 21.0866 44.0831 21.1601 44.0238C21.2765 43.9274 21.4121 43.9641 21.5857 44.0929C22.0471 44.4346 22.2902 44.9233 22.5122 45.426C22.7951 46.0715 22.9846 46.7437 23.0987 47.4393C23.2171 48.1688 23.3333 48.8958 23.4384 49.6242C23.4933 50.0009 23.5166 50.3842 23.5671 50.7605C23.5972 50.9881 23.6479 51.2105 23.6813 51.3937C23.9372 51.3433 24.1695 51.309 24.3994 51.2477C24.4539 51.2339 24.5099 51.1398 24.5213 51.0759C24.541 50.9591 24.5167 50.8346 24.5343 50.7154C24.5623 50.5166 24.6083 50.3147 24.6452 50.1166C24.6556 50.066 24.6796 50.012 24.6719 49.9646C24.65 49.838 24.664 49.7386 24.7914 49.6743C24.8262 49.6568 24.8337 49.5837 24.8441 49.5332C24.8889 49.349 24.96 49.2917 25.1464 49.2764C25.2921 49.267 25.4381 49.2531 25.5845 49.2349C25.7128 49.2197 25.7757 49.1529 25.7639 49.0093C25.756 48.8748 25.766 48.7372 25.7826 48.6023C25.791 48.5493 25.8369 48.5014 25.8749 48.4395C26.0198 48.5929 25.9688 48.7409 25.9694 48.886C25.9703 48.9641 26.0201 49.0459 26.0036 49.1183C25.9801 49.2259 25.9338 49.3408 25.861 49.4203C25.7954 49.4935 25.6839 49.5233 25.5912 49.5701C25.4453 49.6419 25.3018 49.6827 25.2766 49.904C25.2565 50.0878 25.1301 50.2592 25.0655 50.4397C24.978 50.6899 24.9014 50.9431 24.8198 51.2049C24.9343 51.2557 25.0205 51.2977 25.109 51.3377C25.5634 51.5317 25.8416 51.9068 26.1008 52.2985C26.318 52.6223 26.5302 52.9548 26.5924 53.3543C26.6105 53.4716 26.7435 53.5149 26.9097 53.5003C27.2172 53.4759 27.5243 53.4561 27.8329 53.4474C27.9336 53.4437 28.0388 53.4692 28.1293 53.4826C28.3251 53.1555 28.5908 52.9095 28.8998 52.7134C29.0237 52.6355 29.386 52.7468 29.4636 52.8753C29.4876 52.9127 29.4837 52.966 29.5021 53.0499C29.3879 52.9947 29.3004 52.9704 29.235 52.9187C29.1546 52.8593 29.0901 52.8568 29.0333 52.9307C28.9399 53.0488 28.857 53.1744 28.7677 53.2973C28.6733 53.4287 28.5765 53.5622 28.4779 53.6889C28.463 53.7101 28.4193 53.727 28.393 53.7206C28.2762 53.7009 28.1974 53.7107 28.2109 53.8612C28.212 53.8769 28.1288 53.9154 28.0817 53.9187C27.835 53.9363 27.5906 53.9518 27.3449 53.9561C27.2578 53.9564 27.1527 53.9599 27.0843 53.9192C26.9177 53.8177 26.743 53.8562 26.572 53.8459C26.5453 53.844 26.499 53.8673 26.4885 53.8889C26.42 54.0311 26.3605 54.1741 26.2883 54.3361C26.4474 54.4192 26.6058 54.5111 26.7651 54.5897C27.0257 54.7182 27.2853 54.8599 27.5591 54.9603C28.0565 55.1463 28.567 55.3042 29.0695 55.4816C29.6765 55.6935 30.294 55.8838 30.8821 56.1411C31.4726 56.3964 32.0118 56.7416 32.458 57.2296C32.6894 57.483 32.9002 57.7417 33.0543 58.0453C33.0855 58.1056 33.1076 58.1697 33.1229 58.2356C33.1666 58.4307 33.142 58.5226 32.9569 58.5826C32.7076 58.6648 32.4377 58.6941 32.1809 58.7578C32.0445 58.7925 31.9129 58.852 31.7779 58.8979C31.2473 59.0732 30.7136 59.1099 30.1719 58.9497C30.1326 58.9379 30.0805 58.9497 30.0413 58.9669C29.3676 59.2991 28.6645 59.4239 27.9228 59.2825C27.5399 59.2098 27.182 59.0697 26.8776 58.8086C26.6153 58.5819 26.3098 58.3966 26.0594 58.1596C25.8508 57.9613 25.6649 57.7268 25.5066 57.4809C25.3244 57.1975 25.1727 56.8919 25.0255 56.5865C24.8821 56.2904 24.7527 55.9864 24.7801 55.6425C24.7811 55.6292 24.7711 55.6128 24.7618 55.5876C24.5423 55.5983 24.3184 55.6087 24.0676 55.6215C24.0794 55.6737 24.083 55.7454 24.1123 55.8033C24.1631 55.9007 24.228 55.9903 24.2976 56.0757C24.527 56.3558 24.7144 56.6597 24.8481 56.9975C24.9273 57.1952 25.0573 57.3698 25.1526 57.562C25.2107 57.6823 25.2658 57.8136 25.2854 57.9422C25.297 58.0278 25.2386 58.124 25.214 58.2159C25.5261 58.3414 25.5544 58.4126 25.5626 58.7881C25.5703 59.0475 25.6228 59.3058 25.6575 59.5627C25.6635 59.6033 25.6803 59.6469 25.7095 59.6758C25.8047 59.7765 25.7992 59.852 25.6776 59.9279C25.6449 59.9478 25.6254 60.0312 25.6426 60.0703C25.707 60.2268 25.6966 60.3689 25.5762 60.4894C25.4701 60.5977 25.3619 60.7036 25.2475 60.8023C25.219 60.827 25.1551 60.8156 25.108 60.8188C25.1136 60.7724 25.1063 60.7205 25.1249 60.6795C25.1828 60.5588 25.2517 60.4411 25.3141 60.3207C25.4392 60.0755 25.436 59.8454 25.2351 59.6321C25.1957 59.5913 25.1788 59.5187 25.1785 59.4606C25.1808 59.1261 25.0922 58.8117 24.972 58.5038C24.9513 58.451 24.9375 58.3964 24.9168 58.3436C24.8968 58.2819 24.8961 58.1993 24.854 58.1649C24.5287 57.8845 24.4979 57.4828 24.3986 57.1029C24.3494 56.9208 24.2781 56.737 24.1758 56.58C24.124 56.4959 23.9901 56.466 23.8484 56.3887C23.8997 56.6937 23.9584 56.959 23.988 57.2245C24.0113 57.4248 24.0007 57.6293 23.9991 57.8345C23.9963 58.024 23.9957 58.2158 23.9796 58.4043C23.9466 58.8236 23.8508 59.2183 23.4649 59.46C23.3572 59.5279 23.23 59.5588 23.1083 59.6056C23.1101 59.6125 23.1142 59.6172 23.1183 59.622ZM29.2085 58.5466L29.2088 58.5422C29.1613 58.5209 29.1087 58.5081 29.0639 58.4802C28.8616 58.3472 28.6652 58.1966 28.4555 58.0742C28.2071 57.931 27.9435 57.8135 27.6948 57.6748C27.5406 57.5876 27.3992 57.4768 27.2438 57.3739C27.2861 57.8322 27.4344 58.2448 27.6859 58.618C27.7645 58.7331 27.8618 58.8362 27.952 58.9454C28.1118 59.1401 28.3264 59.196 28.5704 59.1849C28.9356 59.1648 29.2879 59.0768 29.6521 58.9786C29.6178 58.9292 29.5996 58.9033 29.553 58.8396C29.7053 58.9535 29.8493 58.9372 29.9462 58.8328C30.055 58.718 29.9177 58.6745 29.8805 58.6026C29.7633 58.3753 29.6413 58.1522 29.5285 57.9252C29.4549 57.7725 29.4337 57.5746 29.3237 57.4617C29.0873 57.2168 28.8131 57.0003 28.5403 56.7951C28.2168 56.5505 27.874 56.3267 27.5383 56.0968C27.1961 55.8642 26.8562 55.6296 26.511 55.4079C26.2937 55.267 26.0659 55.1477 25.8412 55.0174C25.8514 55.0003 25.8592 54.9852 25.8694 54.9681C26.5158 55.3123 27.17 55.6414 27.7835 56.0389C28.4035 56.4392 29.0086 56.8607 29.5447 57.3998C29.583 57.3044 29.6439 57.1728 29.6028 57.1251C29.4592 56.9539 29.3015 56.7906 29.1191 56.6612C28.6335 56.3155 28.1377 55.9868 27.6394 55.6602C27.1857 55.3659 26.6957 55.1403 26.1733 54.9926C26.042 54.9562 25.9183 54.9092 25.7922 54.8643C25.7914 54.8442 25.7886 54.8216 25.7879 54.8015C25.838 54.7873 25.8915 54.7578 25.9355 54.7655C26.0168 54.7826 26.0918 54.826 26.1697 54.8585C26.6398 55.0514 27.1102 55.2398 27.5803 55.4327C27.7341 55.4953 27.8768 55.5883 28.036 55.638C28.2148 55.6957 28.402 55.7295 28.5901 55.75C28.8336 55.7768 29.0791 55.7769 29.3235 55.7904C29.3252 55.7682 29.3292 55.7439 29.3308 55.7217C29.123 55.6641 28.9153 55.6065 28.7051 55.5509C27.9373 55.3406 27.2369 54.9724 26.5151 54.6518C26.3445 54.5745 26.1746 54.426 25.9657 54.5981C25.9846 54.5526 26.0091 54.5232 26.0336 54.4937C26.2576 54.2379 26.4043 53.9407 26.4004 53.599C26.3966 53.2239 26.22 52.8941 26.054 52.5718C25.826 52.1199 25.4867 51.7559 25.0407 51.509C24.9206 51.4421 24.7768 51.3959 24.6433 51.3906C24.5166 51.3835 24.3878 51.4366 24.2623 51.4742C24.1323 51.5115 23.9918 51.5414 23.8818 51.6114C23.437 51.8957 22.9874 52.1841 22.7729 52.7061C22.558 52.8666 22.5828 53.1072 22.5485 53.3323C22.5284 53.4536 22.4652 53.5248 22.3231 53.5144C22.19 53.5046 22.0531 53.5147 21.92 53.5339C21.7982 53.5518 21.7412 53.6301 21.8082 53.7511C21.905 53.9211 21.9992 54.0976 22.1148 54.2555C22.2668 54.4653 22.4253 54.6777 22.6035 54.8648C22.9287 55.2078 23.2729 55.5342 23.6124 55.8648C23.6603 55.9107 23.7348 55.9296 23.8296 55.9767C23.8515 55.7998 23.866 55.6625 23.8849 55.5256C23.9085 55.3265 23.9518 55.314 24.1424 55.3615C24.5323 55.4614 24.9073 55.4287 25.2526 55.1929C25.3371 55.1366 25.4298 55.0899 25.4904 55.0542C25.5418 55.2052 25.5665 55.3253 25.6215 55.4275C25.6964 55.5624 25.7894 55.6942 25.8901 55.8109C26.1507 56.1223 26.4017 56.442 26.6864 56.7284C26.8841 56.9236 27.1274 57.0753 27.3611 57.2353C27.7266 57.4852 28.0839 57.7546 28.4749 57.9618C28.7536 58.1161 29.0062 58.293 29.2085 58.5466ZM21.2563 54.0654C21.0477 53.9586 20.8657 54.0368 20.6864 54.1084C20.6495 54.1236 20.6142 54.179 20.6024 54.2183C20.4507 54.736 20.6918 55.1598 20.9452 55.5689C21.1588 55.9126 21.4387 56.2031 21.75 56.4624C22.1095 56.7633 22.4961 56.9991 22.9603 57.0889C23.0352 57.1033 23.1557 57.1032 23.19 57.0611C23.276 56.9536 23.3972 56.7907 23.3662 56.6969C23.3134 56.5346 23.3886 56.4821 23.4952 56.3985C22.9248 56.2339 22.4911 55.8808 22.1103 55.4736C21.7296 55.0663 21.3359 54.6537 21.2563 54.0654ZM30.024 58.6243C30.233 58.8471 30.23 58.858 30.5234 58.9041C31.0265 58.9811 31.5104 58.9251 31.9524 58.6474C31.9828 58.6295 32.0026 58.5417 31.9868 58.5138C31.9195 58.3973 31.848 58.276 31.7545 58.1821C31.365 57.8032 30.9507 57.4582 30.4728 57.1889C30.2372 57.0556 30.0026 57.15 29.7684 57.1484C29.7483 57.1492 29.7143 57.1868 29.7059 57.2108C29.6674 57.3396 29.5952 57.4727 29.6059 57.6006C29.6333 58.0177 29.8404 58.3587 30.024 58.6243ZM19.8584 47.3223C20.0682 47.5653 20.2601 47.7779 20.4425 47.9988C20.7435 48.3668 21.0354 48.7385 21.4568 48.9858C21.5382 49.032 21.6078 49.1174 21.6484 49.2029C21.8039 49.5178 21.9225 49.8478 22.0966 50.1507C22.3539 50.598 22.6419 51.0229 22.9155 51.4603C22.9433 51.5069 22.9722 51.5693 22.9663 51.6202C22.9474 51.7862 22.9108 51.9508 22.8787 52.1449C22.9459 52.1118 22.9898 52.0905 23.0358 52.0716C23.2178 51.9934 23.2426 51.9595 23.1799 51.7809C23.0457 51.3895 22.9111 51.0025 22.7609 50.6166C22.6142 50.2444 22.4585 49.8715 22.2838 49.515C22.129 49.1913 21.9443 48.881 21.7643 48.5666C21.5918 48.2705 21.4313 47.9642 21.1527 47.7474C21.0934 47.7029 21.0118 47.6902 20.9424 47.6628C20.9346 47.6779 20.9268 47.6929 20.919 47.708C20.7873 47.5265 20.6627 47.3389 20.519 47.1677C20.4371 47.0679 20.3118 46.9807 20.1793 47.0535C20.0631 47.1164 19.9775 47.2195 19.8584 47.3223ZM32.1995 58.6253C32.4079 58.5826 32.6095 58.5416 32.807 58.4958C32.9431 58.4656 33.0012 58.3739 32.9597 58.2392C32.9383 58.1662 32.9104 58.0906 32.8705 58.0252C32.7891 57.8875 32.7033 57.7496 32.6103 57.6178C32.5516 57.5354 32.4844 57.4479 32.3992 57.3926C32.3588 57.3651 32.273 57.4101 32.2081 57.4121C32.1344 57.4133 32.0586 57.4123 31.9886 57.3937C31.7873 57.3388 31.5867 57.275 31.3857 57.2157C31.2808 57.1857 31.1637 57.1704 31.0717 57.1168C30.8815 57.0024 30.7014 56.8709 30.5214 56.7395C30.4642 56.6974 30.4173 56.6381 30.3771 56.5772C30.3249 56.4975 30.2962 56.4017 30.2342 56.3346C30.1208 56.2081 29.9838 56.0976 29.8656 55.9751C29.7124 55.8122 29.534 55.8415 29.3491 55.8681C29.4128 55.9419 29.4844 56.0007 29.5236 56.075C29.669 56.3445 29.8449 56.5627 30.1101 56.7495C30.3688 56.9336 30.6046 57.0959 30.9272 57.1084C30.9317 57.1087 30.9372 57.1248 30.9654 57.167C30.7976 57.1413 30.6586 57.12 30.5172 57.1007C30.529 57.1529 30.5472 57.1787 30.5708 57.1916C30.7388 57.3043 30.914 57.4109 31.0796 57.5257C31.2644 57.653 31.4564 57.7742 31.6242 57.9204C31.8532 58.1135 32.0942 58.2963 32.1995 58.6253ZM26.6754 58.4926C26.5786 58.0771 26.4874 57.6777 26.3918 57.278C26.3436 57.0826 26.3193 56.8666 26.2156 56.6983C25.9543 56.2753 25.6558 55.8718 25.3666 55.4646C25.3464 55.4363 25.2858 55.4096 25.2606 55.4189C24.9336 55.5266 24.9126 55.5697 24.9719 55.9176C24.983 55.9787 24.9894 56.0439 25.0166 56.0994C25.1818 56.4641 25.3234 56.8449 25.5305 57.1859C25.7335 57.5221 25.9923 57.8266 26.247 58.1265C26.3636 58.2711 26.5302 58.3726 26.6754 58.4926ZM20.1374 50.3038C20.1252 50.3185 20.1105 50.3353 20.0983 50.35C20.1272 50.4124 20.1445 50.4806 20.1853 50.5327C20.4189 50.8466 20.6457 51.1622 20.896 51.4617C21.222 51.8538 21.6283 52.1558 22.0669 52.4134C22.1911 52.4849 22.3408 52.5428 22.4794 52.5395C22.5487 52.5379 22.6174 52.3912 22.6881 52.3094C22.7051 52.2906 22.7157 52.269 22.7479 52.2245C22.0171 51.3877 21.1294 50.7737 20.1374 50.3038ZM22.1133 58.0198C20.9215 57.3233 20.0711 56.3528 19.4935 55.13C19.3122 55.1993 19.2565 55.3804 19.3089 55.5181C19.4216 55.8075 19.522 56.1117 19.6905 56.3695C19.8992 56.6883 20.1638 56.9754 20.4147 57.266C20.7585 57.6594 21.1686 57.9706 21.6408 58.1949C21.6754 58.2108 21.7297 58.2305 21.7573 58.2191C21.88 58.1589 21.9945 58.0892 22.1133 58.0198ZM19.5979 47.8008C19.6804 47.8626 19.7382 47.8959 19.7886 47.9397C20.0584 48.1849 20.3355 48.4239 20.5955 48.6817C20.7579 48.8409 20.9009 49.0209 21.0347 49.2048C21.0875 49.2756 21.0746 49.3907 21.1107 49.4759C21.1706 49.603 21.256 49.7164 21.3135 49.8456C21.5661 50.4175 21.9389 50.9022 22.3846 51.3366C22.5158 51.4644 22.6398 51.5985 22.7663 51.7305C22.7779 51.7247 22.7918 51.7168 22.8034 51.7109C22.7892 51.6608 22.7867 51.6048 22.763 51.5629C22.6307 51.3278 22.4868 51.0986 22.3569 50.8615C22.058 50.313 21.7662 49.7583 21.4675 49.2053C21.4497 49.175 21.4379 49.1228 21.416 49.1167C21.1523 49.0617 21.0244 48.8269 20.8535 48.6627C20.6284 48.4454 20.449 48.1845 20.2457 47.9442C20.1041 47.7754 19.9557 47.6084 19.7911 47.4178C19.72 47.5665 19.6579 47.6825 19.5979 47.8008ZM21.3926 47.823C22.3087 49.0237 22.8165 50.4065 23.3281 51.7985C23.3869 51.7269 23.4194 51.649 23.4625 51.5785C23.5107 51.4994 23.5051 51.4834 23.4276 51.4755C23.3178 51.1171 23.2213 50.7597 23.0951 50.4113C22.8961 49.8679 22.6812 49.33 22.4707 48.7924C22.3205 48.4065 22.1471 48.0323 21.8783 47.7114C21.749 47.5568 21.6981 47.5509 21.5566 47.6855C21.5042 47.7308 21.4521 47.7716 21.3926 47.823ZM20.4038 45.6954C20.2649 45.8861 20.1891 46.2509 20.241 46.4555C20.3428 46.8624 20.6218 47.1663 20.8588 47.4938C20.8811 47.5245 20.9552 47.5187 21.0058 47.5291C21.0584 47.5419 21.1389 47.5389 21.1585 47.576C21.2423 47.7116 21.3285 47.6621 21.4222 47.6021C21.5792 47.4998 21.6291 47.3361 21.5468 47.1493C21.3902 46.7897 21.2244 46.4339 20.9275 46.1622C20.7518 46.0021 20.5778 45.8488 20.4038 45.6954ZM19.6932 49.3318C19.6854 49.3469 19.6756 49.3596 19.6701 49.3725C19.7201 49.5123 19.7814 49.6507 19.8246 49.7922C19.893 50.0159 20.0445 50.1096 20.2592 50.1945C20.5477 50.3071 20.8092 50.4847 21.0713 50.6534C21.6344 51.0071 22.1262 51.4515 22.5888 51.9295C22.6364 51.9798 22.6773 52.0319 22.739 52.1034C22.7488 51.8162 22.7516 51.8097 22.5868 51.6526C22.3744 51.4452 22.1525 51.2459 21.9425 51.0364C21.8075 50.8993 21.6844 50.7519 21.5592 50.6022C21.3889 50.4 21.2528 50.1557 21.0501 49.9981C20.7907 49.7939 20.4822 49.6485 20.1874 49.4997C20.0325 49.4214 19.8566 49.3862 19.6932 49.3318ZM20.9637 58.605C20.9626 58.5893 20.9615 58.5736 20.9604 58.5579C19.8789 58.0613 19.0964 57.2899 18.7205 56.1176C18.6653 56.2609 18.6129 56.3976 18.6141 56.5338C18.6262 57.039 18.8291 57.4667 19.1466 57.8537C19.4394 58.2121 19.8038 58.4463 20.2473 58.5457C20.4799 58.5985 20.724 58.5874 20.9637 58.605ZM22.7252 48.9427C22.7032 48.6041 22.6904 48.2908 22.6552 47.9803C22.6382 47.8162 22.613 47.6425 22.5408 47.5011C22.4236 47.2738 22.3217 47.0499 22.3297 46.7894C22.3313 46.7672 22.3226 46.7331 22.3079 46.7209C22.1504 46.5866 21.9926 46.4568 21.8265 46.3174C21.7537 46.3969 21.7082 46.4694 21.6422 46.5181C21.5077 46.6176 21.5146 46.7364 21.5646 46.8761C21.6112 47.0023 21.6393 47.136 21.6858 47.2621C21.7062 47.3194 21.7392 47.3865 21.7837 47.4188C22.002 47.5754 22.1659 47.7748 22.2873 48.0069C22.4416 48.306 22.5711 48.6101 22.7252 48.9427ZM19.594 47.9456C19.5727 47.9931 19.5557 48.0119 19.5588 48.03C19.5734 48.3792 19.59 48.7307 19.6158 49.0785C19.6177 49.1143 19.6858 49.1595 19.7316 49.174C20.0925 49.3031 20.4514 49.4298 20.7625 49.6601C20.8768 49.7444 21.0034 49.8139 21.1249 49.892C21.1277 49.823 21.1019 49.7787 21.0765 49.73C21.0115 49.6115 20.891 49.491 20.8929 49.3729C20.897 49.1657 20.7682 49.0648 20.661 48.9453C20.504 48.7732 20.3307 48.611 20.1594 48.4511C19.9775 48.2838 19.7906 48.1251 19.594 47.9456ZM22.7061 46.4935C22.5326 46.5477 22.4287 46.7163 22.4666 46.8999C22.512 47.1018 22.5684 47.3067 22.6599 47.4897C22.7672 47.7006 22.8573 47.9014 22.8104 48.1456C22.7966 48.2116 22.8071 48.2815 22.8067 48.3484C22.814 48.7662 22.8104 49.181 22.9412 49.5878C23.0824 50.0355 23.2053 50.4908 23.3373 50.9423C23.3553 51.0016 23.3685 51.0651 23.3864 51.1244C23.4044 51.1837 23.4247 51.241 23.443 51.2959C23.26 49.6826 23.0921 48.077 22.7061 46.4935ZM27.897 59.1177C27.771 58.9188 27.6608 58.7478 27.5595 58.5775C27.3308 58.197 27.1232 57.8024 27.0806 57.3486C27.0706 57.2407 27.0376 57.1736 26.9418 57.1108C26.7526 56.9831 26.5783 56.8342 26.3989 56.6939C26.3694 56.6694 26.3424 56.6429 26.315 56.6208C26.356 56.7309 26.4386 56.8218 26.4577 56.9258C26.5453 57.4365 26.6788 57.9283 26.8915 58.4058C27.0893 58.842 27.4501 59.0046 27.897 59.1177ZM21.6518 45.595C21.7529 45.3123 21.8452 45.058 21.933 44.8034C21.9442 44.773 21.9433 44.7238 21.9269 44.7048C21.7658 44.5278 21.6071 44.3488 21.4314 44.1887C21.3896 44.1499 21.2356 44.1498 21.2129 44.1861C21.0353 44.4475 20.8813 44.7218 20.7164 44.9931C21.051 45.2073 21.3494 45.3988 21.6518 45.595ZM22.6426 46.2947C22.4986 45.8244 22.3254 45.3253 22.0223 44.8635C21.5528 45.7596 21.6626 46.2094 22.3622 46.62C22.4499 46.5193 22.5328 46.4227 22.6426 46.2947ZM32.3033 57.3008C31.6909 56.6445 30.9308 56.2987 30.1249 56.0298C30.2069 56.1296 30.2966 56.2142 30.3986 56.2842C30.5067 56.3613 30.6066 56.4289 30.5003 56.5706C31.1568 57.1431 31.6461 57.1946 32.3033 57.3008ZM21.446 46.5461C21.5142 46.4373 21.6545 46.3204 21.6496 46.204C21.6399 45.9712 21.6352 45.7009 21.349 45.5862C21.3056 45.5696 21.2703 45.5336 21.232 45.5084C21.0489 45.3879 20.8638 45.265 20.6681 45.1346C20.585 45.2937 20.5196 45.425 20.4674 45.5283C20.7905 45.8688 21.1037 46.193 21.446 46.5461ZM23.2423 59.2696C23.2412 59.2539 23.2446 59.2385 23.2435 59.2228C23.2127 59.2161 23.1745 59.22 23.1581 59.2009C23.1269 59.1697 23.108 59.1236 23.0839 59.0862C23.1211 59.0666 23.1646 59.0207 23.193 59.0295C23.3392 59.0736 23.4199 59.0082 23.4823 58.8878C23.503 58.8491 23.5534 58.8305 23.5871 58.7973C23.6351 58.7517 23.6789 58.7014 23.7183 58.6507C23.7353 58.6319 23.7311 58.5981 23.7416 58.5765C23.9042 58.3073 23.6761 58.0094 23.8212 57.7344C23.7823 57.7472 23.7653 57.766 23.7548 57.7876C23.6333 57.984 23.5183 58.1831 23.3886 58.3699C23.356 58.4188 23.2701 58.4639 23.2172 58.4555C22.8821 58.3997 22.6484 58.6347 22.7271 58.9618C22.7389 59.014 22.735 59.0673 22.7471 59.115C22.7575 59.156 22.7791 59.1955 22.8059 59.2264C22.9448 59.4018 23.0969 59.2746 23.2423 59.2696ZM16.6959 55.0008C17.0629 55.0165 17.7733 54.7317 17.8969 54.5377C17.8544 54.4163 17.8196 54.3133 17.781 54.2012C17.7656 54.1978 17.7369 54.1935 17.715 54.1874C17.4472 54.1276 17.2299 54.2612 16.9995 54.3603C16.799 54.446 16.6914 54.6055 16.7 54.8226C16.7006 54.8762 16.6963 54.9339 16.6959 55.0008ZM30.2634 57.033C30.1299 56.9362 30.0397 56.8269 29.928 56.7986C29.792 56.7663 29.7217 56.6898 29.6555 56.589C29.5892 56.4882 29.5346 56.3815 29.4636 56.2848C29.3864 56.181 29.3072 56.0748 29.2079 55.9983C28.9539 55.8101 28.6509 55.9262 28.3708 55.8812C28.5094 55.9984 28.661 56.0921 28.798 56.2026C29.0547 56.4133 29.3017 56.6367 29.5537 56.8515C29.6376 56.9246 29.7219 57.0223 29.8227 57.0475C29.9433 57.0764 30.0842 57.0421 30.2634 57.033ZM19.1803 53.5584C19.0633 53.5722 18.922 53.5819 18.7845 53.6008C18.62 53.6223 18.5855 53.6978 18.6594 53.846C18.6769 53.8808 18.66 53.9287 18.6592 53.971C18.6168 53.9701 18.5599 53.986 18.5304 53.9615C18.4924 53.932 18.4721 53.8747 18.4422 53.8257C18.2467 53.9363 18.4023 54.1262 18.3253 54.2634C18.4545 54.2974 18.5643 54.3523 18.6718 54.3468C18.8868 54.3358 19.0587 54.2123 19.1783 54.0425C19.2279 53.9747 19.208 53.8506 19.2083 53.7546C19.2081 53.6966 19.1905 53.6328 19.1803 53.5584ZM19.3199 58.9597C19.3239 58.9355 19.3324 58.9116 19.3364 58.8873C18.7312 58.7113 18.3631 58.3139 18.1773 57.7134C18.154 57.9706 18.1603 58.2187 18.1667 58.4669C18.1733 58.6816 18.3038 58.8183 18.4907 58.8566C18.7654 58.9146 19.0433 58.9283 19.3199 58.9597ZM21.7473 61.0344C21.7624 61.0422 21.773 61.0497 21.788 61.0575C22.1819 60.7672 22.5276 60.4355 22.6579 59.9363C22.4256 59.7877 22.4214 59.7829 22.2761 59.9998C22.1634 60.1679 22.0633 60.3457 21.9698 60.5263C21.8884 60.6922 21.8221 60.8658 21.7473 61.0344ZM24.4544 56.5848C24.4404 56.5927 24.4265 56.6006 24.4081 56.6082C24.4109 56.6307 24.4137 56.6532 24.4185 56.6781C24.459 56.8261 24.5131 56.9707 24.5423 57.1201C24.6039 57.437 24.6842 57.7419 24.9097 57.9838C24.945 58.0199 25.014 58.0227 25.0707 58.0402C25.077 57.9849 25.1064 57.9179 25.0895 57.8743C25.0313 57.725 24.9547 57.5832 24.8852 57.4353C24.7885 57.2319 24.6963 57.0288 24.5973 56.8274C24.5564 56.7463 24.5021 56.6642 24.4544 56.5848ZM25.0966 58.417C25.1186 58.5436 25.1402 58.6746 25.1687 58.8039C25.2003 58.9512 25.2544 59.0958 25.2614 59.2436C25.2704 59.4562 25.3928 59.6124 25.4781 59.7883C25.486 59.8023 25.5286 59.7987 25.5553 59.8006C25.5165 59.6595 25.4656 59.533 25.4484 59.4023C25.4149 59.1276 25.3952 58.8495 25.3706 58.5755C25.3592 58.4273 25.276 58.3744 25.0966 58.417ZM18.3961 51.5329C18.5124 51.6195 18.5963 51.6926 18.6901 51.753C18.8434 51.8535 18.9967 51.954 19.1629 52.0309C19.3161 52.1024 19.4861 52.126 19.6479 52.0196C19.284 51.7184 18.84 51.6569 18.3961 51.5329ZM21.0767 52.9232C21.0848 52.9037 21.093 52.8842 21.1035 52.8627C20.8169 52.5404 20.415 52.4217 20.0257 52.2838C20.0062 52.2757 19.9551 52.3032 19.9518 52.3186C19.9465 52.3606 19.9484 52.4254 19.9737 52.4451C20.0371 52.4944 20.1147 52.5313 20.1926 52.5638C20.4347 52.6708 20.6771 52.7734 20.9219 52.8739C20.9674 52.8928 21.0244 52.9059 21.0767 52.9232ZM27.0028 53.6611C27.0015 53.6788 26.9978 53.6986 26.9965 53.7164C27.1263 53.7415 27.2551 53.78 27.3862 53.7873C27.5532 53.7929 27.7218 53.7762 27.8859 53.7593C27.9354 53.754 27.9827 53.7173 28.0311 53.6963C27.9873 53.6551 27.9522 53.5856 27.9037 53.5776C27.5959 53.5149 27.2942 53.5508 27.0028 53.6611ZM24.848 49.8458C24.7895 50.1874 24.7347 50.5092 24.6774 50.833C24.7038 50.8394 24.7256 50.8455 24.7519 50.8518C24.858 50.5316 24.9661 50.2137 25.0751 49.8826C24.9805 49.8645 24.9143 49.8551 24.848 49.8458ZM25.7751 49.3448C25.7692 49.3332 25.7634 49.3216 25.7575 49.31C25.5604 49.3514 25.3611 49.3903 25.1637 49.4361C25.1159 49.4482 25.0498 49.4679 25.0294 49.5021C25.0033 49.5537 25.0114 49.6257 25.0024 49.6876C25.0522 49.6778 25.1102 49.6776 25.1542 49.6563C25.2486 49.6164 25.3375 49.5604 25.4278 49.5157C25.5457 49.4596 25.6592 49.4032 25.7751 49.3448ZM18.1595 51.4419C18.0473 51.2685 17.8155 51.2649 17.6457 51.4198C17.8147 51.4278 17.9793 51.4354 18.1595 51.4419ZM18.1547 54.0032C18.137 54.0019 18.1192 54.0006 18.1035 54.0017C17.9942 54.1543 18.0013 54.3311 18.1341 54.4368C18.1407 54.2855 18.1488 54.1456 18.1547 54.0032ZM21.6707 56.9051C21.526 56.9302 21.3995 56.9522 21.2415 56.9763C21.4252 57.088 21.5862 57.0529 21.6707 56.9051ZM21.1434 56.3666C21.1314 56.3479 21.1197 56.3247 21.1077 56.306C20.9888 56.3754 20.8723 56.4427 20.7554 56.5145C20.7695 56.5356 20.7812 56.5588 20.7953 56.5799C20.91 56.5057 21.0269 56.434 21.1434 56.3666ZM21.2765 56.4679C21.2621 56.4512 21.2481 56.4301 21.2337 56.4134C21.1371 56.5135 20.9712 56.5236 20.9137 56.6689C20.926 56.6832 20.936 56.6995 20.9483 56.7138C21.0593 56.6305 21.1679 56.5492 21.2765 56.4679ZM21.0655 56.8206C21.1961 56.8949 21.3264 56.8531 21.4543 56.8134C21.4815 56.8065 21.4964 56.7562 21.5167 56.722C21.3489 56.7588 21.2084 56.7887 21.0655 56.8206ZM18.743 58.2146C18.9212 58.3102 19.1389 58.2637 19.1449 58.1503C19.0207 58.1702 18.8966 58.1901 18.743 58.2146ZM20.978 56.1269C20.8676 56.2014 20.7573 56.2759 20.6306 56.3603C20.7601 56.3899 20.9311 56.2797 20.978 56.1269ZM18.5674 58.0834C18.7462 58.1412 18.9095 58.075 18.9568 57.9468C18.833 57.9913 18.7164 58.0296 18.5674 58.0834ZM20.4947 56.145C20.5111 56.1641 20.5276 56.1832 20.5464 56.2002C20.6345 56.1241 20.7203 56.05 20.8084 55.9739C20.7982 55.962 20.7858 55.9477 20.7755 55.9358C20.6812 56.0048 20.5869 56.0737 20.4947 56.145ZM19.4763 58.4089C19.4019 58.4191 19.3589 58.4271 19.3142 58.4283C19.2695 58.4294 19.2213 58.417 19.1766 58.4182C19.1565 58.4189 19.1327 58.4395 19.1225 58.4566C19.1174 58.4652 19.1308 58.4951 19.1435 58.505C19.2048 58.5519 19.3954 58.5078 19.4763 58.4089ZM22.1331 55.1628C22.1475 55.1795 22.1616 55.2006 22.176 55.2173C22.2593 55.1453 22.3451 55.0713 22.4285 54.9993C22.4203 54.9898 22.4144 54.9782 22.4062 54.9686C22.3166 55.0335 22.2227 55.098 22.1331 55.1628ZM22.5931 55.1274C22.4807 55.1995 22.3915 55.2599 22.2931 55.3241C22.4417 55.3662 22.5378 55.3041 22.5931 55.1274ZM18.5213 57.8904C18.5337 57.9047 18.5416 57.9186 18.5539 57.9329C18.6316 57.8784 18.7048 57.8235 18.7824 57.7689C18.7701 57.7546 18.7601 57.7383 18.7478 57.724C18.6643 57.767 18.5379 57.7555 18.5213 57.8904ZM25.5132 60.1613C25.456 60.3021 25.4124 60.4105 25.3708 60.5212C25.4667 60.4301 25.591 60.3477 25.5132 60.1613ZM20.0349 57.2114C20.0294 57.1954 20.0218 57.177 20.0163 57.161C19.9091 57.162 19.8095 57.1815 19.7388 57.2633C19.7464 57.2818 19.7519 57.2978 19.7595 57.3162C19.8491 57.2804 19.9432 57.2449 20.0349 57.2114ZM21.9075 57.1746C21.9068 57.1545 21.9036 57.1364 21.9049 57.1187C21.7978 57.1197 21.6882 57.1229 21.5831 57.1263C21.5838 57.1465 21.5866 57.169 21.5874 57.1891C21.6928 57.1812 21.8024 57.1781 21.9075 57.1746Z" fill="black"/>
<path d="M26.9462 50.2629C26.9159 50.0978 26.9204 49.9442 26.8576 49.828C26.7119 49.5629 26.7149 49.2775 26.6822 48.994C26.6635 48.823 26.6567 48.6418 26.5943 48.4877C26.5492 48.3728 26.4314 48.2749 26.3277 48.1982C26.2493 48.1411 26.2375 48.0889 26.2947 48.0395C26.3328 48.0066 26.441 47.9922 26.4636 48.0185C26.6281 48.209 26.8066 48.3917 26.8264 48.6698C26.8441 48.9456 26.8776 49.2203 26.911 49.495C26.9163 49.5444 26.9417 49.5932 26.9627 49.6416C27.0726 49.9085 27.1753 50.1815 27.2967 50.4426C27.3411 50.5373 27.4366 50.6046 27.5038 50.6921C27.6057 50.8245 27.6959 50.9628 27.8002 51.0931C27.8513 51.1571 27.9092 51.2194 27.9725 51.2686C28.2142 51.4426 28.4561 51.612 28.7028 51.7774C28.7689 51.8202 28.8471 51.8482 28.9257 51.8718C29.0262 51.9015 29.1297 51.9203 29.2308 51.9411C29.3825 51.9723 29.5193 52.0247 29.6873 51.9544C29.8533 51.8818 30.2418 52.091 30.3545 52.289C30.406 52.3775 30.4364 52.4802 30.4559 52.5798C30.466 52.6252 30.4239 52.6823 30.4046 52.7322C30.3591 52.7133 30.3017 52.7046 30.2661 52.673C30.1398 52.57 30.023 52.4588 29.9014 52.3517C29.788 52.2541 29.6667 52.2051 29.5062 52.2022C29.241 52.1984 28.9745 52.1499 28.7116 52.115C28.674 52.11 28.6111 52.0853 28.6065 52.056C28.5566 51.8247 28.3057 51.8375 28.1772 51.7032C28.1234 51.6457 28.041 51.6128 27.9705 51.5697C27.9545 51.5753 27.9385 51.5808 27.9201 51.5884C27.9602 51.7408 27.9816 51.9053 28.0494 52.0463C28.1172 52.1874 28.1538 52.3262 28.0878 52.4664C27.9052 52.8569 27.6208 53.144 27.1984 53.2759C27.1687 53.2849 27.137 53.2915 27.1052 53.2981C26.7866 53.3529 26.7093 53.3115 26.5881 53.017C26.554 52.9342 26.5267 52.8496 26.4902 52.7688C26.3998 52.5725 26.4482 52.46 26.6551 52.377C26.7311 52.3447 26.7995 52.2939 26.8721 52.2479C26.8624 52.2271 26.8528 52.2063 26.8408 52.1876C26.7818 52.2011 26.7231 52.2102 26.6682 52.2285C26.6112 52.2444 26.5557 52.2716 26.4826 52.264C26.5303 52.2228 26.5844 52.1844 26.6235 52.1382C26.6527 52.1046 26.6652 52.0564 26.6838 52.0154C26.6405 52.0279 26.5866 52.0328 26.5515 52.0548C26.4834 52.1011 26.4256 52.1594 26.3327 52.2396C26.3863 52.0561 26.5686 51.9735 26.4962 51.7741C26.4323 51.8542 26.3705 51.9367 26.2981 52.0117C26.262 52.047 26.203 52.0605 26.1546 52.0815C26.1742 52.0271 26.1852 51.9677 26.2175 51.9232C26.2716 51.8558 26.3468 51.8033 26.4032 51.7338C26.4328 51.6958 26.437 51.6381 26.4563 51.5882C26.4416 51.5759 26.4224 51.5634 26.4077 51.5511C26.3434 51.6067 26.2746 51.6619 26.2123 51.7198C26.1933 51.7362 26.1931 51.7697 26.174 51.7861C26.1284 51.8297 26.0763 51.8705 26.0246 51.9068C26.0174 51.913 25.9863 51.8817 25.9671 51.8692C26.0041 51.8206 26.0367 51.7716 26.0758 51.7254C26.1197 51.6751 26.1786 51.6325 26.2139 51.5771C26.2339 51.5473 26.2201 51.4927 26.2209 51.4504C26.1824 51.4587 26.138 51.4555 26.1118 51.4781C26.0383 51.5374 25.9774 51.6066 25.9101 51.6731C25.8419 51.5989 25.8439 51.6013 25.9616 51.4872C26.0191 51.4334 26.0663 51.3677 26.1296 51.2964C25.9175 51.2675 25.8065 51.3509 25.7393 51.5668C25.501 51.44 25.2602 51.3153 25.0293 51.1778C25.0016 51.1602 24.9944 51.0749 25.0089 51.0291C25.0925 50.7117 25.2886 50.4717 25.5501 50.2833C25.6794 50.1924 25.8215 50.1113 25.9688 50.0507C26.1504 49.977 26.3184 49.9692 26.4798 50.1417C26.5809 50.254 26.7632 50.2629 26.9462 50.2629ZM27.4142 51.1228C27.3971 51.2042 27.397 51.2666 27.3715 51.3094C27.3254 51.3908 27.3222 51.4642 27.4223 51.4693C27.5578 51.477 27.5138 51.5608 27.5259 51.6086C27.4758 51.6517 27.4377 51.6847 27.402 51.7155C27.4417 51.7519 27.4778 51.8081 27.5239 51.8182C27.6096 51.8356 27.7018 51.8267 27.8175 51.8308C27.7939 51.7264 27.7728 51.649 27.7589 51.5654C27.7258 51.3777 27.4793 51.2704 27.5631 51.04C27.5658 51.0335 27.5425 51.0162 27.5367 51.0046C27.3443 50.6759 27.0378 50.5039 26.6746 50.4059C26.6452 50.4729 26.5816 50.5486 26.5829 50.6223C26.5832 50.7094 26.6419 50.7918 26.6756 50.879C26.7206 50.8444 26.7676 50.8121 26.8336 50.7634C26.8575 50.7719 26.9122 50.787 26.9385 50.7934C26.9466 50.8654 26.9516 50.9193 26.9566 50.9733C27.0118 50.9505 27.0691 50.9302 27.1403 50.9019C27.2056 50.9246 27.2426 50.9675 27.189 51.0595C27.1734 51.0896 27.1835 51.1349 27.1829 51.1728C27.2256 51.1693 27.2679 51.1701 27.3085 51.1642C27.3283 51.1679 27.345 51.1535 27.4142 51.1228ZM26.3466 50.4979C26.347 50.431 26.373 50.3503 26.3404 50.3078C26.2996 50.2557 26.2137 50.2092 26.1472 50.2043C25.9491 50.1965 25.786 50.2917 25.6424 50.424C25.5897 50.4736 25.5472 50.5352 25.5006 50.5921C25.5154 50.6043 25.5321 50.6189 25.5492 50.6291C25.5832 50.5914 25.6128 50.5534 25.653 50.5229C25.7381 50.4577 25.8218 50.3813 25.923 50.3396C26.1647 50.2391 26.2252 50.2659 26.3466 50.4979ZM27.5465 52.8797C27.7118 52.816 27.8103 52.6603 27.8974 52.506C27.9514 52.4096 27.967 52.288 27.9707 52.1767C27.9733 52.1412 27.9011 52.0913 27.8539 52.0655C27.8323 52.055 27.7871 52.0941 27.7523 52.1116C27.9159 52.1325 27.9313 52.2274 27.8797 52.3218C27.781 52.5109 27.6605 52.694 27.5465 52.8797ZM30.1085 52.3267C30.116 52.3161 30.1279 52.3058 30.1354 52.2952C30.062 52.2006 30.0158 52.07 29.8178 52.0912C29.9295 52.1819 30.0202 52.2533 30.1085 52.3267Z" fill="black"/>
<path d="M29.9439 58.8348C30.0527 58.72 29.9153 58.6765 29.8782 58.6046C29.761 58.3773 29.639 58.1542 29.5262 57.9272C29.4526 57.7746 29.4314 57.5766 29.3214 57.4637C29.085 57.2188 28.8108 57.0023 28.538 56.7971C28.2145 56.5525 27.8716 56.3288 27.5359 56.0989C27.1937 55.8662 26.8539 55.6316 26.5087 55.4099C26.2914 55.269 26.0636 55.1497 25.8389 55.0194C25.849 55.0023 25.8568 54.9873 25.867 54.9702C26.5134 55.3143 27.1677 55.6434 27.7812 56.041C28.4012 56.4412 29.0062 56.8627 29.5424 57.4018C29.5806 57.3064 29.6416 57.1748 29.6005 57.1271C29.4568 56.9559 29.2992 56.7927 29.1168 56.6633C28.6311 56.3175 28.1353 55.9888 27.6371 55.6622C27.1834 55.3679 26.6934 55.1423 26.1709 54.9947C26.0397 54.9583 25.916 54.9113 25.7898 54.8663L25.7855 54.8035C25.8356 54.7893 25.8891 54.7598 25.9332 54.7675C26.0145 54.7846 26.0894 54.828 26.1674 54.8605C26.6374 55.0534 27.1078 55.2419 27.5779 55.4347C27.7318 55.4973 27.8744 55.5904 28.0337 55.64C28.2124 55.6977 28.3996 55.7315 28.5878 55.752C28.8313 55.7788 29.0767 55.7789 29.3212 55.7924C29.3228 55.7702 29.3268 55.7459 29.3285 55.7237C29.1207 55.6661 28.913 55.6085 28.7028 55.5529C27.935 55.3427 27.2346 54.9744 26.5128 54.6538C26.3507 54.5816 26.187 54.4402 25.9916 54.5799C25.9784 54.6079 25.9563 54.6353 25.9215 54.6528C25.7471 54.7494 25.6269 54.928 25.4768 55.0576C25.4792 55.0555 25.4816 55.0535 25.486 55.0538C25.5374 55.2048 25.5621 55.3249 25.6171 55.4271C25.692 55.562 25.785 55.6938 25.8857 55.8105C26.1463 56.1219 26.3973 56.4416 26.682 56.728C26.8797 56.9232 27.123 57.0749 27.3567 57.2349C27.7222 57.4848 28.0795 57.7542 28.4705 57.9614C28.7561 58.114 29.009 58.2865 29.2068 58.5398C29.1614 58.5208 29.1087 58.508 29.0684 58.4805C28.8661 58.3474 28.6697 58.1969 28.46 58.0744C28.2116 57.9313 27.948 57.8138 27.6993 57.675C27.545 57.5879 27.4037 57.4771 27.2483 57.3742C27.2906 57.8325 27.4389 58.245 27.6904 58.6183C27.769 58.7334 27.8663 58.8365 27.9565 58.9457C28.1163 59.1404 28.3309 59.1963 28.5749 59.1852C28.9401 59.1651 29.2924 59.0771 29.6566 58.9789C29.6223 58.9295 29.6041 58.9036 29.5575 58.8399C29.7009 58.9531 29.8449 58.9369 29.9439 58.8348ZM29.2065 58.5442C29.2044 58.5418 29.2044 58.5418 29.2065 58.5442C29.0649 58.2839 28.9847 58.008 28.9502 57.7177C28.9284 57.5286 28.7657 57.4654 28.6266 57.415C28.0503 57.2099 27.5187 56.9121 27.0391 56.5444C26.6568 56.2509 26.3216 55.8916 25.9763 55.5494C25.8492 55.4263 25.7531 55.2764 25.643 55.1345C25.6104 55.0919 25.5918 55.0415 25.5684 54.9951C25.58 54.9893 25.594 54.9814 25.6035 54.9731C25.6399 55.0249 25.6715 55.0808 25.7082 55.1281C25.9972 55.4773 26.288 55.8333 26.6641 56.0907C27.2017 56.4582 27.7539 56.8088 28.3041 57.1571C28.4577 57.2531 28.634 57.3129 28.7978 57.3919C29.0068 57.4942 29.1023 57.6529 29.1291 57.8959C29.1665 58.2378 29.2878 58.5613 29.5431 58.8233C29.3751 58.831 29.2806 58.7505 29.2065 58.5442Z" fill="white"/>
<path d="M30.0241 58.6242C29.8405 58.3586 29.6313 58.0153 29.6036 57.6027C29.5949 57.4771 29.6651 57.3416 29.7036 57.2128C29.7099 57.1865 29.7439 57.1488 29.7661 57.1504C30.0003 57.152 30.2369 57.06 30.4705 57.1909C30.9484 57.4602 31.3627 57.8052 31.7522 58.1841C31.8481 58.2759 31.9172 58.3993 31.9845 58.5158C32.0023 58.5461 31.9805 58.6315 31.9501 58.6494C31.5104 58.9251 31.0242 58.9832 30.5211 58.9061C30.2321 58.8604 30.2331 58.8471 30.0241 58.6242Z" fill="white"/>
<path d="M19.8584 47.3222C19.9775 47.2193 20.0632 47.1163 20.1769 47.0555C20.3095 46.9826 20.4347 47.0699 20.5167 47.1696C20.6603 47.3408 20.7849 47.5284 20.9167 47.7099C20.9245 47.6949 20.9323 47.6798 20.94 47.6648C21.0094 47.6922 21.0935 47.7028 21.1503 47.7494C21.4289 47.9662 21.5919 48.2704 21.7619 48.5685C21.9422 48.8785 22.1246 49.1909 22.2815 49.517C22.4558 49.8779 22.6118 50.2463 22.7586 50.6186C22.9112 51.0024 23.0433 51.3914 23.1775 51.7828C23.2403 51.9615 23.2134 51.993 23.0335 52.0735C22.9875 52.0925 22.9435 52.1138 22.8764 52.1468C22.9105 51.9552 22.9451 51.7881 22.9639 51.6221C22.9699 51.5713 22.941 51.5089 22.9132 51.4622C22.6395 51.0249 22.3495 50.5975 22.0943 50.1526C21.9201 49.8498 21.8015 49.5197 21.6461 49.2049C21.6031 49.1214 21.5335 49.036 21.4545 48.9878C21.0327 48.7449 20.7412 48.3687 20.4401 48.0008C20.2581 47.7754 20.0661 47.5628 19.8584 47.3222Z" fill="white"/>
<path d="M32.1995 58.6252C32.0942 58.2962 31.8511 58.111 31.631 57.9186C31.4632 57.7724 31.2712 57.6512 31.0864 57.5239C30.9208 57.4091 30.748 57.3005 30.5776 57.1898C30.5543 57.1725 30.5358 57.151 30.524 57.0989C30.6654 57.1181 30.8065 57.1419 30.9721 57.1652C30.944 57.123 30.9385 57.1069 30.934 57.1066C30.6114 57.0941 30.378 56.9297 30.1169 56.7477C29.8516 56.5609 29.6757 56.3427 29.5304 56.0732C29.4912 55.9989 29.4196 55.9401 29.3559 55.8663C29.5408 55.8397 29.7192 55.8104 29.8724 55.9733C29.9903 56.1002 30.1276 56.2062 30.241 56.3328C30.303 56.3998 30.3314 56.5001 30.3839 56.5754C30.424 56.6363 30.471 56.6956 30.5282 56.7377C30.7082 56.8691 30.8882 57.0006 31.0785 57.115C31.1705 57.1686 31.2856 57.1815 31.3925 57.2138C31.5935 57.2732 31.7917 57.3391 31.9953 57.3919C32.0654 57.4104 32.1412 57.4115 32.2149 57.4102C32.2798 57.4083 32.3656 57.3633 32.406 57.3908C32.4888 57.4482 32.5564 57.5312 32.6171 57.616C32.7101 57.7478 32.7959 57.8857 32.8773 58.0234C32.9172 58.0888 32.9451 58.1644 32.9665 58.2374C33.0056 58.3742 32.9499 58.4638 32.8138 58.494C32.6071 58.5435 32.4079 58.5825 32.1995 58.6252Z" fill="white"/>
<path d="M26.6754 58.4925C26.5302 58.3726 26.366 58.269 26.2426 58.1261C25.9878 57.8263 25.729 57.5217 25.5261 57.1855C25.319 56.8445 25.1773 56.4637 25.0121 56.0991C24.985 56.0435 24.9786 55.9783 24.9675 55.9173C24.9082 55.5693 24.9312 55.5286 25.2562 55.4185C25.2858 55.4095 25.3463 55.4363 25.3621 55.4642C25.649 55.8735 25.9478 56.2725 26.2111 56.6979C26.3128 56.8638 26.3371 57.0798 26.3873 57.2776C26.4874 57.6777 26.5786 58.0771 26.6754 58.4925Z" fill="white"/>
<path d="M20.1374 50.3038C21.1294 50.7737 22.0171 51.3877 22.7455 52.2265C22.7133 52.271 22.7007 52.2902 22.6858 52.3114C22.6174 52.3912 22.5463 52.54 22.477 52.5416C22.3408 52.5427 22.1866 52.4846 22.0645 52.4154C21.626 52.1579 21.2197 51.8558 20.8936 51.4638C20.6433 51.1643 20.4166 50.8486 20.183 50.5347C20.1421 50.4826 20.1248 50.4144 20.0959 50.3521C20.1106 50.3353 20.1252 50.3185 20.1374 50.3038Z" fill="white"/>
<path d="M19.5979 47.8007C19.6599 47.6848 19.7199 47.5664 19.7976 47.4204C19.9621 47.611 20.1105 47.778 20.2521 47.9469C20.4554 48.1871 20.6349 48.448 20.86 48.6653C21.0309 48.8296 21.1543 49.064 21.4225 49.1193C21.4443 49.1254 21.4561 49.1776 21.474 49.2079C21.7682 49.7606 22.0624 50.3132 22.3634 50.8641C22.4933 51.1012 22.6372 51.3304 22.7694 51.5655C22.7952 51.6098 22.7978 51.6658 22.8099 51.7135C22.7983 51.7194 22.7843 51.7273 22.7728 51.7331C22.6463 51.6011 22.5223 51.4671 22.3911 51.3392C21.9454 50.9049 21.5726 50.4201 21.3199 49.8482C21.2645 49.7214 21.1747 49.6077 21.1172 49.4785C21.0787 49.3954 21.0916 49.2803 21.0411 49.2074C20.9073 49.0236 20.7643 48.8435 20.602 48.6843C20.3419 48.4265 20.0673 48.1855 19.795 47.9424C19.7382 47.8958 19.6783 47.8602 19.5979 47.8007Z" fill="white"/>
<path d="M21.3926 47.8229C21.4521 47.7715 21.5042 47.7307 21.5546 47.6831C21.6961 47.5484 21.7494 47.5523 21.8762 47.7089C22.1426 48.0319 22.316 48.4061 22.4686 48.7899C22.6812 49.3299 22.8985 49.8657 23.093 50.4088C23.2192 50.7572 23.3157 51.1147 23.4256 51.473C23.5031 51.4809 23.5086 51.497 23.4604 51.576C23.4173 51.6465 23.3848 51.7244 23.326 51.796C22.8144 50.404 22.3087 49.0236 21.3926 47.8229Z" fill="white"/>
<path d="M20.4038 45.6954C20.5799 45.8511 20.7542 46 20.9254 46.1598C21.2224 46.4315 21.3882 46.7873 21.5448 47.1469C21.627 47.3337 21.5771 47.4974 21.4201 47.5997C21.3265 47.6597 21.2403 47.7092 21.1565 47.5736C21.1366 47.5409 21.0563 47.5395 21.0037 47.5267C20.9555 47.5143 20.8791 47.5221 20.8568 47.4914C20.6197 47.1639 20.3408 46.86 20.239 46.4532C20.1891 46.2509 20.2628 45.8837 20.4038 45.6954Z" fill="white"/>
<path d="M19.6932 49.3318C19.859 49.3841 20.0349 49.4193 20.1854 49.4973C20.4822 49.6484 20.7883 49.7958 21.0481 49.9956C21.2508 50.1533 21.3868 50.3976 21.5572 50.5997C21.6803 50.7471 21.8054 50.8968 21.9404 51.0339C22.1504 51.2434 22.3724 51.4427 22.5847 51.6502C22.7471 51.8093 22.7444 51.8158 22.7369 52.1009C22.6773 52.0318 22.6344 51.9774 22.5868 51.927C22.1242 51.449 21.6345 51.007 21.0692 50.651C20.8048 50.4843 20.5413 50.3043 20.2572 50.192C20.0425 50.1071 19.8885 50.0155 19.8225 49.7897C19.7794 49.6482 19.7205 49.5078 19.6681 49.3701C19.6756 49.3595 19.6854 49.3468 19.6932 49.3318Z" fill="white"/>
<path d="M22.7252 48.9426C22.5732 48.6124 22.4393 48.308 22.289 48.0136C22.1701 47.7795 22.0017 47.5797 21.7854 47.4255C21.7389 47.3909 21.7079 47.3261 21.6876 47.2689C21.6411 47.1427 21.6129 47.009 21.5664 46.8829C21.514 46.7452 21.5095 46.6243 21.6439 46.5248C21.71 46.4761 21.7555 46.4036 21.8282 46.3241C21.9923 46.4611 22.1522 46.5933 22.3097 46.7276C22.3264 46.7422 22.333 46.774 22.3314 46.7961C22.3235 47.0566 22.4277 47.2785 22.5426 47.5078C22.6147 47.6492 22.642 47.8253 22.6569 47.987C22.6884 48.2883 22.7011 48.6017 22.7252 48.9426Z" fill="white"/>
<path d="M19.5941 47.9455C19.793 48.1229 19.9776 48.2837 20.1615 48.4534C20.3328 48.6132 20.5061 48.7755 20.6631 48.9476C20.7748 49.0674 20.9011 49.1704 20.895 49.3752C20.8931 49.4933 21.0116 49.6114 21.0786 49.7323C21.1044 49.7766 21.1322 49.8232 21.127 49.8943C21.0055 49.8162 20.879 49.7467 20.7646 49.6624C20.4535 49.4321 20.0926 49.303 19.7337 49.1763C19.6879 49.1618 19.6222 49.1145 19.6179 49.0808C19.5921 48.733 19.5755 48.3814 19.5609 48.0323C19.5557 48.0118 19.5703 47.995 19.5941 47.9455Z" fill="white"/>
<path d="M22.7062 46.4934C23.0922 48.077 23.2577 49.6845 23.4475 51.2961C23.4271 51.2389 23.4068 51.1816 23.3909 51.1246C23.3729 51.0653 23.3573 51.0039 23.3418 50.9425C23.2097 50.491 23.089 50.0381 22.9457 49.588C22.8148 49.1812 22.8164 48.7641 22.8112 48.3487C22.8096 48.2794 22.8011 48.2118 22.8149 48.1459C22.8638 47.904 22.7692 47.7029 22.6644 47.49C22.5729 47.307 22.5145 47.0996 22.4711 46.9001C22.4288 46.7163 22.5326 46.5476 22.7062 46.4934Z" fill="white"/>
<path d="M27.897 59.1177C27.4501 59.0046 27.0893 58.842 26.8918 58.4013C26.6767 57.9259 26.5456 57.4321 26.4581 56.9214C26.441 56.8197 26.3563 56.7265 26.3153 56.6164C26.3448 56.6408 26.3694 56.6694 26.3992 56.6895C26.5786 56.8298 26.7529 56.9787 26.9421 57.1064C27.0379 57.1692 27.0686 57.2384 27.0809 57.3441C27.1235 57.798 27.3314 58.1881 27.5598 58.573C27.6629 58.7502 27.771 58.9188 27.897 59.1177Z" fill="white"/>
<path d="M21.6519 45.595C21.3494 45.3988 21.051 45.2073 20.7123 44.9884C20.8772 44.7171 21.0336 44.4407 21.2088 44.1813C21.2336 44.1474 21.3831 44.1472 21.4273 44.1839C21.603 44.3441 21.7617 44.5231 21.9228 44.7C21.9392 44.7191 21.9401 44.7682 21.9289 44.7986C21.8452 45.058 21.7529 45.3124 21.6519 45.595Z" fill="white"/>
<path d="M22.6426 46.2946C22.5328 46.4226 22.4499 46.5192 22.3622 46.6199C21.6626 46.2093 21.5528 45.7595 22.0223 44.8634C22.3254 45.3252 22.4986 45.8243 22.6426 46.2946Z" fill="white"/>
<path d="M32.3033 57.3007C31.6461 57.1945 31.1568 57.143 30.5003 56.5705C30.6066 56.4288 30.5067 56.3612 30.3986 56.2841C30.2966 56.2142 30.2068 56.1295 30.1249 56.0298C30.9308 56.2986 31.6909 56.6444 32.3033 57.3007Z" fill="white"/>
<path d="M21.4461 46.5461C21.1038 46.193 20.7906 45.8688 20.4651 45.5303C20.5197 45.425 20.5848 45.2981 20.6658 45.1367C20.8615 45.2671 21.0466 45.39 21.2297 45.5105C21.268 45.5356 21.3033 45.5717 21.3467 45.5882C21.6352 45.7009 21.6376 45.9733 21.6473 46.2061C21.6525 46.318 21.5143 46.4373 21.4461 46.5461Z" fill="white"/>
<path d="M30.2634 57.0329C30.0842 57.0421 29.9433 57.0764 29.8183 57.0471C29.7196 57.0243 29.6332 56.9242 29.5493 56.8511C29.2973 56.6363 29.0503 56.4129 28.7936 56.2022C28.6566 56.0917 28.5071 56.0004 28.3664 55.8808C28.6465 55.9258 28.9495 55.8097 29.2035 55.9979C29.3051 56.0723 29.384 56.183 29.4592 56.2844C29.5326 56.3791 29.5848 56.4878 29.6511 56.5886C29.7173 56.6894 29.7876 56.7659 29.9236 56.7982C30.0397 56.8268 30.1299 56.9361 30.2634 57.0329Z" fill="white"/>
<path d="M26.3466 50.4978C26.2273 50.2682 26.1671 50.237 25.9207 50.3416C25.8239 50.3836 25.7402 50.4601 25.6507 50.5249C25.6129 50.5534 25.583 50.5958 25.5469 50.6311C25.5322 50.6189 25.5154 50.6042 25.4983 50.5941C25.5449 50.5372 25.5873 50.4756 25.6401 50.4259C25.7813 50.2957 25.9444 50.2006 26.1448 50.2063C26.2138 50.2092 26.2976 50.2532 26.3381 50.3098C26.371 50.3479 26.3447 50.433 26.3466 50.4978Z" fill="white"/>
<path d="M27.5466 52.8798C27.6606 52.694 27.7787 52.513 27.8798 52.3218C27.9313 52.2274 27.916 52.1325 27.7524 52.1116C27.7871 52.0941 27.8324 52.055 27.8539 52.0655C27.9035 52.0892 27.9733 52.1412 27.9707 52.1767C27.9626 52.2877 27.9491 52.4117 27.8975 52.5061C27.8127 52.6583 27.7119 52.816 27.5466 52.8798Z" fill="white"/>
<path d="M29.2085 58.5466C29.0669 58.2863 28.9847 58.0081 28.9505 57.7132C28.9286 57.5242 28.7659 57.461 28.6268 57.4106C28.0505 57.2055 27.519 56.9076 27.0394 56.54C26.657 56.2464 26.3219 55.8872 25.9766 55.545C25.8495 55.4219 25.7533 55.272 25.6432 55.1301C25.6107 55.0875 25.5921 55.0371 25.5687 54.9907C25.5803 54.9849 25.5942 54.977 25.6038 54.9687C25.6401 55.0205 25.6717 55.0764 25.7084 55.1237C25.9975 55.4729 26.2882 55.8289 26.6643 56.0863C27.2019 56.4537 27.7541 56.8044 28.3043 57.1527C28.4579 57.2487 28.6343 57.3085 28.7981 57.3874C29.007 57.4898 29.1025 57.6485 29.1293 57.8915C29.1667 58.2334 29.2881 58.5569 29.5433 58.8188C29.371 58.8263 29.2765 58.7457 29.2023 58.5395C29.2064 58.5442 29.2085 58.5466 29.2085 58.5466Z" fill="black"/>
<path d="M25.1519 52.1241C25.2858 52.2454 25.4289 52.363 25.5533 52.4927C25.814 52.7706 26.0937 53.0656 26.1735 53.4374C26.2596 53.8453 26.1573 54.2373 25.805 54.5372C25.4695 54.8228 25.0981 55.0187 24.661 55.0759C24.429 55.1058 24.1913 55.1821 23.9635 55.1542C23.5568 55.1021 23.178 54.9427 22.8809 54.642C22.8206 54.5817 22.7565 54.5123 22.8224 54.4056C22.8376 54.3799 22.8262 54.3233 22.8107 54.2909C22.6096 53.8991 22.6549 53.4941 22.7555 53.0953C22.8905 52.563 23.1989 52.1304 23.6597 51.8406C23.9731 51.6449 24.3371 51.4886 24.7093 51.7078C24.8804 51.8096 25.0229 51.9651 25.1763 52.0946C25.1689 52.1052 25.1614 52.1158 25.1519 52.1241ZM23.7146 52.0968C23.3454 52.4156 23.0627 53.0754 23.0559 53.5636C23.0518 53.9248 23.2154 54.1577 23.5256 54.3099C23.6764 54.3834 23.8191 54.4764 23.976 54.5281C24.1872 54.5994 24.4069 54.6757 24.6248 54.6872C25.1895 54.7152 25.6876 54.1604 25.5492 53.6438C25.4281 53.1953 25.1847 52.8026 24.833 52.4867C24.6528 52.3262 24.4652 52.1764 24.2752 52.0285C24.2331 51.9942 24.1743 51.9743 24.1193 51.9636C23.9564 51.9338 23.8139 51.9903 23.7146 52.0968Z" fill="black"/>
<path d="M84.5701 11.3675C84.6219 11.4268 84.6691 11.4905 84.7232 11.5477C84.7491 11.5751 84.7908 11.5963 84.8263 11.6018C85.2801 11.6924 85.6702 11.9127 86.0066 12.2227C86.1215 12.3305 86.1908 12.4817 86.2914 12.6247C86.396 12.6255 86.4975 12.4213 86.6159 12.5648C86.6568 12.6127 86.5952 12.7446 86.5765 12.8576C86.8489 12.9076 87.0121 13.1214 87.134 13.3787C87.1614 13.4351 87.1857 13.5204 87.1642 13.571C87.1429 13.6171 87.0547 13.6658 87.0013 13.6643C86.9368 13.6603 86.8848 13.6099 86.9342 13.5155C86.9554 13.4738 86.9359 13.3753 86.9011 13.3476C86.6533 13.1358 86.4002 12.9506 86.0544 12.8964C85.7331 12.845 85.4228 12.7139 85.1191 12.5896C84.9342 12.5131 84.7663 12.3904 84.5935 12.2809C84.5388 12.246 84.5025 12.1893 84.4475 12.1677C84.3529 12.1272 84.2607 12.0801 84.1613 12.0528C84.0619 12.0255 83.9579 12.0026 83.8554 12.0042C83.6928 12.0063 83.5442 11.9865 83.4183 11.8717C83.0537 11.5364 82.7482 11.3964 82.2754 11.3453C82.3706 11.4459 82.4566 11.5552 82.5588 11.6405C82.9154 11.9443 83.1808 12.3214 83.4124 12.7175C83.7223 13.2561 83.9712 13.8263 84.1165 14.4382C84.2399 14.9581 84.3302 15.4705 84.2038 16.0057C84.1127 16.395 83.8595 16.6127 83.461 16.6127C82.6952 16.609 81.9606 16.4503 81.2753 16.1193C80.9392 15.9563 80.6247 15.7382 80.333 15.5029C79.976 15.2168 79.6513 14.8871 79.315 14.5726C79.2609 14.5199 79.2182 14.4519 79.1709 14.3927C79.1552 14.3989 79.1417 14.403 79.1259 14.4092C79.1695 14.524 79.2107 14.6409 79.2565 14.7535C79.3086 14.8819 79.4079 14.9916 79.3634 15.1506C79.3536 15.1815 79.4098 15.241 79.4467 15.2754C79.7507 15.5466 79.8129 15.869 79.6688 16.2434C79.6543 16.2831 79.6592 16.3478 79.6849 16.3841C79.8448 16.6357 80.0364 16.8704 80.1736 17.1347C80.2875 17.3606 80.3539 17.614 80.4182 17.8607C80.4947 18.1478 80.5354 18.4428 80.6142 18.7278C80.6364 18.8108 80.7236 18.8756 80.7839 18.9485C80.8892 19.0828 80.8892 19.0828 80.8082 19.272C80.4691 19.1378 80.2917 18.8768 80.2036 18.5226C80.1499 18.5344 80.0982 18.553 80.0425 18.5537C79.9957 18.5546 79.9474 18.531 79.8987 18.5207C79.9156 18.4744 79.9214 18.4256 79.9492 18.3863C79.991 18.3251 80.0416 18.2687 80.1038 18.1925C79.9819 18.1735 79.8885 18.1709 79.8024 18.144C79.6502 18.0929 79.5555 17.979 79.4814 17.8411C79.3313 17.5586 79.1722 17.2803 79.2062 16.9406C79.2092 16.9117 79.2036 16.8737 79.1863 16.8554C79.078 16.75 79.0011 16.632 78.9384 16.4878C78.8778 16.3458 78.7338 16.2438 78.6372 16.1142C78.4569 15.8776 78.3617 15.6211 78.4791 15.3239C78.4886 15.3019 78.5074 15.2668 78.499 15.2488C78.357 14.9932 78.5214 14.7685 78.5769 14.5385C78.6548 14.2223 78.6499 13.9194 78.5719 13.6078C78.5398 13.4822 78.5391 13.3486 78.5226 13.2212C78.517 13.1832 78.5046 13.1473 78.4967 13.1114C78.4791 13.1065 78.4614 13.1015 78.446 13.0944C78.3828 13.2062 78.2839 13.317 78.2628 13.4366C78.2123 13.7268 78.0894 13.9816 77.9751 14.2455C77.9226 14.3687 77.9031 14.5085 77.8882 14.6438C77.8674 14.828 77.7812 14.9659 77.6232 15.0416C77.5555 15.0753 77.4585 15.0414 77.354 15.0362C77.3531 15.0674 77.3497 15.1096 77.3463 15.1518C77.3289 15.3762 77.3159 15.6007 77.2918 15.8226C77.2836 15.878 77.2375 15.9346 77.2005 15.9826C77.1104 16.098 77.0117 16.2043 76.9261 16.3199C76.8983 16.3592 76.881 16.4188 76.8842 16.4635C76.8921 16.5772 76.8656 16.65 76.7096 16.6545C76.7323 16.9579 76.755 17.2569 76.7779 17.5514C76.7622 17.5576 76.7509 17.564 76.7351 17.5702C76.6856 17.5087 76.6248 17.4536 76.5911 17.3858C76.5092 17.2121 76.4385 17.032 76.3656 16.8541C76.3552 16.8293 76.3542 16.787 76.3683 16.7606C76.5898 16.404 76.5819 15.9696 76.7461 15.5935C76.8103 15.4506 76.8832 15.3124 76.9451 15.1672C76.9618 15.1299 76.9499 15.0761 76.9644 15.0364C76.9885 14.9703 77.013 14.8909 77.0632 14.8477C77.2684 14.6754 77.3353 14.4346 77.4198 14.1988C77.5308 13.8947 77.6285 13.5857 77.7681 13.2935C77.8154 13.1925 77.9575 13.1274 78.0704 13.0727C78.3457 12.9424 78.3523 12.9449 78.3297 12.637C78.3245 12.5856 78.326 12.5322 78.3232 12.4743C78.1195 12.4329 77.9225 12.394 77.7055 12.3523C77.6455 12.7424 77.4362 13.0616 77.2313 13.3809C77.1103 13.5689 76.9672 13.7475 76.807 13.9033C76.5233 14.1758 76.2286 14.4414 75.9211 14.6887C75.7253 14.8435 75.5079 14.9755 75.2823 15.0804C74.9215 15.2439 74.556 15.4162 74.175 15.5035C73.83 15.5828 73.456 15.5812 73.0982 15.56C72.6048 15.5284 72.2152 15.2903 71.9608 14.8379C71.8527 14.8794 71.7424 14.9231 71.6301 14.96C71.3694 15.0462 71.1049 15.0321 70.8607 14.925C70.3329 14.6964 69.8121 14.4525 69.2936 14.2064C69.21 14.1684 69.1386 14.0974 69.076 14.0266C68.9745 13.9147 69.0051 13.7775 69.1259 13.5984C69.4465 13.122 69.9237 12.8571 70.4159 12.6127C71.048 12.301 71.711 12.0814 72.4007 11.9361C73.1241 11.785 73.8452 11.636 74.5681 11.4983C74.9419 11.4264 75.3238 11.3859 75.6975 11.3185C75.9234 11.2781 76.1433 11.2175 76.3248 11.1758C76.2629 10.9225 76.2182 10.692 76.1467 10.4651C76.1304 10.4112 76.0339 10.3595 75.9695 10.351C75.852 10.3366 75.7287 10.3665 75.6088 10.3542C75.409 10.3353 75.2052 10.2984 75.0056 10.2705C74.9546 10.2624 74.8996 10.2408 74.8525 10.2506C74.7271 10.2783 74.6272 10.2688 74.5572 10.1444C74.5381 10.1104 74.4648 10.1061 74.4138 10.098C74.2278 10.0616 74.1674 9.99315 74.1437 9.8077C74.1277 9.66254 74.1073 9.51726 74.0824 9.37185C74.0615 9.24436 73.992 9.18453 73.849 9.20277C73.715 9.21682 73.5771 9.21294 73.4416 9.20245C73.3883 9.1965 73.3383 9.1528 73.2747 9.11762C73.4215 8.9659 73.5716 9.01019 73.7165 9.00313C73.7946 8.99865 73.874 8.94522 73.9471 8.95841C74.0557 8.97704 74.1725 9.01817 74.2552 9.08729C74.3313 9.14954 74.3661 9.2596 74.417 9.35008C74.4954 9.49254 74.5426 9.63413 74.7648 9.64928C74.9492 9.66114 75.1262 9.77966 75.3094 9.83601C75.5633 9.91216 75.8197 9.97725 76.0849 10.047C76.1305 9.93033 76.1686 9.84235 76.2046 9.75208C76.3778 9.28942 76.7401 8.9946 77.1197 8.71807C77.4334 8.48645 77.7559 8.25952 78.1522 8.17938C78.2687 8.15594 78.3058 8.02118 78.2838 7.85581C78.2456 7.54973 78.2119 7.24378 78.1894 6.93592C78.1811 6.8355 78.2019 6.72922 78.2111 6.6382C77.8756 6.45735 77.6178 6.20298 77.4081 5.90321C77.3246 5.78288 77.4195 5.41598 77.5443 5.33266C77.5807 5.30696 77.634 5.30846 77.717 5.28631C77.667 5.40289 77.6467 5.49138 77.5981 5.55902C77.5423 5.64206 77.5427 5.70663 77.6191 5.75998C77.7413 5.84802 77.8705 5.92512 77.9973 6.00883C78.1328 6.09724 78.2705 6.18793 78.4015 6.28066C78.4234 6.29464 78.4422 6.33747 78.437 6.36404C78.4226 6.48162 78.436 6.55992 78.5857 6.53964C78.6013 6.53785 78.6436 6.61919 78.6489 6.66609C78.6777 6.91179 78.7042 7.15521 78.7196 7.40053C78.7238 7.48748 78.732 7.59234 78.6944 7.66253C78.6005 7.83354 78.6469 8.00627 78.6443 8.17762C78.6436 8.20432 78.669 8.24956 78.691 8.25908C78.8362 8.32105 78.9816 8.37411 79.1468 8.43887C79.2226 8.27625 79.3073 8.11388 79.3787 7.95114C79.4952 7.68503 79.6252 7.4193 79.7131 7.14126C79.8765 6.63602 80.0112 6.11886 80.1658 5.60892C80.3501 4.99296 80.5124 4.36748 80.743 3.7684C80.9714 3.16704 81.2919 2.61279 81.7592 2.14504C82.002 1.90251 82.251 1.6802 82.5473 1.51265C82.6062 1.47868 82.6692 1.45374 82.7343 1.43553C82.9272 1.38307 83.0201 1.40349 83.0885 1.58574C83.1818 1.83103 83.2232 2.09935 83.2985 2.35304C83.3392 2.48776 83.4046 2.6165 83.4565 2.74931C83.6556 3.27141 83.7163 3.80298 83.5807 4.35129C83.5707 4.39109 83.5848 4.44269 83.6038 4.48107C83.966 5.1391 84.1223 5.83588 84.0144 6.58311C83.9591 6.96893 83.8353 7.3328 83.5882 7.64867C83.3735 7.92092 83.2022 8.23447 82.9767 8.49529C82.788 8.71262 82.5621 8.90887 82.3236 9.07804C82.0487 9.27291 81.7502 9.43817 81.4518 9.59899C81.1624 9.7556 80.8645 9.89862 80.5198 9.8867C80.5065 9.88633 80.4906 9.89702 80.4658 9.90745C80.4864 10.1262 80.5068 10.3494 80.5309 10.5994C80.5825 10.5853 80.654 10.5784 80.7105 10.5466C80.8056 10.4914 80.8921 10.4226 80.9743 10.3492C81.2438 10.1074 81.5389 9.90644 81.8703 9.75769C82.0643 9.66963 82.2329 9.53189 82.4206 9.42807C82.5382 9.36459 82.6668 9.30364 82.7944 9.27828C82.8794 9.26286 82.9781 9.31684 83.071 9.33726C83.1823 9.0198 83.2522 8.98837 83.627 8.96328C83.8858 8.94384 84.1414 8.87978 84.3965 8.83352C84.4368 8.82574 84.4796 8.80691 84.5072 8.77652C84.6035 8.67681 84.6791 8.67894 84.7604 8.79699C84.7818 8.82876 84.8659 8.84448 84.9043 8.82552C85.0577 8.75414 85.2001 8.75814 85.326 8.87299C85.4389 8.97413 85.5495 9.07742 85.6533 9.1872C85.6792 9.21464 85.6708 9.27897 85.6761 9.32587C85.6295 9.32233 85.578 9.33202 85.5362 9.31526C85.413 9.26282 85.2923 9.19932 85.1692 9.14243C84.9186 9.02852 84.6889 9.0421 84.4849 9.25232C84.4459 9.29352 84.3741 9.31377 84.3161 9.31659C83.9818 9.32946 83.6717 9.43206 83.3696 9.56606C83.3177 9.58909 83.2638 9.60538 83.212 9.62842C83.1512 9.6512 83.0687 9.65556 83.0364 9.69918C82.7708 10.0368 82.371 10.0857 81.9959 10.202C81.8162 10.2593 81.6358 10.3388 81.4836 10.4481C81.4019 10.5037 81.3781 10.6388 81.3072 10.7838C81.6096 10.7188 81.872 10.6483 82.1359 10.6067C82.335 10.5744 82.5397 10.5757 82.7448 10.5681C82.9342 10.5623 83.1259 10.5544 83.3149 10.5619C83.7353 10.5759 84.1338 10.6539 84.3927 11.0285C84.4654 11.133 84.502 11.2587 84.5543 11.3782C84.561 11.3761 84.5656 11.3718 84.5701 11.3675ZM83.2214 5.3319L83.217 5.33178C83.1978 5.38022 83.1874 5.43336 83.1616 5.47939C83.0378 5.68741 82.8963 5.89047 82.7834 6.10548C82.6515 6.36003 82.546 6.62867 82.4187 6.88334C82.3385 7.04139 82.2342 7.18762 82.1385 7.34745C82.5944 7.28457 82.9998 7.11786 83.3613 6.84973C83.4728 6.76603 83.5714 6.66417 83.6764 6.56916C83.8637 6.40077 83.9099 6.18389 83.8878 5.9406C83.8513 5.57669 83.7475 5.22869 83.6329 4.86926C83.5852 4.90577 83.5601 4.9251 83.4986 4.97458C83.6055 4.81729 83.5828 4.67417 83.474 4.58206C83.3545 4.47852 83.3172 4.61772 83.247 4.65805C83.0253 4.7854 82.8078 4.91732 82.5862 5.04022C82.437 5.12062 82.2403 5.15072 82.1324 5.26568C81.8984 5.5129 81.6945 5.79659 81.5018 6.07837C81.272 6.41254 81.0639 6.76513 80.8494 7.11085C80.6324 7.46319 80.4133 7.81325 80.2074 8.16812C80.0765 8.39152 79.9675 8.62445 79.8475 8.85484C79.83 8.84544 79.8146 8.83833 79.797 8.82893C80.1117 8.16766 80.411 7.49927 80.7805 6.86848C81.1524 6.23107 81.5462 5.60764 82.0606 5.04771C81.9636 5.01381 81.8293 4.95884 81.7836 5.00208C81.619 5.15329 81.463 5.31811 81.342 5.50617C81.0184 6.0069 80.7125 6.51703 80.4086 7.02945C80.1351 7.49597 79.9318 7.99563 79.8078 8.52423C79.7774 8.65695 79.736 8.78269 79.6968 8.91072C79.6767 8.91238 79.6543 8.9162 79.6342 8.91786C79.6178 8.86842 79.5859 8.81632 79.5916 8.77195C79.605 8.68996 79.645 8.61316 79.674 8.53383C79.8455 8.05554 80.0126 7.57712 80.1841 7.09884C80.2397 6.94233 80.3262 6.7956 80.3685 6.63427C80.4182 6.45311 80.4435 6.26458 80.4555 6.07568C80.4713 5.83123 80.4603 5.58603 80.4628 5.3412C80.4405 5.34058 80.4161 5.33767 80.3939 5.33704C80.3457 5.54719 80.2975 5.75733 80.2514 5.96976C80.076 6.74627 79.7397 7.46259 79.4519 8.19809C79.3824 8.37202 79.2417 8.54839 79.423 8.74941C79.3768 8.73252 79.3462 8.7094 79.3157 8.68628C79.0501 8.47399 78.7466 8.34079 78.4054 8.36015C78.0308 8.38079 77.7093 8.57212 77.3948 8.75252C76.9537 9.0006 76.6053 9.35592 76.3787 9.81263C76.3174 9.93558 76.2777 10.0814 76.2784 10.215C76.277 10.3419 76.3358 10.4682 76.3791 10.5918C76.4222 10.72 76.4584 10.859 76.5333 10.9657C76.8373 11.3973 77.1457 11.8334 77.6769 12.0242C77.8469 12.2316 78.0861 12.196 78.3125 12.2202C78.4346 12.2347 78.5086 12.2947 78.5046 12.4371C78.5008 12.5706 78.517 12.7068 78.5423 12.8389C78.5656 12.9598 78.6464 13.0132 78.7642 12.9408C78.9297 12.8364 79.1018 12.7344 79.2544 12.6118C79.4571 12.4505 79.6621 12.2826 79.841 12.0962C80.169 11.7558 80.4796 11.3972 80.7945 11.0432C80.8382 10.9932 80.8537 10.918 80.8965 10.8212C80.7188 10.8073 80.581 10.799 80.4433 10.7862C80.2434 10.7717 80.229 10.729 80.2678 10.5364C80.3501 10.1424 80.3005 9.76923 80.0494 9.4349C79.9894 9.35307 79.9385 9.26259 79.9001 9.20362C80.0486 9.14546 80.1675 9.11541 80.2671 9.05587C80.3985 8.97496 80.5259 8.87613 80.638 8.77019C80.9374 8.49586 81.2454 8.23068 81.5187 7.93336C81.7048 7.72709 81.8454 7.47724 81.9946 7.23654C82.2278 6.86017 82.4809 6.49104 82.6702 6.09117C82.8118 5.80573 82.9772 5.54545 83.2214 5.3319ZM79.1031 13.478C79.0059 13.6912 79.0921 13.8695 79.1718 14.0454C79.1886 14.0815 79.2455 14.1143 79.2853 14.1243C79.8094 14.2526 80.2219 13.9926 80.6191 13.721C80.9528 13.4921 81.2304 13.1994 81.4755 12.8768C81.7598 12.5041 81.978 12.1072 82.0468 11.6394C82.0578 11.564 82.0523 11.4437 82.0087 11.4113C81.8974 11.3302 81.7292 11.2164 81.6369 11.2517C81.4771 11.3117 81.4213 11.2389 81.3329 11.1363C81.1942 11.7134 80.861 12.1627 80.4714 12.5614C80.0817 12.9601 79.6872 13.372 79.1031 13.478ZM83.2622 4.51377C83.4754 4.2949 83.4865 4.29744 83.5193 4.00226C83.5736 3.49619 83.4958 3.01535 83.1984 2.58622C83.1792 2.55674 83.0906 2.54089 83.0634 2.55793C82.95 2.63044 82.8321 2.70728 82.7425 2.80494C82.3816 3.21112 82.0556 3.64054 81.8081 4.13005C81.6855 4.3715 81.7904 4.60153 81.7994 4.83555C81.8011 4.85563 81.8402 4.8879 81.8645 4.89526C81.9949 4.92787 82.1311 4.99403 82.2585 4.97757C82.6739 4.93136 83.0052 4.70914 83.2622 4.51377ZM72.4299 15.1784C72.6631 14.9578 72.8669 14.7565 73.0794 14.5644C73.4334 14.247 73.7916 13.9387 74.0197 13.5066C74.0621 13.4232 74.1443 13.3498 74.2279 13.3054C74.5355 13.1359 74.8598 13.0025 75.1545 12.8149C75.5897 12.5377 76.0013 12.2309 76.4259 11.9379C76.4712 11.908 76.5322 11.8763 76.5833 11.8799C76.75 11.8913 76.9161 11.9205 77.1114 11.9438C77.0754 11.8782 77.0521 11.8352 77.0311 11.7901C76.9449 11.6118 76.9099 11.5886 76.7342 11.6593C76.3493 11.811 75.9688 11.9629 75.59 12.1303C75.2248 12.2937 74.8593 12.466 74.5111 12.6566C74.1946 12.8258 73.893 13.0244 73.587 13.2183C73.299 13.4039 73.0002 13.5781 72.7962 13.8662C72.7544 13.9274 72.7454 14.0095 72.7212 14.0801C72.7366 14.0872 72.752 14.0943 72.7673 14.1014C72.592 14.2412 72.4102 14.3741 72.2456 14.5253C72.1497 14.6117 72.0681 14.7408 72.1469 14.8699C72.2149 14.9831 72.3218 15.064 72.4299 15.1784ZM83.1652 2.34039C83.1131 2.13411 83.0631 1.93456 83.0085 1.73933C82.9722 1.60474 82.878 1.55088 82.7453 1.59836C82.6733 1.62305 82.599 1.65436 82.5355 1.6971C82.4016 1.78462 82.2677 1.87659 82.1403 1.97541C82.0606 2.03774 81.9762 2.10883 81.9248 2.19644C81.8991 2.23802 81.948 2.32177 81.9528 2.38647C81.9574 2.46006 81.9598 2.53582 81.9444 2.60663C81.8986 2.81017 81.8439 3.01345 81.7937 3.21686C81.7684 3.32301 81.7585 3.44073 81.709 3.53507C81.6034 3.73024 81.4802 3.91602 81.3569 4.10179C81.3174 4.16079 81.2604 4.21039 81.2013 4.25326C81.124 4.30897 81.0296 4.34194 80.9654 4.40692C80.8441 4.52596 80.7399 4.66774 80.6229 4.79135C80.467 4.95172 80.5044 5.12865 80.5393 5.31219C80.6102 5.24516 80.6657 5.17103 80.7381 5.12854C81.0008 4.97117 81.2108 4.78561 81.3855 4.51223C81.5577 4.24546 81.7093 4.0026 81.7072 3.67973C81.7073 3.67528 81.7231 3.66904 81.764 3.63903C81.7459 3.80772 81.7309 3.94755 81.718 4.08967C81.7696 4.07554 81.7946 4.05621 81.8064 4.03205C81.9114 3.85912 82.01 3.67933 82.1172 3.50869C82.2361 3.31835 82.3485 3.12114 82.487 2.94692C82.6695 2.70939 82.8413 2.46041 83.1652 2.34039ZM83.2816 7.86491C82.8709 7.98027 82.476 8.08939 82.081 8.20296C81.888 8.25987 81.6733 8.29391 81.5099 8.40509C81.099 8.68519 80.7094 9.00151 80.3156 9.30881C80.2883 9.3303 80.2643 9.39196 80.2748 9.41675C80.3971 9.73855 80.4411 9.75759 80.786 9.68269C80.8465 9.6688 80.9113 9.65949 80.9656 9.62985C81.3225 9.44842 81.6965 9.28973 82.0278 9.0675C82.3545 8.8496 82.6471 8.57731 82.9352 8.30934C83.0744 8.18635 83.1683 8.01534 83.2816 7.86491ZM75.3958 14.7653C75.411 14.7768 75.4285 14.7907 75.4437 14.8022C75.5047 14.7705 75.5721 14.7502 75.6223 14.7071C75.9253 14.4596 76.2304 14.2188 76.5183 13.9553C76.8953 13.6119 77.1787 13.1924 77.4162 12.7427C77.4821 12.6154 77.5332 12.4632 77.5237 12.3249C77.519 12.2558 77.3693 12.1937 77.2844 12.1267C77.2648 12.1106 77.2428 12.1011 77.1969 12.0708C76.3939 12.8386 75.8205 13.7531 75.3958 14.7653ZM83.0149 12.4436C82.3728 13.6656 81.4415 14.5589 80.2461 15.191C80.3234 15.369 80.5069 15.4165 80.6421 15.358C80.9262 15.2324 81.2255 15.1183 81.4754 14.9383C81.7845 14.7155 82.0594 14.4382 82.3384 14.1745C82.7159 13.8133 83.0083 13.3896 83.2111 12.9077C83.2255 12.8725 83.2426 12.8174 83.23 12.7903C83.1644 12.6704 83.0896 12.5593 83.0149 12.4436ZM72.9196 15.417C72.9777 15.3318 73.0083 15.2726 73.0498 15.2203C73.2826 14.9396 73.5088 14.6521 73.7547 14.3807C73.9064 14.2114 74.0798 14.0604 74.2574 13.9184C74.3258 13.8625 74.4414 13.8702 74.5248 13.8302C74.6491 13.7647 74.7585 13.6743 74.885 13.611C75.4449 13.3329 75.9124 12.9386 76.3262 12.4738C76.448 12.337 76.5764 12.207 76.7025 12.0748C76.6962 12.0634 76.6876 12.0498 76.6813 12.0385C76.6318 12.055 76.576 12.0601 76.5353 12.0856C76.3064 12.2284 76.0839 12.3824 75.8528 12.5229C75.3184 12.8462 74.7774 13.1627 74.2384 13.486C74.2089 13.5052 74.1573 13.5193 74.1523 13.5415C74.1092 13.8074 73.8804 13.9457 73.724 14.1239C73.5171 14.3585 73.2646 14.5495 73.0337 14.7634C72.8715 14.9125 72.7112 15.0683 72.5283 15.2413C72.6801 15.3056 72.7987 15.3624 72.9196 15.417ZM72.8609 13.6232C74.0191 12.6539 75.3776 12.0843 76.7451 11.5105C76.671 11.455 76.5916 11.426 76.5193 11.3861C76.4382 11.3415 76.4224 11.3478 76.418 11.4256C76.0649 11.5515 75.7122 11.664 75.3699 11.8058C74.8359 12.029 74.3083 12.2679 73.7807 12.5025C73.402 12.6699 73.036 12.86 72.7275 13.143C72.579 13.2791 72.5753 13.3302 72.7162 13.4655C72.7638 13.5158 72.8069 13.566 72.8609 13.6232ZM70.7801 14.7068C70.9768 14.837 71.3447 14.8963 71.5467 14.8352C71.9486 14.7151 72.2396 14.4228 72.5561 14.1712C72.5857 14.1475 72.5767 14.0738 72.5848 14.0228C72.5952 13.9697 72.5885 13.8893 72.6247 13.8681C72.7564 13.7783 72.7031 13.6944 72.6389 13.6036C72.5296 13.4513 72.3638 13.4088 72.1809 13.4994C71.8288 13.6721 71.4808 13.8538 71.2228 14.1627C71.0707 14.3454 70.9254 14.5261 70.7801 14.7068ZM74.4448 15.2528C74.4602 15.2599 74.4733 15.2692 74.4865 15.274C74.6239 15.2178 74.7594 15.1503 74.8988 15.1008C75.1192 15.0224 75.2059 14.8668 75.2811 14.6485C75.3806 14.3552 75.5462 14.086 75.7029 13.8166C76.0309 13.238 76.4527 12.7267 76.9093 12.2431C76.9575 12.1932 77.0076 12.1501 77.0763 12.0853C76.789 12.0883 76.7824 12.0859 76.6328 12.2576C76.4351 12.4791 76.2461 12.7098 76.0463 12.929C75.9154 13.0701 75.7737 13.1997 75.6298 13.3314C75.4355 13.5107 75.1976 13.6577 75.0492 13.8672C74.8569 14.1357 74.7256 14.4503 74.5902 14.7515C74.519 14.9098 74.4918 15.0872 74.4448 15.2528ZM83.6512 13.5657C83.6356 13.5675 83.62 13.5693 83.6043 13.5711C83.157 14.6739 82.4217 15.4903 81.2675 15.9188C81.4131 15.9674 81.5521 16.0136 81.6881 16.0063C82.1922 15.9715 82.6103 15.7494 82.9826 15.4148C83.3274 15.1062 83.545 14.7316 83.6244 14.2841C83.6666 14.0493 83.6445 13.806 83.6512 13.5657ZM73.9194 12.2414C73.5822 12.2787 73.2698 12.3056 72.9611 12.3548C72.7979 12.3791 72.6256 12.4121 72.4876 12.4906C72.2658 12.618 72.0467 12.7298 71.7861 12.7336C71.7639 12.733 71.7302 12.7432 71.7187 12.7584C71.5916 12.9218 71.469 13.0854 71.3373 13.2575C71.4199 13.3266 71.4945 13.3688 71.5461 13.4326C71.6515 13.5625 71.7699 13.5502 71.9073 13.494C72.0312 13.4418 72.1635 13.4077 72.2874 13.3555C72.3437 13.3326 72.4093 13.2966 72.4395 13.2507C72.5861 13.0255 72.7779 12.8528 73.0043 12.7211C73.2962 12.5534 73.5941 12.4104 73.9194 12.2414ZM73.0644 15.4144C73.1128 15.4336 73.1324 15.4497 73.1503 15.4457C73.4985 15.4155 73.8489 15.383 74.1952 15.3415C74.2309 15.3381 74.2729 15.268 74.2854 15.2216C74.3981 14.8552 74.5085 14.491 74.7246 14.1698C74.8036 14.0518 74.8673 13.9222 74.9399 13.7974C74.8708 13.7976 74.8278 13.8254 74.7802 13.853C74.6647 13.9232 74.5499 14.0491 74.4318 14.0525C74.2246 14.0578 74.1296 14.1909 74.0151 14.3035C73.8502 14.468 73.6959 14.6485 73.544 14.8268C73.385 15.016 73.2349 15.2099 73.0644 15.4144ZM71.4735 12.3708C71.5355 12.5418 71.7087 12.6379 71.8903 12.5918C72.09 12.5373 72.2922 12.4718 72.4709 12.3722C72.6767 12.2555 72.8732 12.1564 73.1193 12.1922C73.1858 12.203 73.2552 12.1894 73.3221 12.1868C73.7391 12.1607 74.1536 12.1456 74.5541 11.9966C74.995 11.8353 75.4443 11.6921 75.8894 11.5399C75.9478 11.5192 76.0106 11.5032 76.0691 11.4826C76.1276 11.4619 76.1839 11.439 76.2379 11.4183C74.6344 11.6738 73.0381 11.9139 71.4735 12.3708ZM83.851 6.61637C83.658 6.7512 83.4921 6.86899 83.3266 6.97788C82.9568 7.22351 82.572 7.44868 82.1205 7.51169C82.0132 7.52649 81.9476 7.56249 81.8892 7.66103C81.7702 7.85583 81.6293 8.03665 81.4972 8.22218C81.4741 8.2527 81.4488 8.28093 81.4279 8.30928C81.5361 8.26334 81.6231 8.17674 81.7262 8.15292C82.2325 8.04247 82.7177 7.88691 83.1851 7.65293C83.612 7.43561 83.7582 7.06792 83.851 6.61637ZM70.6235 13.4646C70.3366 13.3763 70.0783 13.2956 69.82 13.2193C69.7891 13.2096 69.7401 13.2126 69.7218 13.2299C69.5523 13.3988 69.3806 13.5654 69.2285 13.7482C69.1917 13.7917 69.1985 13.9455 69.2358 13.9666C69.5049 14.1322 69.7859 14.2737 70.0644 14.4262C70.2633 14.0823 70.4411 13.7756 70.6235 13.4646ZM71.2778 12.4433C70.8145 12.6083 70.3237 12.8038 69.876 13.1274C70.7924 13.5561 71.2368 13.4261 71.6154 12.7088C71.5109 12.6257 71.4107 12.5472 71.2778 12.4433ZM81.8374 2.2964C81.2093 2.93773 80.8981 3.71265 80.6659 4.52986C80.7618 4.4435 80.8424 4.35003 80.9077 4.24501C80.9798 4.13349 81.0428 4.03062 81.1892 4.13047C81.7315 3.44888 81.7609 2.95769 81.8374 2.2964ZM71.5829 13.6273C71.4712 13.5641 71.348 13.4293 71.232 13.4394C70.9999 13.4596 70.73 13.4765 70.6283 13.7675C70.6137 13.8116 70.5793 13.8485 70.5559 13.8879C70.4438 14.0762 70.3293 14.2667 70.2079 14.4681C70.3705 14.5439 70.5047 14.6033 70.6102 14.6508C70.9358 14.3127 71.2456 13.9852 71.5829 13.6273ZM84.2125 11.2595C84.1969 11.2613 84.1814 11.2586 84.1657 11.2604C84.1604 11.2914 84.166 11.3294 84.1477 11.3467C84.1179 11.3793 84.0728 11.4003 84.0364 11.426C84.0152 11.3897 83.9674 11.3483 83.9748 11.3196C84.0124 11.1715 83.9433 11.0938 83.8203 11.037C83.7807 11.018 83.7599 10.9685 83.7251 10.9363C83.6774 10.8905 83.6252 10.8489 83.5728 10.8118C83.5532 10.7957 83.5197 10.8014 83.4977 10.7919C83.2214 10.6416 82.9341 10.8829 82.6528 10.7503C82.6673 10.7886 82.6869 10.8047 82.7089 10.8143C82.9106 10.9268 83.1146 11.0327 83.3072 11.1539C83.3575 11.1842 83.4064 11.268 83.4004 11.3213C83.3598 11.6585 83.6051 11.8814 83.9283 11.788C83.9799 11.7739 84.0333 11.7754 84.0804 11.7611C84.1208 11.7489 84.1594 11.7255 84.1891 11.6974C84.358 11.5508 84.224 11.4045 84.2125 11.2595ZM80.2431 17.9916C80.2423 17.6242 79.9257 16.9274 79.7263 16.8127C79.607 16.8606 79.5057 16.9 79.3953 16.9437C79.3927 16.9592 79.3896 16.988 79.3846 17.0102C79.3369 17.2804 79.4801 17.4915 79.5896 17.7172C79.6842 17.9136 79.8484 18.0139 80.0648 17.9955C80.1184 17.9925 80.1762 17.9942 80.2431 17.9916ZM81.6618 4.34634C81.5711 4.48405 81.466 4.57906 81.4428 4.69195C81.4167 4.82924 81.3433 4.90288 81.2456 4.9736C81.1479 5.04432 81.0438 5.10374 80.9504 5.17903C80.8502 5.26081 80.7476 5.34476 80.6757 5.44737C80.4992 5.70957 80.6288 6.00709 80.5964 6.28892C80.7073 6.1451 80.7941 5.98947 80.8982 5.84768C81.0972 5.58166 81.3092 5.32492 81.5125 5.06347C81.5817 4.97637 81.6755 4.88772 81.6962 4.78589C81.7196 4.66411 81.679 4.52493 81.6618 4.34634ZM78.6902 15.5747C78.7092 15.691 78.7253 15.8317 78.7504 15.9682C78.7792 16.1316 78.8563 16.1627 79.001 16.0821C79.0349 16.0631 79.0835 16.0778 79.1258 16.0767C79.1269 16.1191 79.1453 16.1752 79.1222 16.2058C79.0944 16.2451 79.0381 16.268 78.9904 16.3C79.1098 16.4904 79.2925 16.3263 79.433 16.3971C79.4611 16.2665 79.511 16.1544 79.5007 16.0472C79.48 15.8329 79.3489 15.6667 79.1739 15.5549C79.104 15.5084 78.9808 15.5339 78.885 15.5379C78.827 15.5407 78.7641 15.5612 78.6902 15.5747ZM84.0797 15.1919C84.0553 15.1889 84.0311 15.1816 84.0067 15.1787C83.8581 15.7912 83.4777 16.1768 82.8862 16.3895C83.1441 16.4012 83.3917 16.3836 83.6393 16.3661C83.8535 16.3499 83.9843 16.2133 84.014 16.0249C84.0597 15.7479 84.0608 15.4696 84.0797 15.1919ZM86.0429 12.6734C86.05 12.658 86.057 12.6471 86.0641 12.6317C85.7564 12.2513 85.4095 11.9209 84.9049 11.8132C84.7669 12.052 84.7623 12.0564 84.9856 12.1918C85.1585 12.2968 85.3407 12.3888 85.5253 12.4741C85.6947 12.5479 85.8711 12.6063 86.0429 12.6734ZM81.4758 10.1696C81.4844 10.1832 81.4929 10.1968 81.5013 10.2148C81.5237 10.211 81.546 10.2072 81.5707 10.2012C81.7167 10.1541 81.8587 10.0935 82.0066 10.0576C82.3204 9.98183 82.6214 9.88788 82.8529 9.65172C82.8873 9.61484 82.887 9.54582 82.902 9.48835C82.8465 9.48457 82.7782 9.45816 82.7354 9.47699C82.5888 9.54189 82.4507 9.62483 82.3061 9.70092C82.1072 9.80664 81.9084 9.90792 81.7117 10.0159C81.6325 10.0605 81.553 10.1183 81.4758 10.1696ZM83.2772 9.44547C83.4027 9.41782 83.5326 9.39031 83.6605 9.35605C83.8062 9.31785 83.9482 9.25728 84.0955 9.2436C84.3075 9.22507 84.4581 9.09573 84.6299 9.0026C84.6435 8.99407 84.638 8.95162 84.6388 8.92493C84.4995 8.96999 84.3755 9.02661 84.2457 9.04968C83.9728 9.09545 83.6958 9.12774 83.4232 9.1646C83.2757 9.18272 83.2266 9.26816 83.2772 9.44547ZM76.702 16.4494C76.7833 16.3293 76.8526 16.2422 76.9087 16.1458C77.0022 15.9881 77.0957 15.8305 77.165 15.661C77.2295 15.5047 77.2454 15.3337 77.1319 15.1769C76.8474 15.5541 76.8059 16.0004 76.702 16.4494ZM77.9701 13.7089C77.9503 13.7016 77.9305 13.6944 77.9085 13.6849C77.5995 13.9856 77.499 14.3925 77.3788 14.7876C77.3716 14.8074 77.4013 14.8572 77.4168 14.8599C77.459 14.8633 77.5237 14.8585 77.5423 14.8323C77.5886 14.7668 77.622 14.6876 77.651 14.6082C77.747 14.3616 77.8385 14.1148 77.9279 13.8657C77.9448 13.8195 77.9553 13.7619 77.9701 13.7089ZM78.4402 7.75557C78.458 7.75607 78.478 7.75886 78.4958 7.75936C78.515 7.62855 78.5476 7.49811 78.5491 7.3668C78.5471 7.19977 78.5229 7.03212 78.4985 6.86891C78.491 6.81972 78.4522 6.7741 78.4291 6.7267C78.3899 6.77235 78.3221 6.81052 78.3162 6.85934C78.2674 7.16965 78.3169 7.46936 78.4402 7.75557ZM74.726 10.0801C75.0698 10.1232 75.3937 10.1634 75.7198 10.206C75.725 10.1794 75.7301 10.1573 75.7353 10.1307C75.4106 10.0392 75.0882 9.94556 74.7524 9.85153C74.7386 9.94687 74.7323 10.0135 74.726 10.0801ZM74.1837 9.17655C74.1723 9.18292 74.161 9.18928 74.1497 9.19564C74.1999 9.39074 74.2478 9.588 74.3024 9.78322C74.3167 9.83037 74.3393 9.89557 74.3744 9.91437C74.4272 9.93812 74.4987 9.92677 74.5609 9.93297C74.5489 9.88365 74.5461 9.82569 74.5228 9.78274C74.4787 9.69022 74.4188 9.60393 74.37 9.51574C74.3087 9.40047 74.2473 9.28966 74.1837 9.17655ZM76.6218 16.6899C76.4537 16.8098 76.4605 17.0415 76.6229 17.2042C76.6232 17.035 76.6234 16.8702 76.6218 16.6899ZM79.1807 16.5792C79.1802 16.597 79.1797 16.6148 79.1815 16.6304C79.3389 16.7328 79.5152 16.7177 79.6148 16.5803C79.4634 16.5805 79.3232 16.5788 79.1807 16.5792ZM81.9213 12.9361C81.9529 13.0794 81.9805 13.2049 82.0117 13.3616C82.115 13.173 82.0727 13.0138 81.9213 12.9361ZM81.4071 13.4871C81.3889 13.4999 81.3663 13.5127 81.3481 13.5255C81.4228 13.6412 81.4953 13.7545 81.5723 13.868C81.5927 13.853 81.6154 13.8403 81.6358 13.8252C81.5566 13.7139 81.4796 13.6004 81.4071 13.4871ZM81.5023 13.3495C81.4862 13.3646 81.4658 13.3797 81.4498 13.3948C81.5541 13.4868 81.5717 13.652 81.7194 13.7029C81.7331 13.6899 81.749 13.6793 81.7627 13.6663C81.6745 13.5592 81.5884 13.4543 81.5023 13.3495ZM81.8641 13.5445C81.9324 13.4106 81.8848 13.2823 81.8394 13.1564C81.8313 13.1294 81.7804 13.1169 81.7453 13.0981C81.7896 13.2641 81.8258 13.4031 81.8641 13.5445ZM83.3613 15.8017C83.4488 15.6194 83.3925 15.4041 83.279 15.4031C83.3045 15.5263 83.33 15.6494 83.3613 15.8017ZM81.1751 13.6631C81.2544 13.77 81.3338 13.8769 81.4239 13.9996C81.4476 13.8689 81.3298 13.7031 81.1751 13.6631ZM83.2382 15.983C83.2879 15.8019 83.2144 15.6417 83.0842 15.6002C83.1343 15.7219 83.1778 15.8366 83.2382 15.983ZM81.215 14.1451C81.2333 14.1278 81.2516 14.1105 81.2677 14.091C81.1877 14.0063 81.1099 13.924 81.0299 13.8394C81.0184 13.8502 81.0047 13.8632 80.9933 13.874C81.0664 13.9651 81.1395 14.0562 81.215 14.1451ZM83.5224 15.0604C83.5359 15.1343 83.5459 15.1769 83.5491 15.2215C83.5523 15.2661 83.542 15.3148 83.5452 15.3594C83.5468 15.3795 83.5685 15.4023 83.586 15.4117C83.5948 15.4164 83.6241 15.4017 83.6334 15.3886C83.6775 15.3253 83.6249 15.1368 83.5224 15.0604ZM80.1599 12.5526C80.1759 12.5375 80.1964 12.5225 80.2124 12.5073C80.1367 12.4273 80.0589 12.345 79.9832 12.2649C79.9741 12.2736 79.9628 12.2799 79.9536 12.2886C80.0224 12.3751 80.0911 12.4661 80.1599 12.5526ZM80.1038 12.0946C80.1809 12.2037 80.2452 12.2901 80.3138 12.3855C80.3492 12.2351 80.2828 12.142 80.1038 12.0946ZM83.0475 16.0378C83.0612 16.0248 83.0748 16.0163 83.0885 16.0033C83.0305 15.9282 82.9724 15.8576 82.9144 15.7825C82.9007 15.7954 82.8848 15.8061 82.871 15.8191C82.9177 15.9006 82.9119 16.0273 83.0475 16.0378ZM85.001 8.95069C85.1442 9.00147 85.2545 9.04019 85.367 9.07674C85.2716 8.98501 85.1837 8.86454 85.001 8.95069ZM82.301 14.5564C82.2852 14.5626 82.2672 14.571 82.2514 14.5772C82.2573 14.6843 82.2813 14.7829 82.3662 14.8498C82.3842 14.8414 82.4 14.8352 82.4181 14.8268C82.3782 14.7389 82.3385 14.6465 82.301 14.5564ZM82.1798 12.6873C82.1598 12.689 82.1418 12.6929 82.124 12.6924C82.1299 12.7994 82.138 12.9088 82.1462 13.0136C82.1663 13.012 82.1886 13.0081 82.2087 13.0065C82.1961 12.9015 82.188 12.7922 82.1798 12.6873Z" fill="black"/>
<path d="M75.0481 7.96527C74.8845 8.00297 74.7308 8.00533 74.6176 8.07339C74.3594 8.23088 74.0741 8.24068 73.7923 8.28619C73.6224 8.31258 73.4416 8.32754 73.2905 8.39676C73.1778 8.44702 73.0853 8.5691 73.0133 8.67616C72.9598 8.75703 72.9082 8.77117 72.8563 8.71628C72.8217 8.67969 72.8025 8.57228 72.8276 8.5485C73.0106 8.37554 73.1851 8.18898 73.462 8.15669C73.7367 8.12656 74.0096 8.0808 74.2825 8.03503C74.3317 8.02751 74.3792 7.9999 74.4266 7.97675C74.6883 7.85497 74.9565 7.74006 75.2118 7.60698C75.3044 7.55838 75.3673 7.45996 75.4517 7.38887C75.5794 7.28114 75.7134 7.18472 75.839 7.07471C75.9006 7.02078 75.9602 6.96012 76.0065 6.89463C76.1694 6.64541 76.3278 6.39606 76.4819 6.14214C76.5216 6.07424 76.5461 5.99478 76.5662 5.9152C76.5913 5.8135 76.6053 5.70926 76.6216 5.6073C76.6459 5.45437 76.6921 5.31541 76.6144 5.15071C76.5343 4.98816 76.7258 4.59058 76.9185 4.4691C77.0046 4.41363 77.1058 4.37863 77.2044 4.35469C77.2493 4.34259 77.3083 4.38209 77.359 4.3991C77.3421 4.44538 77.3361 4.50309 77.3061 4.5401C77.2089 4.67095 77.1031 4.79265 77.0016 4.91892C76.9092 5.03654 76.8657 5.15999 76.8701 5.32041C76.8782 5.58557 76.8417 5.85393 76.8187 6.11821C76.8154 6.15597 76.7936 6.21992 76.7645 6.22578C76.5357 6.28614 76.5598 6.53616 76.4314 6.67059C76.3764 6.72692 76.3473 6.81071 76.3074 6.88305C76.3137 6.89881 76.3199 6.91457 76.3283 6.93262C76.4788 6.88564 76.6421 6.85684 76.78 6.78279C76.9179 6.70875 77.0549 6.66584 77.1979 6.72552C77.5962 6.89033 77.8959 7.16146 78.0467 7.57756C78.057 7.60679 78.065 7.63819 78.073 7.66958C78.1421 7.98543 78.1042 8.06451 77.8155 8.19888C77.7343 8.23667 77.651 8.26773 77.572 8.30781C77.38 8.40705 77.2654 8.36376 77.1732 8.1608C77.1374 8.08632 77.0836 8.02025 77.0344 7.94985C77.0141 7.96041 76.9937 7.97097 76.9755 7.98382C76.9917 8.04215 77.0034 8.10037 77.0242 8.15438C77.0426 8.21056 77.0723 8.26482 77.068 8.33817C77.0248 8.29243 76.9839 8.24008 76.936 8.20311C76.9011 8.17541 76.8525 8.16514 76.8106 8.14838C76.825 8.19108 76.8324 8.24472 76.8559 8.27878C76.9053 8.34473 76.9661 8.39987 77.0504 8.48906C76.8647 8.44377 76.7739 8.26534 76.578 8.34666C76.6609 8.40688 76.7461 8.46493 76.8243 8.53392C76.8612 8.56835 76.8773 8.62669 76.9005 8.67409C76.8453 8.65695 76.7854 8.64859 76.7395 8.61836C76.6697 8.56742 76.6139 8.49461 76.5419 8.44138C76.5026 8.41356 76.4448 8.41194 76.3941 8.39493C76.3825 8.41019 76.3708 8.42989 76.3593 8.44515C76.4176 8.5069 76.4759 8.5731 76.5365 8.63269C76.5538 8.65099 76.5873 8.6497 76.6046 8.668C76.6501 8.71158 76.6932 8.76177 76.7319 8.81183C76.7384 8.81869 76.7085 8.85125 76.6968 8.87096C76.6466 8.83615 76.5962 8.8058 76.5483 8.76883C76.496 8.72729 76.4509 8.67036 76.3939 8.63759C76.3633 8.61892 76.3094 8.63521 76.2671 8.63625C76.2771 8.67438 76.2759 8.71887 76.2996 8.74403C76.3622 8.8148 76.4341 8.87248 76.5035 8.93677C76.4325 9.00824 76.4348 9.00608 76.3155 8.89364C76.2591 8.83862 76.1914 8.79442 76.1174 8.73445C76.098 8.94764 76.1863 9.05475 76.4051 9.11211C76.2891 9.35597 76.1753 9.60212 76.0485 9.83899C76.0321 9.86748 75.9472 9.87845 75.9008 9.86601C75.5799 9.79688 75.3313 9.61179 75.1314 9.35905C75.0347 9.23389 74.9473 9.09563 74.8801 8.95126C74.7983 8.77308 74.783 8.60568 74.948 8.43666C75.0556 8.3306 75.0563 8.14806 75.0481 7.96527ZM75.886 7.45896C75.968 7.47239 76.0305 7.46969 76.0743 7.49319C76.1577 7.53561 76.2312 7.53545 76.2318 7.43528C76.2334 7.29952 76.3191 7.33977 76.3662 7.32551C76.4116 7.37354 76.4462 7.41014 76.4787 7.44444C76.5132 7.40311 76.5677 7.36457 76.5757 7.31804C76.5893 7.2316 76.5763 7.13995 76.5751 7.02415C76.4719 7.05242 76.3955 7.07699 76.3126 7.0947C76.1267 7.13623 76.0305 7.38732 75.7966 7.31396C75.79 7.31155 75.7737 7.33558 75.7624 7.34194C75.4427 7.54891 75.2847 7.86283 75.2032 8.23011C75.2714 8.25651 75.3499 8.3166 75.4235 8.31199C75.5104 8.30776 75.5901 8.24543 75.6758 8.20777C75.6391 8.16444 75.6048 8.11895 75.5532 8.05516C75.5605 8.03088 75.5732 7.97557 75.5784 7.94901C75.65 7.93766 75.7036 7.93026 75.7572 7.92286C75.732 7.86872 75.7091 7.81242 75.6777 7.74252C75.6974 7.67629 75.7385 7.63737 75.8329 7.68677C75.8637 7.701 75.9085 7.6889 75.9464 7.68774C75.9409 7.64528 75.9399 7.60295 75.9321 7.56266C75.9349 7.5427 75.9198 7.52669 75.886 7.45896ZM75.3098 8.55369C75.243 8.55627 75.1612 8.53393 75.1202 8.5684C75.07 8.61151 75.0275 8.69937 75.0256 8.76611C75.0267 8.96428 75.1291 9.123 75.2677 9.26047C75.3197 9.31092 75.3832 9.35055 75.442 9.3945C75.4536 9.37924 75.4675 9.36182 75.4769 9.34427C75.4377 9.312 75.3984 9.28418 75.3661 9.24543C75.2972 9.16334 75.217 9.08317 75.1708 8.98392C75.0595 8.74703 75.0835 8.68536 75.3098 8.55369ZM77.6352 7.24763C77.5641 7.08534 77.4041 6.99402 77.2461 6.91388C77.1473 6.86436 77.0251 6.85424 76.9137 6.85557C76.8782 6.85457 76.8315 6.92895 76.8079 6.97727C76.7984 6.99926 76.8395 7.04272 76.8586 7.07665C76.8721 6.91228 76.9661 6.89266 77.0628 6.9399C77.2562 7.02994 77.4445 7.14209 77.6352 7.24763ZM76.9673 4.71313C76.9563 4.70615 76.9455 4.69471 76.9346 4.68773C76.8434 4.76531 76.715 4.81736 76.7451 5.01412C76.8307 4.89853 76.8979 4.80469 76.9673 4.71313Z" fill="black"/>
<path d="M83.4762 4.58437C83.3567 4.48083 83.3194 4.62003 83.2492 4.66036C83.0274 4.78771 82.81 4.91963 82.5884 5.04253C82.4392 5.12293 82.2424 5.15303 82.1346 5.26799C81.9005 5.51521 81.6966 5.7989 81.5039 6.08068C81.2741 6.41485 81.0661 6.76744 80.8516 7.11316C80.6346 7.4655 80.4155 7.81555 80.2096 8.17043C80.0787 8.39383 79.9697 8.62676 79.8497 8.85715C79.8321 8.84775 79.8168 8.84064 79.7992 8.83124C80.1139 8.16997 80.4132 7.50158 80.7827 6.87079C81.1546 6.23338 81.5483 5.60995 82.0628 5.05002C81.9658 5.01612 81.8315 4.96115 81.7858 5.00439C81.6212 5.1556 81.4652 5.32042 81.3441 5.50848C81.0206 6.00921 80.7146 6.51934 80.4108 7.03176C80.1372 7.49828 79.9339 7.99794 79.81 8.52654C79.7795 8.65926 79.7382 8.785 79.6989 8.91303L79.6364 8.92017C79.62 8.87073 79.5881 8.81863 79.5938 8.77426C79.6072 8.69227 79.6472 8.61547 79.6761 8.53614C79.8477 8.05785 80.0147 7.57943 80.1862 7.10114C80.2418 6.94464 80.3283 6.79791 80.3707 6.63658C80.4203 6.45542 80.4457 6.26689 80.4576 6.07799C80.4734 5.83354 80.4625 5.58834 80.4649 5.34351C80.4427 5.34289 80.4183 5.33998 80.396 5.33935C80.3478 5.5495 80.2996 5.75964 80.2536 5.97207C80.0781 6.74858 79.7419 7.4649 79.454 8.2004C79.3893 8.36556 79.2554 8.53544 79.4037 8.7244C79.4323 8.73633 79.4607 8.75717 79.4797 8.7911C79.5841 8.961 79.7679 9.07303 79.9041 9.21712C79.902 9.21483 79.8998 9.21254 79.8999 9.20809C80.0485 9.14993 80.1673 9.11988 80.267 9.06034C80.3984 8.97943 80.5258 8.8806 80.6379 8.77466C80.9372 8.50034 81.2452 8.23516 81.5185 7.93783C81.7047 7.73156 81.8453 7.48171 81.9945 7.24102C82.2277 6.86464 82.4808 6.49551 82.6701 6.09564C82.8097 5.80346 82.9706 5.54306 83.2147 5.33396C83.1978 5.38024 83.1874 5.43338 83.1617 5.47496C83.0379 5.68298 82.8964 5.88605 82.7835 6.10105C82.6517 6.3556 82.5462 6.62425 82.4188 6.87892C82.3386 7.03696 82.2343 7.18319 82.1386 7.34302C82.5945 7.28014 82.9999 7.11343 83.3615 6.8453C83.4729 6.76161 83.5715 6.65974 83.6766 6.56474C83.8639 6.39635 83.91 6.17947 83.8879 5.93618C83.8514 5.57226 83.7476 5.22427 83.6331 4.86484C83.5853 4.90134 83.5602 4.92068 83.4987 4.97015C83.6053 4.82176 83.5826 4.67864 83.4762 4.58437ZM83.2191 5.33409C83.2168 5.33625 83.2168 5.33625 83.2191 5.33409C82.9655 5.48726 82.6935 5.5798 82.405 5.62735C82.2171 5.65769 82.1613 5.82309 82.1172 5.96434C81.9383 6.54928 81.6647 7.09372 81.3191 7.58937C81.043 7.98458 80.6992 8.33558 80.3729 8.69598C80.2557 8.82849 80.1103 8.93126 79.9735 9.04764C79.9324 9.08211 79.8828 9.10298 79.8376 9.12842C79.8312 9.11711 79.8227 9.10351 79.8141 9.09436C79.8641 9.0557 79.9185 9.02161 79.9641 8.98281C80.3 8.67834 80.6425 8.37183 80.8827 7.98453C81.2255 7.4309 81.551 6.86344 81.8741 6.29813C81.9631 6.14034 82.0149 5.96146 82.0864 5.79427C82.1792 5.58093 82.3335 5.4784 82.575 5.44066C82.9148 5.38787 83.2326 5.25209 83.4827 4.98529C83.4981 5.15269 83.4218 5.25073 83.2191 5.33409Z" fill="white"/>
<path d="M83.2623 4.51377C83.0052 4.70914 82.6716 4.93353 82.2607 4.97987C82.1356 4.99416 81.9972 4.93016 81.8667 4.89755C81.8401 4.89235 81.801 4.86008 81.8016 4.83784C81.7926 4.60382 81.69 4.37163 81.8103 4.13234C82.0578 3.64283 82.3838 3.21341 82.7447 2.80723C82.8322 2.70728 82.9522 2.63273 83.0656 2.56023C83.0951 2.54102 83.1814 2.55903 83.2006 2.58851C83.4958 3.01535 83.5758 3.49848 83.5215 4.00455C83.4888 4.29528 83.4755 4.29491 83.2623 4.51377Z" fill="white"/>
<path d="M72.4298 15.1784C72.3217 15.064 72.2149 14.9831 72.149 14.8721C72.0703 14.743 72.1518 14.614 72.2478 14.5276C72.4123 14.3764 72.5941 14.2435 72.7695 14.1037C72.7541 14.0966 72.7387 14.0895 72.7233 14.0824C72.7476 14.0118 72.7544 13.9274 72.7984 13.8685C73.0024 13.5804 73.299 13.4039 73.5891 13.2206C73.8907 13.0265 74.1945 12.8302 74.5132 12.6588C74.8659 12.4684 75.2269 12.296 75.5922 12.1326C75.9688 11.9628 76.3514 11.8133 76.7364 11.6616C76.912 11.5908 76.9447 11.6162 77.0333 11.7924C77.0543 11.8375 77.0775 11.8804 77.1136 11.946C76.9206 11.9206 76.7521 11.8936 76.5855 11.8822C76.5344 11.8785 76.4734 11.9102 76.428 11.9401C76.0035 12.2332 75.5896 12.5421 75.1566 12.8172C74.8619 13.0048 74.5376 13.1382 74.2301 13.3076C74.1486 13.3543 74.0664 13.4277 74.0218 13.5088C73.7982 13.9411 73.4355 14.2493 73.0815 14.5666C72.8646 14.7587 72.6608 14.96 72.4298 15.1784Z" fill="white"/>
<path d="M83.1653 2.34048C82.8413 2.46051 82.6673 2.71164 82.485 2.94028C82.3465 3.11449 82.2341 3.3117 82.1152 3.50205C82.008 3.67269 81.9073 3.85019 81.8044 4.0254C81.7882 4.04944 81.7676 4.06889 81.716 4.08303C81.7289 3.94091 81.7462 3.79891 81.762 3.63238C81.7211 3.6624 81.7054 3.66864 81.7052 3.67309C81.7073 3.99596 81.5536 4.23653 81.3835 4.50559C81.2089 4.77897 80.9988 4.96453 80.7361 5.12189C80.6637 5.16439 80.6082 5.23852 80.5373 5.30554C80.5024 5.122 80.4651 4.94508 80.6209 4.78471C80.7424 4.66123 80.8421 4.51932 80.9635 4.40028C81.0276 4.33529 81.1265 4.30245 81.1993 4.24661C81.2584 4.20375 81.3155 4.15415 81.355 4.09515C81.4782 3.90937 81.6014 3.7236 81.7071 3.52843C81.7565 3.43408 81.7642 3.31853 81.7917 3.21022C81.842 3.00681 81.8988 2.80581 81.9424 2.59999C81.9578 2.52918 81.9555 2.45342 81.9509 2.37982C81.946 2.31512 81.8971 2.23138 81.9228 2.1898C81.9764 2.10448 82.0563 2.03326 82.1383 1.96877C82.2657 1.86994 82.3997 1.77797 82.5335 1.69046C82.597 1.64772 82.6714 1.61641 82.7433 1.59172C82.8781 1.54653 82.9702 1.59809 83.0065 1.73269C83.0653 1.93694 83.1132 2.1342 83.1653 2.34048Z" fill="white"/>
<path d="M83.2816 7.86496C83.1682 8.01539 83.0722 8.18412 82.935 8.31384C82.6469 8.58181 82.3543 8.8541 82.0276 9.072C81.6963 9.29423 81.3223 9.45292 80.9654 9.63435C80.9112 9.66399 80.8464 9.6733 80.7859 9.68719C80.4409 9.76209 80.3992 9.74088 80.2746 9.42125C80.2643 9.39201 80.2883 9.33035 80.3155 9.31331C80.7114 9.0083 81.0966 8.69185 81.5097 8.40959C81.6708 8.30058 81.8855 8.26654 82.0809 8.20746C82.476 8.08944 82.8709 7.98032 83.2816 7.86496Z" fill="white"/>
<path d="M75.3958 14.7653C75.8205 13.7532 76.3939 12.8387 77.199 12.0732C77.245 12.1034 77.2647 12.1151 77.2865 12.1291C77.3693 12.1938 77.5211 12.2581 77.5259 12.3273C77.5332 12.4633 77.482 12.6199 77.4184 12.745C77.1809 13.1948 76.8975 13.6142 76.5205 13.9576C76.2326 14.2212 75.9275 14.4619 75.6244 14.7094C75.5742 14.7526 75.5069 14.7729 75.4459 14.8046C75.4285 14.7908 75.411 14.7769 75.3958 14.7653Z" fill="white"/>
<path d="M72.9196 15.4171C72.801 15.3603 72.6801 15.3057 72.5307 15.2347C72.7137 15.0617 72.8739 14.9059 73.0362 14.7569C73.267 14.543 73.5195 14.3519 73.7265 14.1173C73.8829 13.9391 74.1115 13.8053 74.1547 13.5349C74.1598 13.5128 74.2114 13.4987 74.2409 13.4794C74.7797 13.1606 75.3185 12.8418 75.8553 12.5163C76.0863 12.3759 76.3088 12.2218 76.5377 12.0791C76.5808 12.0514 76.6366 12.0462 76.6837 12.032C76.6901 12.0433 76.6986 12.0569 76.705 12.0682C76.5788 12.2005 76.4505 12.3304 76.3286 12.4673C75.9148 12.9321 75.4474 13.3263 74.8874 13.6045C74.7633 13.6656 74.6537 13.7604 74.5273 13.8237C74.446 13.8659 74.3304 13.8582 74.2599 13.9119C74.0822 14.0538 73.9088 14.2048 73.7571 14.3742C73.5113 14.6456 73.2828 14.9308 73.0523 15.2137C73.0083 15.2726 72.9754 15.334 72.9196 15.4171Z" fill="white"/>
<path d="M72.861 13.6232C72.8069 13.566 72.7638 13.5158 72.7139 13.4677C72.573 13.3324 72.5745 13.279 72.7252 13.1452C73.0359 12.8645 73.4019 12.6744 73.7785 12.5047C74.3083 12.268 74.8338 12.0267 75.3676 11.808C75.71 11.6662 76.0627 11.5537 76.4157 11.4278C76.4202 11.35 76.4359 11.3438 76.517 11.3883C76.5894 11.4282 76.6687 11.4572 76.7428 11.5127C75.3754 12.0865 74.0192 12.6539 72.861 13.6232Z" fill="white"/>
<path d="M70.78 14.7068C70.9276 14.524 71.0685 14.3431 71.2205 14.1649C71.4785 13.856 71.8265 13.6743 72.1786 13.5016C72.3615 13.411 72.5273 13.4535 72.6365 13.6058C72.7008 13.6966 72.7541 13.7805 72.6224 13.8703C72.5907 13.8917 72.5929 13.9719 72.5825 14.025C72.5722 14.0737 72.5834 14.1497 72.5538 14.1734C72.2373 14.425 71.9463 14.7173 71.5444 14.8374C71.3446 14.8963 70.9744 14.8392 70.78 14.7068Z" fill="white"/>
<path d="M74.4448 15.2529C74.4896 15.085 74.5169 14.9076 74.588 14.7538C74.7257 14.4504 74.8591 14.138 75.047 13.8695C75.1954 13.6599 75.4332 13.513 75.6275 13.3337C75.7692 13.2041 75.9132 13.0723 76.044 12.9313C76.2439 12.712 76.4329 12.4813 76.6306 12.2598C76.7823 12.0904 76.7889 12.0928 77.074 12.0875C77.0077 12.1502 76.9552 12.1955 76.9071 12.2453C76.4504 12.729 76.0309 13.2381 75.7007 13.8188C75.5461 14.0905 75.3782 14.3619 75.2788 14.6507C75.2037 14.869 75.1191 15.0269 74.8965 15.1031C74.7571 15.1526 74.6195 15.2177 74.4843 15.2763C74.4733 15.2693 74.4602 15.26 74.4448 15.2529Z" fill="white"/>
<path d="M73.9195 12.2414C73.5965 12.4082 73.2985 12.5557 73.0111 12.719C72.7826 12.8484 72.5906 13.0256 72.4463 13.2486C72.4138 13.2967 72.3505 13.3305 72.2942 13.3534C72.1703 13.4056 72.038 13.4397 71.9141 13.4919C71.7789 13.5504 71.6584 13.5604 71.5529 13.4306C71.5013 13.3668 71.4268 13.3246 71.3441 13.2555C71.4736 13.0855 71.5984 12.9198 71.7255 12.7564C71.7393 12.739 71.7707 12.7309 71.793 12.7316C72.0536 12.7278 72.2705 12.6136 72.4944 12.4886C72.6324 12.4101 72.8071 12.3749 72.968 12.3527C73.2676 12.3077 73.58 12.2809 73.9195 12.2414Z" fill="white"/>
<path d="M73.0644 15.4145C73.2327 15.2077 73.385 15.0161 73.5462 14.8247C73.6982 14.6464 73.8524 14.466 74.0173 14.3014C74.1319 14.1844 74.2291 14.0536 74.434 14.0504C74.5521 14.0471 74.6647 13.9233 74.7825 13.8509C74.8256 13.8232 74.8709 13.7933 74.9421 13.7953C74.8696 13.9202 74.8058 14.0497 74.7268 14.1677C74.5108 14.4889 74.3981 14.8553 74.2876 15.2196C74.2752 15.266 74.231 15.3337 74.1974 15.3395C73.8512 15.381 73.5007 15.4134 73.1526 15.4437C73.1324 15.4498 73.115 15.436 73.0644 15.4145Z" fill="white"/>
<path d="M71.4735 12.3709C73.0381 11.914 74.6366 11.6762 76.238 11.4139C76.1817 11.4368 76.1254 11.4597 76.0692 11.4782C76.0108 11.4988 75.9501 11.5172 75.8895 11.5355C75.4444 11.6877 74.9974 11.8288 74.5543 11.9922C74.1538 12.1412 73.737 12.1585 73.3222 12.1824C73.2531 12.1872 73.186 12.1986 73.1195 12.1879C72.8756 12.1499 72.679 12.2534 72.471 12.3678C72.2923 12.4674 72.0878 12.5351 71.8904 12.5875C71.7087 12.638 71.5355 12.5419 71.4735 12.3709Z" fill="white"/>
<path d="M83.851 6.61644C83.7582 7.068 83.612 7.43569 83.1807 7.65288C82.7154 7.88915 82.228 8.04242 81.7218 8.15287C81.621 8.17453 81.5317 8.2633 81.4235 8.30924C81.4466 8.27872 81.4741 8.25277 81.4927 8.22213C81.6249 8.03661 81.7657 7.85578 81.8848 7.66098C81.9432 7.56244 82.0109 7.52872 82.116 7.51164C82.5675 7.44864 82.9479 7.22334 83.3221 6.97783C83.4944 6.8669 83.658 6.75128 83.851 6.61644Z" fill="white"/>
<path d="M70.6236 13.4646C70.4412 13.7756 70.2633 14.0823 70.0599 14.4305C69.7814 14.278 69.4983 14.1342 69.2312 13.9709C69.1963 13.9476 69.1893 13.7983 69.224 13.7525C69.3761 13.5698 69.5477 13.4032 69.7172 13.2343C69.7355 13.217 69.7846 13.2139 69.8155 13.2237C70.0784 13.2956 70.3366 13.3764 70.6236 13.4646Z" fill="white"/>
<path d="M71.2779 12.4433C71.4107 12.5472 71.511 12.6257 71.6155 12.7088C71.2369 13.4262 70.7924 13.5562 69.8761 13.1274C70.3238 12.8038 70.8146 12.6084 71.2779 12.4433Z" fill="white"/>
<path d="M81.8374 2.29648C81.7609 2.95777 81.7315 3.44896 81.1892 4.13055C81.0428 4.03071 80.9798 4.13357 80.9077 4.24509C80.8424 4.35012 80.7618 4.44358 80.6659 4.52994C80.8981 3.71273 81.2093 2.93782 81.8374 2.29648Z" fill="white"/>
<path d="M71.5829 13.6274C71.2456 13.9853 70.9358 14.3128 70.6123 14.6532C70.5047 14.6034 70.375 14.5441 70.2101 14.4705C70.3315 14.2691 70.4459 14.0786 70.5581 13.8903C70.5815 13.8509 70.6159 13.814 70.6305 13.7699C70.73 13.4766 71.002 13.4619 71.2341 13.4418C71.3457 13.4315 71.4711 13.5642 71.5829 13.6274Z" fill="white"/>
<path d="M81.6618 4.34639C81.6791 4.52498 81.7197 4.66415 81.6961 4.79039C81.6777 4.89006 81.5817 4.98086 81.5124 5.06797C81.3092 5.32942 81.0971 5.58616 80.8982 5.85218C80.794 5.99396 80.7096 6.14743 80.5964 6.29341C80.6288 6.01158 80.4991 5.71407 80.6757 5.45187C80.7454 5.34697 80.8524 5.26315 80.9504 5.18353C81.0416 5.10594 81.1478 5.04882 81.2456 4.9781C81.3433 4.90738 81.4166 4.83374 81.4427 4.69644C81.466 4.57911 81.5711 4.4841 81.6618 4.34639Z" fill="white"/>
<path d="M75.3099 8.55371C75.0858 8.68322 75.0574 8.74476 75.173 8.98622C75.2193 9.08103 75.2995 9.1612 75.3683 9.24773C75.3984 9.2842 75.4422 9.31215 75.479 9.34658C75.4675 9.36184 75.4536 9.37926 75.4442 9.39681C75.3854 9.35285 75.3219 9.31322 75.2699 9.26278C75.1334 9.12759 75.031 8.96887 75.0278 8.76841C75.0275 8.69939 75.0677 8.6137 75.1224 8.5707C75.159 8.53611 75.2452 8.55857 75.3099 8.55371Z" fill="white"/>
<path d="M77.6352 7.24767C77.4445 7.14213 77.2583 7.03226 77.0628 6.93994C76.9661 6.8927 76.8721 6.91232 76.8586 7.07668C76.8395 7.04275 76.7984 6.9993 76.8079 6.9773C76.8294 6.9267 76.8782 6.8546 76.9138 6.8556C77.025 6.85873 77.1494 6.86668 77.2461 6.91392C77.4019 6.99177 77.5641 7.08538 77.6352 7.24767Z" fill="white"/>
<path d="M83.2215 5.33196C82.9678 5.48512 82.6936 5.57983 82.4006 5.62725C82.2127 5.65759 82.1569 5.823 82.1128 5.96424C81.9339 6.54918 81.6603 7.09362 81.3147 7.58928C81.0386 7.98448 80.6948 8.33548 80.3685 8.69588C80.2513 8.82839 80.1059 8.93117 79.9691 9.04754C79.928 9.08201 79.8785 9.10288 79.8332 9.12833C79.8268 9.11702 79.8183 9.10342 79.8097 9.09427C79.8597 9.0556 79.9141 9.02151 79.9597 8.98272C80.2956 8.67825 80.6381 8.37174 80.8783 7.98443C81.2212 7.43081 81.5466 6.86334 81.8697 6.29803C81.9587 6.14024 82.0105 5.96137 82.082 5.79418C82.1748 5.58083 82.3291 5.4783 82.5706 5.44057C82.9105 5.38778 83.2282 5.252 83.4783 4.98519C83.4935 5.15705 83.4173 5.25509 83.2146 5.33844C83.2192 5.33412 83.2215 5.33196 83.2215 5.33196Z" fill="black"/>
<path d="M76.9882 9.67401C77.1035 9.53476 77.2145 9.38649 77.3384 9.25639C77.6043 8.98335 77.8863 8.69073 78.2542 8.5942C78.6578 8.48978 79.054 8.57438 79.3695 8.91274C79.6699 9.23509 79.8824 9.59727 79.9592 10.0313C79.9995 10.2618 80.0864 10.4958 80.0689 10.7246C80.0351 11.1333 79.8929 11.5189 79.6059 11.8292C79.5485 11.8921 79.482 11.9593 79.3724 11.8983C79.3461 11.8842 79.2901 11.8982 79.2584 11.9151C78.876 12.1337 78.4694 12.1067 78.0665 12.0241C77.5286 11.9133 77.0826 11.6247 76.7723 11.1774C76.5627 10.8732 76.3902 10.5166 76.5923 10.1349C76.6863 9.95939 76.8352 9.80996 76.9577 9.65089C76.9686 9.65787 76.9796 9.66486 76.9882 9.67401ZM77.0258 11.111C77.3609 11.4655 78.0328 11.7182 78.5208 11.7029C78.8818 11.6908 79.1071 11.5168 79.2451 11.2001C79.3118 11.0461 79.3983 10.8994 79.4428 10.7404C79.5045 10.5262 79.5709 10.3032 79.5726 10.085C79.5751 9.51962 78.9984 9.04702 78.4885 9.20857C78.0459 9.34975 77.6646 9.61064 77.3649 9.97624C77.2127 10.1634 77.0714 10.3576 76.9323 10.5541C76.8999 10.5977 76.8827 10.6573 76.8744 10.7127C76.852 10.8768 76.9149 11.0166 77.0258 11.111Z" fill="black"/>
</svg>
