<svg width="44" height="44" viewBox="0 0 44 44" fill="none" xmlns="http://www.w3.org/2000/svg">
<path d="M0 0V44H44V0H0ZM36.5516 10.4266L34.1949 12.6899C34.0937 12.7641 34.0153 12.865 33.9684 12.9814C33.9215 13.0978 33.908 13.2249 33.9295 13.3485V29.9709C33.9078 30.0955 33.9211 30.2237 33.968 30.3412C34.0148 30.4587 34.0934 30.5609 34.1949 30.6364L36.4939 32.8996V33.3932H24.9067V32.8996L27.291 30.5786C27.5275 30.3421 27.5275 30.2775 27.5275 29.92V16.478L20.889 33.3355H19.9939L12.2664 16.478V27.7791C12.2017 28.2521 12.3599 28.732 12.6885 29.0758L15.796 32.8433V33.3369H6.99463V32.8433L10.1021 29.0758C10.4321 28.732 10.582 28.2521 10.4954 27.7791V14.7166C10.5155 14.5374 10.4922 14.356 10.4273 14.1877C10.3624 14.0195 10.258 13.8693 10.1228 13.75L7.36587 10.4266V9.92475H15.9308L22.5555 24.4557L28.3773 9.92475H36.5489L36.5516 10.4266Z" fill="#373E42"/>
</svg>
