<svg width="44" height="44" viewBox="0 0 44 44" fill="none" xmlns="http://www.w3.org/2000/svg">
<path d="M8.17485 7.7147C9.54251 8.8257 10.0558 8.74137 12.6262 8.56903L36.8537 7.1152C37.367 7.1152 36.9398 6.60187 36.7693 6.51753L32.7433 3.60803C31.9733 3.01037 30.9448 2.3247 28.9758 2.4952L5.51835 4.20753C4.66401 4.29187 4.49168 4.72087 4.83268 5.06187L8.17485 7.7147ZM9.62868 13.3614V38.852C9.62868 40.2215 10.3125 40.7349 11.8543 40.6487L38.4798 39.1087C40.0217 39.0244 40.194 38.082 40.194 36.9692V11.649C40.194 10.538 39.7668 9.93853 38.8227 10.0229L10.9982 11.649C9.97151 11.7352 9.62868 12.2485 9.62868 13.3595V13.3614ZM35.9132 14.7272C36.0837 15.4972 35.9132 16.2672 35.1432 16.3552L33.8598 16.6119V35.4292C32.7452 36.0287 31.7185 36.3715 30.8623 36.3715C29.491 36.3715 29.1482 35.9425 28.1215 34.661L19.7303 21.4867V34.232L22.385 34.8334C22.385 34.8334 22.385 36.3734 20.2437 36.3734L14.3367 36.7144C14.1662 36.3734 14.3367 35.5172 14.9362 35.3467L16.4762 34.9195V18.0657L14.3403 17.8934C14.168 17.1234 14.597 16.0124 15.7942 15.9262L22.1302 15.499L30.8642 28.8439V17.0372L28.6367 16.7824C28.4662 15.84 29.15 15.1562 30.0062 15.0719L35.9132 14.7272ZM3.54935 1.89753L27.951 0.100867C30.9467 -0.1558 31.7185 0.0147002 33.6013 1.3842L41.3912 6.85853C42.6745 7.79903 43.1035 8.0557 43.1035 9.08237V39.1087C43.1035 40.9897 42.4197 42.1044 40.0235 42.273L11.6838 43.9854C9.88718 44.0715 9.02918 43.8149 8.08685 42.6159L2.35035 35.1725C1.32368 33.803 0.896515 32.7782 0.896515 31.5792V4.88953C0.896515 3.35137 1.58218 2.0662 3.54935 1.89753Z" fill="#373E42"/>
</svg>
