<svg width="1018" height="384" viewBox="0 0 1018 384" fill="none" xmlns="http://www.w3.org/2000/svg">
<path d="M197.889 343.959L149.635 211.761H193.762L227.095 302.012L260.746 211.125L315.349 211.443L348.047 301.694H349.635L382.016 211.443H426.778L378.748 342.48L492.809 208.583H548.682L634.397 309.321L675.984 275L546.143 166.635H611.857L821.381 341.099H755.667L709 301.694L662.016 341.099H606.143C597.36 330.718 579.73 309.956 579.476 309.956H487.095L510.27 282.627H556.619L520.746 241.315L399.476 383.364H343.92L377.488 343.959H319.794L288.047 258.475L256.301 343.959H197.889Z" fill="#272A2C"/>
<path d="M149.635 211.761L197.889 343.959H256.301L288.047 258.475L319.794 343.959H378.206L426.778 211.443H382.016L349.635 301.694H348.047L315.349 211.443L260.746 211.125L227.095 302.012L193.762 211.761H149.635ZM343.92 383.364L492.809 208.583H548.682L634.397 309.321L675.984 275L546.143 166.635H611.857L821.381 341.099H755.667L709 301.694L662.016 341.099H606.143C597.36 330.718 579.73 309.956 579.476 309.956C579.222 309.956 517.783 309.956 487.095 309.956L510.27 282.627H556.619L520.746 241.315L399.476 383.364H343.92Z" stroke="#272A2C"/>
<path d="M755.984 266.102L722.651 238.137L754.397 211.443H820.429L755.984 266.102Z" fill="#F78E1E" stroke="#F78E1E"/>
<path d="M839.939 213.062H835.52V225.108H832.543V213.062H828.174V210.649H839.939V213.062ZM845.539 210.649L849.247 221.136L852.936 210.649H856.847V225.108H853.863V221.155L854.155 214.333L850.257 225.108H848.219L844.327 214.343L844.625 221.155V225.108H841.647V210.649H845.539Z" fill="#272A2C"/>
<path d="M41.6953 64.0449V93H35.6895V21.9062H59.9082C67.2975 21.9062 73.1243 23.7943 77.3887 27.5703C81.6855 31.3464 83.834 36.5384 83.834 43.1465C83.834 49.8197 81.7669 54.9792 77.6328 58.625C73.5312 62.2383 67.5742 64.0449 59.7617 64.0449H41.6953ZM41.6953 58.9668H59.9082C65.735 58.9668 70.1784 57.5833 73.2383 54.8164C76.2982 52.0495 77.8281 48.1921 77.8281 43.2441C77.8281 38.3288 76.2982 34.4225 73.2383 31.5254C70.2109 28.5957 65.8978 27.0983 60.2988 27.0332H41.6953V58.9668ZM189.85 61.3105C189.85 67.8535 188.71 73.599 186.432 78.5469C184.186 83.4948 180.963 87.3034 176.764 89.9727C172.564 92.6419 167.714 93.9766 162.213 93.9766C153.912 93.9766 147.206 91.0143 142.096 85.0898C136.985 79.1328 134.43 71.1087 134.43 61.0176V53.6934C134.43 47.2155 135.569 41.4863 137.848 36.5059C140.159 31.4928 143.414 27.6517 147.613 24.9824C151.812 22.2806 156.646 20.9297 162.115 20.9297C167.584 20.9297 172.402 22.248 176.568 24.8848C180.768 27.5215 184.007 31.2487 186.285 36.0664C188.564 40.8841 189.752 46.4668 189.85 52.8145V61.3105ZM183.844 53.5957C183.844 45.0345 181.907 38.3288 178.033 33.4785C174.16 28.6283 168.854 26.2031 162.115 26.2031C155.507 26.2031 150.234 28.6445 146.295 33.5273C142.389 38.3776 140.436 45.1647 140.436 53.8887V61.3105C140.436 69.7415 142.389 76.431 146.295 81.3789C150.201 86.2943 155.507 88.752 162.213 88.752C169.016 88.752 174.322 86.3268 178.131 81.4766C181.939 76.5938 183.844 69.8066 183.844 61.1152V53.5957ZM258.121 73.8105L260.318 84.8457L263.004 74.2988L278.434 21.9062H283.854L299.088 74.2988L301.725 84.9434L304.068 73.8105L316.91 21.9062H323.062L304.85 93H299.088L282.975 37.3848L281.168 30.3535L279.41 37.3848L262.906 93H257.145L238.98 21.9062H245.133L258.121 73.8105ZM413.893 58.918H380.641V87.9219H418.873V93H374.635V21.9062H418.629V27.0332H380.641V53.8398H413.893V58.918ZM498.131 63.4102H477.477V93H471.422V21.9062H494.518C502.102 21.9062 508.027 23.7454 512.291 27.4238C516.555 31.1022 518.688 36.2454 518.688 42.8535C518.688 47.4108 517.353 51.431 514.684 54.9141C512.014 58.3971 508.434 60.806 503.941 62.1406L521.715 92.3652V93H515.318L498.131 63.4102ZM477.477 58.2832H495.885C500.93 58.2832 504.983 56.8509 508.043 53.9863C511.103 51.1217 512.633 47.4108 512.633 42.8535C512.633 37.8405 511.038 33.9505 507.848 31.1836C504.658 28.4167 500.182 27.0332 494.42 27.0332H477.477V58.2832ZM614.303 58.918H581.051V87.9219H619.283V93H575.045V21.9062H619.039V27.0332H581.051V53.8398H614.303V58.918ZM671.979 93V21.9062H691.852C697.678 21.9062 702.903 23.2409 707.525 25.9102C712.148 28.5469 715.745 32.3392 718.316 37.2871C720.921 42.235 722.223 47.8665 722.223 54.1816V60.7246C722.223 67.0723 720.937 72.7038 718.365 77.6191C715.794 82.5345 712.164 86.3268 707.477 88.9961C702.822 91.6654 697.467 93 691.412 93H671.979ZM677.984 27.0332V87.9219H691.461C698.948 87.9219 704.954 85.4479 709.479 80.5C714.003 75.5195 716.266 68.7975 716.266 60.334V54.084C716.266 45.9134 714.036 39.3704 709.576 34.4551C705.117 29.5397 699.241 27.0658 691.949 27.0332H677.984ZM841.822 93V21.9062H862.818C870.436 21.9062 876.214 23.485 880.152 26.6426C884.091 29.7676 886.061 34.39 886.061 40.5098C886.061 44.1882 885.051 47.3945 883.033 50.1289C881.048 52.8307 878.313 54.7676 874.83 55.9395C878.964 56.8509 882.285 58.8854 884.791 62.043C887.33 65.2005 888.6 68.8464 888.6 72.9805C888.6 79.263 886.565 84.1784 882.496 87.7266C878.46 91.2422 872.828 93 865.602 93H841.822ZM847.828 58.8203V87.9219H865.846C870.989 87.9219 875.058 86.6198 878.053 84.0156C881.08 81.3789 882.594 77.7331 882.594 73.0781C882.594 68.6836 881.145 65.2168 878.248 62.6777C875.383 60.1061 871.412 58.8203 866.334 58.8203H847.828ZM847.828 53.791H864.234C869.247 53.6934 873.121 52.5215 875.855 50.2754C878.622 47.9967 880.006 44.6927 880.006 40.3633C880.006 35.806 878.574 32.4531 875.709 30.3047C872.877 28.1237 868.58 27.0332 862.818 27.0332H847.828V53.791ZM961.266 60.6758L982.994 21.9062H989.928L964.244 66.2422V93H958.238V66.2422L932.604 21.9062H939.732L961.266 60.6758Z" fill="#272A2C"/>
</svg>
